<svg width="334" height="42" viewBox="0 0 334 42" fill="none" xmlns="http://www.w3.org/2000/svg">
<path d="M20.3975 24.55C20.3975 24.55 20.3475 24.7667 20.2475 25.2C20.1475 25.6333 19.9308 26.1667 19.5975 26.8C19.2641 27.4333 18.7475 28.0833 18.0475 28.75C17.3808 29.3833 16.4641 29.9167 15.2975 30.35C14.1308 30.7833 12.6641 31 10.8975 31C8.76413 31 7.01413 30.6667 5.64746 30C4.31413 29.3333 3.26413 28.4333 2.49746 27.3C1.73079 26.1333 1.18079 24.85 0.847461 23.45C0.514128 22.0167 0.314128 20.5333 0.247461 19C0.214128 17.4667 0.230794 15.9833 0.297461 14.55C0.364128 13.0833 0.414128 11.7667 0.447461 10.6C0.480794 8.83333 0.797461 7.41667 1.39746 6.35C2.03079 5.25 2.79746 4.41667 3.69746 3.85C4.63079 3.25 5.59746 2.83333 6.59746 2.6C7.59746 2.36666 8.49746 2.23333 9.29746 2.2C10.9308 2.1 12.5808 2.38333 14.2475 3.05C15.9141 3.71667 17.2641 4.95 18.2975 6.75C18.8308 7.65 18.9808 8.36667 18.7475 8.9C18.5475 9.4 18.1641 9.76667 17.5975 10C17.0641 10.2333 16.5141 10.3833 15.9475 10.45C15.3808 10.5167 15.0141 10.55 14.8475 10.55C13.7808 10.55 12.9641 10.4 12.3975 10.1C11.8641 9.8 11.4808 9.45 11.2475 9.05C11.0475 8.61667 10.9475 8.23333 10.9475 7.9C10.9475 7.63333 10.8641 7.36667 10.6975 7.1C10.5641 6.8 10.3808 6.6 10.1475 6.5C9.94746 6.4 9.73079 6.51667 9.49746 6.85C9.29746 7.18333 9.13079 7.83333 8.99746 8.8C8.89746 9.56666 8.8308 10.5833 8.79746 11.85C8.79746 13.0833 8.81413 14.4 8.84746 15.8C8.88079 17.1667 8.91413 18.4667 8.94746 19.7C9.01413 20.9333 9.06413 21.95 9.09746 22.75C9.16413 23.5167 9.19746 23.9 9.19746 23.9C9.19746 23.9 9.23079 24.15 9.29746 24.65C9.39746 25.15 9.58079 25.65 9.84746 26.15C10.1475 26.65 10.5808 26.9167 11.1475 26.95C11.5808 26.9833 11.9141 26.85 12.1475 26.55C12.4141 26.2167 12.5975 25.85 12.6975 25.45C12.8308 25.0167 12.9141 24.65 12.9475 24.35C12.9808 24.0167 12.9975 23.85 12.9975 23.85C12.9975 23.85 12.9808 23.7167 12.9475 23.45C12.9475 23.1833 13.0308 22.8833 13.1975 22.55C13.3641 22.1833 13.7141 21.8833 14.2475 21.65C14.7808 21.3833 15.5975 21.2667 16.6975 21.3C17.7975 21.3333 18.6141 21.5167 19.1475 21.85C19.6808 22.15 20.0308 22.5167 20.1975 22.95C20.3641 23.35 20.4308 23.7167 20.3975 24.05C20.3975 24.3833 20.3975 24.55 20.3975 24.55ZM32.4131 10.35C34.0798 10.3167 35.4964 10.4667 36.6631 10.8C37.8298 11.1 38.7964 11.4667 39.5631 11.9C40.3298 12.3333 40.9298 12.7167 41.3631 13.05C41.7964 13.3833 42.1131 13.55 42.3131 13.55C42.6798 13.5833 42.9464 13.7667 43.1131 14.1C43.2798 14.4 43.3631 14.55 43.3631 14.55C43.3631 14.55 43.4131 14.8833 43.5131 15.55C43.6131 16.2167 43.7298 17.0667 43.8631 18.1C44.0298 19.1333 44.1798 20.2167 44.3131 21.35C44.4464 22.4833 44.5631 23.55 44.6631 24.55C44.7631 25.55 44.8131 26.3333 44.8131 26.9C44.8131 27.8333 44.7464 28.5833 44.6131 29.15C44.5131 29.7167 44.1798 30.15 43.6131 30.45C43.0464 30.7167 42.1131 30.9 40.8131 31C39.8464 31.0667 39.1464 31.05 38.7131 30.95C38.2798 30.85 38.0131 30.7333 37.9131 30.6C37.8131 30.4667 37.7631 30.4 37.7631 30.4C37.4631 30.6333 36.9631 30.8 36.2631 30.9C35.5964 30.9667 34.9631 31 34.3631 31C33.7631 31 33.4631 31 33.4631 31C33.4631 31 33.0798 30.95 32.3131 30.85C31.5464 30.7167 30.5964 30.4667 29.4631 30.1C28.3631 29.7 27.2464 29.1167 26.1131 28.35C25.0131 27.55 24.0964 26.5 23.3631 25.2C22.6298 23.8667 22.2798 22.2167 22.3131 20.25C22.3464 18.2833 22.7131 16.6833 23.4131 15.45C24.1131 14.1833 24.9631 13.2 25.9631 12.5C26.9631 11.8 27.9464 11.3 28.9131 11C29.9131 10.7 30.7464 10.5167 31.4131 10.45C32.0798 10.3833 32.4131 10.35 32.4131 10.35ZM36.1631 15.5C35.9964 15.2667 35.6298 15.0167 35.0631 14.75C34.5298 14.45 34.0131 14.2 33.5131 14C33.0464 13.8 32.8131 13.7333 32.8131 13.8C32.8131 13.8333 32.6298 14.1167 32.2631 14.65C31.9298 15.15 31.5798 15.9 31.2131 16.9C30.8798 17.8667 30.6964 19.0333 30.6631 20.4C30.6298 21.7667 30.8131 22.95 31.2131 23.95C31.6131 24.95 32.0964 25.7167 32.6631 26.25C33.2631 26.7833 33.8131 27.05 34.3131 27.05C34.6798 27.05 35.0298 26.8833 35.3631 26.55C35.6964 26.1833 35.9798 25.7833 36.2131 25.35C36.4464 24.8833 36.6298 24.4833 36.7631 24.15C36.8964 23.8167 36.9631 23.65 36.9631 23.65L36.1631 15.5ZM47.1189 3.7C47.0856 2.86667 47.3356 2.2 47.8689 1.7C48.4023 1.16666 49.5856 0.849998 51.4189 0.749999C52.6523 0.683331 53.5523 0.833331 54.1189 1.2C54.6856 1.56667 55.0356 1.95 55.1689 2.35C55.3356 2.71667 55.4189 2.9 55.4189 2.9L55.7189 7.35C55.7189 7.35 55.9856 7.35 56.5189 7.35C57.0856 7.35 57.7189 7.41667 58.4189 7.55C59.1523 7.65 59.7856 7.86667 60.3189 8.2C60.8856 8.53333 61.1689 9.05 61.1689 9.75C61.1689 10.45 60.9023 10.9667 60.3689 11.3C59.8356 11.6333 59.2189 11.8667 58.5189 12C57.8189 12.1 57.1856 12.15 56.6189 12.15C56.0856 12.15 55.8189 12.15 55.8189 12.15C55.8189 12.15 55.8189 12.5333 55.8189 13.3C55.8523 14.0333 55.8689 15 55.8689 16.2C55.8689 17.3667 55.8856 18.6167 55.9189 19.95C55.9523 21.2833 55.9689 22.5667 55.9689 23.8C55.9689 25 55.9689 26.0167 55.9689 26.85C56.0023 27.65 56.0189 28.1167 56.0189 28.25C56.0189 28.4833 55.9356 28.8167 55.7689 29.25C55.6356 29.6833 55.2523 30.0833 54.6189 30.45C54.0189 30.8167 53.0189 31 51.6189 31C50.5856 31 49.7856 30.8833 49.2189 30.65C48.6523 30.3833 48.2356 30.1 47.9689 29.8C47.7356 29.4667 47.6023 29.1833 47.5689 28.95C47.5356 28.6833 47.5189 28.55 47.5189 28.55L47.1189 3.7ZM92.4658 11.05C91.3325 11.05 90.4658 10.9167 89.8658 10.65C89.2658 10.35 88.8325 10.0167 88.5658 9.65C88.3325 9.28333 88.1992 8.95 88.1658 8.65C88.1325 8.31667 88.1158 8.11667 88.1158 8.05C88.1158 7.88333 88.0492 7.61667 87.9158 7.25C87.8158 6.85 87.4825 6.65 86.9158 6.65C85.9825 6.65 85.1492 6.93333 84.4158 7.5C83.7158 8.06667 83.3325 8.9 83.2658 10C83.1992 11.1 83.4825 12.05 84.1158 12.85C84.7492 13.65 85.9992 14.0667 87.8658 14.1C88.7992 14.1 89.7825 14.2333 90.8158 14.5C91.8492 14.7667 92.8158 15.2 93.7158 15.8C94.6492 16.3667 95.3825 17.15 95.9158 18.15C96.4825 19.1167 96.7658 20.3333 96.7658 21.8C96.7325 24.7333 95.9492 27 94.4158 28.6C92.8825 30.2 90.3325 31 86.7658 31C84.3992 31 82.4992 30.7167 81.0658 30.15C79.6325 29.55 78.5825 28.85 77.9158 28.05C77.2825 27.25 76.9492 26.5333 76.9158 25.9C76.8825 25.2667 76.9158 24.65 77.0158 24.05C77.1492 23.45 77.4992 22.9333 78.0658 22.5C78.6658 22.0667 79.6158 21.8 80.9158 21.7C82.2492 21.6 83.1992 21.7167 83.7658 22.05C84.3325 22.35 84.6825 22.7 84.8158 23.1C84.9825 23.5 85.0658 23.75 85.0658 23.85C85.0658 23.95 85.0992 24.2 85.1658 24.6C85.2658 24.9667 85.4325 25.3333 85.6658 25.7C85.9325 26.0333 86.2992 26.2 86.7658 26.2C87.4658 26.2 88.0658 25.9167 88.5658 25.35C89.0658 24.7833 89.3825 23.8667 89.5158 22.6C89.7492 20.1 88.4992 18.85 85.7658 18.85C85.0992 18.85 84.2325 18.75 83.1658 18.55C82.1325 18.3167 81.0992 17.9167 80.0658 17.35C79.0325 16.75 78.1658 15.9167 77.4658 14.85C76.7658 13.7833 76.4325 12.3833 76.4658 10.65C76.4992 8.91667 76.8158 7.5 77.4158 6.4C78.0158 5.26667 78.7992 4.4 79.7658 3.8C80.7658 3.16667 81.8492 2.71667 83.0158 2.45C84.2158 2.18333 85.3992 2.03333 86.5658 2C88.1325 1.96666 89.6325 2.15 91.0658 2.55C92.5325 2.95 93.7492 3.56667 94.7158 4.4C95.7158 5.2 96.2825 6.25 96.4158 7.55C96.5158 8.51667 96.3658 9.25 95.9658 9.75C95.5992 10.2167 95.1325 10.55 94.5658 10.75C94.0325 10.9167 93.5492 11.0167 93.1158 11.05C92.6825 11.05 92.4658 11.05 92.4658 11.05ZM99.1197 13.7C99.1197 13.7 99.1197 13.55 99.1197 13.25C99.1531 12.95 99.2697 12.6167 99.4697 12.25C99.6697 11.85 100.036 11.5 100.57 11.2C101.136 10.9 101.936 10.75 102.97 10.75C104.236 10.75 105.136 10.9333 105.67 11.3C106.236 11.6333 106.57 12.05 106.67 12.55C106.803 13.0167 106.836 13.4833 106.77 13.95C106.703 14.3833 106.67 14.6833 106.67 14.85C106.67 14.9833 106.67 15.4833 106.67 16.35C106.703 17.1833 106.77 18.1833 106.87 19.35C106.97 20.5167 107.136 21.6667 107.37 22.8C107.603 23.9333 107.936 24.8833 108.37 25.65C108.803 26.3833 109.37 26.7333 110.07 26.7C110.77 26.6667 111.236 26.3 111.47 25.6C111.703 24.9 111.786 24.0333 111.72 23C111.686 21.9667 111.57 20.9333 111.37 19.9C111.17 18.8667 110.97 17.9833 110.77 17.25C110.57 16.4833 110.47 16.05 110.47 15.95C110.47 15.8167 110.42 15.5833 110.32 15.25C110.253 14.8833 110.253 14.4833 110.32 14.05C110.42 13.6167 110.703 13.2167 111.17 12.85C111.636 12.4833 112.403 12.25 113.47 12.15C114.536 12.05 115.37 12.1167 115.97 12.35C116.603 12.55 117.053 12.8167 117.32 13.15C117.62 13.4833 117.803 13.8 117.87 14.1C117.936 14.3667 117.97 14.5 117.97 14.5C117.97 14.5 118.086 14.9 118.32 15.7C118.553 16.5 118.77 17.5333 118.97 18.8C119.17 20.0333 119.236 21.35 119.17 22.75C119.136 24.15 118.836 25.4833 118.27 26.75C117.736 27.9833 116.836 29 115.57 29.8C114.336 30.6 112.603 31 110.37 31C108.136 31 106.303 30.5833 104.87 29.75C103.436 28.9167 102.303 27.85 101.47 26.55C100.67 25.2167 100.086 23.8167 99.7197 22.35C99.3531 20.8833 99.1364 19.5 99.0697 18.2C99.0031 16.8667 98.9864 15.7833 99.0197 14.95C99.0864 14.1167 99.1197 13.7 99.1197 13.7ZM123.485 38.15L121.835 17.85C121.835 17.85 121.752 17.7167 121.585 17.45C121.452 17.1833 121.319 16.85 121.185 16.45C121.052 16.0167 121.019 15.6 121.085 15.2C121.152 14.8 121.402 14.4667 121.835 14.2C122.202 14 122.869 13.6167 123.835 13.05C124.835 12.45 126.052 11.8667 127.485 11.3C128.919 10.7333 130.452 10.3333 132.085 10.1C133.752 9.86667 135.419 9.96667 137.085 10.4C138.785 10.8 140.385 11.7167 141.885 13.15C143.352 14.55 144.269 16.1 144.635 17.8C145.002 19.5 144.969 21.1667 144.535 22.8C144.135 24.4333 143.452 25.8667 142.485 27.1C141.552 28.3333 140.485 29.2 139.285 29.7C137.652 30.3667 136.252 30.7833 135.085 30.95C133.919 31.0833 133.019 31.1167 132.385 31.05C131.752 31.0167 131.435 31 131.435 31L131.935 38.55C131.935 38.55 131.935 38.7167 131.935 39.05C131.935 39.3833 131.835 39.7667 131.635 40.2C131.469 40.6333 131.102 41 130.535 41.3C129.969 41.6333 129.135 41.8 128.035 41.8C126.569 41.7667 125.502 41.5333 124.835 41.1C124.202 40.6667 123.819 40.1667 123.685 39.6C123.552 39.0333 123.485 38.55 123.485 38.15ZM129.885 15.6L130.985 26.45C130.985 26.45 131.269 26.45 131.835 26.45C132.402 26.45 133.035 26.35 133.735 26.15C134.469 25.95 135.102 25.5667 135.635 25C136.169 24.4333 136.402 23.5833 136.335 22.45C136.269 20.95 136.102 19.6167 135.835 18.45C135.569 17.25 135.169 16.3333 134.635 15.7C134.102 15.0667 133.369 14.8333 132.435 15C131.502 15.1667 130.852 15.3 130.485 15.4C130.152 15.4667 129.969 15.5167 129.935 15.55C129.902 15.5833 129.885 15.6 129.885 15.6ZM149.071 38.15L147.421 17.85C147.421 17.85 147.338 17.7167 147.171 17.45C147.038 17.1833 146.905 16.85 146.771 16.45C146.638 16.0167 146.605 15.6 146.671 15.2C146.738 14.8 146.988 14.4667 147.421 14.2C147.788 14 148.455 13.6167 149.421 13.05C150.421 12.45 151.638 11.8667 153.071 11.3C154.505 10.7333 156.038 10.3333 157.671 10.1C159.338 9.86667 161.005 9.96667 162.671 10.4C164.371 10.8 165.971 11.7167 167.471 13.15C168.938 14.55 169.855 16.1 170.221 17.8C170.588 19.5 170.555 21.1667 170.121 22.8C169.721 24.4333 169.038 25.8667 168.071 27.1C167.138 28.3333 166.071 29.2 164.871 29.7C163.238 30.3667 161.838 30.7833 160.671 30.95C159.505 31.0833 158.605 31.1167 157.971 31.05C157.338 31.0167 157.021 31 157.021 31L157.521 38.55C157.521 38.55 157.521 38.7167 157.521 39.05C157.521 39.3833 157.421 39.7667 157.221 40.2C157.055 40.6333 156.688 41 156.121 41.3C155.555 41.6333 154.721 41.8 153.621 41.8C152.155 41.7667 151.088 41.5333 150.421 41.1C149.788 40.6667 149.405 40.1667 149.271 39.6C149.138 39.0333 149.071 38.55 149.071 38.15ZM155.471 15.6L156.571 26.45C156.571 26.45 156.855 26.45 157.421 26.45C157.988 26.45 158.621 26.35 159.321 26.15C160.055 25.95 160.688 25.5667 161.221 25C161.755 24.4333 161.988 23.5833 161.921 22.45C161.855 20.95 161.688 19.6167 161.421 18.45C161.155 17.25 160.755 16.3333 160.221 15.7C159.688 15.0667 158.955 14.8333 158.021 15C157.088 15.1667 156.438 15.3 156.071 15.4C155.738 15.4667 155.555 15.5167 155.521 15.55C155.488 15.5833 155.471 15.6 155.471 15.6ZM176.907 0.899997C176.907 0.899997 177.124 0.916665 177.557 0.949999C177.991 0.949999 178.491 1.03333 179.057 1.2C179.624 1.33333 180.124 1.58333 180.557 1.95C180.991 2.31666 181.207 2.83333 181.207 3.5C181.207 3.93333 181.224 4.81667 181.257 6.15C181.291 7.48333 181.324 9.06667 181.357 10.9C181.391 12.7 181.424 14.5667 181.457 16.5C181.524 18.4 181.574 20.1833 181.607 21.85C181.641 23.5167 181.657 24.8667 181.657 25.9C181.691 26.9333 181.707 27.45 181.707 27.45C181.707 27.45 181.707 27.6333 181.707 28C181.707 28.3333 181.607 28.75 181.407 29.25C181.207 29.7167 180.824 30.1333 180.257 30.5C179.691 30.8333 178.857 31 177.757 31C176.291 31 175.224 30.8167 174.557 30.45C173.891 30.05 173.474 29.6167 173.307 29.15C173.174 28.65 173.124 28.2667 173.157 28C173.191 27.8667 173.207 27.2833 173.207 26.25C173.207 25.2167 173.191 23.9167 173.157 22.35C173.157 20.7833 173.141 19.1 173.107 17.3C173.074 15.5 173.041 13.7333 173.007 12C172.974 10.2333 172.924 8.66667 172.857 7.3C172.824 5.9 172.791 4.86667 172.757 4.2C172.691 3.26667 172.907 2.56667 173.407 2.1C173.941 1.63333 174.541 1.33333 175.207 1.2C175.907 1.03333 176.474 0.933332 176.907 0.899997ZM204.327 15.9C204.227 17.5667 203.76 18.9167 202.927 19.95C202.094 20.95 201.077 21.7167 199.877 22.25C198.71 22.75 197.544 23.1 196.377 23.3C195.21 23.4667 194.227 23.55 193.427 23.55C192.66 23.55 192.277 23.55 192.277 23.55C192.477 24.7167 192.76 25.55 193.127 26.05C193.494 26.55 193.894 26.8333 194.327 26.9C194.794 26.9667 195.227 26.9333 195.627 26.8C196.027 26.6333 196.344 26.45 196.577 26.25C196.844 26.05 196.977 25.95 196.977 25.95C196.977 25.95 197.16 25.8 197.527 25.5C197.894 25.2 198.46 24.9167 199.227 24.65C200.027 24.35 201.027 24.2 202.227 24.2C203.594 24.2 204.51 24.3833 204.977 24.75C205.477 25.0833 205.71 25.4833 205.677 25.95C205.677 26.3833 205.577 26.7833 205.377 27.15C205.21 27.4833 205.127 27.65 205.127 27.65C205.127 27.65 204.977 27.8167 204.677 28.15C204.41 28.45 203.91 28.8167 203.177 29.25C202.444 29.6833 201.427 30.0833 200.127 30.45C198.827 30.7833 197.16 30.9667 195.127 31C193.16 31.0333 191.51 30.7667 190.177 30.2C188.844 29.6333 187.744 28.9 186.877 28C186.01 27.0667 185.344 26.1 184.877 25.1C184.444 24.0667 184.127 23.1167 183.927 22.25C183.76 21.35 183.677 20.65 183.677 20.15C183.677 19.65 183.71 19 183.777 18.2C183.877 17.4 184.094 16.5667 184.427 15.7C184.794 14.8 185.344 13.95 186.077 13.15C186.81 12.35 187.81 11.7 189.077 11.2C190.377 10.7 192.027 10.4333 194.027 10.4C196.527 10.3667 198.477 10.5833 199.877 11.05C201.277 11.5167 202.294 12.0833 202.927 12.75C203.56 13.4167 203.944 14.05 204.077 14.65C204.244 15.25 204.327 15.6667 204.327 15.9ZM191.577 20.1C193.61 19.9333 195.127 19.5 196.127 18.8C197.127 18.1 197.71 17.3167 197.877 16.45C198.044 15.5833 197.877 14.85 197.377 14.25C196.91 13.6167 196.194 13.3333 195.227 13.4C194.26 13.4333 193.527 13.8 193.027 14.5C192.527 15.1667 192.177 15.95 191.977 16.85C191.777 17.7167 191.66 18.4833 191.627 19.15C191.594 19.7833 191.577 20.1 191.577 20.1ZM213.799 31C213.799 31 213.583 31 213.149 31C212.749 31.0333 212.266 30.9833 211.699 30.85C211.166 30.7167 210.666 30.45 210.199 30.05C209.766 29.6167 209.499 28.9667 209.399 28.1C209.333 27.4 209.249 26.4667 209.149 25.3C209.083 24.1333 208.999 22.9 208.899 21.6C208.799 20.2667 208.716 19.0167 208.649 17.85C208.583 16.6833 208.516 15.7333 208.449 15C208.416 14.2333 208.399 13.85 208.399 13.85C208.399 13.85 208.383 13.7 208.349 13.4C208.349 13.1 208.416 12.75 208.549 12.35C208.716 11.9167 209.033 11.5333 209.499 11.2C209.966 10.8667 210.699 10.6833 211.699 10.65C213.033 10.5833 214.016 10.6667 214.649 10.9C215.283 11.1333 215.699 11.3833 215.899 11.65C216.133 11.9167 216.249 12.05 216.249 12.05C216.249 12.05 216.499 11.9167 216.999 11.65C217.533 11.3833 218.249 11.1333 219.149 10.9C220.049 10.6333 221.049 10.5 222.149 10.5C223.416 10.5 224.449 10.6333 225.249 10.9C226.083 11.1667 226.699 11.4333 227.099 11.7C227.499 11.9667 227.699 12.1 227.699 12.1C228.666 11.5 229.649 11.15 230.649 11.05C231.683 10.95 232.849 10.9 234.149 10.9C234.149 10.9 234.483 10.95 235.149 11.05C235.816 11.1167 236.649 11.3167 237.649 11.65C238.649 11.9833 239.649 12.5333 240.649 13.3C241.683 14.0333 242.549 15.0667 243.249 16.4C243.949 17.7 244.316 19.3833 244.349 21.45C244.416 24.05 244.349 26.0167 244.149 27.35C243.949 28.6833 243.666 29.6 243.299 30.1C242.933 30.6 242.483 30.8833 241.949 30.95C241.416 30.9833 240.833 31 240.199 31C238.933 31 237.849 30.7333 236.949 30.2C236.083 29.6333 235.749 28.7833 235.949 27.65C236.016 27.2167 236.066 26.5167 236.099 25.55C236.166 24.5833 236.166 23.5333 236.099 22.4C236.033 21.2333 235.883 20.1333 235.649 19.1C235.416 18.0333 235.066 17.1667 234.599 16.5C234.133 15.8 233.516 15.4667 232.749 15.5C232.183 15.5 231.733 15.7333 231.399 16.2C231.099 16.6333 230.883 17.0667 230.749 17.5C230.616 17.9333 230.549 18.15 230.549 18.15L231.199 27.65C231.199 27.65 231.199 27.8167 231.199 28.15C231.233 28.4833 231.166 28.8833 230.999 29.35C230.833 29.7833 230.466 30.1667 229.899 30.5C229.333 30.8333 228.449 31 227.249 31C226.049 31 225.133 30.85 224.499 30.55C223.899 30.25 223.483 29.9 223.249 29.5C223.016 29.1 222.883 28.75 222.849 28.45C222.816 28.15 222.799 27.9833 222.799 27.95C222.799 27.9167 222.816 27.5833 222.849 26.95C222.883 26.2833 222.899 25.45 222.899 24.45C222.933 23.45 222.899 22.4 222.799 21.3C222.699 20.1667 222.516 19.1167 222.249 18.15C222.016 17.15 221.649 16.3833 221.149 15.85C220.683 15.2833 220.049 15.05 219.249 15.15C218.483 15.25 217.933 15.5 217.599 15.9C217.266 16.2667 217.049 16.6167 216.949 16.95C216.883 17.2833 216.849 17.45 216.849 17.45L217.649 28C217.649 28 217.649 28.15 217.649 28.45C217.683 28.75 217.599 29.1 217.399 29.5C217.233 29.9 216.866 30.25 216.299 30.55C215.766 30.85 214.933 31 213.799 31ZM266.827 15.9C266.727 17.5667 266.26 18.9167 265.427 19.95C264.594 20.95 263.577 21.7167 262.377 22.25C261.21 22.75 260.044 23.1 258.877 23.3C257.71 23.4667 256.727 23.55 255.927 23.55C255.16 23.55 254.777 23.55 254.777 23.55C254.977 24.7167 255.26 25.55 255.627 26.05C255.994 26.55 256.394 26.8333 256.827 26.9C257.294 26.9667 257.727 26.9333 258.127 26.8C258.527 26.6333 258.844 26.45 259.077 26.25C259.344 26.05 259.477 25.95 259.477 25.95C259.477 25.95 259.66 25.8 260.027 25.5C260.394 25.2 260.96 24.9167 261.727 24.65C262.527 24.35 263.527 24.2 264.727 24.2C266.094 24.2 267.01 24.3833 267.477 24.75C267.977 25.0833 268.21 25.4833 268.177 25.95C268.177 26.3833 268.077 26.7833 267.877 27.15C267.71 27.4833 267.627 27.65 267.627 27.65C267.627 27.65 267.477 27.8167 267.177 28.15C266.91 28.45 266.41 28.8167 265.677 29.25C264.944 29.6833 263.927 30.0833 262.627 30.45C261.327 30.7833 259.66 30.9667 257.627 31C255.66 31.0333 254.01 30.7667 252.677 30.2C251.344 29.6333 250.244 28.9 249.377 28C248.51 27.0667 247.844 26.1 247.377 25.1C246.944 24.0667 246.627 23.1167 246.427 22.25C246.26 21.35 246.177 20.65 246.177 20.15C246.177 19.65 246.21 19 246.277 18.2C246.377 17.4 246.594 16.5667 246.927 15.7C247.294 14.8 247.844 13.95 248.577 13.15C249.31 12.35 250.31 11.7 251.577 11.2C252.877 10.7 254.527 10.4333 256.527 10.4C259.027 10.3667 260.977 10.5833 262.377 11.05C263.777 11.5167 264.794 12.0833 265.427 12.75C266.06 13.4167 266.444 14.05 266.577 14.65C266.744 15.25 266.827 15.6667 266.827 15.9ZM254.077 20.1C256.11 19.9333 257.627 19.5 258.627 18.8C259.627 18.1 260.21 17.3167 260.377 16.45C260.544 15.5833 260.377 14.85 259.877 14.25C259.41 13.6167 258.694 13.3333 257.727 13.4C256.76 13.4333 256.027 13.8 255.527 14.5C255.027 15.1667 254.677 15.95 254.477 16.85C254.277 17.7167 254.16 18.4833 254.127 19.15C254.094 19.7833 254.077 20.1 254.077 20.1ZM276.449 31C276.449 31 276.233 31 275.799 31C275.366 31 274.866 30.9333 274.299 30.8C273.766 30.6667 273.283 30.4 272.849 30C272.416 29.6 272.166 29.0167 272.099 28.25C272.066 27.6167 271.999 26.7167 271.899 25.55C271.799 24.3833 271.683 23.1167 271.549 21.75C271.449 20.35 271.349 19.0333 271.249 17.8C271.149 16.5333 271.066 15.5 270.999 14.7C270.933 13.9 270.899 13.5 270.899 13.5C270.899 13.5 270.916 13.3667 270.949 13.1C270.983 12.8 271.099 12.4667 271.299 12.1C271.533 11.7333 271.916 11.4 272.449 11.1C273.016 10.8 273.799 10.6333 274.799 10.6C275.799 10.5667 276.583 10.6667 277.149 10.9C277.716 11.1333 278.116 11.4167 278.349 11.75C278.616 12.05 278.766 12.3333 278.799 12.6C278.866 12.8333 278.899 12.95 278.899 12.95C278.899 12.95 279.199 12.8 279.799 12.5C280.433 12.1667 281.233 11.8333 282.199 11.5C283.199 11.1667 284.249 10.9667 285.349 10.9C285.516 10.9 285.833 10.9 286.299 10.9C286.799 10.9 287.333 11.0167 287.899 11.25C288.499 11.45 289.083 11.85 289.649 12.45C290.249 13.05 290.749 13.9333 291.149 15.1C291.549 16.2333 291.783 17.7333 291.849 19.6C291.949 21.9333 292.016 23.85 292.049 25.35C292.116 26.85 292.066 28.0167 291.899 28.85C291.766 29.65 291.433 30.2167 290.899 30.55C290.399 30.85 289.599 31 288.499 31C287.433 31 286.649 30.85 286.149 30.55C285.649 30.25 285.333 29.9 285.199 29.5C285.066 29.0667 284.999 28.6833 284.999 28.35C284.999 28.15 285.033 27.6167 285.099 26.75C285.166 25.85 285.216 24.8333 285.249 23.7C285.283 22.5333 285.266 21.4 285.199 20.3C285.166 19.1667 285.033 18.25 284.799 17.55C284.599 16.8167 284.266 16.4667 283.799 16.5C283.233 16.5333 282.699 16.75 282.199 17.15C281.733 17.5167 281.316 17.95 280.949 18.45C280.583 18.9167 280.299 19.3333 280.099 19.7C279.899 20.0333 279.799 20.2 279.799 20.2L280.299 27.75C280.299 27.75 280.299 27.9167 280.299 28.25C280.299 28.5833 280.199 28.9667 279.999 29.4C279.799 29.8 279.416 30.1667 278.849 30.5C278.316 30.8333 277.516 31 276.449 31ZM294.433 3.7C294.4 2.86667 294.65 2.2 295.183 1.7C295.717 1.16666 296.9 0.849998 298.733 0.749999C299.967 0.683331 300.867 0.833331 301.433 1.2C302 1.56667 302.35 1.95 302.483 2.35C302.65 2.71667 302.733 2.9 302.733 2.9L303.033 7.35C303.033 7.35 303.3 7.35 303.833 7.35C304.4 7.35 305.033 7.41667 305.733 7.55C306.467 7.65 307.1 7.86667 307.633 8.2C308.2 8.53333 308.483 9.05 308.483 9.75C308.483 10.45 308.217 10.9667 307.683 11.3C307.15 11.6333 306.533 11.8667 305.833 12C305.133 12.1 304.5 12.15 303.933 12.15C303.4 12.15 303.133 12.15 303.133 12.15C303.133 12.15 303.133 12.5333 303.133 13.3C303.167 14.0333 303.183 15 303.183 16.2C303.183 17.3667 303.2 18.6167 303.233 19.95C303.267 21.2833 303.283 22.5667 303.283 23.8C303.283 25 303.283 26.0167 303.283 26.85C303.317 27.65 303.333 28.1167 303.333 28.25C303.333 28.4833 303.25 28.8167 303.083 29.25C302.95 29.6833 302.567 30.0833 301.933 30.45C301.333 30.8167 300.333 31 298.933 31C297.9 31 297.1 30.8833 296.533 30.65C295.967 30.3833 295.55 30.1 295.283 29.8C295.05 29.4667 294.917 29.1833 294.883 28.95C294.85 28.6833 294.833 28.55 294.833 28.55L294.433 3.7ZM321.592 23C319.092 22.9333 317.142 22.6833 315.742 22.25C314.342 21.8167 313.342 21.3 312.742 20.7C312.175 20.1 311.825 19.5167 311.692 18.95C311.559 18.35 311.492 17.8833 311.492 17.55C311.492 17.2167 311.542 16.7 311.642 16C311.742 15.3 312.059 14.5667 312.592 13.8C313.125 13.0333 314.042 12.3667 315.342 11.8C316.675 11.2333 318.559 10.9167 320.992 10.85C323.659 10.7833 325.709 10.9333 327.142 11.3C328.575 11.6667 329.592 12.1 330.192 12.6C330.825 13.1 331.209 13.55 331.342 13.95C331.475 14.3167 331.542 14.5 331.542 14.5C331.542 14.9333 331.492 15.3833 331.392 15.85C331.292 16.2833 330.992 16.65 330.492 16.95C330.025 17.2167 329.209 17.3333 328.042 17.3C327.109 17.2667 326.409 17.1833 325.942 17.05C325.475 16.9167 325.125 16.7667 324.892 16.6C324.692 16.4 324.475 16.2 324.242 16C324.042 15.8 323.725 15.6333 323.292 15.5C322.892 15.3667 322.242 15.2833 321.342 15.25C320.242 15.2167 319.409 15.3 318.842 15.5C318.309 15.6667 317.942 15.8833 317.742 16.15C317.575 16.4167 317.475 16.65 317.442 16.85C317.442 17.0167 317.442 17.1 317.442 17.1C317.442 17.1 317.475 17.2333 317.542 17.5C317.642 17.7667 317.975 18.0333 318.542 18.3C319.142 18.5667 320.209 18.7167 321.742 18.75C324.642 18.85 326.859 19.1333 328.392 19.6C329.959 20.0333 331.059 20.55 331.692 21.15C332.359 21.75 332.742 22.35 332.842 22.95C332.975 23.5167 333.042 23.9667 333.042 24.3C333.042 24.6333 332.925 25.15 332.692 25.85C332.492 26.55 332.042 27.2833 331.342 28.05C330.642 28.8167 329.559 29.4833 328.092 30.05C326.659 30.6167 324.725 30.9333 322.292 31C319.659 31.0667 317.609 30.9167 316.142 30.55C314.709 30.1833 313.675 29.75 313.042 29.25C312.442 28.75 312.075 28.3167 311.942 27.95C311.809 27.55 311.742 27.35 311.742 27.35C311.742 26.8833 311.792 26.4333 311.892 26C312.025 25.5667 312.325 25.2167 312.792 24.95C313.292 24.65 314.109 24.5167 315.242 24.55C316.209 24.5833 316.909 24.6667 317.342 24.8C317.809 24.9333 318.159 25.1 318.392 25.3C318.625 25.4667 318.842 25.65 319.042 25.85C319.242 26.05 319.559 26.2167 319.992 26.35C320.425 26.4833 321.075 26.5667 321.942 26.6C323.042 26.6333 323.859 26.5667 324.392 26.4C324.959 26.2 325.342 25.9667 325.542 25.7C325.742 25.4333 325.842 25.2167 325.842 25.05C325.842 24.85 325.842 24.75 325.842 24.75C325.842 24.75 325.809 24.6167 325.742 24.35C325.675 24.05 325.342 23.7667 324.742 23.5C324.175 23.2 323.125 23.0333 321.592 23Z" fill="#101C2D"/>
</svg>
