<svg width="259" height="42" viewBox="0 0 259 42" fill="none" xmlns="http://www.w3.org/2000/svg">
<path d="M5.86719 31C4.63385 31 3.70052 30.8333 3.06719 30.5C2.46719 30.1667 2.06719 29.7833 1.86719 29.35C1.66719 28.9167 1.56719 28.5333 1.56719 28.2C1.56719 27.8667 1.56719 27.7 1.56719 27.7L0.967188 6C0.967188 6 0.950521 5.83333 0.917188 5.5C0.883854 5.16666 0.950521 4.78333 1.11719 4.35C1.28385 3.88333 1.63385 3.48333 2.16719 3.15C2.70052 2.78333 3.53385 2.6 4.66719 2.6C6.16719 2.56667 7.30052 2.78333 8.06719 3.25C8.83385 3.68333 9.33385 4.13333 9.56719 4.6C9.83386 5.03333 9.96719 5.25 9.96719 5.25L15.7172 15.7C15.7172 15.7 15.8505 15.4 16.1172 14.8C16.4172 14.1667 16.7672 13.3833 17.1672 12.45C17.6005 11.5167 18.0339 10.5667 18.4672 9.6C18.9005 8.63333 19.2839 7.8 19.6172 7.1C19.9505 6.36667 20.1672 5.9 20.2672 5.7C20.4339 5.36666 20.7339 4.91666 21.1672 4.35C21.6005 3.75 22.2172 3.2 23.0172 2.7C23.8505 2.2 24.9339 1.93333 26.2672 1.9C27.2672 1.86667 28.0339 1.98333 28.5672 2.25C29.1005 2.48333 29.4672 2.76667 29.6672 3.1C29.9005 3.43333 30.0339 3.73333 30.0672 4C30.1005 4.26667 30.1172 4.4 30.1172 4.4C30.1172 4.4 30.1172 4.83333 30.1172 5.7C30.1172 6.53333 30.1172 7.65 30.1172 9.05C30.1505 10.45 30.1672 11.9833 30.1672 13.65C30.1672 15.3167 30.1672 17 30.1672 18.7C30.1672 20.3667 30.1672 21.9 30.1672 23.3C30.2005 24.7 30.2172 25.8333 30.2172 26.7C30.2172 27.5667 30.2172 28.0167 30.2172 28.05C30.2172 28.0833 30.2005 28.25 30.1672 28.55C30.1672 28.85 30.0505 29.2 29.8172 29.6C29.5839 29.9667 29.1672 30.3 28.5672 30.6C28.0005 30.8667 27.1505 31 26.0172 31C24.8839 31 24.0172 30.8833 23.4172 30.65C22.8505 30.3833 22.4505 30.1 22.2172 29.8C21.9839 29.4667 21.8505 29.1833 21.8172 28.95C21.7839 28.7167 21.7672 28.6 21.7672 28.6C21.7672 28.6 21.7672 28.3167 21.7672 27.75C21.7672 27.15 21.7672 26.4167 21.7672 25.55C21.8005 24.65 21.8172 23.7667 21.8172 22.9C21.8505 22 21.8672 21.25 21.8672 20.65C21.8672 20.05 21.8672 19.75 21.8672 19.75L22.2672 12.6L19.6672 18.15C19.6672 18.15 19.5672 18.3333 19.3672 18.7C19.2005 19.0667 18.8672 19.4333 18.3672 19.8C17.8672 20.1667 17.1172 20.3667 16.1172 20.4C15.1505 20.4333 14.3839 20.3 13.8172 20C13.2839 19.6667 12.9005 19.35 12.6672 19.05C12.4672 18.7167 12.3672 18.55 12.3672 18.55L9.11719 12.6C9.11719 12.6 9.13385 13 9.16719 13.8C9.23385 14.5667 9.30052 15.5833 9.36719 16.85C9.43385 18.0833 9.50052 19.4 9.56719 20.8C9.63385 22.1667 9.68385 23.4667 9.71719 24.7C9.78385 25.9 9.83385 26.8667 9.86719 27.6C9.90052 28.5 9.71719 29.2 9.31719 29.7C8.91719 30.1667 8.45052 30.5 7.91719 30.7C7.38385 30.8667 6.90052 30.9667 6.46719 31C6.06719 31 5.86719 31 5.86719 31ZM43.1043 10.7C44.3376 10.6 45.2876 10.7333 45.9543 11.1C46.621 11.4667 47.021 11.6833 47.1543 11.75C47.4876 11.9167 47.7876 12.1 48.0543 12.3C48.3543 12.5 48.5043 12.6 48.5043 12.6C48.5043 12.6 48.7543 12.6833 49.2543 12.85C49.7543 13.0167 50.3376 13.4167 51.0043 14.05C51.671 14.65 52.2876 15.6 52.8543 16.9C53.421 18.2 53.7543 19.9667 53.8543 22.2C53.921 23.7 53.6876 24.9667 53.1543 26C52.621 27 51.9043 27.8333 51.0043 28.5C50.1376 29.1333 49.1876 29.6333 48.1543 30C47.1543 30.3333 46.1876 30.5667 45.2543 30.7C44.3543 30.8333 43.6043 30.9167 43.0043 30.95C42.4376 30.9833 42.1543 31 42.1543 31C42.1543 31 41.821 31 41.1543 31C40.521 31 39.721 30.9 38.7543 30.7C37.7876 30.4667 36.821 30.0333 35.8543 29.4C34.921 28.7333 34.1376 27.7667 33.5043 26.5C32.9043 25.2333 32.6376 23.55 32.7043 21.45C32.771 19.35 33.1543 17.6333 33.8543 16.3C34.5876 14.9333 35.4543 13.8667 36.4543 13.1C37.4876 12.3333 38.5043 11.7833 39.5043 11.45C40.5376 11.1167 41.3876 10.9167 42.0543 10.85C42.7543 10.75 43.1043 10.7 43.1043 10.7ZM43.3043 15.6C43.3043 15.6 43.0876 15.8667 42.6543 16.4C42.2543 16.9333 41.8376 17.6833 41.4043 18.65C41.0043 19.6167 40.8043 20.75 40.8043 22.05C40.8043 23.3167 40.9543 24.3167 41.2543 25.05C41.5543 25.7833 41.871 26.3167 42.2043 26.65C42.571 26.95 42.8543 27.1 43.0543 27.1C43.2543 27.1 43.571 27.0167 44.0043 26.85C44.471 26.65 44.8876 26.2167 45.2543 25.55C45.621 24.8833 45.7876 23.8333 45.7543 22.4C45.721 21.2 45.5876 20.2333 45.3543 19.5C45.1543 18.7667 44.871 18.1167 44.5043 17.55C44.171 16.95 43.771 16.3 43.3043 15.6ZM66.6477 23C64.1477 22.9333 62.1977 22.6833 60.7977 22.25C59.3977 21.8167 58.3977 21.3 57.7977 20.7C57.231 20.1 56.881 19.5167 56.7477 18.95C56.6143 18.35 56.5477 17.8833 56.5477 17.55C56.5477 17.2167 56.5977 16.7 56.6977 16C56.7977 15.3 57.1143 14.5667 57.6477 13.8C58.181 13.0333 59.0977 12.3667 60.3977 11.8C61.731 11.2333 63.6143 10.9167 66.0477 10.85C68.7143 10.7833 70.7643 10.9333 72.1977 11.3C73.631 11.6667 74.6477 12.1 75.2477 12.6C75.881 13.1 76.2643 13.55 76.3977 13.95C76.531 14.3167 76.5977 14.5 76.5977 14.5C76.5977 14.9333 76.5477 15.3833 76.4477 15.85C76.3477 16.2833 76.0477 16.65 75.5477 16.95C75.081 17.2167 74.2643 17.3333 73.0977 17.3C72.1643 17.2667 71.4643 17.1833 70.9977 17.05C70.531 16.9167 70.181 16.7667 69.9477 16.6C69.7477 16.4 69.531 16.2 69.2977 16C69.0977 15.8 68.781 15.6333 68.3477 15.5C67.9477 15.3667 67.2977 15.2833 66.3977 15.25C65.2977 15.2167 64.4643 15.3 63.8977 15.5C63.3643 15.6667 62.9977 15.8833 62.7977 16.15C62.631 16.4167 62.531 16.65 62.4977 16.85C62.4977 17.0167 62.4977 17.1 62.4977 17.1C62.4977 17.1 62.531 17.2333 62.5977 17.5C62.6977 17.7667 63.031 18.0333 63.5977 18.3C64.1977 18.5667 65.2643 18.7167 66.7977 18.75C69.6977 18.85 71.9143 19.1333 73.4477 19.6C75.0143 20.0333 76.1143 20.55 76.7477 21.15C77.4143 21.75 77.7977 22.35 77.8977 22.95C78.031 23.5167 78.0977 23.9667 78.0977 24.3C78.0977 24.6333 77.981 25.15 77.7477 25.85C77.5477 26.55 77.0977 27.2833 76.3977 28.05C75.6977 28.8167 74.6143 29.4833 73.1477 30.05C71.7143 30.6167 69.781 30.9333 67.3477 31C64.7143 31.0667 62.6643 30.9167 61.1977 30.55C59.7643 30.1833 58.731 29.75 58.0977 29.25C57.4977 28.75 57.131 28.3167 56.9977 27.95C56.8643 27.55 56.7977 27.35 56.7977 27.35C56.7977 26.8833 56.8477 26.4333 56.9477 26C57.081 25.5667 57.381 25.2167 57.8477 24.95C58.3477 24.65 59.1643 24.5167 60.2977 24.55C61.2643 24.5833 61.9643 24.6667 62.3977 24.8C62.8643 24.9333 63.2143 25.1 63.4477 25.3C63.681 25.4667 63.8977 25.65 64.0977 25.85C64.2977 26.05 64.6143 26.2167 65.0477 26.35C65.481 26.4833 66.131 26.5667 66.9977 26.6C68.0977 26.6333 68.9143 26.5667 69.4477 26.4C70.0143 26.2 70.3977 25.9667 70.5977 25.7C70.7977 25.4333 70.8977 25.2167 70.8977 25.05C70.8977 24.85 70.8977 24.75 70.8977 24.75C70.8977 24.75 70.8643 24.6167 70.7977 24.35C70.731 24.05 70.3977 23.7667 69.7977 23.5C69.231 23.2 68.181 23.0333 66.6477 23ZM80.3582 3.7C80.3249 2.86667 80.5749 2.2 81.1082 1.7C81.6415 1.16666 82.8249 0.849998 84.6582 0.749999C85.8915 0.683331 86.7915 0.833331 87.3582 1.2C87.9249 1.56667 88.2749 1.95 88.4082 2.35C88.5749 2.71667 88.6582 2.9 88.6582 2.9L88.9582 7.35C88.9582 7.35 89.2249 7.35 89.7582 7.35C90.3249 7.35 90.9582 7.41667 91.6582 7.55C92.3915 7.65 93.0249 7.86667 93.5582 8.2C94.1249 8.53333 94.4082 9.05 94.4082 9.75C94.4082 10.45 94.1415 10.9667 93.6082 11.3C93.0749 11.6333 92.4582 11.8667 91.7582 12C91.0582 12.1 90.4249 12.15 89.8582 12.15C89.3249 12.15 89.0582 12.15 89.0582 12.15C89.0582 12.15 89.0582 12.5333 89.0582 13.3C89.0915 14.0333 89.1082 15 89.1082 16.2C89.1082 17.3667 89.1249 18.6167 89.1582 19.95C89.1915 21.2833 89.2082 22.5667 89.2082 23.8C89.2082 25 89.2082 26.0167 89.2082 26.85C89.2415 27.65 89.2582 28.1167 89.2582 28.25C89.2582 28.4833 89.1749 28.8167 89.0082 29.25C88.8749 29.6833 88.4915 30.0833 87.8582 30.45C87.2582 30.8167 86.2582 31 84.8582 31C83.8249 31 83.0249 30.8833 82.4582 30.65C81.8915 30.3833 81.4749 30.1 81.2082 29.8C80.9749 29.4667 80.8415 29.1833 80.8082 28.95C80.7749 28.6833 80.7582 28.55 80.7582 28.55L80.3582 3.7Z" fill="#101C2D"/>
<path d="M114.855 31C113.588 31 112.672 30.8167 112.105 30.45C111.538 30.05 111.188 29.6667 111.055 29.3C110.922 28.9333 110.855 28.75 110.855 28.75C110.855 28.75 110.838 28.35 110.805 27.55C110.805 26.7167 110.788 25.6333 110.755 24.3C110.755 22.9667 110.738 21.5 110.705 19.9C110.672 18.3 110.638 16.7 110.605 15.1C110.605 13.5 110.588 12.0333 110.555 10.7C110.522 9.36667 110.488 8.3 110.455 7.5C110.455 6.66667 110.455 6.25 110.455 6.25C110.422 6.25 110.238 6.08333 109.905 5.75C109.605 5.41667 109.438 5.06666 109.405 4.7C109.405 4.43333 109.722 4.05 110.355 3.55C110.988 3.05 112.055 2.63333 113.555 2.3C115.088 1.93333 117.188 1.86667 119.855 2.1C122.255 2.3 124.138 2.7 125.505 3.3C126.905 3.86667 127.922 4.48333 128.555 5.15C129.188 5.78333 129.588 6.35 129.755 6.85C129.922 7.31667 130.005 7.55 130.005 7.55C130.005 7.55 130.022 7.6 130.055 7.7C130.122 7.8 130.172 8.11667 130.205 8.65C130.272 9.15 130.322 9.98333 130.355 11.15C130.388 12.3167 130.388 13.95 130.355 16.05C130.322 17.75 129.922 19.1 129.155 20.1C128.422 21.1 127.505 21.85 126.405 22.35C125.305 22.8167 124.205 23.1333 123.105 23.3C122.038 23.4333 121.138 23.5 120.405 23.5C119.672 23.4667 119.305 23.45 119.305 23.45C119.305 23.45 119.305 23.8167 119.305 24.55C119.338 25.25 119.338 26.4333 119.305 28.1C119.305 28.9333 119.072 29.5667 118.605 30C118.172 30.4 117.655 30.6667 117.055 30.8C116.488 30.9333 115.972 31 115.505 31C115.072 31 114.855 31 114.855 31ZM118.805 6.75L119.255 19.15C119.255 19.15 119.472 19.1333 119.905 19.1C120.338 19.0333 120.838 18.8667 121.405 18.6C121.972 18.3333 122.455 17.8833 122.855 17.25C123.288 16.5833 123.472 15.65 123.405 14.45C123.338 12.85 123.272 11.65 123.205 10.85C123.138 10.05 123.088 9.53333 123.055 9.3C123.055 9.03333 123.055 8.9 123.055 8.9C123.055 8.9 123.022 8.76667 122.955 8.5C122.922 8.2 122.788 7.88333 122.555 7.55C122.322 7.21667 121.905 6.96667 121.305 6.8C120.738 6.6 119.905 6.58333 118.805 6.75ZM143.202 10.7C144.435 10.6 145.385 10.7333 146.052 11.1C146.719 11.4667 147.119 11.6833 147.252 11.75C147.585 11.9167 147.885 12.1 148.152 12.3C148.452 12.5 148.602 12.6 148.602 12.6C148.602 12.6 148.852 12.6833 149.352 12.85C149.852 13.0167 150.435 13.4167 151.102 14.05C151.769 14.65 152.385 15.6 152.952 16.9C153.519 18.2 153.852 19.9667 153.952 22.2C154.019 23.7 153.785 24.9667 153.252 26C152.719 27 152.002 27.8333 151.102 28.5C150.235 29.1333 149.285 29.6333 148.252 30C147.252 30.3333 146.285 30.5667 145.352 30.7C144.452 30.8333 143.702 30.9167 143.102 30.95C142.535 30.9833 142.252 31 142.252 31C142.252 31 141.919 31 141.252 31C140.619 31 139.819 30.9 138.852 30.7C137.885 30.4667 136.919 30.0333 135.952 29.4C135.019 28.7333 134.235 27.7667 133.602 26.5C133.002 25.2333 132.735 23.55 132.802 21.45C132.869 19.35 133.252 17.6333 133.952 16.3C134.685 14.9333 135.552 13.8667 136.552 13.1C137.585 12.3333 138.602 11.7833 139.602 11.45C140.635 11.1167 141.485 10.9167 142.152 10.85C142.852 10.75 143.202 10.7 143.202 10.7ZM143.402 15.6C143.402 15.6 143.185 15.8667 142.752 16.4C142.352 16.9333 141.935 17.6833 141.502 18.65C141.102 19.6167 140.902 20.75 140.902 22.05C140.902 23.3167 141.052 24.3167 141.352 25.05C141.652 25.7833 141.969 26.3167 142.302 26.65C142.669 26.95 142.952 27.1 143.152 27.1C143.352 27.1 143.669 27.0167 144.102 26.85C144.569 26.65 144.985 26.2167 145.352 25.55C145.719 24.8833 145.885 23.8333 145.852 22.4C145.819 21.2 145.685 20.2333 145.452 19.5C145.252 18.7667 144.969 18.1167 144.602 17.55C144.269 16.95 143.869 16.3 143.402 15.6ZM157.945 38.15L156.295 17.85C156.295 17.85 156.212 17.7167 156.045 17.45C155.912 17.1833 155.779 16.85 155.645 16.45C155.512 16.0167 155.479 15.6 155.545 15.2C155.612 14.8 155.862 14.4667 156.295 14.2C156.662 14 157.329 13.6167 158.295 13.05C159.295 12.45 160.512 11.8667 161.945 11.3C163.379 10.7333 164.912 10.3333 166.545 10.1C168.212 9.86667 169.879 9.96667 171.545 10.4C173.245 10.8 174.845 11.7167 176.345 13.15C177.812 14.55 178.729 16.1 179.095 17.8C179.462 19.5 179.429 21.1667 178.995 22.8C178.595 24.4333 177.912 25.8667 176.945 27.1C176.012 28.3333 174.945 29.2 173.745 29.7C172.112 30.3667 170.712 30.7833 169.545 30.95C168.379 31.0833 167.479 31.1167 166.845 31.05C166.212 31.0167 165.895 31 165.895 31L166.395 38.55C166.395 38.55 166.395 38.7167 166.395 39.05C166.395 39.3833 166.295 39.7667 166.095 40.2C165.929 40.6333 165.562 41 164.995 41.3C164.429 41.6333 163.595 41.8 162.495 41.8C161.029 41.7667 159.962 41.5333 159.295 41.1C158.662 40.6667 158.279 40.1667 158.145 39.6C158.012 39.0333 157.945 38.55 157.945 38.15ZM164.345 15.6L165.445 26.45C165.445 26.45 165.729 26.45 166.295 26.45C166.862 26.45 167.495 26.35 168.195 26.15C168.929 25.95 169.562 25.5667 170.095 25C170.629 24.4333 170.862 23.5833 170.795 22.45C170.729 20.95 170.562 19.6167 170.295 18.45C170.029 17.25 169.629 16.3333 169.095 15.7C168.562 15.0667 167.829 14.8333 166.895 15C165.962 15.1667 165.312 15.3 164.945 15.4C164.612 15.4667 164.429 15.5167 164.395 15.55C164.362 15.5833 164.345 15.6 164.345 15.6ZM181.431 13.7C181.431 13.7 181.431 13.55 181.431 13.25C181.465 12.95 181.581 12.6167 181.781 12.25C181.981 11.85 182.348 11.5 182.881 11.2C183.448 10.9 184.248 10.75 185.281 10.75C186.548 10.75 187.448 10.9333 187.981 11.3C188.548 11.6333 188.881 12.05 188.981 12.55C189.115 13.0167 189.148 13.4833 189.081 13.95C189.015 14.3833 188.981 14.6833 188.981 14.85C188.981 14.9833 188.981 15.4833 188.981 16.35C189.015 17.1833 189.081 18.1833 189.181 19.35C189.281 20.5167 189.448 21.6667 189.681 22.8C189.915 23.9333 190.248 24.8833 190.681 25.65C191.115 26.3833 191.681 26.7333 192.381 26.7C193.081 26.6667 193.548 26.3 193.781 25.6C194.015 24.9 194.098 24.0333 194.031 23C193.998 21.9667 193.881 20.9333 193.681 19.9C193.481 18.8667 193.281 17.9833 193.081 17.25C192.881 16.4833 192.781 16.05 192.781 15.95C192.781 15.8167 192.731 15.5833 192.631 15.25C192.565 14.8833 192.565 14.4833 192.631 14.05C192.731 13.6167 193.015 13.2167 193.481 12.85C193.948 12.4833 194.715 12.25 195.781 12.15C196.848 12.05 197.681 12.1167 198.281 12.35C198.915 12.55 199.365 12.8167 199.631 13.15C199.931 13.4833 200.115 13.8 200.181 14.1C200.248 14.3667 200.281 14.5 200.281 14.5C200.281 14.5 200.398 14.9 200.631 15.7C200.865 16.5 201.081 17.5333 201.281 18.8C201.481 20.0333 201.548 21.35 201.481 22.75C201.448 24.15 201.148 25.4833 200.581 26.75C200.048 27.9833 199.148 29 197.881 29.8C196.648 30.6 194.915 31 192.681 31C190.448 31 188.615 30.5833 187.181 29.75C185.748 28.9167 184.615 27.85 183.781 26.55C182.981 25.2167 182.398 23.8167 182.031 22.35C181.665 20.8833 181.448 19.5 181.381 18.2C181.315 16.8667 181.298 15.7833 181.331 14.95C181.398 14.1167 181.431 13.7 181.431 13.7ZM208.047 0.899997C208.047 0.899997 208.264 0.916665 208.697 0.949999C209.13 0.949999 209.63 1.03333 210.197 1.2C210.764 1.33333 211.264 1.58333 211.697 1.95C212.13 2.31666 212.347 2.83333 212.347 3.5C212.347 3.93333 212.364 4.81667 212.397 6.15C212.43 7.48333 212.464 9.06667 212.497 10.9C212.53 12.7 212.564 14.5667 212.597 16.5C212.664 18.4 212.714 20.1833 212.747 21.85C212.78 23.5167 212.797 24.8667 212.797 25.9C212.83 26.9333 212.847 27.45 212.847 27.45C212.847 27.45 212.847 27.6333 212.847 28C212.847 28.3333 212.747 28.75 212.547 29.25C212.347 29.7167 211.964 30.1333 211.397 30.5C210.83 30.8333 209.997 31 208.897 31C207.43 31 206.364 30.8167 205.697 30.45C205.03 30.05 204.614 29.6167 204.447 29.15C204.314 28.65 204.264 28.2667 204.297 28C204.33 27.8667 204.347 27.2833 204.347 26.25C204.347 25.2167 204.33 23.9167 204.297 22.35C204.297 20.7833 204.28 19.1 204.247 17.3C204.214 15.5 204.18 13.7333 204.147 12C204.114 10.2333 204.064 8.66667 203.997 7.3C203.964 5.9 203.93 4.86667 203.897 4.2C203.83 3.26667 204.047 2.56667 204.547 2.1C205.08 1.63333 205.68 1.33333 206.347 1.2C207.047 1.03333 207.614 0.933332 208.047 0.899997ZM225.467 10.35C227.133 10.3167 228.55 10.4667 229.717 10.8C230.883 11.1 231.85 11.4667 232.617 11.9C233.383 12.3333 233.983 12.7167 234.417 13.05C234.85 13.3833 235.167 13.55 235.367 13.55C235.733 13.5833 236 13.7667 236.167 14.1C236.333 14.4 236.417 14.55 236.417 14.55C236.417 14.55 236.467 14.8833 236.567 15.55C236.667 16.2167 236.783 17.0667 236.917 18.1C237.083 19.1333 237.233 20.2167 237.367 21.35C237.5 22.4833 237.617 23.55 237.717 24.55C237.817 25.55 237.867 26.3333 237.867 26.9C237.867 27.8333 237.8 28.5833 237.667 29.15C237.567 29.7167 237.233 30.15 236.667 30.45C236.1 30.7167 235.167 30.9 233.867 31C232.9 31.0667 232.2 31.05 231.767 30.95C231.333 30.85 231.067 30.7333 230.967 30.6C230.867 30.4667 230.817 30.4 230.817 30.4C230.517 30.6333 230.017 30.8 229.317 30.9C228.65 30.9667 228.017 31 227.417 31C226.817 31 226.517 31 226.517 31C226.517 31 226.133 30.95 225.367 30.85C224.6 30.7167 223.65 30.4667 222.517 30.1C221.417 29.7 220.3 29.1167 219.167 28.35C218.067 27.55 217.15 26.5 216.417 25.2C215.683 23.8667 215.333 22.2167 215.367 20.25C215.4 18.2833 215.767 16.6833 216.467 15.45C217.167 14.1833 218.017 13.2 219.017 12.5C220.017 11.8 221 11.3 221.967 11C222.967 10.7 223.8 10.5167 224.467 10.45C225.133 10.3833 225.467 10.35 225.467 10.35ZM229.217 15.5C229.05 15.2667 228.683 15.0167 228.117 14.75C227.583 14.45 227.067 14.2 226.567 14C226.1 13.8 225.867 13.7333 225.867 13.8C225.867 13.8333 225.683 14.1167 225.317 14.65C224.983 15.15 224.633 15.9 224.267 16.9C223.933 17.8667 223.75 19.0333 223.717 20.4C223.683 21.7667 223.867 22.95 224.267 23.95C224.667 24.95 225.15 25.7167 225.717 26.25C226.317 26.7833 226.867 27.05 227.367 27.05C227.733 27.05 228.083 26.8833 228.417 26.55C228.75 26.1833 229.033 25.7833 229.267 25.35C229.5 24.8833 229.683 24.4833 229.817 24.15C229.95 23.8167 230.017 23.65 230.017 23.65L229.217 15.5ZM242.223 27.6C242.223 27.2333 242.173 26.6 242.073 25.7C241.973 24.8 241.839 23.7833 241.673 22.65C241.539 21.4833 241.389 20.3333 241.223 19.2C241.056 18.0333 240.873 17 240.673 16.1C240.506 15.1667 240.356 14.5 240.223 14.1C239.889 13.1 240.073 12.4 240.773 12C241.506 11.5667 242.523 11.2833 243.823 11.15C245.123 11.0167 246.056 11.1167 246.623 11.45C247.223 11.75 247.523 11.9 247.523 11.9C248.023 11.4 248.839 11.05 249.973 10.85C251.139 10.65 252.356 10.5667 253.623 10.6C255.256 10.6333 256.439 10.8833 257.173 11.35C257.906 11.8167 258.273 12.3167 258.273 12.85C258.273 13.25 258.223 13.55 258.123 13.75C258.023 13.95 257.623 14.15 256.923 14.35C256.256 14.5167 255.039 14.8167 253.273 15.25C252.239 15.4833 251.473 16.05 250.973 16.95C250.473 17.8167 250.156 18.8333 250.023 20C249.923 21.1333 249.923 22.2667 250.023 23.4C250.123 24.5 250.239 25.4333 250.373 26.2C250.506 26.9333 250.573 27.3333 250.573 27.4C250.573 27.4667 250.589 27.7 250.623 28.1C250.689 28.4667 250.639 28.8833 250.473 29.35C250.339 29.7833 249.989 30.1667 249.423 30.5C248.856 30.8333 247.956 31 246.723 31C245.489 31 244.556 30.8333 243.923 30.5C243.289 30.1333 242.856 29.7333 242.623 29.3C242.389 28.8667 242.256 28.4833 242.223 28.15C242.223 27.7833 242.223 27.6 242.223 27.6Z" fill="#F1635F"/>
</svg>
