<svg width="300" height="80" viewBox="0 0 300 80" fill="none" xmlns="http://www.w3.org/2000/svg">
<path d="M0.25 16.45C0.25 13.7833 0.716667 11.35 1.65 9.15C2.58333 6.91667 3.85 5.15 5.45 3.85C7.05 2.51667 8.81667 1.85 10.75 1.85C12.1833 1.85 13.55 2.23333 14.85 3C16.15 3.73333 17.3 4.78333 18.3 6.15C19.3 7.48333 20.0833 9.03333 20.65 10.8C21.2167 12.5667 21.5 14.45 21.5 16.45C21.5 18.45 21.2167 20.3333 20.65 22.1C20.0833 23.8667 19.3 25.4333 18.3 26.8C17.3 28.1333 16.15 29.1833 14.85 29.95C13.55 30.6833 12.1833 31.05 10.75 31.05C8.81667 31.05 7.05 30.4 5.45 29.1C3.85 27.7667 2.58333 26 1.65 23.8C0.716667 21.6 0.25 19.15 0.25 16.45ZM7.9 16.25C7.9 18.1833 8.03333 19.9667 8.3 21.6C8.56667 23.2 8.93333 24.4833 9.4 25.45C9.86667 26.3833 10.3833 26.85 10.95 26.85C11.5167 26.85 12.0333 26.3833 12.5 25.45C12.9667 24.4833 13.3333 23.2 13.6 21.6C13.8667 19.9667 14 18.1833 14 16.25C14 14.2833 13.8667 12.5 13.6 10.9C13.3333 9.3 12.9667 8.01667 12.5 7.05C12.0333 6.08333 11.5167 5.6 10.95 5.6C10.3833 5.6 9.86667 6.08333 9.4 7.05C8.93333 8.01667 8.56667 9.3 8.3 10.9C8.03333 12.5 7.9 14.2833 7.9 16.25ZM23.8805 13.7C23.8805 13.7 23.8805 13.55 23.8805 13.25C23.9138 12.95 24.0305 12.6167 24.2305 12.25C24.4305 11.85 24.7971 11.5 25.3305 11.2C25.8971 10.9 26.6971 10.75 27.7305 10.75C28.9971 10.75 29.8971 10.9333 30.4305 11.3C30.9971 11.6333 31.3305 12.05 31.4305 12.55C31.5638 13.0167 31.5971 13.4833 31.5305 13.95C31.4638 14.3833 31.4305 14.6833 31.4305 14.85C31.4305 14.9833 31.4305 15.4833 31.4305 16.35C31.4638 17.1833 31.5305 18.1833 31.6305 19.35C31.7305 20.5167 31.8971 21.6667 32.1305 22.8C32.3638 23.9333 32.6971 24.8833 33.1305 25.65C33.5638 26.3833 34.1305 26.7333 34.8305 26.7C35.5305 26.6667 35.9971 26.3 36.2305 25.6C36.4638 24.9 36.5471 24.0333 36.4805 23C36.4471 21.9667 36.3305 20.9333 36.1305 19.9C35.9305 18.8667 35.7305 17.9833 35.5305 17.25C35.3305 16.4833 35.2305 16.05 35.2305 15.95C35.2305 15.8167 35.1805 15.5833 35.0805 15.25C35.0138 14.8833 35.0138 14.4833 35.0805 14.05C35.1805 13.6167 35.4638 13.2167 35.9305 12.85C36.3971 12.4833 37.1638 12.25 38.2305 12.15C39.2971 12.05 40.1305 12.1167 40.7305 12.35C41.3638 12.55 41.8138 12.8167 42.0805 13.15C42.3805 13.4833 42.5638 13.8 42.6305 14.1C42.6971 14.3667 42.7305 14.5 42.7305 14.5C42.7305 14.5 42.8471 14.9 43.0805 15.7C43.3138 16.5 43.5305 17.5333 43.7305 18.8C43.9305 20.0333 43.9971 21.35 43.9305 22.75C43.8971 24.15 43.5971 25.4833 43.0305 26.75C42.4971 27.9833 41.5971 29 40.3305 29.8C39.0971 30.6 37.3638 31 35.1305 31C32.8971 31 31.0638 30.5833 29.6305 29.75C28.1971 28.9167 27.0638 27.85 26.2305 26.55C25.4305 25.2167 24.8471 23.8167 24.4805 22.35C24.1138 20.8833 23.8971 19.5 23.8305 18.2C23.7638 16.8667 23.7471 15.7833 23.7805 14.95C23.8471 14.1167 23.8805 13.7 23.8805 13.7ZM48.2461 27.6C48.2461 27.2333 48.1961 26.6 48.0961 25.7C47.9961 24.8 47.8628 23.7833 47.6961 22.65C47.5628 21.4833 47.4128 20.3333 47.2461 19.2C47.0794 18.0333 46.8961 17 46.6961 16.1C46.5294 15.1667 46.3794 14.5 46.2461 14.1C45.9128 13.1 46.0961 12.4 46.7961 12C47.5294 11.5667 48.5461 11.2833 49.8461 11.15C51.1461 11.0167 52.0794 11.1167 52.6461 11.45C53.2461 11.75 53.5461 11.9 53.5461 11.9C54.0461 11.4 54.8628 11.05 55.9961 10.85C57.1628 10.65 58.3794 10.5667 59.6461 10.6C61.2794 10.6333 62.4628 10.8833 63.1961 11.35C63.9294 11.8167 64.2961 12.3167 64.2961 12.85C64.2961 13.25 64.2461 13.55 64.1461 13.75C64.0461 13.95 63.6461 14.15 62.9461 14.35C62.2794 14.5167 61.0628 14.8167 59.2961 15.25C58.2628 15.4833 57.4961 16.05 56.9961 16.95C56.4961 17.8167 56.1794 18.8333 56.0461 20C55.9461 21.1333 55.9461 22.2667 56.0461 23.4C56.1461 24.5 56.2628 25.4333 56.3961 26.2C56.5294 26.9333 56.5961 27.3333 56.5961 27.4C56.5961 27.4667 56.6128 27.7 56.6461 28.1C56.7128 28.4667 56.6628 28.8833 56.4961 29.35C56.3628 29.7833 56.0128 30.1667 55.4461 30.5C54.8794 30.8333 53.9794 31 52.7461 31C51.5128 31 50.5794 30.8333 49.9461 30.5C49.3128 30.1333 48.8794 29.7333 48.6461 29.3C48.4128 28.8667 48.2794 28.4833 48.2461 28.15C48.2461 27.7833 48.2461 27.6 48.2461 27.6ZM81.6445 38.15L79.9945 17.85C79.9945 17.85 79.9112 17.7167 79.7445 17.45C79.6112 17.1833 79.4779 16.85 79.3445 16.45C79.2112 16.0167 79.1779 15.6 79.2445 15.2C79.3112 14.8 79.5612 14.4667 79.9945 14.2C80.3612 14 81.0279 13.6167 81.9945 13.05C82.9945 12.45 84.2112 11.8667 85.6445 11.3C87.0779 10.7333 88.6112 10.3333 90.2445 10.1C91.9112 9.86667 93.5779 9.96667 95.2445 10.4C96.9445 10.8 98.5445 11.7167 100.045 13.15C101.511 14.55 102.428 16.1 102.795 17.8C103.161 19.5 103.128 21.1667 102.695 22.8C102.295 24.4333 101.611 25.8667 100.645 27.1C99.7112 28.3333 98.6445 29.2 97.4445 29.7C95.8112 30.3667 94.4112 30.7833 93.2445 30.95C92.0779 31.0833 91.1779 31.1167 90.5445 31.05C89.9112 31.0167 89.5945 31 89.5945 31L90.0945 38.55C90.0945 38.55 90.0945 38.7167 90.0945 39.05C90.0945 39.3833 89.9945 39.7667 89.7945 40.2C89.6279 40.6333 89.2612 41 88.6945 41.3C88.1279 41.6333 87.2945 41.8 86.1945 41.8C84.7279 41.7667 83.6612 41.5333 82.9945 41.1C82.3612 40.6667 81.9779 40.1667 81.8445 39.6C81.7112 39.0333 81.6445 38.55 81.6445 38.15ZM88.0445 15.6L89.1445 26.45C89.1445 26.45 89.4279 26.45 89.9945 26.45C90.5612 26.45 91.1945 26.35 91.8945 26.15C92.6279 25.95 93.2612 25.5667 93.7945 25C94.3279 24.4333 94.5612 23.5833 94.4945 22.45C94.4279 20.95 94.2612 19.6167 93.9945 18.45C93.7279 17.25 93.3279 16.3333 92.7945 15.7C92.2612 15.0667 91.5279 14.8333 90.5945 15C89.6612 15.1667 89.0112 15.3 88.6445 15.4C88.3112 15.4667 88.1279 15.5167 88.0945 15.55C88.0612 15.5833 88.0445 15.6 88.0445 15.6ZM125.23 15.9C125.13 17.5667 124.664 18.9167 123.83 19.95C122.997 20.95 121.98 21.7167 120.78 22.25C119.614 22.75 118.447 23.1 117.28 23.3C116.114 23.4667 115.13 23.55 114.33 23.55C113.564 23.55 113.18 23.55 113.18 23.55C113.38 24.7167 113.664 25.55 114.03 26.05C114.397 26.55 114.797 26.8333 115.23 26.9C115.697 26.9667 116.13 26.9333 116.53 26.8C116.93 26.6333 117.247 26.45 117.48 26.25C117.747 26.05 117.88 25.95 117.88 25.95C117.88 25.95 118.064 25.8 118.43 25.5C118.797 25.2 119.364 24.9167 120.13 24.65C120.93 24.35 121.93 24.2 123.13 24.2C124.497 24.2 125.414 24.3833 125.88 24.75C126.38 25.0833 126.614 25.4833 126.58 25.95C126.58 26.3833 126.48 26.7833 126.28 27.15C126.114 27.4833 126.03 27.65 126.03 27.65C126.03 27.65 125.88 27.8167 125.58 28.15C125.314 28.45 124.814 28.8167 124.08 29.25C123.347 29.6833 122.33 30.0833 121.03 30.45C119.73 30.7833 118.064 30.9667 116.03 31C114.064 31.0333 112.414 30.7667 111.08 30.2C109.747 29.6333 108.647 28.9 107.78 28C106.914 27.0667 106.247 26.1 105.78 25.1C105.347 24.0667 105.03 23.1167 104.83 22.25C104.664 21.35 104.58 20.65 104.58 20.15C104.58 19.65 104.614 19 104.68 18.2C104.78 17.4 104.997 16.5667 105.33 15.7C105.697 14.8 106.247 13.95 106.98 13.15C107.714 12.35 108.714 11.7 109.98 11.2C111.28 10.7 112.93 10.4333 114.93 10.4C117.43 10.3667 119.38 10.5833 120.78 11.05C122.18 11.5167 123.197 12.0833 123.83 12.75C124.464 13.4167 124.847 14.05 124.98 14.65C125.147 15.25 125.23 15.6667 125.23 15.9ZM112.48 20.1C114.514 19.9333 116.03 19.5 117.03 18.8C118.03 18.1 118.614 17.3167 118.78 16.45C118.947 15.5833 118.78 14.85 118.28 14.25C117.814 13.6167 117.097 13.3333 116.13 13.4C115.164 13.4333 114.43 13.8 113.93 14.5C113.43 15.1667 113.08 15.95 112.88 16.85C112.68 17.7167 112.564 18.4833 112.53 19.15C112.497 19.7833 112.48 20.1 112.48 20.1ZM129.253 3.7C129.219 2.86667 129.469 2.2 130.003 1.7C130.536 1.16666 131.719 0.849998 133.553 0.749999C134.786 0.683331 135.686 0.833331 136.253 1.2C136.819 1.56667 137.169 1.95 137.303 2.35C137.469 2.71667 137.553 2.9 137.553 2.9L137.853 7.35C137.853 7.35 138.119 7.35 138.653 7.35C139.219 7.35 139.853 7.41667 140.553 7.55C141.286 7.65 141.919 7.86667 142.453 8.2C143.019 8.53333 143.303 9.05 143.303 9.75C143.303 10.45 143.036 10.9667 142.503 11.3C141.969 11.6333 141.353 11.8667 140.653 12C139.953 12.1 139.319 12.15 138.753 12.15C138.219 12.15 137.953 12.15 137.953 12.15C137.953 12.15 137.953 12.5333 137.953 13.3C137.986 14.0333 138.003 15 138.003 16.2C138.003 17.3667 138.019 18.6167 138.053 19.95C138.086 21.2833 138.103 22.5667 138.103 23.8C138.103 25 138.103 26.0167 138.103 26.85C138.136 27.65 138.153 28.1167 138.153 28.25C138.153 28.4833 138.069 28.8167 137.903 29.25C137.769 29.6833 137.386 30.0833 136.753 30.45C136.153 30.8167 135.153 31 133.753 31C132.719 31 131.919 30.8833 131.353 30.65C130.786 30.3833 130.369 30.1 130.103 29.8C129.869 29.4667 129.736 29.1833 129.703 28.95C129.669 28.6833 129.653 28.55 129.653 28.55L129.253 3.7ZM156.411 23C153.911 22.9333 151.961 22.6833 150.561 22.25C149.161 21.8167 148.161 21.3 147.561 20.7C146.995 20.1 146.645 19.5167 146.511 18.95C146.378 18.35 146.311 17.8833 146.311 17.55C146.311 17.2167 146.361 16.7 146.461 16C146.561 15.3 146.878 14.5667 147.411 13.8C147.945 13.0333 148.861 12.3667 150.161 11.8C151.495 11.2333 153.378 10.9167 155.811 10.85C158.478 10.7833 160.528 10.9333 161.961 11.3C163.395 11.6667 164.411 12.1 165.011 12.6C165.645 13.1 166.028 13.55 166.161 13.95C166.295 14.3167 166.361 14.5 166.361 14.5C166.361 14.9333 166.311 15.3833 166.211 15.85C166.111 16.2833 165.811 16.65 165.311 16.95C164.845 17.2167 164.028 17.3333 162.861 17.3C161.928 17.2667 161.228 17.1833 160.761 17.05C160.295 16.9167 159.945 16.7667 159.711 16.6C159.511 16.4 159.295 16.2 159.061 16C158.861 15.8 158.545 15.6333 158.111 15.5C157.711 15.3667 157.061 15.2833 156.161 15.25C155.061 15.2167 154.228 15.3 153.661 15.5C153.128 15.6667 152.761 15.8833 152.561 16.15C152.395 16.4167 152.295 16.65 152.261 16.85C152.261 17.0167 152.261 17.1 152.261 17.1C152.261 17.1 152.295 17.2333 152.361 17.5C152.461 17.7667 152.795 18.0333 153.361 18.3C153.961 18.5667 155.028 18.7167 156.561 18.75C159.461 18.85 161.678 19.1333 163.211 19.6C164.778 20.0333 165.878 20.55 166.511 21.15C167.178 21.75 167.561 22.35 167.661 22.95C167.795 23.5167 167.861 23.9667 167.861 24.3C167.861 24.6333 167.745 25.15 167.511 25.85C167.311 26.55 166.861 27.2833 166.161 28.05C165.461 28.8167 164.378 29.4833 162.911 30.05C161.478 30.6167 159.545 30.9333 157.111 31C154.478 31.0667 152.428 30.9167 150.961 30.55C149.528 30.1833 148.495 29.75 147.861 29.25C147.261 28.75 146.895 28.3167 146.761 27.95C146.628 27.55 146.561 27.35 146.561 27.35C146.561 26.8833 146.611 26.4333 146.711 26C146.845 25.5667 147.145 25.2167 147.611 24.95C148.111 24.65 148.928 24.5167 150.061 24.55C151.028 24.5833 151.728 24.6667 152.161 24.8C152.628 24.9333 152.978 25.1 153.211 25.3C153.445 25.4667 153.661 25.65 153.861 25.85C154.061 26.05 154.378 26.2167 154.811 26.35C155.245 26.4833 155.895 26.5667 156.761 26.6C157.861 26.6333 158.678 26.5667 159.211 26.4C159.778 26.2 160.161 25.9667 160.361 25.7C160.561 25.4333 160.661 25.2167 160.661 25.05C160.661 24.85 160.661 24.75 160.661 24.75C160.661 24.75 160.628 24.6167 160.561 24.35C160.495 24.05 160.161 23.7667 159.561 23.5C158.995 23.2 157.945 23.0333 156.411 23Z" fill="#101C2D"/>
<path d="M16.8 46.4C16.8 46.4 17 46.4333 17.4 46.5C17.8333 46.5333 18.3167 46.6333 18.85 46.8C19.3833 46.9333 19.8667 47.1667 20.3 47.5C20.7667 47.8 21.0167 48.2333 21.05 48.8C21.0833 49.1667 21.1333 49.9667 21.2 51.2C21.2667 52.4 21.3333 53.8333 21.4 55.5C21.5 57.1667 21.5833 58.9 21.65 60.7C21.75 62.4667 21.8333 64.1333 21.9 65.7C21.9667 67.2333 22.0167 68.4833 22.05 69.45C22.1167 70.4167 22.15 70.9 22.15 70.9C22.15 70.9 22.1333 71.1 22.1 71.5C22.1 71.9 22 72.4 21.8 73C21.6333 73.6 21.3167 74.1833 20.85 74.75C19.85 75.9833 18.5833 77 17.05 77.8C15.5167 78.6 13.4167 79 10.75 79C8.98333 79 7.28333 78.6667 5.65 78C4.05 77.3333 2.73333 76.2833 1.7 74.85C0.7 73.3833 0.216667 71.4833 0.25 69.15C0.283333 67.3833 0.666667 65.8333 1.4 64.5C2.16667 63.1667 3.16667 62.0667 4.4 61.2C5.63333 60.3 7 59.6333 8.5 59.2C10.0333 58.7667 11.5667 58.55 13.1 58.55L12.75 49.9C12.75 49.9 12.7167 49.75 12.65 49.45C12.5833 49.1167 12.6167 48.7333 12.75 48.3C12.9167 47.8667 13.3 47.4667 13.9 47.1C14.5 46.7333 15.4667 46.5 16.8 46.4ZM13.25 62.9C12.4833 62.8333 11.75 63.1167 11.05 63.75C10.35 64.3833 9.76667 65.2 9.3 66.2C8.86667 67.1667 8.65 68.1333 8.65 69.1C8.65 70.5333 8.88333 71.7667 9.35 72.8C9.85 73.8333 10.5 74.35 11.3 74.35C11.8333 74.35 12.2833 74.1333 12.65 73.7C13.0167 73.2667 13.3 72.8333 13.5 72.4C13.7 71.9333 13.8 71.7 13.8 71.7L13.25 62.9ZM44.127 63.9C44.027 65.5667 43.5603 66.9167 42.727 67.95C41.8936 68.95 40.877 69.7167 39.677 70.25C38.5103 70.75 37.3436 71.1 36.177 71.3C35.0103 71.4667 34.027 71.55 33.227 71.55C32.4603 71.55 32.077 71.55 32.077 71.55C32.277 72.7167 32.5603 73.55 32.927 74.05C33.2936 74.55 33.6936 74.8333 34.127 74.9C34.5936 74.9667 35.027 74.9333 35.427 74.8C35.827 74.6333 36.1436 74.45 36.377 74.25C36.6436 74.05 36.777 73.95 36.777 73.95C36.777 73.95 36.9603 73.8 37.327 73.5C37.6936 73.2 38.2603 72.9167 39.027 72.65C39.827 72.35 40.827 72.2 42.027 72.2C43.3936 72.2 44.3103 72.3833 44.777 72.75C45.277 73.0833 45.5103 73.4833 45.477 73.95C45.477 74.3833 45.377 74.7833 45.177 75.15C45.0103 75.4833 44.927 75.65 44.927 75.65C44.927 75.65 44.777 75.8167 44.477 76.15C44.2103 76.45 43.7103 76.8167 42.977 77.25C42.2436 77.6833 41.227 78.0833 39.927 78.45C38.627 78.7833 36.9603 78.9667 34.927 79C32.9603 79.0333 31.3103 78.7667 29.977 78.2C28.6436 77.6333 27.5436 76.9 26.677 76C25.8103 75.0667 25.1436 74.1 24.677 73.1C24.2436 72.0667 23.927 71.1167 23.727 70.25C23.5603 69.35 23.477 68.65 23.477 68.15C23.477 67.65 23.5103 67 23.577 66.2C23.677 65.4 23.8936 64.5667 24.227 63.7C24.5936 62.8 25.1436 61.95 25.877 61.15C26.6103 60.35 27.6103 59.7 28.877 59.2C30.177 58.7 31.827 58.4333 33.827 58.4C36.327 58.3667 38.277 58.5833 39.677 59.05C41.077 59.5167 42.0936 60.0833 42.727 60.75C43.3603 61.4167 43.7436 62.05 43.877 62.65C44.0436 63.25 44.127 63.6667 44.127 63.9ZM31.377 68.1C33.4103 67.9333 34.927 67.5 35.927 66.8C36.927 66.1 37.5103 65.3167 37.677 64.45C37.8436 63.5833 37.677 62.85 37.177 62.25C36.7103 61.6167 35.9936 61.3333 35.027 61.4C34.0603 61.4333 33.327 61.8 32.827 62.5C32.327 63.1667 31.977 63.95 31.777 64.85C31.577 65.7167 31.4603 66.4833 31.427 67.15C31.3936 67.7833 31.377 68.1 31.377 68.1ZM58.9992 71C56.4992 70.9333 54.5492 70.6833 53.1492 70.25C51.7492 69.8167 50.7492 69.3 50.1492 68.7C49.5826 68.1 49.2326 67.5167 49.0992 66.95C48.9659 66.35 48.8992 65.8833 48.8992 65.55C48.8992 65.2167 48.9492 64.7 49.0492 64C49.1492 63.3 49.4659 62.5667 49.9992 61.8C50.5326 61.0333 51.4492 60.3667 52.7492 59.8C54.0826 59.2333 55.9659 58.9167 58.3992 58.85C61.0659 58.7833 63.1159 58.9333 64.5492 59.3C65.9826 59.6667 66.9992 60.1 67.5992 60.6C68.2326 61.1 68.6159 61.55 68.7492 61.95C68.8826 62.3167 68.9492 62.5 68.9492 62.5C68.9492 62.9333 68.8992 63.3833 68.7992 63.85C68.6992 64.2833 68.3992 64.65 67.8992 64.95C67.4326 65.2167 66.6159 65.3333 65.4492 65.3C64.5159 65.2667 63.8159 65.1833 63.3492 65.05C62.8826 64.9167 62.5326 64.7667 62.2992 64.6C62.0992 64.4 61.8826 64.2 61.6492 64C61.4492 63.8 61.1326 63.6333 60.6992 63.5C60.2992 63.3667 59.6492 63.2833 58.7492 63.25C57.6492 63.2167 56.8159 63.3 56.2492 63.5C55.7159 63.6667 55.3492 63.8833 55.1492 64.15C54.9826 64.4167 54.8826 64.65 54.8492 64.85C54.8492 65.0167 54.8492 65.1 54.8492 65.1C54.8492 65.1 54.8826 65.2333 54.9492 65.5C55.0492 65.7667 55.3826 66.0333 55.9492 66.3C56.5492 66.5667 57.6159 66.7167 59.1492 66.75C62.0492 66.85 64.2659 67.1333 65.7992 67.6C67.3659 68.0333 68.4659 68.55 69.0992 69.15C69.7659 69.75 70.1492 70.35 70.2492 70.95C70.3826 71.5167 70.4492 71.9667 70.4492 72.3C70.4492 72.6333 70.3326 73.15 70.0992 73.85C69.8992 74.55 69.4492 75.2833 68.7492 76.05C68.0492 76.8167 66.9659 77.4833 65.4992 78.05C64.0659 78.6167 62.1326 78.9333 59.6992 79C57.0659 79.0667 55.0159 78.9167 53.5492 78.55C52.1159 78.1833 51.0826 77.75 50.4492 77.25C49.8492 76.75 49.4826 76.3167 49.3492 75.95C49.2159 75.55 49.1492 75.35 49.1492 75.35C49.1492 74.8833 49.1992 74.4333 49.2992 74C49.4326 73.5667 49.7326 73.2167 50.1992 72.95C50.6992 72.65 51.5159 72.5167 52.6492 72.55C53.6159 72.5833 54.3159 72.6667 54.7492 72.8C55.2159 72.9333 55.5659 73.1 55.7992 73.3C56.0326 73.4667 56.2492 73.65 56.4492 73.85C56.6492 74.05 56.9659 74.2167 57.3992 74.35C57.8326 74.4833 58.4826 74.5667 59.3492 74.6C60.4492 74.6333 61.2659 74.5667 61.7992 74.4C62.3659 74.2 62.7492 73.9667 62.9492 73.7C63.1492 73.4333 63.2492 73.2167 63.2492 73.05C63.2492 72.85 63.2492 72.75 63.2492 72.75C63.2492 72.75 63.2159 72.6167 63.1492 72.35C63.0826 72.05 62.7492 71.7667 62.1492 71.5C61.5826 71.2 60.5326 71.0333 58.9992 71ZM92.7598 63.9C92.6598 65.5667 92.1931 66.9167 91.3598 67.95C90.5264 68.95 89.5098 69.7167 88.3098 70.25C87.1431 70.75 85.9764 71.1 84.8098 71.3C83.6431 71.4667 82.6598 71.55 81.8598 71.55C81.0931 71.55 80.7098 71.55 80.7098 71.55C80.9098 72.7167 81.1931 73.55 81.5598 74.05C81.9264 74.55 82.3264 74.8333 82.7598 74.9C83.2264 74.9667 83.6598 74.9333 84.0598 74.8C84.4598 74.6333 84.7764 74.45 85.0098 74.25C85.2764 74.05 85.4098 73.95 85.4098 73.95C85.4098 73.95 85.5931 73.8 85.9598 73.5C86.3264 73.2 86.8931 72.9167 87.6598 72.65C88.4598 72.35 89.4598 72.2 90.6598 72.2C92.0264 72.2 92.9431 72.3833 93.4098 72.75C93.9098 73.0833 94.1431 73.4833 94.1098 73.95C94.1098 74.3833 94.0098 74.7833 93.8098 75.15C93.6431 75.4833 93.5598 75.65 93.5598 75.65C93.5598 75.65 93.4098 75.8167 93.1098 76.15C92.8431 76.45 92.3431 76.8167 91.6098 77.25C90.8764 77.6833 89.8598 78.0833 88.5598 78.45C87.2598 78.7833 85.5931 78.9667 83.5598 79C81.5931 79.0333 79.9431 78.7667 78.6098 78.2C77.2764 77.6333 76.1764 76.9 75.3098 76C74.4431 75.0667 73.7764 74.1 73.3098 73.1C72.8764 72.0667 72.5598 71.1167 72.3598 70.25C72.1931 69.35 72.1098 68.65 72.1098 68.15C72.1098 67.65 72.1431 67 72.2098 66.2C72.3098 65.4 72.5264 64.5667 72.8598 63.7C73.2264 62.8 73.7764 61.95 74.5098 61.15C75.2431 60.35 76.2431 59.7 77.5098 59.2C78.8098 58.7 80.4598 58.4333 82.4598 58.4C84.9598 58.3667 86.9098 58.5833 88.3098 59.05C89.7098 59.5167 90.7264 60.0833 91.3598 60.75C91.9931 61.4167 92.3764 62.05 92.5098 62.65C92.6764 63.25 92.7598 63.6667 92.7598 63.9ZM80.0098 68.1C82.0431 67.9333 83.5598 67.5 84.5598 66.8C85.5598 66.1 86.1431 65.3167 86.3098 64.45C86.4764 63.5833 86.3098 62.85 85.8098 62.25C85.3431 61.6167 84.6264 61.3333 83.6598 61.4C82.6931 61.4333 81.9598 61.8 81.4598 62.5C80.9598 63.1667 80.6098 63.95 80.4098 64.85C80.2098 65.7167 80.0931 66.4833 80.0598 67.15C80.0264 67.7833 80.0098 68.1 80.0098 68.1ZM98.832 75.6C98.832 75.2333 98.782 74.6 98.682 73.7C98.582 72.8 98.4487 71.7833 98.282 70.65C98.1487 69.4833 97.9987 68.3333 97.832 67.2C97.6654 66.0333 97.482 65 97.282 64.1C97.1154 63.1667 96.9654 62.5 96.832 62.1C96.4987 61.1 96.682 60.4 97.382 60C98.1154 59.5667 99.132 59.2833 100.432 59.15C101.732 59.0167 102.665 59.1167 103.232 59.45C103.832 59.75 104.132 59.9 104.132 59.9C104.632 59.4 105.449 59.05 106.582 58.85C107.749 58.65 108.965 58.5667 110.232 58.6C111.865 58.6333 113.049 58.8833 113.782 59.35C114.515 59.8167 114.882 60.3167 114.882 60.85C114.882 61.25 114.832 61.55 114.732 61.75C114.632 61.95 114.232 62.15 113.532 62.35C112.865 62.5167 111.649 62.8167 109.882 63.25C108.849 63.4833 108.082 64.05 107.582 64.95C107.082 65.8167 106.765 66.8333 106.632 68C106.532 69.1333 106.532 70.2667 106.632 71.4C106.732 72.5 106.849 73.4333 106.982 74.2C107.115 74.9333 107.182 75.3333 107.182 75.4C107.182 75.4667 107.199 75.7 107.232 76.1C107.299 76.4667 107.249 76.8833 107.082 77.35C106.949 77.7833 106.599 78.1667 106.032 78.5C105.465 78.8333 104.565 79 103.332 79C102.099 79 101.165 78.8333 100.532 78.5C99.8987 78.1333 99.4654 77.7333 99.232 77.3C98.9987 76.8667 98.8654 76.4833 98.832 76.15C98.832 75.7833 98.832 75.6 98.832 75.6ZM121.942 75.7C121.476 74.3 120.992 72.8667 120.492 71.4C119.992 69.9 119.509 68.4833 119.042 67.15C118.609 65.7833 118.226 64.6 117.892 63.6C117.559 62.6 117.326 61.9 117.192 61.5C116.926 60.6667 117.076 59.9667 117.642 59.4C118.209 58.8333 119.309 58.55 120.942 58.55C122.042 58.55 122.859 58.7167 123.392 59.05C123.926 59.35 124.259 59.6667 124.392 60C124.559 60.3 124.642 60.45 124.642 60.45L126.742 69.05L127.092 71.95L127.892 67.9C127.892 67.9 127.976 67.6667 128.142 67.2C128.309 66.7 128.526 66.1 128.792 65.4C129.059 64.6667 129.326 63.9333 129.592 63.2C129.859 62.4333 130.092 61.7833 130.292 61.25C130.692 60.1833 131.226 59.4833 131.892 59.15C132.592 58.7833 133.809 58.6333 135.542 58.7C136.409 58.7333 137.042 58.9 137.442 59.2C137.842 59.4667 138.076 59.7833 138.142 60.15C138.242 60.4833 138.259 60.7833 138.192 61.05C138.159 61.3167 138.142 61.45 138.142 61.45L131.092 76.45C131.092 76.45 130.959 76.6667 130.692 77.1C130.426 77.5 129.976 77.9167 129.342 78.35C128.742 78.7833 127.876 79 126.742 79C125.809 79 125.026 78.8333 124.392 78.5C123.792 78.1667 123.309 77.7833 122.942 77.35C122.576 76.9167 122.309 76.5333 122.142 76.2C122.009 75.8667 121.942 75.7 121.942 75.7ZM160.826 63.9C160.726 65.5667 160.26 66.9167 159.426 67.95C158.593 68.95 157.576 69.7167 156.376 70.25C155.21 70.75 154.043 71.1 152.876 71.3C151.71 71.4667 150.726 71.55 149.926 71.55C149.16 71.55 148.776 71.55 148.776 71.55C148.976 72.7167 149.26 73.55 149.626 74.05C149.993 74.55 150.393 74.8333 150.826 74.9C151.293 74.9667 151.726 74.9333 152.126 74.8C152.526 74.6333 152.843 74.45 153.076 74.25C153.343 74.05 153.476 73.95 153.476 73.95C153.476 73.95 153.66 73.8 154.026 73.5C154.393 73.2 154.96 72.9167 155.726 72.65C156.526 72.35 157.526 72.2 158.726 72.2C160.093 72.2 161.01 72.3833 161.476 72.75C161.976 73.0833 162.21 73.4833 162.176 73.95C162.176 74.3833 162.076 74.7833 161.876 75.15C161.71 75.4833 161.626 75.65 161.626 75.65C161.626 75.65 161.476 75.8167 161.176 76.15C160.91 76.45 160.41 76.8167 159.676 77.25C158.943 77.6833 157.926 78.0833 156.626 78.45C155.326 78.7833 153.66 78.9667 151.626 79C149.66 79.0333 148.01 78.7667 146.676 78.2C145.343 77.6333 144.243 76.9 143.376 76C142.51 75.0667 141.843 74.1 141.376 73.1C140.943 72.0667 140.626 71.1167 140.426 70.25C140.26 69.35 140.176 68.65 140.176 68.15C140.176 67.65 140.21 67 140.276 66.2C140.376 65.4 140.593 64.5667 140.926 63.7C141.293 62.8 141.843 61.95 142.576 61.15C143.31 60.35 144.31 59.7 145.576 59.2C146.876 58.7 148.526 58.4333 150.526 58.4C153.026 58.3667 154.976 58.5833 156.376 59.05C157.776 59.5167 158.793 60.0833 159.426 60.75C160.06 61.4167 160.443 62.05 160.576 62.65C160.743 63.25 160.826 63.6667 160.826 63.9ZM148.076 68.1C150.11 67.9333 151.626 67.5 152.626 66.8C153.626 66.1 154.21 65.3167 154.376 64.45C154.543 63.5833 154.376 62.85 153.876 62.25C153.41 61.6167 152.693 61.3333 151.726 61.4C150.76 61.4333 150.026 61.8 149.526 62.5C149.026 63.1667 148.676 63.95 148.476 64.85C148.276 65.7167 148.16 66.4833 148.126 67.15C148.093 67.7833 148.076 68.1 148.076 68.1ZM178.637 50.2C178.637 50.2 178.67 50.05 178.737 49.75C178.837 49.45 179.037 49.1167 179.337 48.75C179.637 48.3833 180.103 48.0667 180.737 47.8C181.37 47.5 182.237 47.3667 183.337 47.4C184.37 47.4333 185.137 47.6667 185.637 48.1C186.137 48.5333 186.437 49.0833 186.537 49.75C186.637 50.3833 186.603 51.0333 186.437 51.7C186.203 52.6 186.053 53.6167 185.987 54.75C185.92 55.8833 185.887 56.8667 185.887 57.7C185.92 58.5 185.937 58.9 185.937 58.9C188.603 58.9 190.753 59.2333 192.387 59.9C194.053 60.5667 195.337 61.4 196.237 62.4C197.137 63.4 197.753 64.4 198.087 65.4C198.453 66.4 198.67 67.2333 198.737 67.9C198.803 68.5667 198.837 68.9 198.837 68.9C198.837 68.9 198.787 69.25 198.687 69.95C198.62 70.6167 198.437 71.45 198.137 72.45C197.837 73.45 197.353 74.45 196.687 75.45C196.02 76.45 195.103 77.3 193.937 78C192.77 78.6667 191.27 79 189.437 79C187.137 79 185.237 78.4833 183.737 77.45C182.27 76.4167 181.12 75.05 180.287 73.35C179.453 71.6167 178.853 69.7333 178.487 67.7C178.12 65.6333 177.903 63.5833 177.837 61.55C177.803 59.4833 177.853 57.6 177.987 55.9C178.12 54.1667 178.253 52.7833 178.387 51.75C178.553 50.7167 178.637 50.2 178.637 50.2ZM185.537 62.85C185.537 62.85 185.52 63.2333 185.487 64C185.453 64.7333 185.453 65.65 185.487 66.75C185.553 67.85 185.72 68.95 185.987 70.05C186.253 71.15 186.687 72.0833 187.287 72.85C187.92 73.5833 188.77 73.9333 189.837 73.9C190.603 73.9 191.17 73.6 191.537 73C191.903 72.3667 192.137 71.65 192.237 70.85C192.37 70.05 192.42 69.3333 192.387 68.7C192.353 68.0667 192.337 67.7 192.337 67.6C192.337 67.5 192.27 67.2 192.137 66.7C192.037 66.1667 191.77 65.5833 191.337 64.95C190.937 64.2833 190.27 63.75 189.337 63.35C188.437 62.9167 187.17 62.75 185.537 62.85ZM221.178 63.9C221.078 65.5667 220.611 66.9167 219.778 67.95C218.944 68.95 217.928 69.7167 216.728 70.25C215.561 70.75 214.394 71.1 213.228 71.3C212.061 71.4667 211.078 71.55 210.278 71.55C209.511 71.55 209.128 71.55 209.128 71.55C209.328 72.7167 209.611 73.55 209.978 74.05C210.344 74.55 210.744 74.8333 211.178 74.9C211.644 74.9667 212.078 74.9333 212.478 74.8C212.878 74.6333 213.194 74.45 213.428 74.25C213.694 74.05 213.828 73.95 213.828 73.95C213.828 73.95 214.011 73.8 214.378 73.5C214.744 73.2 215.311 72.9167 216.078 72.65C216.878 72.35 217.878 72.2 219.078 72.2C220.444 72.2 221.361 72.3833 221.828 72.75C222.328 73.0833 222.561 73.4833 222.528 73.95C222.528 74.3833 222.428 74.7833 222.228 75.15C222.061 75.4833 221.978 75.65 221.978 75.65C221.978 75.65 221.828 75.8167 221.528 76.15C221.261 76.45 220.761 76.8167 220.028 77.25C219.294 77.6833 218.278 78.0833 216.978 78.45C215.678 78.7833 214.011 78.9667 211.978 79C210.011 79.0333 208.361 78.7667 207.028 78.2C205.694 77.6333 204.594 76.9 203.728 76C202.861 75.0667 202.194 74.1 201.728 73.1C201.294 72.0667 200.978 71.1167 200.778 70.25C200.611 69.35 200.528 68.65 200.528 68.15C200.528 67.65 200.561 67 200.628 66.2C200.728 65.4 200.944 64.5667 201.278 63.7C201.644 62.8 202.194 61.95 202.928 61.15C203.661 60.35 204.661 59.7 205.928 59.2C207.228 58.7 208.878 58.4333 210.878 58.4C213.378 58.3667 215.328 58.5833 216.728 59.05C218.128 59.5167 219.144 60.0833 219.778 60.75C220.411 61.4167 220.794 62.05 220.928 62.65C221.094 63.25 221.178 63.6667 221.178 63.9ZM208.428 68.1C210.461 67.9333 211.978 67.5 212.978 66.8C213.978 66.1 214.561 65.3167 214.728 64.45C214.894 63.5833 214.728 62.85 214.228 62.25C213.761 61.6167 213.044 61.3333 212.078 61.4C211.111 61.4333 210.378 61.8 209.878 62.5C209.378 63.1667 209.028 63.95 208.828 64.85C208.628 65.7167 208.511 66.4833 208.478 67.15C208.444 67.7833 208.428 68.1 208.428 68.1ZM225.2 51.7C225.167 50.8667 225.417 50.2 225.95 49.7C226.483 49.1667 227.667 48.85 229.5 48.75C230.733 48.6833 231.633 48.8333 232.2 49.2C232.767 49.5667 233.117 49.95 233.25 50.35C233.417 50.7167 233.5 50.9 233.5 50.9L233.8 55.35C233.8 55.35 234.067 55.35 234.6 55.35C235.167 55.35 235.8 55.4167 236.5 55.55C237.233 55.65 237.867 55.8667 238.4 56.2C238.967 56.5333 239.25 57.05 239.25 57.75C239.25 58.45 238.983 58.9667 238.45 59.3C237.917 59.6333 237.3 59.8667 236.6 60C235.9 60.1 235.267 60.15 234.7 60.15C234.167 60.15 233.9 60.15 233.9 60.15C233.9 60.15 233.9 60.5333 233.9 61.3C233.933 62.0333 233.95 63 233.95 64.2C233.95 65.3667 233.967 66.6167 234 67.95C234.033 69.2833 234.05 70.5667 234.05 71.8C234.05 73 234.05 74.0167 234.05 74.85C234.083 75.65 234.1 76.1167 234.1 76.25C234.1 76.4833 234.017 76.8167 233.85 77.25C233.717 77.6833 233.333 78.0833 232.7 78.45C232.1 78.8167 231.1 79 229.7 79C228.667 79 227.867 78.8833 227.3 78.65C226.733 78.3833 226.317 78.1 226.05 77.8C225.817 77.4667 225.683 77.1833 225.65 76.95C225.617 76.6833 225.6 76.55 225.6 76.55L225.2 51.7ZM241.509 51.7C241.475 50.8667 241.725 50.2 242.259 49.7C242.792 49.1667 243.975 48.85 245.809 48.75C247.042 48.6833 247.942 48.8333 248.509 49.2C249.075 49.5667 249.425 49.95 249.559 50.35C249.725 50.7167 249.809 50.9 249.809 50.9L250.109 55.35C250.109 55.35 250.375 55.35 250.909 55.35C251.475 55.35 252.109 55.4167 252.809 55.55C253.542 55.65 254.175 55.8667 254.709 56.2C255.275 56.5333 255.559 57.05 255.559 57.75C255.559 58.45 255.292 58.9667 254.759 59.3C254.225 59.6333 253.609 59.8667 252.909 60C252.209 60.1 251.575 60.15 251.009 60.15C250.475 60.15 250.209 60.15 250.209 60.15C250.209 60.15 250.209 60.5333 250.209 61.3C250.242 62.0333 250.259 63 250.259 64.2C250.259 65.3667 250.275 66.6167 250.309 67.95C250.342 69.2833 250.359 70.5667 250.359 71.8C250.359 73 250.359 74.0167 250.359 74.85C250.392 75.65 250.409 76.1167 250.409 76.25C250.409 76.4833 250.325 76.8167 250.159 77.25C250.025 77.6833 249.642 78.0833 249.009 78.45C248.409 78.8167 247.409 79 246.009 79C244.975 79 244.175 78.8833 243.609 78.65C243.042 78.3833 242.625 78.1 242.359 77.8C242.125 77.4667 241.992 77.1833 241.959 76.95C241.925 76.6833 241.909 76.55 241.909 76.55L241.509 51.7ZM277.867 63.9C277.767 65.5667 277.301 66.9167 276.467 67.95C275.634 68.95 274.617 69.7167 273.417 70.25C272.251 70.75 271.084 71.1 269.917 71.3C268.751 71.4667 267.767 71.55 266.967 71.55C266.201 71.55 265.817 71.55 265.817 71.55C266.017 72.7167 266.301 73.55 266.667 74.05C267.034 74.55 267.434 74.8333 267.867 74.9C268.334 74.9667 268.767 74.9333 269.167 74.8C269.567 74.6333 269.884 74.45 270.117 74.25C270.384 74.05 270.517 73.95 270.517 73.95C270.517 73.95 270.701 73.8 271.067 73.5C271.434 73.2 272.001 72.9167 272.767 72.65C273.567 72.35 274.567 72.2 275.767 72.2C277.134 72.2 278.051 72.3833 278.517 72.75C279.017 73.0833 279.251 73.4833 279.217 73.95C279.217 74.3833 279.117 74.7833 278.917 75.15C278.751 75.4833 278.667 75.65 278.667 75.65C278.667 75.65 278.517 75.8167 278.217 76.15C277.951 76.45 277.451 76.8167 276.717 77.25C275.984 77.6833 274.967 78.0833 273.667 78.45C272.367 78.7833 270.701 78.9667 268.667 79C266.701 79.0333 265.051 78.7667 263.717 78.2C262.384 77.6333 261.284 76.9 260.417 76C259.551 75.0667 258.884 74.1 258.417 73.1C257.984 72.0667 257.667 71.1167 257.467 70.25C257.301 69.35 257.217 68.65 257.217 68.15C257.217 67.65 257.251 67 257.317 66.2C257.417 65.4 257.634 64.5667 257.967 63.7C258.334 62.8 258.884 61.95 259.617 61.15C260.351 60.35 261.351 59.7 262.617 59.2C263.917 58.7 265.567 58.4333 267.567 58.4C270.067 58.3667 272.017 58.5833 273.417 59.05C274.817 59.5167 275.834 60.0833 276.467 60.75C277.101 61.4167 277.484 62.05 277.617 62.65C277.784 63.25 277.867 63.6667 277.867 63.9ZM265.117 68.1C267.151 67.9333 268.667 67.5 269.667 66.8C270.667 66.1 271.251 65.3167 271.417 64.45C271.584 63.5833 271.417 62.85 270.917 62.25C270.451 61.6167 269.734 61.3333 268.767 61.4C267.801 61.4333 267.067 61.8 266.567 62.5C266.067 63.1667 265.717 63.95 265.517 64.85C265.317 65.7167 265.201 66.4833 265.167 67.15C265.134 67.7833 265.117 68.1 265.117 68.1ZM283.939 75.6C283.939 75.2333 283.889 74.6 283.789 73.7C283.689 72.8 283.556 71.7833 283.389 70.65C283.256 69.4833 283.106 68.3333 282.939 67.2C282.773 66.0333 282.589 65 282.389 64.1C282.223 63.1667 282.073 62.5 281.939 62.1C281.606 61.1 281.789 60.4 282.489 60C283.223 59.5667 284.239 59.2833 285.539 59.15C286.839 59.0167 287.773 59.1167 288.339 59.45C288.939 59.75 289.239 59.9 289.239 59.9C289.739 59.4 290.556 59.05 291.689 58.85C292.856 58.65 294.073 58.5667 295.339 58.6C296.973 58.6333 298.156 58.8833 298.889 59.35C299.623 59.8167 299.989 60.3167 299.989 60.85C299.989 61.25 299.939 61.55 299.839 61.75C299.739 61.95 299.339 62.15 298.639 62.35C297.973 62.5167 296.756 62.8167 294.989 63.25C293.956 63.4833 293.189 64.05 292.689 64.95C292.189 65.8167 291.873 66.8333 291.739 68C291.639 69.1333 291.639 70.2667 291.739 71.4C291.839 72.5 291.956 73.4333 292.089 74.2C292.223 74.9333 292.289 75.3333 292.289 75.4C292.289 75.4667 292.306 75.7 292.339 76.1C292.406 76.4667 292.356 76.8833 292.189 77.35C292.056 77.7833 291.706 78.1667 291.139 78.5C290.573 78.8333 289.673 79 288.439 79C287.206 79 286.273 78.8333 285.639 78.5C285.006 78.1333 284.573 77.7333 284.339 77.3C284.106 76.8667 283.973 76.4833 283.939 76.15C283.939 75.7833 283.939 75.6 283.939 75.6Z" fill="#F1635F"/>
</svg>
