<svg width="981" height="45" viewBox="0 0 981 45" fill="none" xmlns="http://www.w3.org/2000/svg">
<path d="M16.3926 13.05C15.2592 13.05 14.3926 12.9167 13.7926 12.65C13.1926 12.35 12.7592 12.0167 12.4926 11.65C12.2592 11.2833 12.1259 10.95 12.0926 10.65C12.0592 10.3167 12.0426 10.1167 12.0426 10.05C12.0426 9.88333 11.9759 9.61667 11.8426 9.25C11.7426 8.85 11.4092 8.65 10.8426 8.65C9.90925 8.65 9.07591 8.93333 8.34258 9.5C7.64258 10.0667 7.25925 10.9 7.19258 12C7.12591 13.1 7.40925 14.05 8.04258 14.85C8.67591 15.65 9.92591 16.0667 11.7926 16.1C12.7259 16.1 13.7092 16.2333 14.7426 16.5C15.7759 16.7667 16.7426 17.2 17.6426 17.8C18.5759 18.3667 19.3092 19.15 19.8426 20.15C20.4092 21.1167 20.6926 22.3333 20.6926 23.8C20.6592 26.7333 19.8759 29 18.3426 30.6C16.8092 32.2 14.2592 33 10.6926 33C8.32591 33 6.42591 32.7167 4.99258 32.15C3.55924 31.55 2.50924 30.85 1.84258 30.05C1.20924 29.25 0.875911 28.5333 0.842578 27.9C0.809245 27.2667 0.842578 26.65 0.942578 26.05C1.07591 25.45 1.42591 24.9333 1.99258 24.5C2.59258 24.0667 3.54258 23.8 4.84258 23.7C6.17591 23.6 7.12591 23.7167 7.69258 24.05C8.25925 24.35 8.60925 24.7 8.74258 25.1C8.90925 25.5 8.99258 25.75 8.99258 25.85C8.99258 25.95 9.02591 26.2 9.09258 26.6C9.19258 26.9667 9.35925 27.3333 9.59258 27.7C9.85925 28.0333 10.2259 28.2 10.6926 28.2C11.3926 28.2 11.9926 27.9167 12.4926 27.35C12.9926 26.7833 13.3092 25.8667 13.4426 24.6C13.6759 22.1 12.4259 20.85 9.69258 20.85C9.02591 20.85 8.15925 20.75 7.09258 20.55C6.05925 20.3167 5.02591 19.9167 3.99258 19.35C2.95924 18.75 2.09258 17.9167 1.39258 16.85C0.692578 15.7833 0.359245 14.3833 0.392578 12.65C0.425911 10.9167 0.742578 9.5 1.34258 8.4C1.94258 7.26667 2.72591 6.4 3.69258 5.8C4.69258 5.16667 5.77591 4.71667 6.94258 4.45C8.14258 4.18333 9.32591 4.03333 10.4926 4C12.0592 3.96666 13.5592 4.15 14.9926 4.55C16.4592 4.95 17.6759 5.56667 18.6426 6.4C19.6426 7.2 20.2092 8.25 20.3426 9.55C20.4426 10.5167 20.2926 11.25 19.8926 11.75C19.5259 12.2167 19.0592 12.55 18.4926 12.75C17.9592 12.9167 17.4759 13.0167 17.0426 13.05C16.6092 13.05 16.3926 13.05 16.3926 13.05ZM39.8465 21.6C38.5465 21.6 37.5965 21.45 36.9965 21.15C36.4298 20.8167 36.0632 20.4833 35.8965 20.15C35.7632 19.8167 35.6965 19.6 35.6965 19.5C35.6965 19.4 35.6298 19.2 35.4965 18.9C35.3965 18.6 35.2132 18.3167 34.9465 18.05C34.6798 17.75 34.3298 17.6 33.8965 17.6C33.4632 17.5667 33.0465 17.8667 32.6465 18.5C32.2465 19.1333 31.9132 19.9 31.6465 20.8C31.3798 21.6667 31.2132 22.5 31.1465 23.3C31.1132 24.1 31.1965 24.9167 31.3965 25.75C31.6298 26.5833 31.9632 27.2833 32.3965 27.85C32.8298 28.3833 33.3465 28.6667 33.9465 28.7C34.8465 28.7333 35.3965 28.6 35.5965 28.3C35.7965 27.9667 35.8965 27.8 35.8965 27.8C35.8965 27.8 35.9298 27.7 35.9965 27.5C36.0632 27.2667 36.2465 27.0167 36.5465 26.75C36.8798 26.4833 37.3965 26.2667 38.0965 26.1C38.7965 25.9 39.7965 25.8167 41.0965 25.85C42.3965 25.8833 43.2798 26.05 43.7465 26.35C44.2132 26.65 44.4465 26.9833 44.4465 27.35C44.4798 27.7167 44.4132 28.0333 44.2465 28.3C44.0798 28.5667 43.9965 28.7 43.9965 28.7C43.9965 28.7 43.7632 28.9167 43.2965 29.35C42.8298 29.7833 42.1465 30.2833 41.2465 30.85C40.3798 31.4167 39.3132 31.9167 38.0465 32.35C36.7798 32.7833 35.3298 33 33.6965 33C30.4632 33 27.8965 32.1167 25.9965 30.35C24.1298 28.5833 23.1298 26.0833 22.9965 22.85C22.9298 21.25 23.2132 19.8167 23.8465 18.55C24.4798 17.2833 25.3298 16.2167 26.3965 15.35C27.4632 14.45 28.6465 13.7667 29.9465 13.3C31.2465 12.8 32.5132 12.5167 33.7465 12.45C35.0132 12.3833 36.2132 12.5667 37.3465 13C38.4798 13.4 39.4965 13.95 40.3965 14.65C41.3298 15.35 42.0798 16.0833 42.6465 16.85C43.2132 17.6167 43.5298 18.3333 43.5965 19C43.6632 19.6333 43.5132 20.1333 43.1465 20.5C42.8132 20.8667 42.3798 21.1333 41.8465 21.3C41.3465 21.4333 40.8965 21.5167 40.4965 21.55C40.0965 21.5833 39.8798 21.6 39.8465 21.6ZM51.1293 11.95C51.1293 11.95 50.9126 11.95 50.4793 11.95C50.046 11.9167 49.5293 11.8167 48.9293 11.65C48.3626 11.45 47.846 11.1 47.3793 10.6C46.9126 10.1 46.6626 9.35 46.6293 8.35C46.596 7.35 46.746 6.61667 47.0793 6.15C47.4126 5.65 47.8293 5.31666 48.3293 5.15C48.8293 4.95 49.3126 4.85 49.7793 4.85C50.246 4.81667 50.5793 4.78333 50.7793 4.75C50.9793 4.71667 51.3126 4.75 51.7793 4.85C52.246 4.91666 52.7293 5.1 53.2293 5.4C53.7293 5.66666 54.146 6.08333 54.4793 6.65C54.8126 7.18333 54.946 7.9 54.8793 8.8C54.8126 9.66667 54.5793 10.3333 54.1793 10.8C53.8126 11.2333 53.3793 11.5333 52.8793 11.7C52.4126 11.8333 51.996 11.9167 51.6293 11.95C51.296 11.95 51.1293 11.95 51.1293 11.95ZM49.3793 29.9L48.1793 18.5C48.1793 18.5 48.096 18.3333 47.9293 18C47.796 17.6333 47.696 17.3833 47.6293 17.25C47.596 17.15 47.5293 16.95 47.4293 16.65C47.3626 16.3167 47.446 15.9667 47.6793 15.6C47.946 15.2333 48.5126 14.9667 49.3793 14.8C50.2793 14.6333 51.2126 14.5833 52.1793 14.65C53.146 14.7167 53.996 15.0167 54.7293 15.55C55.496 16.05 55.9626 16.9333 56.1293 18.2C56.2626 19.1333 56.396 20.25 56.5293 21.55C56.6626 22.8167 56.7793 24.0667 56.8793 25.3C57.0126 26.5 57.1126 27.5167 57.1793 28.35C57.2793 29.15 57.3293 29.55 57.3293 29.55C57.3293 29.55 57.346 29.7333 57.3793 30.1C57.4126 30.4333 57.3626 30.8333 57.2293 31.3C57.096 31.7333 56.7626 32.1333 56.2293 32.5C55.7293 32.8333 54.9126 33 53.7793 33C52.646 33 51.7793 32.85 51.1793 32.55C50.5793 32.2167 50.146 31.85 49.8793 31.45C49.646 31.05 49.496 30.7 49.4293 30.4C49.396 30.0667 49.3793 29.9 49.3793 29.9ZM80.1582 17.9C80.0582 19.5667 79.5915 20.9167 78.7582 21.95C77.9249 22.95 76.9082 23.7167 75.7082 24.25C74.5415 24.75 73.3749 25.1 72.2082 25.3C71.0415 25.4667 70.0582 25.55 69.2582 25.55C68.4915 25.55 68.1082 25.55 68.1082 25.55C68.3082 26.7167 68.5915 27.55 68.9582 28.05C69.3249 28.55 69.7249 28.8333 70.1582 28.9C70.6249 28.9667 71.0582 28.9333 71.4582 28.8C71.8582 28.6333 72.1749 28.45 72.4082 28.25C72.6749 28.05 72.8082 27.95 72.8082 27.95C72.8082 27.95 72.9915 27.8 73.3582 27.5C73.7249 27.2 74.2915 26.9167 75.0582 26.65C75.8582 26.35 76.8582 26.2 78.0582 26.2C79.4249 26.2 80.3415 26.3833 80.8082 26.75C81.3082 27.0833 81.5415 27.4833 81.5082 27.95C81.5082 28.3833 81.4082 28.7833 81.2082 29.15C81.0415 29.4833 80.9582 29.65 80.9582 29.65C80.9582 29.65 80.8082 29.8167 80.5082 30.15C80.2415 30.45 79.7415 30.8167 79.0082 31.25C78.2749 31.6833 77.2582 32.0833 75.9582 32.45C74.6582 32.7833 72.9915 32.9667 70.9582 33C68.9915 33.0333 67.3415 32.7667 66.0082 32.2C64.6749 31.6333 63.5749 30.9 62.7082 30C61.8415 29.0667 61.1749 28.1 60.7082 27.1C60.2749 26.0667 59.9582 25.1167 59.7582 24.25C59.5915 23.35 59.5082 22.65 59.5082 22.15C59.5082 21.65 59.5415 21 59.6082 20.2C59.7082 19.4 59.9249 18.5667 60.2582 17.7C60.6249 16.8 61.1749 15.95 61.9082 15.15C62.6415 14.35 63.6415 13.7 64.9082 13.2C66.2082 12.7 67.8582 12.4333 69.8582 12.4C72.3582 12.3667 74.3082 12.5833 75.7082 13.05C77.1082 13.5167 78.1249 14.0833 78.7582 14.75C79.3915 15.4167 79.7749 16.05 79.9082 16.65C80.0749 17.25 80.1582 17.6667 80.1582 17.9ZM67.4082 22.1C69.4415 21.9333 70.9582 21.5 71.9582 20.8C72.9582 20.1 73.5415 19.3167 73.7082 18.45C73.8749 17.5833 73.7082 16.85 73.2082 16.25C72.7415 15.6167 72.0249 15.3333 71.0582 15.4C70.0915 15.4333 69.3582 15.8 68.8582 16.5C68.3582 17.1667 68.0082 17.95 67.8082 18.85C67.6082 19.7167 67.4915 20.4833 67.4582 21.15C67.4249 21.7833 67.4082 22.1 67.4082 22.1ZM89.7805 33C89.7805 33 89.5638 33 89.1305 33C88.6971 33 88.1971 32.9333 87.6305 32.8C87.0971 32.6667 86.6138 32.4 86.1805 32C85.7471 31.6 85.4971 31.0167 85.4305 30.25C85.3971 29.6167 85.3305 28.7167 85.2305 27.55C85.1305 26.3833 85.0138 25.1167 84.8805 23.75C84.7805 22.35 84.6805 21.0333 84.5805 19.8C84.4805 18.5333 84.3971 17.5 84.3305 16.7C84.2638 15.9 84.2305 15.5 84.2305 15.5C84.2305 15.5 84.2471 15.3667 84.2805 15.1C84.3138 14.8 84.4305 14.4667 84.6305 14.1C84.8638 13.7333 85.2471 13.4 85.7805 13.1C86.3471 12.8 87.1305 12.6333 88.1305 12.6C89.1305 12.5667 89.9138 12.6667 90.4805 12.9C91.0471 13.1333 91.4471 13.4167 91.6805 13.75C91.9471 14.05 92.0971 14.3333 92.1305 14.6C92.1971 14.8333 92.2305 14.95 92.2305 14.95C92.2305 14.95 92.5305 14.8 93.1305 14.5C93.7638 14.1667 94.5638 13.8333 95.5305 13.5C96.5305 13.1667 97.5805 12.9667 98.6805 12.9C98.8471 12.9 99.1638 12.9 99.6305 12.9C100.13 12.9 100.664 13.0167 101.23 13.25C101.83 13.45 102.414 13.85 102.98 14.45C103.58 15.05 104.08 15.9333 104.48 17.1C104.88 18.2333 105.114 19.7333 105.18 21.6C105.28 23.9333 105.347 25.85 105.38 27.35C105.447 28.85 105.397 30.0167 105.23 30.85C105.097 31.65 104.764 32.2167 104.23 32.55C103.73 32.85 102.93 33 101.83 33C100.764 33 99.9805 32.85 99.4805 32.55C98.9805 32.25 98.6638 31.9 98.5305 31.5C98.3971 31.0667 98.3305 30.6833 98.3305 30.35C98.3305 30.15 98.3638 29.6167 98.4305 28.75C98.4971 27.85 98.5471 26.8333 98.5805 25.7C98.6138 24.5333 98.5971 23.4 98.5305 22.3C98.4971 21.1667 98.3638 20.25 98.1305 19.55C97.9305 18.8167 97.5971 18.4667 97.1305 18.5C96.5638 18.5333 96.0305 18.75 95.5305 19.15C95.0638 19.5167 94.6471 19.95 94.2805 20.45C93.9138 20.9167 93.6305 21.3333 93.4305 21.7C93.2305 22.0333 93.1305 22.2 93.1305 22.2L93.6305 29.75C93.6305 29.75 93.6305 29.9167 93.6305 30.25C93.6305 30.5833 93.5305 30.9667 93.3305 31.4C93.1305 31.8 92.7471 32.1667 92.1805 32.5C91.6471 32.8333 90.8471 33 89.7805 33ZM107.764 5.7C107.731 4.86667 107.981 4.2 108.514 3.7C109.048 3.16666 110.231 2.85 112.064 2.75C113.298 2.68333 114.198 2.83333 114.764 3.2C115.331 3.56667 115.681 3.95 115.814 4.35C115.981 4.71667 116.064 4.9 116.064 4.9L116.364 9.35C116.364 9.35 116.631 9.35 117.164 9.35C117.731 9.35 118.364 9.41667 119.064 9.55C119.798 9.65 120.431 9.86667 120.964 10.2C121.531 10.5333 121.814 11.05 121.814 11.75C121.814 12.45 121.548 12.9667 121.014 13.3C120.481 13.6333 119.864 13.8667 119.164 14C118.464 14.1 117.831 14.15 117.264 14.15C116.731 14.15 116.464 14.15 116.464 14.15C116.464 14.15 116.464 14.5333 116.464 15.3C116.498 16.0333 116.514 17 116.514 18.2C116.514 19.3667 116.531 20.6167 116.564 21.95C116.598 23.2833 116.614 24.5667 116.614 25.8C116.614 27 116.614 28.0167 116.614 28.85C116.648 29.65 116.664 30.1167 116.664 30.25C116.664 30.4833 116.581 30.8167 116.414 31.25C116.281 31.6833 115.898 32.0833 115.264 32.45C114.664 32.8167 113.664 33 112.264 33C111.231 33 110.431 32.8833 109.864 32.65C109.298 32.3833 108.881 32.1 108.614 31.8C108.381 31.4667 108.248 31.1833 108.214 30.95C108.181 30.6833 108.164 30.55 108.164 30.55L107.764 5.7ZM128.473 11.95C128.473 11.95 128.256 11.95 127.823 11.95C127.39 11.9167 126.873 11.8167 126.273 11.65C125.706 11.45 125.19 11.1 124.723 10.6C124.256 10.1 124.006 9.35 123.973 8.35C123.94 7.35 124.09 6.61667 124.423 6.15C124.756 5.65 125.173 5.31666 125.673 5.15C126.173 4.95 126.656 4.85 127.123 4.85C127.59 4.81667 127.923 4.78333 128.123 4.75C128.323 4.71667 128.656 4.75 129.123 4.85C129.59 4.91666 130.073 5.1 130.573 5.4C131.073 5.66666 131.49 6.08333 131.823 6.65C132.156 7.18333 132.29 7.9 132.223 8.8C132.156 9.66667 131.923 10.3333 131.523 10.8C131.156 11.2333 130.723 11.5333 130.223 11.7C129.756 11.8333 129.34 11.9167 128.973 11.95C128.64 11.95 128.473 11.95 128.473 11.95ZM126.723 29.9L125.523 18.5C125.523 18.5 125.44 18.3333 125.273 18C125.14 17.6333 125.04 17.3833 124.973 17.25C124.94 17.15 124.873 16.95 124.773 16.65C124.706 16.3167 124.79 15.9667 125.023 15.6C125.29 15.2333 125.856 14.9667 126.723 14.8C127.623 14.6333 128.556 14.5833 129.523 14.65C130.49 14.7167 131.34 15.0167 132.073 15.55C132.84 16.05 133.306 16.9333 133.473 18.2C133.606 19.1333 133.74 20.25 133.873 21.55C134.006 22.8167 134.123 24.0667 134.223 25.3C134.356 26.5 134.456 27.5167 134.523 28.35C134.623 29.15 134.673 29.55 134.673 29.55C134.673 29.55 134.69 29.7333 134.723 30.1C134.756 30.4333 134.706 30.8333 134.573 31.3C134.44 31.7333 134.106 32.1333 133.573 32.5C133.073 32.8333 132.256 33 131.123 33C129.99 33 129.123 32.85 128.523 32.55C127.923 32.2167 127.49 31.85 127.223 31.45C126.99 31.05 126.84 30.7 126.773 30.4C126.74 30.0667 126.723 29.9 126.723 29.9ZM145.152 33C145.152 33 144.969 33 144.602 33C144.235 33 143.769 32.9167 143.202 32.75C142.669 32.55 142.135 32.2167 141.602 31.75C141.069 31.25 140.652 30.5333 140.352 29.6C140.052 28.7 139.685 27.55 139.252 26.15C138.819 24.7167 138.435 23.1667 138.102 21.5C137.769 19.8 137.569 18.0667 137.502 16.3C137.469 14.5 137.669 12.7667 138.102 11.1C138.535 9.43333 139.319 7.95 140.452 6.65C141.452 5.48333 142.552 4.68333 143.752 4.25C144.985 3.81667 146.152 3.6 147.252 3.6C148.352 3.6 149.252 3.66667 149.952 3.8C150.685 3.93333 151.052 4 151.052 4C151.052 4 151.219 4.08333 151.552 4.25C151.885 4.38333 152.219 4.58333 152.552 4.85C152.885 5.11667 153.069 5.41667 153.102 5.75C153.135 6.05 152.852 6.36667 152.252 6.7C151.452 7.13333 150.652 7.46667 149.852 7.7C149.052 7.9 148.335 8.16667 147.702 8.5C147.069 8.8 146.585 9.35 146.252 10.15C145.852 11.1167 145.569 12 145.402 12.8C145.235 13.6 145.152 14.4833 145.152 15.45C145.152 16.4167 145.219 17.6333 145.352 19.1C145.352 19.1 145.635 19.0333 146.202 18.9C146.802 18.7333 147.485 18.6167 148.252 18.55C149.052 18.4833 149.785 18.55 150.452 18.75C151.152 18.95 151.602 19.3833 151.802 20.05C152.002 20.6833 151.835 21.2 151.302 21.6C150.769 22 150.102 22.3167 149.302 22.55C148.502 22.75 147.785 22.9 147.152 23C146.519 23.0667 146.202 23.1 146.202 23.1L148.452 30.15C148.452 30.15 148.485 30.3 148.552 30.6C148.619 30.8667 148.602 31.2 148.502 31.6C148.402 31.9667 148.102 32.3 147.602 32.6C147.102 32.8667 146.285 33 145.152 33ZM159.723 11.95C159.723 11.95 159.506 11.95 159.073 11.95C158.64 11.9167 158.123 11.8167 157.523 11.65C156.956 11.45 156.44 11.1 155.973 10.6C155.506 10.1 155.256 9.35 155.223 8.35C155.19 7.35 155.34 6.61667 155.673 6.15C156.006 5.65 156.423 5.31666 156.923 5.15C157.423 4.95 157.906 4.85 158.373 4.85C158.84 4.81667 159.173 4.78333 159.373 4.75C159.573 4.71667 159.906 4.75 160.373 4.85C160.84 4.91666 161.323 5.1 161.823 5.4C162.323 5.66666 162.74 6.08333 163.073 6.65C163.406 7.18333 163.54 7.9 163.473 8.8C163.406 9.66667 163.173 10.3333 162.773 10.8C162.406 11.2333 161.973 11.5333 161.473 11.7C161.006 11.8333 160.59 11.9167 160.223 11.95C159.89 11.95 159.723 11.95 159.723 11.95ZM157.973 29.9L156.773 18.5C156.773 18.5 156.69 18.3333 156.523 18C156.39 17.6333 156.29 17.3833 156.223 17.25C156.19 17.15 156.123 16.95 156.023 16.65C155.956 16.3167 156.04 15.9667 156.273 15.6C156.54 15.2333 157.106 14.9667 157.973 14.8C158.873 14.6333 159.806 14.5833 160.773 14.65C161.74 14.7167 162.59 15.0167 163.323 15.55C164.09 16.05 164.556 16.9333 164.723 18.2C164.856 19.1333 164.99 20.25 165.123 21.55C165.256 22.8167 165.373 24.0667 165.473 25.3C165.606 26.5 165.706 27.5167 165.773 28.35C165.873 29.15 165.923 29.55 165.923 29.55C165.923 29.55 165.94 29.7333 165.973 30.1C166.006 30.4333 165.956 30.8333 165.823 31.3C165.69 31.7333 165.356 32.1333 164.823 32.5C164.323 32.8333 163.506 33 162.373 33C161.24 33 160.373 32.85 159.773 32.55C159.173 32.2167 158.74 31.85 158.473 31.45C158.24 31.05 158.09 30.7 158.023 30.4C157.99 30.0667 157.973 29.9 157.973 29.9ZM185.452 21.6C184.152 21.6 183.202 21.45 182.602 21.15C182.035 20.8167 181.669 20.4833 181.502 20.15C181.369 19.8167 181.302 19.6 181.302 19.5C181.302 19.4 181.235 19.2 181.102 18.9C181.002 18.6 180.819 18.3167 180.552 18.05C180.285 17.75 179.935 17.6 179.502 17.6C179.069 17.5667 178.652 17.8667 178.252 18.5C177.852 19.1333 177.519 19.9 177.252 20.8C176.985 21.6667 176.819 22.5 176.752 23.3C176.719 24.1 176.802 24.9167 177.002 25.75C177.235 26.5833 177.569 27.2833 178.002 27.85C178.435 28.3833 178.952 28.6667 179.552 28.7C180.452 28.7333 181.002 28.6 181.202 28.3C181.402 27.9667 181.502 27.8 181.502 27.8C181.502 27.8 181.535 27.7 181.602 27.5C181.669 27.2667 181.852 27.0167 182.152 26.75C182.485 26.4833 183.002 26.2667 183.702 26.1C184.402 25.9 185.402 25.8167 186.702 25.85C188.002 25.8833 188.885 26.05 189.352 26.35C189.819 26.65 190.052 26.9833 190.052 27.35C190.085 27.7167 190.019 28.0333 189.852 28.3C189.685 28.5667 189.602 28.7 189.602 28.7C189.602 28.7 189.369 28.9167 188.902 29.35C188.435 29.7833 187.752 30.2833 186.852 30.85C185.985 31.4167 184.919 31.9167 183.652 32.35C182.385 32.7833 180.935 33 179.302 33C176.069 33 173.502 32.1167 171.602 30.35C169.735 28.5833 168.735 26.0833 168.602 22.85C168.535 21.25 168.819 19.8167 169.452 18.55C170.085 17.2833 170.935 16.2167 172.002 15.35C173.069 14.45 174.252 13.7667 175.552 13.3C176.852 12.8 178.119 12.5167 179.352 12.45C180.619 12.3833 181.819 12.5667 182.952 13C184.085 13.4 185.102 13.95 186.002 14.65C186.935 15.35 187.685 16.0833 188.252 16.85C188.819 17.6167 189.135 18.3333 189.202 19C189.269 19.6333 189.119 20.1333 188.752 20.5C188.419 20.8667 187.985 21.1333 187.452 21.3C186.952 21.4333 186.502 21.5167 186.102 21.55C185.702 21.5833 185.485 21.6 185.452 21.6ZM202.385 12.35C204.051 12.3167 205.468 12.4667 206.635 12.8C207.801 13.1 208.768 13.4667 209.535 13.9C210.301 14.3333 210.901 14.7167 211.335 15.05C211.768 15.3833 212.085 15.55 212.285 15.55C212.651 15.5833 212.918 15.7667 213.085 16.1C213.251 16.4 213.335 16.55 213.335 16.55C213.335 16.55 213.385 16.8833 213.485 17.55C213.585 18.2167 213.701 19.0667 213.835 20.1C214.001 21.1333 214.151 22.2167 214.285 23.35C214.418 24.4833 214.535 25.55 214.635 26.55C214.735 27.55 214.785 28.3333 214.785 28.9C214.785 29.8333 214.718 30.5833 214.585 31.15C214.485 31.7167 214.151 32.15 213.585 32.45C213.018 32.7167 212.085 32.9 210.785 33C209.818 33.0667 209.118 33.05 208.685 32.95C208.251 32.85 207.985 32.7333 207.885 32.6C207.785 32.4667 207.735 32.4 207.735 32.4C207.435 32.6333 206.935 32.8 206.235 32.9C205.568 32.9667 204.935 33 204.335 33C203.735 33 203.435 33 203.435 33C203.435 33 203.051 32.95 202.285 32.85C201.518 32.7167 200.568 32.4667 199.435 32.1C198.335 31.7 197.218 31.1167 196.085 30.35C194.985 29.55 194.068 28.5 193.335 27.2C192.601 25.8667 192.251 24.2167 192.285 22.25C192.318 20.2833 192.685 18.6833 193.385 17.45C194.085 16.1833 194.935 15.2 195.935 14.5C196.935 13.8 197.918 13.3 198.885 13C199.885 12.7 200.718 12.5167 201.385 12.45C202.051 12.3833 202.385 12.35 202.385 12.35ZM206.135 17.5C205.968 17.2667 205.601 17.0167 205.035 16.75C204.501 16.45 203.985 16.2 203.485 16C203.018 15.8 202.785 15.7333 202.785 15.8C202.785 15.8333 202.601 16.1167 202.235 16.65C201.901 17.15 201.551 17.9 201.185 18.9C200.851 19.8667 200.668 21.0333 200.635 22.4C200.601 23.7667 200.785 24.95 201.185 25.95C201.585 26.95 202.068 27.7167 202.635 28.25C203.235 28.7833 203.785 29.05 204.285 29.05C204.651 29.05 205.001 28.8833 205.335 28.55C205.668 28.1833 205.951 27.7833 206.185 27.35C206.418 26.8833 206.601 26.4833 206.735 26.15C206.868 25.8167 206.935 25.65 206.935 25.65L206.135 17.5ZM221.391 2.9C221.391 2.9 221.607 2.91666 222.041 2.95C222.474 2.95 222.974 3.03333 223.541 3.2C224.107 3.33333 224.607 3.58333 225.041 3.95C225.474 4.31666 225.691 4.83333 225.691 5.5C225.691 5.93333 225.707 6.81667 225.741 8.15C225.774 9.48333 225.807 11.0667 225.841 12.9C225.874 14.7 225.907 16.5667 225.941 18.5C226.007 20.4 226.057 22.1833 226.091 23.85C226.124 25.5167 226.141 26.8667 226.141 27.9C226.174 28.9333 226.191 29.45 226.191 29.45C226.191 29.45 226.191 29.6333 226.191 30C226.191 30.3333 226.091 30.75 225.891 31.25C225.691 31.7167 225.307 32.1333 224.741 32.5C224.174 32.8333 223.341 33 222.241 33C220.774 33 219.707 32.8167 219.041 32.45C218.374 32.05 217.957 31.6167 217.791 31.15C217.657 30.65 217.607 30.2667 217.641 30C217.674 29.8667 217.691 29.2833 217.691 28.25C217.691 27.2167 217.674 25.9167 217.641 24.35C217.641 22.7833 217.624 21.1 217.591 19.3C217.557 17.5 217.524 15.7333 217.491 14C217.457 12.2333 217.407 10.6667 217.341 9.3C217.307 7.9 217.274 6.86667 217.241 6.2C217.174 5.26667 217.391 4.56667 217.891 4.1C218.424 3.63333 219.024 3.33333 219.691 3.2C220.391 3.03333 220.957 2.93333 221.391 2.9ZM233.061 2.9C233.061 2.9 233.277 2.91666 233.711 2.95C234.144 2.95 234.644 3.03333 235.211 3.2C235.777 3.33333 236.277 3.58333 236.711 3.95C237.144 4.31666 237.361 4.83333 237.361 5.5C237.361 5.93333 237.377 6.81667 237.411 8.15C237.444 9.48333 237.477 11.0667 237.511 12.9C237.544 14.7 237.577 16.5667 237.611 18.5C237.677 20.4 237.727 22.1833 237.761 23.85C237.794 25.5167 237.811 26.8667 237.811 27.9C237.844 28.9333 237.861 29.45 237.861 29.45C237.861 29.45 237.861 29.6333 237.861 30C237.861 30.3333 237.761 30.75 237.561 31.25C237.361 31.7167 236.977 32.1333 236.411 32.5C235.844 32.8333 235.011 33 233.911 33C232.444 33 231.377 32.8167 230.711 32.45C230.044 32.05 229.627 31.6167 229.461 31.15C229.327 30.65 229.277 30.2667 229.311 30C229.344 29.8667 229.361 29.2833 229.361 28.25C229.361 27.2167 229.344 25.9167 229.311 24.35C229.311 22.7833 229.294 21.1 229.261 19.3C229.227 17.5 229.194 15.7333 229.161 14C229.127 12.2333 229.077 10.6667 229.011 9.3C228.977 7.9 228.944 6.86667 228.911 6.2C228.844 5.26667 229.061 4.56667 229.561 4.1C230.094 3.63333 230.694 3.33333 231.361 3.2C232.061 3.03333 232.627 2.93333 233.061 2.9ZM243.28 29.65C243.28 29.6167 243.147 29.4167 242.88 29.05C242.647 28.65 242.364 28 242.03 27.1C241.697 26.1667 241.38 24.8833 241.08 23.25C240.78 21.5833 240.547 19.4833 240.38 16.95C240.314 15.6167 240.497 14.6667 240.93 14.1C241.397 13.5333 241.98 13.1833 242.68 13.05C243.38 12.8833 244.047 12.8 244.68 12.8C244.68 12.8 244.864 12.8 245.23 12.8C245.63 12.7667 246.08 12.8 246.58 12.9C247.08 12.9667 247.514 13.1833 247.88 13.55C248.28 13.8833 248.497 14.4167 248.53 15.15C248.564 15.75 248.597 16.5667 248.63 17.6C248.664 18.6333 248.714 19.75 248.78 20.95C248.88 22.1167 249.03 23.25 249.23 24.35C249.43 25.45 249.68 26.3667 249.98 27.1C250.314 27.8 250.73 28.1833 251.23 28.25C251.73 28.3167 252.064 28.0333 252.23 27.4C252.397 26.7333 252.447 25.9 252.38 24.9C252.347 23.9 252.247 22.9 252.08 21.9C251.947 20.8667 251.814 20 251.68 19.3C251.547 18.6 251.48 18.25 251.48 18.25C251.48 18.25 251.414 18.05 251.28 17.65C251.147 17.2167 251.097 16.7333 251.13 16.2C251.164 15.6667 251.397 15.1833 251.83 14.75C252.264 14.3167 253.03 14.0833 254.13 14.05C255.63 13.9833 256.747 14.1333 257.48 14.5C258.247 14.8667 258.764 15.3333 259.03 15.9C259.33 16.4667 259.514 17.05 259.58 17.65C259.647 17.9833 259.764 18.7833 259.93 20.05C260.13 21.2833 260.347 22.75 260.58 24.45C260.814 26.1167 260.997 27.85 261.13 29.65C261.264 31.4167 261.314 33.0333 261.28 34.5C261.247 35.9667 261.047 37.0833 260.68 37.85C260.114 39.0833 259.33 40.2167 258.33 41.25C257.364 42.3167 256.064 43.1333 254.43 43.7C252.83 44.3 250.78 44.5333 248.28 44.4C246.414 44.3 244.914 44 243.78 43.5C242.647 43.0333 241.797 42.5167 241.23 41.95C240.664 41.4167 240.28 40.9333 240.08 40.5C239.914 40.1 239.83 39.9 239.83 39.9C239.83 39.9 239.764 39.7167 239.63 39.35C239.53 38.9833 239.514 38.55 239.58 38.05C239.68 37.5833 239.997 37.1667 240.53 36.8C241.064 36.4667 241.997 36.3167 243.33 36.35C244.664 36.3833 245.63 36.5 246.23 36.7C246.83 36.9333 247.214 37.1833 247.38 37.45C247.547 37.7167 247.597 37.95 247.53 38.15C247.497 38.35 247.48 38.45 247.48 38.45C247.48 38.45 247.48 38.6333 247.48 39C247.48 39.3667 247.597 39.7167 247.83 40.05C248.097 40.3833 248.564 40.5333 249.23 40.5C249.93 40.4333 250.68 40.1167 251.48 39.55C252.28 39.0167 252.88 38.2 253.28 37.1C253.714 36 253.68 34.6333 253.18 33C253.18 33 252.864 33.05 252.23 33.15C251.597 33.25 250.764 33.25 249.73 33.15C248.73 33.0833 247.647 32.8 246.48 32.3C245.347 31.7667 244.28 30.8833 243.28 29.65ZM284.214 33C284.214 33 284.031 33 283.664 33C283.298 33 282.831 32.9167 282.264 32.75C281.731 32.55 281.198 32.2167 280.664 31.75C280.131 31.25 279.714 30.5333 279.414 29.6C279.114 28.7 278.748 27.55 278.314 26.15C277.881 24.7167 277.498 23.1667 277.164 21.5C276.831 19.8 276.631 18.0667 276.564 16.3C276.531 14.5 276.731 12.7667 277.164 11.1C277.598 9.43333 278.381 7.95 279.514 6.65C280.514 5.48333 281.614 4.68333 282.814 4.25C284.048 3.81667 285.214 3.6 286.314 3.6C287.414 3.6 288.314 3.66667 289.014 3.8C289.748 3.93333 290.114 4 290.114 4C290.114 4 290.281 4.08333 290.614 4.25C290.948 4.38333 291.281 4.58333 291.614 4.85C291.948 5.11667 292.131 5.41667 292.164 5.75C292.198 6.05 291.914 6.36667 291.314 6.7C290.514 7.13333 289.714 7.46667 288.914 7.7C288.114 7.9 287.398 8.16667 286.764 8.5C286.131 8.8 285.648 9.35 285.314 10.15C284.914 11.1167 284.631 12 284.464 12.8C284.298 13.6 284.214 14.4833 284.214 15.45C284.214 16.4167 284.281 17.6333 284.414 19.1C284.414 19.1 284.698 19.0333 285.264 18.9C285.864 18.7333 286.548 18.6167 287.314 18.55C288.114 18.4833 288.848 18.55 289.514 18.75C290.214 18.95 290.664 19.3833 290.864 20.05C291.064 20.6833 290.898 21.2 290.364 21.6C289.831 22 289.164 22.3167 288.364 22.55C287.564 22.75 286.848 22.9 286.214 23C285.581 23.0667 285.264 23.1 285.264 23.1L287.514 30.15C287.514 30.15 287.548 30.3 287.614 30.6C287.681 30.8667 287.664 31.2 287.564 31.6C287.464 31.9667 287.164 32.3 286.664 32.6C286.164 32.8667 285.348 33 284.214 33ZM304.886 12.7C306.119 12.6 307.069 12.7333 307.736 13.1C308.402 13.4667 308.802 13.6833 308.936 13.75C309.269 13.9167 309.569 14.1 309.836 14.3C310.136 14.5 310.286 14.6 310.286 14.6C310.286 14.6 310.536 14.6833 311.036 14.85C311.536 15.0167 312.119 15.4167 312.786 16.05C313.452 16.65 314.069 17.6 314.636 18.9C315.202 20.2 315.536 21.9667 315.636 24.2C315.702 25.7 315.469 26.9667 314.936 28C314.402 29 313.686 29.8333 312.786 30.5C311.919 31.1333 310.969 31.6333 309.936 32C308.936 32.3333 307.969 32.5667 307.036 32.7C306.136 32.8333 305.386 32.9167 304.786 32.95C304.219 32.9833 303.936 33 303.936 33C303.936 33 303.602 33 302.936 33C302.302 33 301.502 32.9 300.536 32.7C299.569 32.4667 298.602 32.0333 297.636 31.4C296.702 30.7333 295.919 29.7667 295.286 28.5C294.686 27.2333 294.419 25.55 294.486 23.45C294.552 21.35 294.936 19.6333 295.636 18.3C296.369 16.9333 297.236 15.8667 298.236 15.1C299.269 14.3333 300.286 13.7833 301.286 13.45C302.319 13.1167 303.169 12.9167 303.836 12.85C304.536 12.75 304.886 12.7 304.886 12.7ZM305.086 17.6C305.086 17.6 304.869 17.8667 304.436 18.4C304.036 18.9333 303.619 19.6833 303.186 20.65C302.786 21.6167 302.586 22.75 302.586 24.05C302.586 25.3167 302.736 26.3167 303.036 27.05C303.336 27.7833 303.652 28.3167 303.986 28.65C304.352 28.95 304.636 29.1 304.836 29.1C305.036 29.1 305.352 29.0167 305.786 28.85C306.252 28.65 306.669 28.2167 307.036 27.55C307.402 26.8833 307.569 25.8333 307.536 24.4C307.502 23.2 307.369 22.2333 307.136 21.5C306.936 20.7667 306.652 20.1167 306.286 19.55C305.952 18.95 305.552 18.3 305.086 17.6ZM319.629 29.6C319.629 29.2333 319.579 28.6 319.479 27.7C319.379 26.8 319.246 25.7833 319.079 24.65C318.946 23.4833 318.796 22.3333 318.629 21.2C318.462 20.0333 318.279 19 318.079 18.1C317.912 17.1667 317.762 16.5 317.629 16.1C317.296 15.1 317.479 14.4 318.179 14C318.912 13.5667 319.929 13.2833 321.229 13.15C322.529 13.0167 323.462 13.1167 324.029 13.45C324.629 13.75 324.929 13.9 324.929 13.9C325.429 13.4 326.246 13.05 327.379 12.85C328.546 12.65 329.762 12.5667 331.029 12.6C332.662 12.6333 333.846 12.8833 334.579 13.35C335.312 13.8167 335.679 14.3167 335.679 14.85C335.679 15.25 335.629 15.55 335.529 15.75C335.429 15.95 335.029 16.15 334.329 16.35C333.662 16.5167 332.446 16.8167 330.679 17.25C329.646 17.4833 328.879 18.05 328.379 18.95C327.879 19.8167 327.562 20.8333 327.429 22C327.329 23.1333 327.329 24.2667 327.429 25.4C327.529 26.5 327.646 27.4333 327.779 28.2C327.912 28.9333 327.979 29.3333 327.979 29.4C327.979 29.4667 327.996 29.7 328.029 30.1C328.096 30.4667 328.046 30.8833 327.879 31.35C327.746 31.7833 327.396 32.1667 326.829 32.5C326.262 32.8333 325.362 33 324.129 33C322.896 33 321.962 32.8333 321.329 32.5C320.696 32.1333 320.262 31.7333 320.029 31.3C319.796 30.8667 319.662 30.4833 319.629 30.15C319.629 29.7833 319.629 29.6 319.629 29.6ZM343.439 33C343.439 33 343.222 33 342.789 33C342.389 33.0333 341.906 32.9833 341.339 32.85C340.806 32.7167 340.306 32.45 339.839 32.05C339.406 31.6167 339.139 30.9667 339.039 30.1C338.972 29.4 338.889 28.4667 338.789 27.3C338.722 26.1333 338.639 24.9 338.539 23.6C338.439 22.2667 338.356 21.0167 338.289 19.85C338.222 18.6833 338.156 17.7333 338.089 17C338.056 16.2333 338.039 15.85 338.039 15.85C338.039 15.85 338.022 15.7 337.989 15.4C337.989 15.1 338.056 14.75 338.189 14.35C338.356 13.9167 338.672 13.5333 339.139 13.2C339.606 12.8667 340.339 12.6833 341.339 12.65C342.672 12.5833 343.656 12.6667 344.289 12.9C344.922 13.1333 345.339 13.3833 345.539 13.65C345.772 13.9167 345.889 14.05 345.889 14.05C345.889 14.05 346.139 13.9167 346.639 13.65C347.172 13.3833 347.889 13.1333 348.789 12.9C349.689 12.6333 350.689 12.5 351.789 12.5C353.056 12.5 354.089 12.6333 354.889 12.9C355.722 13.1667 356.339 13.4333 356.739 13.7C357.139 13.9667 357.339 14.1 357.339 14.1C358.306 13.5 359.289 13.15 360.289 13.05C361.322 12.95 362.489 12.9 363.789 12.9C363.789 12.9 364.122 12.95 364.789 13.05C365.456 13.1167 366.289 13.3167 367.289 13.65C368.289 13.9833 369.289 14.5333 370.289 15.3C371.322 16.0333 372.189 17.0667 372.889 18.4C373.589 19.7 373.956 21.3833 373.989 23.45C374.056 26.05 373.989 28.0167 373.789 29.35C373.589 30.6833 373.306 31.6 372.939 32.1C372.572 32.6 372.122 32.8833 371.589 32.95C371.056 32.9833 370.472 33 369.839 33C368.572 33 367.489 32.7333 366.589 32.2C365.722 31.6333 365.389 30.7833 365.589 29.65C365.656 29.2167 365.706 28.5167 365.739 27.55C365.806 26.5833 365.806 25.5333 365.739 24.4C365.672 23.2333 365.522 22.1333 365.289 21.1C365.056 20.0333 364.706 19.1667 364.239 18.5C363.772 17.8 363.156 17.4667 362.389 17.5C361.822 17.5 361.372 17.7333 361.039 18.2C360.739 18.6333 360.522 19.0667 360.389 19.5C360.256 19.9333 360.189 20.15 360.189 20.15L360.839 29.65C360.839 29.65 360.839 29.8167 360.839 30.15C360.872 30.4833 360.806 30.8833 360.639 31.35C360.472 31.7833 360.106 32.1667 359.539 32.5C358.972 32.8333 358.089 33 356.889 33C355.689 33 354.772 32.85 354.139 32.55C353.539 32.25 353.122 31.9 352.889 31.5C352.656 31.1 352.522 30.75 352.489 30.45C352.456 30.15 352.439 29.9833 352.439 29.95C352.439 29.9167 352.456 29.5833 352.489 28.95C352.522 28.2833 352.539 27.45 352.539 26.45C352.572 25.45 352.539 24.4 352.439 23.3C352.339 22.1667 352.156 21.1167 351.889 20.15C351.656 19.15 351.289 18.3833 350.789 17.85C350.322 17.2833 349.689 17.05 348.889 17.15C348.122 17.25 347.572 17.5 347.239 17.9C346.906 18.2667 346.689 18.6167 346.589 18.95C346.522 19.2833 346.489 19.45 346.489 19.45L347.289 30C347.289 30 347.289 30.15 347.289 30.45C347.322 30.75 347.239 31.1 347.039 31.5C346.872 31.9 346.506 32.25 345.939 32.55C345.406 32.85 344.572 33 343.439 33ZM376.367 15.7C376.367 15.7 376.367 15.55 376.367 15.25C376.4 14.95 376.517 14.6167 376.717 14.25C376.917 13.85 377.283 13.5 377.817 13.2C378.383 12.9 379.183 12.75 380.217 12.75C381.483 12.75 382.383 12.9333 382.917 13.3C383.483 13.6333 383.817 14.05 383.917 14.55C384.05 15.0167 384.083 15.4833 384.017 15.95C383.95 16.3833 383.917 16.6833 383.917 16.85C383.917 16.9833 383.917 17.4833 383.917 18.35C383.95 19.1833 384.017 20.1833 384.117 21.35C384.217 22.5167 384.383 23.6667 384.617 24.8C384.85 25.9333 385.183 26.8833 385.617 27.65C386.05 28.3833 386.617 28.7333 387.317 28.7C388.017 28.6667 388.483 28.3 388.717 27.6C388.95 26.9 389.033 26.0333 388.967 25C388.933 23.9667 388.817 22.9333 388.617 21.9C388.417 20.8667 388.217 19.9833 388.017 19.25C387.817 18.4833 387.717 18.05 387.717 17.95C387.717 17.8167 387.667 17.5833 387.567 17.25C387.5 16.8833 387.5 16.4833 387.567 16.05C387.667 15.6167 387.95 15.2167 388.417 14.85C388.883 14.4833 389.65 14.25 390.717 14.15C391.783 14.05 392.617 14.1167 393.217 14.35C393.85 14.55 394.3 14.8167 394.567 15.15C394.867 15.4833 395.05 15.8 395.117 16.1C395.183 16.3667 395.217 16.5 395.217 16.5C395.217 16.5 395.333 16.9 395.567 17.7C395.8 18.5 396.017 19.5333 396.217 20.8C396.417 22.0333 396.483 23.35 396.417 24.75C396.383 26.15 396.083 27.4833 395.517 28.75C394.983 29.9833 394.083 31 392.817 31.8C391.583 32.6 389.85 33 387.617 33C385.383 33 383.55 32.5833 382.117 31.75C380.683 30.9167 379.55 29.85 378.717 28.55C377.917 27.2167 377.333 25.8167 376.967 24.35C376.6 22.8833 376.383 21.5 376.317 20.2C376.25 18.8667 376.233 17.7833 376.267 16.95C376.333 16.1167 376.367 15.7 376.367 15.7ZM402.982 2.9C402.982 2.9 403.199 2.91666 403.632 2.95C404.066 2.95 404.566 3.03333 405.132 3.2C405.699 3.33333 406.199 3.58333 406.632 3.95C407.066 4.31666 407.282 4.83333 407.282 5.5C407.282 5.93333 407.299 6.81667 407.332 8.15C407.366 9.48333 407.399 11.0667 407.432 12.9C407.466 14.7 407.499 16.5667 407.532 18.5C407.599 20.4 407.649 22.1833 407.682 23.85C407.716 25.5167 407.732 26.8667 407.732 27.9C407.766 28.9333 407.782 29.45 407.782 29.45C407.782 29.45 407.782 29.6333 407.782 30C407.782 30.3333 407.682 30.75 407.482 31.25C407.282 31.7167 406.899 32.1333 406.332 32.5C405.766 32.8333 404.932 33 403.832 33C402.366 33 401.299 32.8167 400.632 32.45C399.966 32.05 399.549 31.6167 399.382 31.15C399.249 30.65 399.199 30.2667 399.232 30C399.266 29.8667 399.282 29.2833 399.282 28.25C399.282 27.2167 399.266 25.9167 399.232 24.35C399.232 22.7833 399.216 21.1 399.182 19.3C399.149 17.5 399.116 15.7333 399.082 14C399.049 12.2333 398.999 10.6667 398.932 9.3C398.899 7.9 398.866 6.86667 398.832 6.2C398.766 5.26667 398.982 4.56667 399.482 4.1C400.016 3.63333 400.616 3.33333 401.282 3.2C401.982 3.03333 402.549 2.93333 402.982 2.9ZM420.402 12.35C422.069 12.3167 423.486 12.4667 424.652 12.8C425.819 13.1 426.786 13.4667 427.552 13.9C428.319 14.3333 428.919 14.7167 429.352 15.05C429.786 15.3833 430.102 15.55 430.302 15.55C430.669 15.5833 430.936 15.7667 431.102 16.1C431.269 16.4 431.352 16.55 431.352 16.55C431.352 16.55 431.402 16.8833 431.502 17.55C431.602 18.2167 431.719 19.0667 431.852 20.1C432.019 21.1333 432.169 22.2167 432.302 23.35C432.436 24.4833 432.552 25.55 432.652 26.55C432.752 27.55 432.802 28.3333 432.802 28.9C432.802 29.8333 432.736 30.5833 432.602 31.15C432.502 31.7167 432.169 32.15 431.602 32.45C431.036 32.7167 430.102 32.9 428.802 33C427.836 33.0667 427.136 33.05 426.702 32.95C426.269 32.85 426.002 32.7333 425.902 32.6C425.802 32.4667 425.752 32.4 425.752 32.4C425.452 32.6333 424.952 32.8 424.252 32.9C423.586 32.9667 422.952 33 422.352 33C421.752 33 421.452 33 421.452 33C421.452 33 421.069 32.95 420.302 32.85C419.536 32.7167 418.586 32.4667 417.452 32.1C416.352 31.7 415.236 31.1167 414.102 30.35C413.002 29.55 412.086 28.5 411.352 27.2C410.619 25.8667 410.269 24.2167 410.302 22.25C410.336 20.2833 410.702 18.6833 411.402 17.45C412.102 16.1833 412.952 15.2 413.952 14.5C414.952 13.8 415.936 13.3 416.902 13C417.902 12.7 418.736 12.5167 419.402 12.45C420.069 12.3833 420.402 12.35 420.402 12.35ZM424.152 17.5C423.986 17.2667 423.619 17.0167 423.052 16.75C422.519 16.45 422.002 16.2 421.502 16C421.036 15.8 420.802 15.7333 420.802 15.8C420.802 15.8333 420.619 16.1167 420.252 16.65C419.919 17.15 419.569 17.9 419.202 18.9C418.869 19.8667 418.686 21.0333 418.652 22.4C418.619 23.7667 418.802 24.95 419.202 25.95C419.602 26.95 420.086 27.7167 420.652 28.25C421.252 28.7833 421.802 29.05 422.302 29.05C422.669 29.05 423.019 28.8833 423.352 28.55C423.686 28.1833 423.969 27.7833 424.202 27.35C424.436 26.8833 424.619 26.4833 424.752 26.15C424.886 25.8167 424.952 25.65 424.952 25.65L424.152 17.5ZM435.108 5.7C435.075 4.86667 435.325 4.2 435.858 3.7C436.392 3.16666 437.575 2.85 439.408 2.75C440.642 2.68333 441.542 2.83333 442.108 3.2C442.675 3.56667 443.025 3.95 443.158 4.35C443.325 4.71667 443.408 4.9 443.408 4.9L443.708 9.35C443.708 9.35 443.975 9.35 444.508 9.35C445.075 9.35 445.708 9.41667 446.408 9.55C447.142 9.65 447.775 9.86667 448.308 10.2C448.875 10.5333 449.158 11.05 449.158 11.75C449.158 12.45 448.892 12.9667 448.358 13.3C447.825 13.6333 447.208 13.8667 446.508 14C445.808 14.1 445.175 14.15 444.608 14.15C444.075 14.15 443.808 14.15 443.808 14.15C443.808 14.15 443.808 14.5333 443.808 15.3C443.842 16.0333 443.858 17 443.858 18.2C443.858 19.3667 443.875 20.6167 443.908 21.95C443.942 23.2833 443.958 24.5667 443.958 25.8C443.958 27 443.958 28.0167 443.958 28.85C443.992 29.65 444.008 30.1167 444.008 30.25C444.008 30.4833 443.925 30.8167 443.758 31.25C443.625 31.6833 443.242 32.0833 442.608 32.45C442.008 32.8167 441.008 33 439.608 33C438.575 33 437.775 32.8833 437.208 32.65C436.642 32.3833 436.225 32.1 435.958 31.8C435.725 31.4667 435.592 31.1833 435.558 30.95C435.525 30.6833 435.508 30.55 435.508 30.55L435.108 5.7ZM471.467 17.9C471.367 19.5667 470.9 20.9167 470.067 21.95C469.233 22.95 468.217 23.7167 467.017 24.25C465.85 24.75 464.683 25.1 463.517 25.3C462.35 25.4667 461.367 25.55 460.567 25.55C459.8 25.55 459.417 25.55 459.417 25.55C459.617 26.7167 459.9 27.55 460.267 28.05C460.633 28.55 461.033 28.8333 461.467 28.9C461.933 28.9667 462.367 28.9333 462.767 28.8C463.167 28.6333 463.483 28.45 463.717 28.25C463.983 28.05 464.117 27.95 464.117 27.95C464.117 27.95 464.3 27.8 464.667 27.5C465.033 27.2 465.6 26.9167 466.367 26.65C467.167 26.35 468.167 26.2 469.367 26.2C470.733 26.2 471.65 26.3833 472.117 26.75C472.617 27.0833 472.85 27.4833 472.817 27.95C472.817 28.3833 472.717 28.7833 472.517 29.15C472.35 29.4833 472.267 29.65 472.267 29.65C472.267 29.65 472.117 29.8167 471.817 30.15C471.55 30.45 471.05 30.8167 470.317 31.25C469.583 31.6833 468.567 32.0833 467.267 32.45C465.967 32.7833 464.3 32.9667 462.267 33C460.3 33.0333 458.65 32.7667 457.317 32.2C455.983 31.6333 454.883 30.9 454.017 30C453.15 29.0667 452.483 28.1 452.017 27.1C451.583 26.0667 451.267 25.1167 451.067 24.25C450.9 23.35 450.817 22.65 450.817 22.15C450.817 21.65 450.85 21 450.917 20.2C451.017 19.4 451.233 18.5667 451.567 17.7C451.933 16.8 452.483 15.95 453.217 15.15C453.95 14.35 454.95 13.7 456.217 13.2C457.517 12.7 459.167 12.4333 461.167 12.4C463.667 12.3667 465.617 12.5833 467.017 13.05C468.417 13.5167 469.433 14.0833 470.067 14.75C470.7 15.4167 471.083 16.05 471.217 16.65C471.383 17.25 471.467 17.6667 471.467 17.9ZM458.717 22.1C460.75 21.9333 462.267 21.5 463.267 20.8C464.267 20.1 464.85 19.3167 465.017 18.45C465.183 17.5833 465.017 16.85 464.517 16.25C464.05 15.6167 463.333 15.3333 462.367 15.4C461.4 15.4333 460.667 15.8 460.167 16.5C459.667 17.1667 459.317 17.95 459.117 18.85C458.917 19.7167 458.8 20.4833 458.767 21.15C458.733 21.7833 458.717 22.1 458.717 22.1ZM492.089 0.399999C492.089 0.399999 492.289 0.433332 492.689 0.499998C493.122 0.533331 493.606 0.633331 494.139 0.799997C494.672 0.933331 495.156 1.16666 495.589 1.5C496.056 1.8 496.306 2.23333 496.339 2.8C496.372 3.16666 496.422 3.96666 496.489 5.2C496.556 6.4 496.622 7.83333 496.689 9.5C496.789 11.1667 496.872 12.9 496.939 14.7C497.039 16.4667 497.122 18.1333 497.189 19.7C497.256 21.2333 497.306 22.4833 497.339 23.45C497.406 24.4167 497.439 24.9 497.439 24.9C497.439 24.9 497.422 25.1 497.389 25.5C497.389 25.9 497.289 26.4 497.089 27C496.922 27.6 496.606 28.1833 496.139 28.75C495.139 29.9833 493.872 31 492.339 31.8C490.806 32.6 488.706 33 486.039 33C484.272 33 482.572 32.6667 480.939 32C479.339 31.3333 478.022 30.2833 476.989 28.85C475.989 27.3833 475.506 25.4833 475.539 23.15C475.572 21.3833 475.956 19.8333 476.689 18.5C477.456 17.1667 478.456 16.0667 479.689 15.2C480.922 14.3 482.289 13.6333 483.789 13.2C485.322 12.7667 486.856 12.55 488.389 12.55L488.039 3.9C488.039 3.9 488.006 3.75 487.939 3.45C487.872 3.11667 487.906 2.73333 488.039 2.3C488.206 1.86667 488.589 1.46667 489.189 1.1C489.789 0.733332 490.756 0.499998 492.089 0.399999ZM488.539 16.9C487.772 16.8333 487.039 17.1167 486.339 17.75C485.639 18.3833 485.056 19.2 484.589 20.2C484.156 21.1667 483.939 22.1333 483.939 23.1C483.939 24.5333 484.172 25.7667 484.639 26.8C485.139 27.8333 485.789 28.35 486.589 28.35C487.122 28.35 487.572 28.1333 487.939 27.7C488.306 27.2667 488.589 26.8333 488.789 26.4C488.989 25.9333 489.089 25.7 489.089 25.7L488.539 16.9ZM516.654 20.15H516.254C515.488 20.0833 514.788 19.9667 514.154 19.8C513.554 19.6333 513.054 19.35 512.654 18.95C512.388 18.6833 512.254 18.4 512.254 18.1C512.221 17.6333 512.438 17.2667 512.904 17C513.371 16.7 513.788 16.4833 514.154 16.35C515.054 16.0167 515.938 15.85 516.804 15.85C517.038 15.85 517.204 15.8333 517.304 15.8L533.404 15.55C534.204 15.4833 534.971 15.55 535.704 15.75C536.471 15.95 537.054 16.2833 537.454 16.75C537.821 17.15 537.921 17.5333 537.754 17.9C537.621 18.2667 537.371 18.5833 537.004 18.85C536.638 19.0833 536.321 19.2333 536.054 19.3C535.221 19.5 534.354 19.6833 533.454 19.85C532.554 19.9833 531.604 20.05 530.604 20.05H529.754L516.654 20.15ZM562.785 12.35C564.452 12.3167 565.868 12.4667 567.035 12.8C568.202 13.1 569.168 13.4667 569.935 13.9C570.702 14.3333 571.302 14.7167 571.735 15.05C572.168 15.3833 572.485 15.55 572.685 15.55C573.052 15.5833 573.318 15.7667 573.485 16.1C573.652 16.4 573.735 16.55 573.735 16.55C573.735 16.55 573.785 16.8833 573.885 17.55C573.985 18.2167 574.102 19.0667 574.235 20.1C574.402 21.1333 574.552 22.2167 574.685 23.35C574.818 24.4833 574.935 25.55 575.035 26.55C575.135 27.55 575.185 28.3333 575.185 28.9C575.185 29.8333 575.118 30.5833 574.985 31.15C574.885 31.7167 574.552 32.15 573.985 32.45C573.418 32.7167 572.485 32.9 571.185 33C570.218 33.0667 569.518 33.05 569.085 32.95C568.652 32.85 568.385 32.7333 568.285 32.6C568.185 32.4667 568.135 32.4 568.135 32.4C567.835 32.6333 567.335 32.8 566.635 32.9C565.968 32.9667 565.335 33 564.735 33C564.135 33 563.835 33 563.835 33C563.835 33 563.452 32.95 562.685 32.85C561.918 32.7167 560.968 32.4667 559.835 32.1C558.735 31.7 557.618 31.1167 556.485 30.35C555.385 29.55 554.468 28.5 553.735 27.2C553.002 25.8667 552.652 24.2167 552.685 22.25C552.718 20.2833 553.085 18.6833 553.785 17.45C554.485 16.1833 555.335 15.2 556.335 14.5C557.335 13.8 558.318 13.3 559.285 13C560.285 12.7 561.118 12.5167 561.785 12.45C562.452 12.3833 562.785 12.35 562.785 12.35ZM566.535 17.5C566.368 17.2667 566.002 17.0167 565.435 16.75C564.902 16.45 564.385 16.2 563.885 16C563.418 15.8 563.185 15.7333 563.185 15.8C563.185 15.8333 563.002 16.1167 562.635 16.65C562.302 17.15 561.952 17.9 561.585 18.9C561.252 19.8667 561.068 21.0333 561.035 22.4C561.002 23.7667 561.185 24.95 561.585 25.95C561.985 26.95 562.468 27.7167 563.035 28.25C563.635 28.7833 564.185 29.05 564.685 29.05C565.052 29.05 565.402 28.8833 565.735 28.55C566.068 28.1833 566.352 27.7833 566.585 27.35C566.818 26.8833 567.002 26.4833 567.135 26.15C567.268 25.8167 567.335 25.65 567.335 25.65L566.535 17.5ZM583.091 33C583.091 33 582.874 33 582.441 33C582.008 33 581.508 32.9333 580.941 32.8C580.408 32.6667 579.924 32.4 579.491 32C579.058 31.6 578.808 31.0167 578.741 30.25C578.708 29.6167 578.641 28.7167 578.541 27.55C578.441 26.3833 578.324 25.1167 578.191 23.75C578.091 22.35 577.991 21.0333 577.891 19.8C577.791 18.5333 577.708 17.5 577.641 16.7C577.574 15.9 577.541 15.5 577.541 15.5C577.541 15.5 577.558 15.3667 577.591 15.1C577.624 14.8 577.741 14.4667 577.941 14.1C578.174 13.7333 578.558 13.4 579.091 13.1C579.658 12.8 580.441 12.6333 581.441 12.6C582.441 12.5667 583.224 12.6667 583.791 12.9C584.358 13.1333 584.758 13.4167 584.991 13.75C585.258 14.05 585.408 14.3333 585.441 14.6C585.508 14.8333 585.541 14.95 585.541 14.95C585.541 14.95 585.841 14.8 586.441 14.5C587.074 14.1667 587.874 13.8333 588.841 13.5C589.841 13.1667 590.891 12.9667 591.991 12.9C592.158 12.9 592.474 12.9 592.941 12.9C593.441 12.9 593.974 13.0167 594.541 13.25C595.141 13.45 595.724 13.85 596.291 14.45C596.891 15.05 597.391 15.9333 597.791 17.1C598.191 18.2333 598.424 19.7333 598.491 21.6C598.591 23.9333 598.658 25.85 598.691 27.35C598.758 28.85 598.708 30.0167 598.541 30.85C598.408 31.65 598.074 32.2167 597.541 32.55C597.041 32.85 596.241 33 595.141 33C594.074 33 593.291 32.85 592.791 32.55C592.291 32.25 591.974 31.9 591.841 31.5C591.708 31.0667 591.641 30.6833 591.641 30.35C591.641 30.15 591.674 29.6167 591.741 28.75C591.808 27.85 591.858 26.8333 591.891 25.7C591.924 24.5333 591.908 23.4 591.841 22.3C591.808 21.1667 591.674 20.25 591.441 19.55C591.241 18.8167 590.908 18.4667 590.441 18.5C589.874 18.5333 589.341 18.75 588.841 19.15C588.374 19.5167 587.958 19.95 587.591 20.45C587.224 20.9167 586.941 21.3333 586.741 21.7C586.541 22.0333 586.441 22.2 586.441 22.2L586.941 29.75C586.941 29.75 586.941 29.9167 586.941 30.25C586.941 30.5833 586.841 30.9667 586.641 31.4C586.441 31.8 586.058 32.1667 585.491 32.5C584.958 32.8333 584.158 33 583.091 33ZM617.675 0.399999C617.675 0.399999 617.875 0.433332 618.275 0.499998C618.708 0.533331 619.192 0.633331 619.725 0.799997C620.258 0.933331 620.742 1.16666 621.175 1.5C621.642 1.8 621.892 2.23333 621.925 2.8C621.958 3.16666 622.008 3.96666 622.075 5.2C622.142 6.4 622.208 7.83333 622.275 9.5C622.375 11.1667 622.458 12.9 622.525 14.7C622.625 16.4667 622.708 18.1333 622.775 19.7C622.842 21.2333 622.892 22.4833 622.925 23.45C622.992 24.4167 623.025 24.9 623.025 24.9C623.025 24.9 623.008 25.1 622.975 25.5C622.975 25.9 622.875 26.4 622.675 27C622.508 27.6 622.192 28.1833 621.725 28.75C620.725 29.9833 619.458 31 617.925 31.8C616.392 32.6 614.292 33 611.625 33C609.858 33 608.158 32.6667 606.525 32C604.925 31.3333 603.608 30.2833 602.575 28.85C601.575 27.3833 601.092 25.4833 601.125 23.15C601.158 21.3833 601.542 19.8333 602.275 18.5C603.042 17.1667 604.042 16.0667 605.275 15.2C606.508 14.3 607.875 13.6333 609.375 13.2C610.908 12.7667 612.442 12.55 613.975 12.55L613.625 3.9C613.625 3.9 613.592 3.75 613.525 3.45C613.458 3.11667 613.492 2.73333 613.625 2.3C613.792 1.86667 614.175 1.46667 614.775 1.1C615.375 0.733332 616.342 0.499998 617.675 0.399999ZM614.125 16.9C613.358 16.8333 612.625 17.1167 611.925 17.75C611.225 18.3833 610.642 19.2 610.175 20.2C609.742 21.1667 609.525 22.1333 609.525 23.1C609.525 24.5333 609.758 25.7667 610.225 26.8C610.725 27.8333 611.375 28.35 612.175 28.35C612.708 28.35 613.158 28.1333 613.525 27.7C613.892 27.2667 614.175 26.8333 614.375 26.4C614.575 25.9333 614.675 25.7 614.675 25.7L614.125 16.9ZM639.99 40.15L638.34 19.85C638.34 19.85 638.257 19.7167 638.09 19.45C637.957 19.1833 637.824 18.85 637.69 18.45C637.557 18.0167 637.524 17.6 637.59 17.2C637.657 16.8 637.907 16.4667 638.34 16.2C638.707 16 639.374 15.6167 640.34 15.05C641.34 14.45 642.557 13.8667 643.99 13.3C645.424 12.7333 646.957 12.3333 648.59 12.1C650.257 11.8667 651.924 11.9667 653.59 12.4C655.29 12.8 656.89 13.7167 658.39 15.15C659.857 16.55 660.774 18.1 661.14 19.8C661.507 21.5 661.474 23.1667 661.04 24.8C660.64 26.4333 659.957 27.8667 658.99 29.1C658.057 30.3333 656.99 31.2 655.79 31.7C654.157 32.3667 652.757 32.7833 651.59 32.95C650.424 33.0833 649.524 33.1167 648.89 33.05C648.257 33.0167 647.94 33 647.94 33L648.44 40.55C648.44 40.55 648.44 40.7167 648.44 41.05C648.44 41.3833 648.34 41.7667 648.14 42.2C647.974 42.6333 647.607 43 647.04 43.3C646.474 43.6333 645.64 43.8 644.54 43.8C643.074 43.7667 642.007 43.5333 641.34 43.1C640.707 42.6667 640.324 42.1667 640.19 41.6C640.057 41.0333 639.99 40.55 639.99 40.15ZM646.39 17.6L647.49 28.45C647.49 28.45 647.774 28.45 648.34 28.45C648.907 28.45 649.54 28.35 650.24 28.15C650.974 27.95 651.607 27.5667 652.14 27C652.674 26.4333 652.907 25.5833 652.84 24.45C652.774 22.95 652.607 21.6167 652.34 20.45C652.074 19.25 651.674 18.3333 651.14 17.7C650.607 17.0667 649.874 16.8333 648.94 17C648.007 17.1667 647.357 17.3 646.99 17.4C646.657 17.4667 646.474 17.5167 646.44 17.55C646.407 17.5833 646.39 17.6 646.39 17.6ZM673.576 12.35C675.243 12.3167 676.66 12.4667 677.826 12.8C678.993 13.1 679.96 13.4667 680.726 13.9C681.493 14.3333 682.093 14.7167 682.526 15.05C682.96 15.3833 683.276 15.55 683.476 15.55C683.843 15.5833 684.11 15.7667 684.276 16.1C684.443 16.4 684.526 16.55 684.526 16.55C684.526 16.55 684.576 16.8833 684.676 17.55C684.776 18.2167 684.893 19.0667 685.026 20.1C685.193 21.1333 685.343 22.2167 685.476 23.35C685.61 24.4833 685.726 25.55 685.826 26.55C685.926 27.55 685.976 28.3333 685.976 28.9C685.976 29.8333 685.91 30.5833 685.776 31.15C685.676 31.7167 685.343 32.15 684.776 32.45C684.21 32.7167 683.276 32.9 681.976 33C681.01 33.0667 680.31 33.05 679.876 32.95C679.443 32.85 679.176 32.7333 679.076 32.6C678.976 32.4667 678.926 32.4 678.926 32.4C678.626 32.6333 678.126 32.8 677.426 32.9C676.76 32.9667 676.126 33 675.526 33C674.926 33 674.626 33 674.626 33C674.626 33 674.243 32.95 673.476 32.85C672.71 32.7167 671.76 32.4667 670.626 32.1C669.526 31.7 668.41 31.1167 667.276 30.35C666.176 29.55 665.26 28.5 664.526 27.2C663.793 25.8667 663.443 24.2167 663.476 22.25C663.51 20.2833 663.876 18.6833 664.576 17.45C665.276 16.1833 666.126 15.2 667.126 14.5C668.126 13.8 669.11 13.3 670.076 13C671.076 12.7 671.91 12.5167 672.576 12.45C673.243 12.3833 673.576 12.35 673.576 12.35ZM677.326 17.5C677.16 17.2667 676.793 17.0167 676.226 16.75C675.693 16.45 675.176 16.2 674.676 16C674.21 15.8 673.976 15.7333 673.976 15.8C673.976 15.8333 673.793 16.1167 673.426 16.65C673.093 17.15 672.743 17.9 672.376 18.9C672.043 19.8667 671.86 21.0333 671.826 22.4C671.793 23.7667 671.976 24.95 672.376 25.95C672.776 26.95 673.26 27.7167 673.826 28.25C674.426 28.7833 674.976 29.05 675.476 29.05C675.843 29.05 676.193 28.8833 676.526 28.55C676.86 28.1833 677.143 27.7833 677.376 27.35C677.61 26.8833 677.793 26.4833 677.926 26.15C678.06 25.8167 678.126 25.65 678.126 25.65L677.326 17.5ZM705.032 21.6C703.732 21.6 702.782 21.45 702.182 21.15C701.615 20.8167 701.249 20.4833 701.082 20.15C700.949 19.8167 700.882 19.6 700.882 19.5C700.882 19.4 700.815 19.2 700.682 18.9C700.582 18.6 700.399 18.3167 700.132 18.05C699.865 17.75 699.515 17.6 699.082 17.6C698.649 17.5667 698.232 17.8667 697.832 18.5C697.432 19.1333 697.099 19.9 696.832 20.8C696.565 21.6667 696.399 22.5 696.332 23.3C696.299 24.1 696.382 24.9167 696.582 25.75C696.815 26.5833 697.149 27.2833 697.582 27.85C698.015 28.3833 698.532 28.6667 699.132 28.7C700.032 28.7333 700.582 28.6 700.782 28.3C700.982 27.9667 701.082 27.8 701.082 27.8C701.082 27.8 701.115 27.7 701.182 27.5C701.249 27.2667 701.432 27.0167 701.732 26.75C702.065 26.4833 702.582 26.2667 703.282 26.1C703.982 25.9 704.982 25.8167 706.282 25.85C707.582 25.8833 708.465 26.05 708.932 26.35C709.399 26.65 709.632 26.9833 709.632 27.35C709.665 27.7167 709.599 28.0333 709.432 28.3C709.265 28.5667 709.182 28.7 709.182 28.7C709.182 28.7 708.949 28.9167 708.482 29.35C708.015 29.7833 707.332 30.2833 706.432 30.85C705.565 31.4167 704.499 31.9167 703.232 32.35C701.965 32.7833 700.515 33 698.882 33C695.649 33 693.082 32.1167 691.182 30.35C689.315 28.5833 688.315 26.0833 688.182 22.85C688.115 21.25 688.399 19.8167 689.032 18.55C689.665 17.2833 690.515 16.2167 691.582 15.35C692.649 14.45 693.832 13.7667 695.132 13.3C696.432 12.8 697.699 12.5167 698.932 12.45C700.199 12.3833 701.399 12.5667 702.532 13C703.665 13.4 704.682 13.95 705.582 14.65C706.515 15.35 707.265 16.0833 707.832 16.85C708.399 17.6167 708.715 18.3333 708.782 19C708.849 19.6333 708.699 20.1333 708.332 20.5C707.999 20.8667 707.565 21.1333 707.032 21.3C706.532 21.4333 706.082 21.5167 705.682 21.55C705.282 21.5833 705.065 21.6 705.032 21.6ZM714.315 30.35C714.315 30.35 714.282 30.0333 714.215 29.4C714.148 28.7333 714.048 27.8833 713.915 26.85C713.782 25.7833 713.615 24.65 713.415 23.45C713.248 22.25 713.048 21.1 712.815 20C712.582 18.8667 712.332 17.9 712.065 17.1C711.732 16.1 711.682 15.35 711.915 14.85C712.148 14.3167 712.498 13.95 712.965 13.75C713.465 13.55 713.915 13.45 714.315 13.45C714.748 13.4167 714.965 13.4 714.965 13.4C714.965 13.4 715.198 13.4 715.665 13.4C716.132 13.3667 716.682 13.4167 717.315 13.55C717.948 13.6833 718.532 13.95 719.065 14.35C719.598 14.75 719.932 15.3833 720.065 16.25C720.265 17.3833 720.398 18.1 720.465 18.4C720.532 18.7 720.565 18.8167 720.565 18.75C720.598 18.65 720.615 18.6 720.615 18.6L726.265 13.45C726.265 13.45 726.448 13.3167 726.815 13.05C727.215 12.75 727.832 12.5333 728.665 12.4C729.532 12.2333 730.648 12.35 732.015 12.75C732.982 13.0167 733.532 13.3667 733.665 13.8C733.832 14.2333 733.782 14.6333 733.515 15C733.282 15.3667 733.082 15.6333 732.915 15.8C732.815 15.9 732.515 16.2 732.015 16.7C731.515 17.1667 730.915 17.7333 730.215 18.4C729.548 19.0333 728.882 19.6667 728.215 20.3C727.548 20.9333 726.998 21.4667 726.565 21.9C726.132 22.3333 725.915 22.55 725.915 22.55L733.965 28.15C733.965 28.15 734.115 28.2833 734.415 28.55C734.748 28.7833 735.048 29.1 735.315 29.5C735.582 29.9 735.665 30.3333 735.565 30.8C735.498 31.2333 735.048 31.65 734.215 32.05C733.382 32.45 732.565 32.6167 731.765 32.55C730.998 32.45 730.298 32.25 729.665 31.95C729.065 31.65 728.582 31.3667 728.215 31.1C727.848 30.8333 727.665 30.7 727.665 30.7L721.965 26.75L722.315 30.85C722.315 30.85 722.282 31.0333 722.215 31.4C722.148 31.7333 721.848 32.0833 721.315 32.45C720.815 32.8167 719.915 33 718.615 33C717.315 33 716.365 32.7833 715.765 32.35C715.165 31.8833 714.765 31.4333 714.565 31C714.398 30.5667 714.315 30.35 714.315 30.35ZM758.039 17.9C757.939 19.5667 757.472 20.9167 756.639 21.95C755.806 22.95 754.789 23.7167 753.589 24.25C752.422 24.75 751.256 25.1 750.089 25.3C748.922 25.4667 747.939 25.55 747.139 25.55C746.372 25.55 745.989 25.55 745.989 25.55C746.189 26.7167 746.472 27.55 746.839 28.05C747.206 28.55 747.606 28.8333 748.039 28.9C748.506 28.9667 748.939 28.9333 749.339 28.8C749.739 28.6333 750.056 28.45 750.289 28.25C750.556 28.05 750.689 27.95 750.689 27.95C750.689 27.95 750.872 27.8 751.239 27.5C751.606 27.2 752.172 26.9167 752.939 26.65C753.739 26.35 754.739 26.2 755.939 26.2C757.306 26.2 758.222 26.3833 758.689 26.75C759.189 27.0833 759.422 27.4833 759.389 27.95C759.389 28.3833 759.289 28.7833 759.089 29.15C758.922 29.4833 758.839 29.65 758.839 29.65C758.839 29.65 758.689 29.8167 758.389 30.15C758.122 30.45 757.622 30.8167 756.889 31.25C756.156 31.6833 755.139 32.0833 753.839 32.45C752.539 32.7833 750.872 32.9667 748.839 33C746.872 33.0333 745.222 32.7667 743.889 32.2C742.556 31.6333 741.456 30.9 740.589 30C739.722 29.0667 739.056 28.1 738.589 27.1C738.156 26.0667 737.839 25.1167 737.639 24.25C737.472 23.35 737.389 22.65 737.389 22.15C737.389 21.65 737.422 21 737.489 20.2C737.589 19.4 737.806 18.5667 738.139 17.7C738.506 16.8 739.056 15.95 739.789 15.15C740.522 14.35 741.522 13.7 742.789 13.2C744.089 12.7 745.739 12.4333 747.739 12.4C750.239 12.3667 752.189 12.5833 753.589 13.05C754.989 13.5167 756.006 14.0833 756.639 14.75C757.272 15.4167 757.656 16.05 757.789 16.65C757.956 17.25 758.039 17.6667 758.039 17.9ZM745.289 22.1C747.322 21.9333 748.839 21.5 749.839 20.8C750.839 20.1 751.422 19.3167 751.589 18.45C751.756 17.5833 751.589 16.85 751.089 16.25C750.622 15.6167 749.906 15.3333 748.939 15.4C747.972 15.4333 747.239 15.8 746.739 16.5C746.239 17.1667 745.889 17.95 745.689 18.85C745.489 19.7167 745.372 20.4833 745.339 21.15C745.306 21.7833 745.289 22.1 745.289 22.1ZM778.661 0.399999C778.661 0.399999 778.861 0.433332 779.261 0.499998C779.695 0.533331 780.178 0.633331 780.711 0.799997C781.245 0.933331 781.728 1.16666 782.161 1.5C782.628 1.8 782.878 2.23333 782.911 2.8C782.945 3.16666 782.995 3.96666 783.061 5.2C783.128 6.4 783.195 7.83333 783.261 9.5C783.361 11.1667 783.445 12.9 783.511 14.7C783.611 16.4667 783.695 18.1333 783.761 19.7C783.828 21.2333 783.878 22.4833 783.911 23.45C783.978 24.4167 784.011 24.9 784.011 24.9C784.011 24.9 783.995 25.1 783.961 25.5C783.961 25.9 783.861 26.4 783.661 27C783.495 27.6 783.178 28.1833 782.711 28.75C781.711 29.9833 780.445 31 778.911 31.8C777.378 32.6 775.278 33 772.611 33C770.845 33 769.145 32.6667 767.511 32C765.911 31.3333 764.595 30.2833 763.561 28.85C762.561 27.3833 762.078 25.4833 762.111 23.15C762.145 21.3833 762.528 19.8333 763.261 18.5C764.028 17.1667 765.028 16.0667 766.261 15.2C767.495 14.3 768.861 13.6333 770.361 13.2C771.895 12.7667 773.428 12.55 774.961 12.55L774.611 3.9C774.611 3.9 774.578 3.75 774.511 3.45C774.445 3.11667 774.478 2.73333 774.611 2.3C774.778 1.86667 775.161 1.46667 775.761 1.1C776.361 0.733332 777.328 0.499998 778.661 0.399999ZM775.111 16.9C774.345 16.8333 773.611 17.1167 772.911 17.75C772.211 18.3833 771.628 19.2 771.161 20.2C770.728 21.1667 770.511 22.1333 770.511 23.1C770.511 24.5333 770.745 25.7667 771.211 26.8C771.711 27.8333 772.361 28.35 773.161 28.35C773.695 28.35 774.145 28.1333 774.511 27.7C774.878 27.2667 775.161 26.8333 775.361 26.4C775.561 25.9333 775.661 25.7 775.661 25.7L775.111 16.9Z" fill="white"/>
<path d="M802.277 13.25C803.41 13.15 804.293 13.2 804.927 13.4C805.593 13.5667 806.077 13.8 806.377 14.1C806.71 14.4 806.91 14.6833 806.977 14.95C807.077 15.1833 807.127 15.3 807.127 15.3L809.677 24.6L810.927 20.95C810.927 20.95 811.027 20.75 811.227 20.35C811.46 19.95 811.877 19.55 812.477 19.15C813.077 18.75 813.943 18.5667 815.077 18.6C816.243 18.6 817.093 18.7833 817.627 19.15C818.193 19.5167 818.56 19.8833 818.727 20.25C818.927 20.6167 819.027 20.8 819.027 20.8L820.327 24.5C820.327 24.5 820.41 24.2 820.577 23.6C820.777 22.9667 821.027 22.1833 821.327 21.25C821.627 20.2833 821.927 19.3167 822.227 18.35C822.527 17.3833 822.777 16.5333 822.977 15.8C823.21 15.0333 823.36 14.55 823.427 14.35C823.527 14.0167 823.71 13.6833 823.977 13.35C824.243 13.0167 824.71 12.75 825.377 12.55C826.077 12.3167 827.093 12.25 828.427 12.35C829.427 12.4167 830.16 12.5833 830.627 12.85C831.093 13.1167 831.393 13.4167 831.527 13.75C831.66 14.0833 831.71 14.3667 831.677 14.6C831.643 14.8333 831.627 14.95 831.627 14.95C831.627 14.95 831.493 15.3 831.227 16C830.993 16.7 830.677 17.6 830.277 18.7C829.877 19.8 829.443 20.9833 828.977 22.25C828.543 23.5167 828.11 24.7333 827.677 25.9C827.277 27.0667 826.927 28.0667 826.627 28.9C826.327 29.7 826.143 30.1833 826.077 30.35C825.943 30.6833 825.727 31.0667 825.427 31.5C825.16 31.9 824.743 32.25 824.177 32.55C823.643 32.85 822.86 33 821.827 33C820.827 33 820.01 32.8833 819.377 32.65C818.777 32.4167 818.327 32.1833 818.027 31.95C817.76 31.7167 817.627 31.6 817.627 31.6L814.827 27.4L812.477 31.1C812.477 31.1 812.377 31.2667 812.177 31.6C811.977 31.9 811.56 32.2167 810.927 32.55C810.293 32.85 809.31 33 807.977 33C806.977 33 806.193 32.85 805.627 32.55C805.06 32.25 804.627 31.9167 804.327 31.55C804.06 31.1833 803.877 30.85 803.777 30.55C803.71 30.25 803.677 30.1 803.677 30.1C803.677 30.1 803.56 29.7333 803.327 29C803.093 28.2667 802.777 27.3333 802.377 26.2C802.01 25.0667 801.61 23.8833 801.177 22.65C800.777 21.3833 800.377 20.2 799.977 19.1C799.61 18 799.31 17.1333 799.077 16.5C798.777 15.7333 798.727 15.1333 798.927 14.7C799.16 14.2667 799.493 13.95 799.927 13.75C800.36 13.55 800.81 13.4333 801.277 13.4C801.743 13.3333 802.077 13.2833 802.277 13.25ZM838.434 11.95C838.434 11.95 838.217 11.95 837.784 11.95C837.351 11.9167 836.834 11.8167 836.234 11.65C835.667 11.45 835.151 11.1 834.684 10.6C834.217 10.1 833.967 9.35 833.934 8.35C833.901 7.35 834.051 6.61667 834.384 6.15C834.717 5.65 835.134 5.31666 835.634 5.15C836.134 4.95 836.617 4.85 837.084 4.85C837.551 4.81667 837.884 4.78333 838.084 4.75C838.284 4.71667 838.617 4.75 839.084 4.85C839.551 4.91666 840.034 5.1 840.534 5.4C841.034 5.66666 841.451 6.08333 841.784 6.65C842.117 7.18333 842.251 7.9 842.184 8.8C842.117 9.66667 841.884 10.3333 841.484 10.8C841.117 11.2333 840.684 11.5333 840.184 11.7C839.717 11.8333 839.301 11.9167 838.934 11.95C838.601 11.95 838.434 11.95 838.434 11.95ZM836.684 29.9L835.484 18.5C835.484 18.5 835.401 18.3333 835.234 18C835.101 17.6333 835.001 17.3833 834.934 17.25C834.901 17.15 834.834 16.95 834.734 16.65C834.667 16.3167 834.751 15.9667 834.984 15.6C835.251 15.2333 835.817 14.9667 836.684 14.8C837.584 14.6333 838.517 14.5833 839.484 14.65C840.451 14.7167 841.301 15.0167 842.034 15.55C842.801 16.05 843.267 16.9333 843.434 18.2C843.567 19.1333 843.701 20.25 843.834 21.55C843.967 22.8167 844.084 24.0667 844.184 25.3C844.317 26.5 844.417 27.5167 844.484 28.35C844.584 29.15 844.634 29.55 844.634 29.55C844.634 29.55 844.651 29.7333 844.684 30.1C844.717 30.4333 844.667 30.8333 844.534 31.3C844.401 31.7333 844.067 32.1333 843.534 32.5C843.034 32.8333 842.217 33 841.084 33C839.951 33 839.084 32.85 838.484 32.55C837.884 32.2167 837.451 31.85 837.184 31.45C836.951 31.05 836.801 30.7 836.734 30.4C836.701 30.0667 836.684 29.9 836.684 29.9ZM847.413 5.7C847.38 4.86667 847.63 4.2 848.163 3.7C848.696 3.16666 849.88 2.85 851.713 2.75C852.946 2.68333 853.846 2.83333 854.413 3.2C854.98 3.56667 855.33 3.95 855.463 4.35C855.63 4.71667 855.713 4.9 855.713 4.9L856.013 9.35C856.013 9.35 856.28 9.35 856.813 9.35C857.38 9.35 858.013 9.41667 858.713 9.55C859.446 9.65 860.08 9.86667 860.613 10.2C861.18 10.5333 861.463 11.05 861.463 11.75C861.463 12.45 861.196 12.9667 860.663 13.3C860.13 13.6333 859.513 13.8667 858.813 14C858.113 14.1 857.48 14.15 856.913 14.15C856.38 14.15 856.113 14.15 856.113 14.15C856.113 14.15 856.113 14.5333 856.113 15.3C856.146 16.0333 856.163 17 856.163 18.2C856.163 19.3667 856.18 20.6167 856.213 21.95C856.246 23.2833 856.263 24.5667 856.263 25.8C856.263 27 856.263 28.0167 856.263 28.85C856.296 29.65 856.313 30.1167 856.313 30.25C856.313 30.4833 856.23 30.8167 856.063 31.25C855.93 31.6833 855.546 32.0833 854.913 32.45C854.313 32.8167 853.313 33 851.913 33C850.88 33 850.08 32.8833 849.513 32.65C848.946 32.3833 848.53 32.1 848.263 31.8C848.03 31.4667 847.896 31.1833 847.863 30.95C847.83 30.6833 847.813 30.55 847.813 30.55L847.413 5.7ZM864.221 28.7L863.621 4C863.621 4 863.621 3.86667 863.621 3.6C863.655 3.33333 863.771 3.01667 863.971 2.65C864.171 2.28333 864.521 1.96666 865.021 1.7C865.555 1.43333 866.321 1.3 867.321 1.3C868.655 1.3 869.638 1.45 870.271 1.75C870.938 2.05 871.371 2.43333 871.571 2.9C871.771 3.36667 871.855 3.83333 871.821 4.3C871.788 4.63333 871.771 5.26667 871.771 6.2C871.805 7.1 871.821 8.06667 871.821 9.1C871.855 10.1 871.871 10.9667 871.871 11.7C871.905 12.4333 871.921 12.8 871.921 12.8C871.921 12.8 872.255 12.7167 872.921 12.55C873.621 12.3833 874.521 12.2667 875.621 12.2C876.721 12.1333 877.888 12.2667 879.121 12.6C880.355 12.9 881.521 13.5333 882.621 14.5C883.021 14.8333 883.338 15.45 883.571 16.35C883.838 17.25 884.038 18.3 884.171 19.5C884.338 20.6667 884.455 21.8833 884.521 23.15C884.588 24.3833 884.621 25.5333 884.621 26.6C884.655 27.6667 884.655 28.5333 884.621 29.2C884.621 29.8667 884.621 30.2 884.621 30.2C884.621 30.2 884.621 30.35 884.621 30.65C884.621 30.9167 884.538 31.2333 884.371 31.6C884.238 31.9667 883.938 32.3 883.471 32.6C883.005 32.8667 882.288 33 881.321 33C880.055 33 879.188 32.85 878.721 32.55C878.255 32.25 878.005 31.85 877.971 31.35C877.938 30.8167 877.921 30.2333 877.921 29.6C877.921 29.2333 877.905 28.6333 877.871 27.8C877.838 26.9667 877.805 26.05 877.771 25.05C877.738 24.0167 877.705 23.0333 877.671 22.1C877.638 21.1667 877.605 20.4 877.571 19.8C877.538 19.2 877.521 18.9 877.521 18.9C877.521 18.9 877.488 18.7 877.421 18.3C877.388 17.8667 877.221 17.45 876.921 17.05C876.621 16.65 876.121 16.4667 875.421 16.5C874.888 16.5333 874.438 16.7833 874.071 17.25C873.705 17.6833 873.405 18.2333 873.171 18.9C872.971 19.5333 872.821 20.15 872.721 20.75C872.621 21.3167 872.571 21.7333 872.571 22C872.571 22.2667 872.571 22.8 872.571 23.6C872.605 24.4 872.621 25.2667 872.621 26.2C872.621 27.1 872.621 27.8833 872.621 28.55C872.655 29.1833 872.671 29.5 872.671 29.5C872.671 29.5 872.655 29.6833 872.621 30.05C872.588 30.3833 872.455 30.7833 872.221 31.25C871.988 31.7167 871.571 32.1333 870.971 32.5C870.405 32.8333 869.571 33 868.471 33C867.205 33 866.255 32.7833 865.621 32.35C865.021 31.9167 864.621 31.4167 864.421 30.85C864.255 30.2833 864.171 29.7833 864.171 29.35C864.205 28.9167 864.221 28.7 864.221 28.7ZM904.838 2.9C904.838 2.9 905.055 2.91666 905.488 2.95C905.921 2.95 906.421 3.03333 906.988 3.2C907.555 3.33333 908.055 3.58333 908.488 3.95C908.921 4.31666 909.138 4.83333 909.138 5.5C909.138 5.93333 909.155 6.81667 909.188 8.15C909.221 9.48333 909.255 11.0667 909.288 12.9C909.321 14.7 909.355 16.5667 909.388 18.5C909.455 20.4 909.505 22.1833 909.538 23.85C909.571 25.5167 909.588 26.8667 909.588 27.9C909.621 28.9333 909.638 29.45 909.638 29.45C909.638 29.45 909.638 29.6333 909.638 30C909.638 30.3333 909.538 30.75 909.338 31.25C909.138 31.7167 908.755 32.1333 908.188 32.5C907.621 32.8333 906.788 33 905.688 33C904.221 33 903.155 32.8167 902.488 32.45C901.821 32.05 901.405 31.6167 901.238 31.15C901.105 30.65 901.055 30.2667 901.088 30C901.121 29.8667 901.138 29.2833 901.138 28.25C901.138 27.2167 901.121 25.9167 901.088 24.35C901.088 22.7833 901.071 21.1 901.038 19.3C901.005 17.5 900.971 15.7333 900.938 14C900.905 12.2333 900.855 10.6667 900.788 9.3C900.755 7.9 900.721 6.86667 900.688 6.2C900.621 5.26667 900.838 4.56667 901.338 4.1C901.871 3.63333 902.471 3.33333 903.138 3.2C903.838 3.03333 904.405 2.93333 904.838 2.9ZM922.708 12.7C923.941 12.6 924.891 12.7333 925.558 13.1C926.224 13.4667 926.624 13.6833 926.758 13.75C927.091 13.9167 927.391 14.1 927.658 14.3C927.958 14.5 928.108 14.6 928.108 14.6C928.108 14.6 928.358 14.6833 928.858 14.85C929.358 15.0167 929.941 15.4167 930.608 16.05C931.274 16.65 931.891 17.6 932.458 18.9C933.024 20.2 933.358 21.9667 933.458 24.2C933.524 25.7 933.291 26.9667 932.758 28C932.224 29 931.508 29.8333 930.608 30.5C929.741 31.1333 928.791 31.6333 927.758 32C926.758 32.3333 925.791 32.5667 924.858 32.7C923.958 32.8333 923.208 32.9167 922.608 32.95C922.041 32.9833 921.758 33 921.758 33C921.758 33 921.424 33 920.758 33C920.124 33 919.324 32.9 918.358 32.7C917.391 32.4667 916.424 32.0333 915.458 31.4C914.524 30.7333 913.741 29.7667 913.108 28.5C912.508 27.2333 912.241 25.55 912.308 23.45C912.374 21.35 912.758 19.6333 913.458 18.3C914.191 16.9333 915.058 15.8667 916.058 15.1C917.091 14.3333 918.108 13.7833 919.108 13.45C920.141 13.1167 920.991 12.9167 921.658 12.85C922.358 12.75 922.708 12.7 922.708 12.7ZM922.908 17.6C922.908 17.6 922.691 17.8667 922.258 18.4C921.858 18.9333 921.441 19.6833 921.008 20.65C920.608 21.6167 920.408 22.75 920.408 24.05C920.408 25.3167 920.558 26.3167 920.858 27.05C921.158 27.7833 921.474 28.3167 921.808 28.65C922.174 28.95 922.458 29.1 922.658 29.1C922.858 29.1 923.174 29.0167 923.608 28.85C924.074 28.65 924.491 28.2167 924.858 27.55C925.224 26.8833 925.391 25.8333 925.358 24.4C925.324 23.2 925.191 22.2333 924.958 21.5C924.758 20.7667 924.474 20.1167 924.108 19.55C923.774 18.95 923.374 18.3 922.908 17.6ZM940.151 29.7C939.685 28.3 939.201 26.8667 938.701 25.4C938.201 23.9 937.718 22.4833 937.251 21.15C936.818 19.7833 936.435 18.6 936.101 17.6C935.768 16.6 935.535 15.9 935.401 15.5C935.135 14.6667 935.285 13.9667 935.851 13.4C936.418 12.8333 937.518 12.55 939.151 12.55C940.251 12.55 941.068 12.7167 941.601 13.05C942.135 13.35 942.468 13.6667 942.601 14C942.768 14.3 942.851 14.45 942.851 14.45L944.951 23.05L945.301 25.95L946.101 21.9C946.101 21.9 946.185 21.6667 946.351 21.2C946.518 20.7 946.735 20.1 947.001 19.4C947.268 18.6667 947.535 17.9333 947.801 17.2C948.068 16.4333 948.301 15.7833 948.501 15.25C948.901 14.1833 949.435 13.4833 950.101 13.15C950.801 12.7833 952.018 12.6333 953.751 12.7C954.618 12.7333 955.251 12.9 955.651 13.2C956.051 13.4667 956.285 13.7833 956.351 14.15C956.451 14.4833 956.468 14.7833 956.401 15.05C956.368 15.3167 956.351 15.45 956.351 15.45L949.301 30.45C949.301 30.45 949.168 30.6667 948.901 31.1C948.635 31.5 948.185 31.9167 947.551 32.35C946.951 32.7833 946.085 33 944.951 33C944.018 33 943.235 32.8333 942.601 32.5C942.001 32.1667 941.518 31.7833 941.151 31.35C940.785 30.9167 940.518 30.5333 940.351 30.2C940.218 29.8667 940.151 29.7 940.151 29.7ZM979.035 17.9C978.935 19.5667 978.468 20.9167 977.635 21.95C976.802 22.95 975.785 23.7167 974.585 24.25C973.418 24.75 972.252 25.1 971.085 25.3C969.918 25.4667 968.935 25.55 968.135 25.55C967.368 25.55 966.985 25.55 966.985 25.55C967.185 26.7167 967.468 27.55 967.835 28.05C968.202 28.55 968.602 28.8333 969.035 28.9C969.502 28.9667 969.935 28.9333 970.335 28.8C970.735 28.6333 971.052 28.45 971.285 28.25C971.552 28.05 971.685 27.95 971.685 27.95C971.685 27.95 971.868 27.8 972.235 27.5C972.602 27.2 973.168 26.9167 973.935 26.65C974.735 26.35 975.735 26.2 976.935 26.2C978.302 26.2 979.218 26.3833 979.685 26.75C980.185 27.0833 980.418 27.4833 980.385 27.95C980.385 28.3833 980.285 28.7833 980.085 29.15C979.918 29.4833 979.835 29.65 979.835 29.65C979.835 29.65 979.685 29.8167 979.385 30.15C979.118 30.45 978.618 30.8167 977.885 31.25C977.152 31.6833 976.135 32.0833 974.835 32.45C973.535 32.7833 971.868 32.9667 969.835 33C967.868 33.0333 966.218 32.7667 964.885 32.2C963.552 31.6333 962.452 30.9 961.585 30C960.718 29.0667 960.052 28.1 959.585 27.1C959.152 26.0667 958.835 25.1167 958.635 24.25C958.468 23.35 958.385 22.65 958.385 22.15C958.385 21.65 958.418 21 958.485 20.2C958.585 19.4 958.802 18.5667 959.135 17.7C959.502 16.8 960.052 15.95 960.785 15.15C961.518 14.35 962.518 13.7 963.785 13.2C965.085 12.7 966.735 12.4333 968.735 12.4C971.235 12.3667 973.185 12.5833 974.585 13.05C975.985 13.5167 977.002 14.0833 977.635 14.75C978.268 15.4167 978.652 16.05 978.785 16.65C978.952 17.25 979.035 17.6667 979.035 17.9ZM966.285 22.1C968.318 21.9333 969.835 21.5 970.835 20.8C971.835 20.1 972.418 19.3167 972.585 18.45C972.752 17.5833 972.585 16.85 972.085 16.25C971.618 15.6167 970.902 15.3333 969.935 15.4C968.968 15.4333 968.235 15.8 967.735 16.5C967.235 17.1667 966.885 17.95 966.685 18.85C966.485 19.7167 966.368 20.4833 966.335 21.15C966.302 21.7833 966.285 22.1 966.285 22.1Z" fill="#F1635F"/>
</svg>
