<svg width="550" height="43" viewBox="0 0 550 43" fill="none" xmlns="http://www.w3.org/2000/svg">
<path d="M16.3467 12.05C15.2133 12.05 14.3467 11.9167 13.7467 11.65C13.1467 11.35 12.7133 11.0167 12.4467 10.65C12.2133 10.2833 12.08 9.95 12.0467 9.65C12.0133 9.31667 11.9967 9.11667 11.9967 9.05C11.9967 8.88333 11.93 8.61667 11.7967 8.25C11.6967 7.85 11.3633 7.65 10.7967 7.65C9.86335 7.65 9.03001 7.93333 8.29668 8.5C7.59668 9.06667 7.21335 9.9 7.14668 11C7.08001 12.1 7.36335 13.05 7.99668 13.85C8.63001 14.65 9.88001 15.0667 11.7467 15.1C12.68 15.1 13.6633 15.2333 14.6967 15.5C15.73 15.7667 16.6967 16.2 17.5967 16.8C18.53 17.3667 19.2633 18.15 19.7967 19.15C20.3633 20.1167 20.6467 21.3333 20.6467 22.8C20.6133 25.7333 19.83 28 18.2967 29.6C16.7633 31.2 14.2133 32 10.6467 32C8.28001 32 6.38001 31.7167 4.94668 31.15C3.51335 30.55 2.46335 29.85 1.79668 29.05C1.16335 28.25 0.830013 27.5333 0.79668 26.9C0.763346 26.2667 0.79668 25.65 0.89668 25.05C1.03001 24.45 1.38001 23.9333 1.94668 23.5C2.54668 23.0667 3.49668 22.8 4.79668 22.7C6.13001 22.6 7.08001 22.7167 7.64668 23.05C8.21335 23.35 8.56335 23.7 8.69668 24.1C8.86335 24.5 8.94668 24.75 8.94668 24.85C8.94668 24.95 8.98001 25.2 9.04668 25.6C9.14668 25.9667 9.31335 26.3333 9.54668 26.7C9.81335 27.0333 10.18 27.2 10.6467 27.2C11.3467 27.2 11.9467 26.9167 12.4467 26.35C12.9467 25.7833 13.2633 24.8667 13.3967 23.6C13.63 21.1 12.38 19.85 9.64668 19.85C8.98001 19.85 8.11335 19.75 7.04668 19.55C6.01335 19.3167 4.98001 18.9167 3.94668 18.35C2.91335 17.75 2.04668 16.9167 1.34668 15.85C0.64668 14.7833 0.313346 13.3833 0.34668 11.65C0.380013 9.91667 0.69668 8.5 1.29668 7.4C1.89668 6.26667 2.68001 5.4 3.64668 4.8C4.64668 4.16667 5.73001 3.71667 6.89668 3.45C8.09668 3.18333 9.28001 3.03333 10.4467 3C12.0133 2.96666 13.5133 3.15 14.9467 3.55C16.4133 3.95 17.63 4.56667 18.5967 5.4C19.5967 6.2 20.1633 7.25 20.2967 8.55C20.3967 9.51667 20.2467 10.25 19.8467 10.75C19.48 11.2167 19.0133 11.55 18.4467 11.75C17.9133 11.9167 17.43 12.0167 16.9967 12.05C16.5633 12.05 16.3467 12.05 16.3467 12.05ZM23.0006 14.7C23.0006 14.7 23.0006 14.55 23.0006 14.25C23.0339 13.95 23.1506 13.6167 23.3506 13.25C23.5506 12.85 23.9173 12.5 24.4506 12.2C25.0173 11.9 25.8173 11.75 26.8506 11.75C28.1173 11.75 29.0173 11.9333 29.5506 12.3C30.1173 12.6333 30.4506 13.05 30.5506 13.55C30.6839 14.0167 30.7173 14.4833 30.6506 14.95C30.5839 15.3833 30.5506 15.6833 30.5506 15.85C30.5506 15.9833 30.5506 16.4833 30.5506 17.35C30.5839 18.1833 30.6506 19.1833 30.7506 20.35C30.8506 21.5167 31.0173 22.6667 31.2506 23.8C31.4839 24.9333 31.8173 25.8833 32.2506 26.65C32.6839 27.3833 33.2506 27.7333 33.9506 27.7C34.6506 27.6667 35.1173 27.3 35.3506 26.6C35.5839 25.9 35.6673 25.0333 35.6006 24C35.5673 22.9667 35.4506 21.9333 35.2506 20.9C35.0506 19.8667 34.8506 18.9833 34.6506 18.25C34.4506 17.4833 34.3506 17.05 34.3506 16.95C34.3506 16.8167 34.3006 16.5833 34.2006 16.25C34.1339 15.8833 34.1339 15.4833 34.2006 15.05C34.3006 14.6167 34.5839 14.2167 35.0506 13.85C35.5173 13.4833 36.2839 13.25 37.3506 13.15C38.4173 13.05 39.2506 13.1167 39.8506 13.35C40.4839 13.55 40.9339 13.8167 41.2006 14.15C41.5006 14.4833 41.6839 14.8 41.7506 15.1C41.8173 15.3667 41.8506 15.5 41.8506 15.5C41.8506 15.5 41.9673 15.9 42.2006 16.7C42.4339 17.5 42.6506 18.5333 42.8506 19.8C43.0506 21.0333 43.1173 22.35 43.0506 23.75C43.0173 25.15 42.7173 26.4833 42.1506 27.75C41.6173 28.9833 40.7173 30 39.4506 30.8C38.2173 31.6 36.4839 32 34.2506 32C32.0173 32 30.1839 31.5833 28.7506 30.75C27.3173 29.9167 26.1839 28.85 25.3506 27.55C24.5506 26.2167 23.9673 24.8167 23.6006 23.35C23.2339 21.8833 23.0173 20.5 22.9506 19.2C22.8839 17.8667 22.8673 16.7833 22.9006 15.95C22.9673 15.1167 23.0006 14.7 23.0006 14.7ZM46.1162 3.2C46.1162 3.2 46.1495 3.05 46.2162 2.75C46.3162 2.45 46.5162 2.11666 46.8162 1.75C47.1162 1.38333 47.5829 1.06666 48.2162 0.799999C48.8495 0.499999 49.7162 0.366666 50.8162 0.399999C51.8495 0.433331 52.6162 0.666665 53.1162 1.1C53.6162 1.53333 53.9162 2.08333 54.0162 2.75C54.1162 3.38333 54.0829 4.03333 53.9162 4.7C53.6829 5.6 53.5329 6.61666 53.4662 7.75C53.3995 8.88333 53.3662 9.86667 53.3662 10.7C53.3995 11.5 53.4162 11.9 53.4162 11.9C56.0829 11.9 58.2329 12.2333 59.8662 12.9C61.5329 13.5667 62.8162 14.4 63.7162 15.4C64.6162 16.4 65.2329 17.4 65.5662 18.4C65.9329 19.4 66.1495 20.2333 66.2162 20.9C66.2829 21.5667 66.3162 21.9 66.3162 21.9C66.3162 21.9 66.2662 22.25 66.1662 22.95C66.0995 23.6167 65.9162 24.45 65.6162 25.45C65.3162 26.45 64.8329 27.45 64.1662 28.45C63.4995 29.45 62.5829 30.3 61.4162 31C60.2495 31.6667 58.7495 32 56.9162 32C54.6162 32 52.7162 31.4833 51.2162 30.45C49.7495 29.4167 48.5995 28.05 47.7662 26.35C46.9329 24.6167 46.3329 22.7333 45.9662 20.7C45.5995 18.6333 45.3829 16.5833 45.3162 14.55C45.2829 12.4833 45.3329 10.6 45.4662 8.9C45.5995 7.16667 45.7329 5.78333 45.8662 4.75C46.0329 3.71667 46.1162 3.2 46.1162 3.2ZM53.0162 15.85C53.0162 15.85 52.9995 16.2333 52.9662 17C52.9329 17.7333 52.9329 18.65 52.9662 19.75C53.0329 20.85 53.1995 21.95 53.4662 23.05C53.7329 24.15 54.1662 25.0833 54.7662 25.85C55.3995 26.5833 56.2495 26.9333 57.3162 26.9C58.0829 26.9 58.6495 26.6 59.0162 26C59.3829 25.3667 59.6162 24.65 59.7162 23.85C59.8495 23.05 59.8995 22.3333 59.8662 21.7C59.8329 21.0667 59.8162 20.7 59.8162 20.6C59.8162 20.5 59.7495 20.2 59.6162 19.7C59.5162 19.1667 59.2495 18.5833 58.8162 17.95C58.4162 17.2833 57.7495 16.75 56.8162 16.35C55.9162 15.9167 54.6495 15.75 53.0162 15.85ZM79.4572 24C76.9572 23.9333 75.0072 23.6833 73.6072 23.25C72.2072 22.8167 71.2072 22.3 70.6072 21.7C70.0406 21.1 69.6906 20.5167 69.5572 19.95C69.4239 19.35 69.3572 18.8833 69.3572 18.55C69.3572 18.2167 69.4072 17.7 69.5072 17C69.6072 16.3 69.9239 15.5667 70.4572 14.8C70.9906 14.0333 71.9072 13.3667 73.2072 12.8C74.5406 12.2333 76.4239 11.9167 78.8572 11.85C81.5239 11.7833 83.5739 11.9333 85.0072 12.3C86.4406 12.6667 87.4572 13.1 88.0572 13.6C88.6906 14.1 89.0739 14.55 89.2072 14.95C89.3406 15.3167 89.4072 15.5 89.4072 15.5C89.4072 15.9333 89.3572 16.3833 89.2572 16.85C89.1572 17.2833 88.8572 17.65 88.3572 17.95C87.8906 18.2167 87.0739 18.3333 85.9072 18.3C84.9739 18.2667 84.2739 18.1833 83.8072 18.05C83.3406 17.9167 82.9906 17.7667 82.7572 17.6C82.5572 17.4 82.3406 17.2 82.1072 17C81.9072 16.8 81.5906 16.6333 81.1572 16.5C80.7572 16.3667 80.1072 16.2833 79.2072 16.25C78.1072 16.2167 77.2739 16.3 76.7072 16.5C76.1739 16.6667 75.8072 16.8833 75.6072 17.15C75.4406 17.4167 75.3406 17.65 75.3072 17.85C75.3072 18.0167 75.3072 18.1 75.3072 18.1C75.3072 18.1 75.3406 18.2333 75.4072 18.5C75.5072 18.7667 75.8406 19.0333 76.4072 19.3C77.0072 19.5667 78.0739 19.7167 79.6072 19.75C82.5072 19.85 84.7239 20.1333 86.2572 20.6C87.8239 21.0333 88.9239 21.55 89.5572 22.15C90.2239 22.75 90.6072 23.35 90.7072 23.95C90.8406 24.5167 90.9072 24.9667 90.9072 25.3C90.9072 25.6333 90.7906 26.15 90.5572 26.85C90.3572 27.55 89.9072 28.2833 89.2072 29.05C88.5072 29.8167 87.4239 30.4833 85.9572 31.05C84.5239 31.6167 82.5906 31.9333 80.1572 32C77.5239 32.0667 75.4739 31.9167 74.0072 31.55C72.5739 31.1833 71.5406 30.75 70.9072 30.25C70.3072 29.75 69.9406 29.3167 69.8072 28.95C69.6739 28.55 69.6072 28.35 69.6072 28.35C69.6072 27.8833 69.6572 27.4333 69.7572 27C69.8906 26.5667 70.1906 26.2167 70.6572 25.95C71.1572 25.65 71.9739 25.5167 73.1072 25.55C74.0739 25.5833 74.7739 25.6667 75.2072 25.8C75.6739 25.9333 76.0239 26.1 76.2572 26.3C76.4906 26.4667 76.7072 26.65 76.9072 26.85C77.1072 27.05 77.4239 27.2167 77.8572 27.35C78.2906 27.4833 78.9406 27.5667 79.8072 27.6C80.9072 27.6333 81.7239 27.5667 82.2572 27.4C82.8239 27.2 83.2072 26.9667 83.4072 26.7C83.6072 26.4333 83.7072 26.2167 83.7072 26.05C83.7072 25.85 83.7072 25.75 83.7072 25.75C83.7072 25.75 83.6739 25.6167 83.6072 25.35C83.5406 25.05 83.2072 24.7667 82.6072 24.5C82.0406 24.2 80.9906 24.0333 79.4572 24ZM109.918 20.6C108.618 20.6 107.668 20.45 107.068 20.15C106.501 19.8167 106.134 19.4833 105.968 19.15C105.834 18.8167 105.768 18.6 105.768 18.5C105.768 18.4 105.701 18.2 105.568 17.9C105.468 17.6 105.284 17.3167 105.018 17.05C104.751 16.75 104.401 16.6 103.968 16.6C103.534 16.5667 103.118 16.8667 102.718 17.5C102.318 18.1333 101.984 18.9 101.718 19.8C101.451 20.6667 101.284 21.5 101.218 22.3C101.184 23.1 101.268 23.9167 101.468 24.75C101.701 25.5833 102.034 26.2833 102.468 26.85C102.901 27.3833 103.418 27.6667 104.018 27.7C104.918 27.7333 105.468 27.6 105.668 27.3C105.868 26.9667 105.968 26.8 105.968 26.8C105.968 26.8 106.001 26.7 106.068 26.5C106.134 26.2667 106.318 26.0167 106.618 25.75C106.951 25.4833 107.468 25.2667 108.168 25.1C108.868 24.9 109.868 24.8167 111.168 24.85C112.468 24.8833 113.351 25.05 113.818 25.35C114.284 25.65 114.518 25.9833 114.518 26.35C114.551 26.7167 114.484 27.0333 114.318 27.3C114.151 27.5667 114.068 27.7 114.068 27.7C114.068 27.7 113.834 27.9167 113.368 28.35C112.901 28.7833 112.218 29.2833 111.318 29.85C110.451 30.4167 109.384 30.9167 108.118 31.35C106.851 31.7833 105.401 32 103.768 32C100.534 32 97.9678 31.1167 96.0678 29.35C94.2011 27.5833 93.2011 25.0833 93.0678 21.85C93.0011 20.25 93.2844 18.8167 93.9178 17.55C94.5511 16.2833 95.4011 15.2167 96.4678 14.35C97.5344 13.45 98.7178 12.7667 100.018 12.3C101.318 11.8 102.584 11.5167 103.818 11.45C105.084 11.3833 106.284 11.5667 107.418 12C108.551 12.4 109.568 12.95 110.468 13.65C111.401 14.35 112.151 15.0833 112.718 15.85C113.284 16.6167 113.601 17.3333 113.668 18C113.734 18.6333 113.584 19.1333 113.218 19.5C112.884 19.8667 112.451 20.1333 111.918 20.3C111.418 20.4333 110.968 20.5167 110.568 20.55C110.168 20.5833 109.951 20.6 109.918 20.6ZM118.851 28.6C118.851 28.2333 118.801 27.6 118.701 26.7C118.601 25.8 118.467 24.7833 118.301 23.65C118.167 22.4833 118.017 21.3333 117.851 20.2C117.684 19.0333 117.501 18 117.301 17.1C117.134 16.1667 116.984 15.5 116.851 15.1C116.517 14.1 116.701 13.4 117.401 13C118.134 12.5667 119.151 12.2833 120.451 12.15C121.751 12.0167 122.684 12.1167 123.251 12.45C123.851 12.75 124.151 12.9 124.151 12.9C124.651 12.4 125.467 12.05 126.601 11.85C127.767 11.65 128.984 11.5667 130.251 11.6C131.884 11.6333 133.067 11.8833 133.801 12.35C134.534 12.8167 134.901 13.3167 134.901 13.85C134.901 14.25 134.851 14.55 134.751 14.75C134.651 14.95 134.251 15.15 133.551 15.35C132.884 15.5167 131.667 15.8167 129.901 16.25C128.867 16.4833 128.101 17.05 127.601 17.95C127.101 18.8167 126.784 19.8333 126.651 21C126.551 22.1333 126.551 23.2667 126.651 24.4C126.751 25.5 126.867 26.4333 127.001 27.2C127.134 27.9333 127.201 28.3333 127.201 28.4C127.201 28.4667 127.217 28.7 127.251 29.1C127.317 29.4667 127.267 29.8833 127.101 30.35C126.967 30.7833 126.617 31.1667 126.051 31.5C125.484 31.8333 124.584 32 123.351 32C122.117 32 121.184 31.8333 120.551 31.5C119.917 31.1333 119.484 30.7333 119.251 30.3C119.017 29.8667 118.884 29.4833 118.851 29.15C118.851 28.7833 118.851 28.6 118.851 28.6ZM141.611 10.95C141.611 10.95 141.394 10.95 140.961 10.95C140.527 10.9167 140.011 10.8167 139.411 10.65C138.844 10.45 138.327 10.1 137.861 9.6C137.394 9.1 137.144 8.35 137.111 7.35C137.077 6.35 137.227 5.61667 137.561 5.15C137.894 4.65 138.311 4.31666 138.811 4.15C139.311 3.95 139.794 3.85 140.261 3.85C140.727 3.81667 141.061 3.78333 141.261 3.75C141.461 3.71667 141.794 3.75 142.261 3.85C142.727 3.91666 143.211 4.1 143.711 4.4C144.211 4.66666 144.627 5.08333 144.961 5.65C145.294 6.18333 145.427 6.9 145.361 7.8C145.294 8.66667 145.061 9.33333 144.661 9.8C144.294 10.2333 143.861 10.5333 143.361 10.7C142.894 10.8333 142.477 10.9167 142.111 10.95C141.777 10.95 141.611 10.95 141.611 10.95ZM139.861 28.9L138.661 17.5C138.661 17.5 138.577 17.3333 138.411 17C138.277 16.6333 138.177 16.3833 138.111 16.25C138.077 16.15 138.011 15.95 137.911 15.65C137.844 15.3167 137.927 14.9667 138.161 14.6C138.427 14.2333 138.994 13.9667 139.861 13.8C140.761 13.6333 141.694 13.5833 142.661 13.65C143.627 13.7167 144.477 14.0167 145.211 14.55C145.977 15.05 146.444 15.9333 146.611 17.2C146.744 18.1333 146.877 19.25 147.011 20.55C147.144 21.8167 147.261 23.0667 147.361 24.3C147.494 25.5 147.594 26.5167 147.661 27.35C147.761 28.15 147.811 28.55 147.811 28.55C147.811 28.55 147.827 28.7333 147.861 29.1C147.894 29.4333 147.844 29.8333 147.711 30.3C147.577 30.7333 147.244 31.1333 146.711 31.5C146.211 31.8333 145.394 32 144.261 32C143.127 32 142.261 31.85 141.661 31.55C141.061 31.2167 140.627 30.85 140.361 30.45C140.127 30.05 139.977 29.7 139.911 29.4C139.877 29.0667 139.861 28.9 139.861 28.9ZM151.39 3.2C151.39 3.2 151.423 3.05 151.49 2.75C151.59 2.45 151.79 2.11666 152.09 1.75C152.39 1.38333 152.856 1.06666 153.49 0.799999C154.123 0.499999 154.99 0.366666 156.09 0.399999C157.123 0.433331 157.89 0.666665 158.39 1.1C158.89 1.53333 159.19 2.08333 159.29 2.75C159.39 3.38333 159.356 4.03333 159.19 4.7C158.956 5.6 158.806 6.61666 158.74 7.75C158.673 8.88333 158.64 9.86667 158.64 10.7C158.673 11.5 158.69 11.9 158.69 11.9C161.356 11.9 163.506 12.2333 165.14 12.9C166.806 13.5667 168.09 14.4 168.99 15.4C169.89 16.4 170.506 17.4 170.84 18.4C171.206 19.4 171.423 20.2333 171.49 20.9C171.556 21.5667 171.59 21.9 171.59 21.9C171.59 21.9 171.54 22.25 171.44 22.95C171.373 23.6167 171.19 24.45 170.89 25.45C170.59 26.45 170.106 27.45 169.44 28.45C168.773 29.45 167.856 30.3 166.69 31C165.523 31.6667 164.023 32 162.19 32C159.89 32 157.99 31.4833 156.49 30.45C155.023 29.4167 153.873 28.05 153.04 26.35C152.206 24.6167 151.606 22.7333 151.24 20.7C150.873 18.6333 150.656 16.5833 150.59 14.55C150.556 12.4833 150.606 10.6 150.74 8.9C150.873 7.16667 151.006 5.78333 151.14 4.75C151.306 3.71667 151.39 3.2 151.39 3.2ZM158.29 15.85C158.29 15.85 158.273 16.2333 158.24 17C158.206 17.7333 158.206 18.65 158.24 19.75C158.306 20.85 158.473 21.95 158.74 23.05C159.006 24.15 159.44 25.0833 160.04 25.85C160.673 26.5833 161.523 26.9333 162.59 26.9C163.356 26.9 163.923 26.6 164.29 26C164.656 25.3667 164.89 24.65 164.99 23.85C165.123 23.05 165.173 22.3333 165.14 21.7C165.106 21.0667 165.09 20.7 165.09 20.6C165.09 20.5 165.023 20.2 164.89 19.7C164.79 19.1667 164.523 18.5833 164.09 17.95C163.69 17.2833 163.023 16.75 162.09 16.35C161.19 15.9167 159.923 15.75 158.29 15.85ZM193.931 16.9C193.831 18.5667 193.364 19.9167 192.531 20.95C191.697 21.95 190.681 22.7167 189.481 23.25C188.314 23.75 187.147 24.1 185.981 24.3C184.814 24.4667 183.831 24.55 183.031 24.55C182.264 24.55 181.881 24.55 181.881 24.55C182.081 25.7167 182.364 26.55 182.731 27.05C183.097 27.55 183.497 27.8333 183.931 27.9C184.397 27.9667 184.831 27.9333 185.231 27.8C185.631 27.6333 185.947 27.45 186.181 27.25C186.447 27.05 186.581 26.95 186.581 26.95C186.581 26.95 186.764 26.8 187.131 26.5C187.497 26.2 188.064 25.9167 188.831 25.65C189.631 25.35 190.631 25.2 191.831 25.2C193.197 25.2 194.114 25.3833 194.581 25.75C195.081 26.0833 195.314 26.4833 195.281 26.95C195.281 27.3833 195.181 27.7833 194.981 28.15C194.814 28.4833 194.731 28.65 194.731 28.65C194.731 28.65 194.581 28.8167 194.281 29.15C194.014 29.45 193.514 29.8167 192.781 30.25C192.047 30.6833 191.031 31.0833 189.731 31.45C188.431 31.7833 186.764 31.9667 184.731 32C182.764 32.0333 181.114 31.7667 179.781 31.2C178.447 30.6333 177.347 29.9 176.481 29C175.614 28.0667 174.947 27.1 174.481 26.1C174.047 25.0667 173.731 24.1167 173.531 23.25C173.364 22.35 173.281 21.65 173.281 21.15C173.281 20.65 173.314 20 173.381 19.2C173.481 18.4 173.697 17.5667 174.031 16.7C174.397 15.8 174.947 14.95 175.681 14.15C176.414 13.35 177.414 12.7 178.681 12.2C179.981 11.7 181.631 11.4333 183.631 11.4C186.131 11.3667 188.081 11.5833 189.481 12.05C190.881 12.5167 191.897 13.0833 192.531 13.75C193.164 14.4167 193.547 15.05 193.681 15.65C193.847 16.25 193.931 16.6667 193.931 16.9ZM181.181 21.1C183.214 20.9333 184.731 20.5 185.731 19.8C186.731 19.1 187.314 18.3167 187.481 17.45C187.647 16.5833 187.481 15.85 186.981 15.25C186.514 14.6167 185.797 14.3333 184.831 14.4C183.864 14.4333 183.131 14.8 182.631 15.5C182.131 16.1667 181.781 16.95 181.581 17.85C181.381 18.7167 181.264 19.4833 181.231 20.15C181.197 20.7833 181.181 21.1 181.181 21.1Z" fill="#F1635F"/>
<path d="M221.441 11.7C222.675 11.6 223.625 11.7333 224.291 12.1C224.958 12.4667 225.358 12.6833 225.491 12.75C225.825 12.9167 226.125 13.1 226.391 13.3C226.691 13.5 226.841 13.6 226.841 13.6C226.841 13.6 227.091 13.6833 227.591 13.85C228.091 14.0167 228.675 14.4167 229.341 15.05C230.008 15.65 230.625 16.6 231.191 17.9C231.758 19.2 232.091 20.9667 232.191 23.2C232.258 24.7 232.025 25.9667 231.491 27C230.958 28 230.241 28.8333 229.341 29.5C228.475 30.1333 227.525 30.6333 226.491 31C225.491 31.3333 224.525 31.5667 223.591 31.7C222.691 31.8333 221.941 31.9167 221.341 31.95C220.775 31.9833 220.491 32 220.491 32C220.491 32 220.158 32 219.491 32C218.858 32 218.058 31.9 217.091 31.7C216.125 31.4667 215.158 31.0333 214.191 30.4C213.258 29.7333 212.475 28.7667 211.841 27.5C211.241 26.2333 210.975 24.55 211.041 22.45C211.108 20.35 211.491 18.6333 212.191 17.3C212.925 15.9333 213.791 14.8667 214.791 14.1C215.825 13.3333 216.841 12.7833 217.841 12.45C218.875 12.1167 219.725 11.9167 220.391 11.85C221.091 11.75 221.441 11.7 221.441 11.7ZM221.641 16.6C221.641 16.6 221.425 16.8667 220.991 17.4C220.591 17.9333 220.175 18.6833 219.741 19.65C219.341 20.6167 219.141 21.75 219.141 23.05C219.141 24.3167 219.291 25.3167 219.591 26.05C219.891 26.7833 220.208 27.3167 220.541 27.65C220.908 27.95 221.191 28.1 221.391 28.1C221.591 28.1 221.908 28.0167 222.341 27.85C222.808 27.65 223.225 27.2167 223.591 26.55C223.958 25.8833 224.125 24.8333 224.091 23.4C224.058 22.2 223.925 21.2333 223.691 20.5C223.491 19.7667 223.208 19.1167 222.841 18.55C222.508 17.95 222.108 17.3 221.641 16.6ZM234.085 14.7C234.085 14.7 234.085 14.55 234.085 14.25C234.118 13.95 234.235 13.6167 234.435 13.25C234.635 12.85 235.001 12.5 235.535 12.2C236.101 11.9 236.901 11.75 237.935 11.75C239.201 11.75 240.101 11.9333 240.635 12.3C241.201 12.6333 241.535 13.05 241.635 13.55C241.768 14.0167 241.801 14.4833 241.735 14.95C241.668 15.3833 241.635 15.6833 241.635 15.85C241.635 15.9833 241.635 16.4833 241.635 17.35C241.668 18.1833 241.735 19.1833 241.835 20.35C241.935 21.5167 242.101 22.6667 242.335 23.8C242.568 24.9333 242.901 25.8833 243.335 26.65C243.768 27.3833 244.335 27.7333 245.035 27.7C245.735 27.6667 246.201 27.3 246.435 26.6C246.668 25.9 246.751 25.0333 246.685 24C246.651 22.9667 246.535 21.9333 246.335 20.9C246.135 19.8667 245.935 18.9833 245.735 18.25C245.535 17.4833 245.435 17.05 245.435 16.95C245.435 16.8167 245.385 16.5833 245.285 16.25C245.218 15.8833 245.218 15.4833 245.285 15.05C245.385 14.6167 245.668 14.2167 246.135 13.85C246.601 13.4833 247.368 13.25 248.435 13.15C249.501 13.05 250.335 13.1167 250.935 13.35C251.568 13.55 252.018 13.8167 252.285 14.15C252.585 14.4833 252.768 14.8 252.835 15.1C252.901 15.3667 252.935 15.5 252.935 15.5C252.935 15.5 253.051 15.9 253.285 16.7C253.518 17.5 253.735 18.5333 253.935 19.8C254.135 21.0333 254.201 22.35 254.135 23.75C254.101 25.15 253.801 26.4833 253.235 27.75C252.701 28.9833 251.801 30 250.535 30.8C249.301 31.6 247.568 32 245.335 32C243.101 32 241.268 31.5833 239.835 30.75C238.401 29.9167 237.268 28.85 236.435 27.55C235.635 26.2167 235.051 24.8167 234.685 23.35C234.318 21.8833 234.101 20.5 234.035 19.2C233.968 17.8667 233.951 16.7833 233.985 15.95C234.051 15.1167 234.085 14.7 234.085 14.7ZM258.45 28.6C258.45 28.2333 258.4 27.6 258.3 26.7C258.2 25.8 258.067 24.7833 257.9 23.65C257.767 22.4833 257.617 21.3333 257.45 20.2C257.284 19.0333 257.1 18 256.9 17.1C256.734 16.1667 256.584 15.5 256.45 15.1C256.117 14.1 256.3 13.4 257 13C257.734 12.5667 258.75 12.2833 260.05 12.15C261.35 12.0167 262.284 12.1167 262.85 12.45C263.45 12.75 263.75 12.9 263.75 12.9C264.25 12.4 265.067 12.05 266.2 11.85C267.367 11.65 268.584 11.5667 269.85 11.6C271.484 11.6333 272.667 11.8833 273.4 12.35C274.134 12.8167 274.5 13.3167 274.5 13.85C274.5 14.25 274.45 14.55 274.35 14.75C274.25 14.95 273.85 15.15 273.15 15.35C272.484 15.5167 271.267 15.8167 269.5 16.25C268.467 16.4833 267.7 17.05 267.2 17.95C266.7 18.8167 266.384 19.8333 266.25 21C266.15 22.1333 266.15 23.2667 266.25 24.4C266.35 25.5 266.467 26.4333 266.6 27.2C266.734 27.9333 266.8 28.3333 266.8 28.4C266.8 28.4667 266.817 28.7 266.85 29.1C266.917 29.4667 266.867 29.8833 266.7 30.35C266.567 30.7833 266.217 31.1667 265.65 31.5C265.084 31.8333 264.184 32 262.95 32C261.717 32 260.784 31.8333 260.15 31.5C259.517 31.1333 259.084 30.7333 258.85 30.3C258.617 29.8667 258.484 29.4833 258.45 29.15C258.45 28.7833 258.45 28.6 258.45 28.6ZM291.849 39.15L290.199 18.85C290.199 18.85 290.115 18.7167 289.949 18.45C289.815 18.1833 289.682 17.85 289.549 17.45C289.415 17.0167 289.382 16.6 289.449 16.2C289.515 15.8 289.765 15.4667 290.199 15.2C290.565 15 291.232 14.6167 292.199 14.05C293.199 13.45 294.415 12.8667 295.849 12.3C297.282 11.7333 298.815 11.3333 300.449 11.1C302.115 10.8667 303.782 10.9667 305.449 11.4C307.149 11.8 308.749 12.7167 310.249 14.15C311.715 15.55 312.632 17.1 312.999 18.8C313.365 20.5 313.332 22.1667 312.899 23.8C312.499 25.4333 311.815 26.8667 310.849 28.1C309.915 29.3333 308.849 30.2 307.649 30.7C306.015 31.3667 304.615 31.7833 303.449 31.95C302.282 32.0833 301.382 32.1167 300.749 32.05C300.115 32.0167 299.799 32 299.799 32L300.299 39.55C300.299 39.55 300.299 39.7167 300.299 40.05C300.299 40.3833 300.199 40.7667 299.999 41.2C299.832 41.6333 299.465 42 298.899 42.3C298.332 42.6333 297.499 42.8 296.399 42.8C294.932 42.7667 293.865 42.5333 293.199 42.1C292.565 41.6667 292.182 41.1667 292.049 40.6C291.915 40.0333 291.849 39.55 291.849 39.15ZM298.249 16.6L299.349 27.45C299.349 27.45 299.632 27.45 300.199 27.45C300.765 27.45 301.399 27.35 302.099 27.15C302.832 26.95 303.465 26.5667 303.999 26C304.532 25.4333 304.765 24.5833 304.699 23.45C304.632 21.95 304.465 20.6167 304.199 19.45C303.932 18.25 303.532 17.3333 302.999 16.7C302.465 16.0667 301.732 15.8333 300.799 16C299.865 16.1667 299.215 16.3 298.849 16.4C298.515 16.4667 298.332 16.5167 298.299 16.55C298.265 16.5833 298.249 16.6 298.249 16.6ZM335.435 16.9C335.335 18.5667 334.868 19.9167 334.035 20.95C333.201 21.95 332.185 22.7167 330.985 23.25C329.818 23.75 328.651 24.1 327.485 24.3C326.318 24.4667 325.335 24.55 324.535 24.55C323.768 24.55 323.385 24.55 323.385 24.55C323.585 25.7167 323.868 26.55 324.235 27.05C324.601 27.55 325.001 27.8333 325.435 27.9C325.901 27.9667 326.335 27.9333 326.735 27.8C327.135 27.6333 327.451 27.45 327.685 27.25C327.951 27.05 328.085 26.95 328.085 26.95C328.085 26.95 328.268 26.8 328.635 26.5C329.001 26.2 329.568 25.9167 330.335 25.65C331.135 25.35 332.135 25.2 333.335 25.2C334.701 25.2 335.618 25.3833 336.085 25.75C336.585 26.0833 336.818 26.4833 336.785 26.95C336.785 27.3833 336.685 27.7833 336.485 28.15C336.318 28.4833 336.235 28.65 336.235 28.65C336.235 28.65 336.085 28.8167 335.785 29.15C335.518 29.45 335.018 29.8167 334.285 30.25C333.551 30.6833 332.535 31.0833 331.235 31.45C329.935 31.7833 328.268 31.9667 326.235 32C324.268 32.0333 322.618 31.7667 321.285 31.2C319.951 30.6333 318.851 29.9 317.985 29C317.118 28.0667 316.451 27.1 315.985 26.1C315.551 25.0667 315.235 24.1167 315.035 23.25C314.868 22.35 314.785 21.65 314.785 21.15C314.785 20.65 314.818 20 314.885 19.2C314.985 18.4 315.201 17.5667 315.535 16.7C315.901 15.8 316.451 14.95 317.185 14.15C317.918 13.35 318.918 12.7 320.185 12.2C321.485 11.7 323.135 11.4333 325.135 11.4C327.635 11.3667 329.585 11.5833 330.985 12.05C332.385 12.5167 333.401 13.0833 334.035 13.75C334.668 14.4167 335.051 15.05 335.185 15.65C335.351 16.25 335.435 16.6667 335.435 16.9ZM322.685 21.1C324.718 20.9333 326.235 20.5 327.235 19.8C328.235 19.1 328.818 18.3167 328.985 17.45C329.151 16.5833 328.985 15.85 328.485 15.25C328.018 14.6167 327.301 14.3333 326.335 14.4C325.368 14.4333 324.635 14.8 324.135 15.5C323.635 16.1667 323.285 16.95 323.085 17.85C322.885 18.7167 322.768 19.4833 322.735 20.15C322.701 20.7833 322.685 21.1 322.685 21.1ZM339.457 4.7C339.424 3.86667 339.674 3.2 340.207 2.7C340.74 2.16666 341.924 1.85 343.757 1.75C344.99 1.68333 345.89 1.83333 346.457 2.2C347.024 2.56667 347.374 2.95 347.507 3.35C347.674 3.71667 347.757 3.9 347.757 3.9L348.057 8.35C348.057 8.35 348.324 8.35 348.857 8.35C349.424 8.35 350.057 8.41667 350.757 8.55C351.49 8.65 352.124 8.86667 352.657 9.2C353.224 9.53333 353.507 10.05 353.507 10.75C353.507 11.45 353.24 11.9667 352.707 12.3C352.174 12.6333 351.557 12.8667 350.857 13C350.157 13.1 349.524 13.15 348.957 13.15C348.424 13.15 348.157 13.15 348.157 13.15C348.157 13.15 348.157 13.5333 348.157 14.3C348.19 15.0333 348.207 16 348.207 17.2C348.207 18.3667 348.224 19.6167 348.257 20.95C348.29 22.2833 348.307 23.5667 348.307 24.8C348.307 26 348.307 27.0167 348.307 27.85C348.34 28.65 348.357 29.1167 348.357 29.25C348.357 29.4833 348.274 29.8167 348.107 30.25C347.974 30.6833 347.59 31.0833 346.957 31.45C346.357 31.8167 345.357 32 343.957 32C342.924 32 342.124 31.8833 341.557 31.65C340.99 31.3833 340.574 31.1 340.307 30.8C340.074 30.4667 339.94 30.1833 339.907 29.95C339.874 29.6833 339.857 29.55 339.857 29.55L339.457 4.7ZM366.615 24C364.115 23.9333 362.165 23.6833 360.765 23.25C359.365 22.8167 358.365 22.3 357.765 21.7C357.199 21.1 356.849 20.5167 356.715 19.95C356.582 19.35 356.515 18.8833 356.515 18.55C356.515 18.2167 356.565 17.7 356.665 17C356.765 16.3 357.082 15.5667 357.615 14.8C358.149 14.0333 359.065 13.3667 360.365 12.8C361.699 12.2333 363.582 11.9167 366.015 11.85C368.682 11.7833 370.732 11.9333 372.165 12.3C373.599 12.6667 374.615 13.1 375.215 13.6C375.849 14.1 376.232 14.55 376.365 14.95C376.499 15.3167 376.565 15.5 376.565 15.5C376.565 15.9333 376.515 16.3833 376.415 16.85C376.315 17.2833 376.015 17.65 375.515 17.95C375.049 18.2167 374.232 18.3333 373.065 18.3C372.132 18.2667 371.432 18.1833 370.965 18.05C370.499 17.9167 370.149 17.7667 369.915 17.6C369.715 17.4 369.499 17.2 369.265 17C369.065 16.8 368.749 16.6333 368.315 16.5C367.915 16.3667 367.265 16.2833 366.365 16.25C365.265 16.2167 364.432 16.3 363.865 16.5C363.332 16.6667 362.965 16.8833 362.765 17.15C362.599 17.4167 362.499 17.65 362.465 17.85C362.465 18.0167 362.465 18.1 362.465 18.1C362.465 18.1 362.499 18.2333 362.565 18.5C362.665 18.7667 362.999 19.0333 363.565 19.3C364.165 19.5667 365.232 19.7167 366.765 19.75C369.665 19.85 371.882 20.1333 373.415 20.6C374.982 21.0333 376.082 21.55 376.715 22.15C377.382 22.75 377.765 23.35 377.865 23.95C377.999 24.5167 378.065 24.9667 378.065 25.3C378.065 25.6333 377.949 26.15 377.715 26.85C377.515 27.55 377.065 28.2833 376.365 29.05C375.665 29.8167 374.582 30.4833 373.115 31.05C371.682 31.6167 369.749 31.9333 367.315 32C364.682 32.0667 362.632 31.9167 361.165 31.55C359.732 31.1833 358.699 30.75 358.065 30.25C357.465 29.75 357.099 29.3167 356.965 28.95C356.832 28.55 356.765 28.35 356.765 28.35C356.765 27.8833 356.815 27.4333 356.915 27C357.049 26.5667 357.349 26.2167 357.815 25.95C358.315 25.65 359.132 25.5167 360.265 25.55C361.232 25.5833 361.932 25.6667 362.365 25.8C362.832 25.9333 363.182 26.1 363.415 26.3C363.649 26.4667 363.865 26.65 364.065 26.85C364.265 27.05 364.582 27.2167 365.015 27.35C365.449 27.4833 366.099 27.5667 366.965 27.6C368.065 27.6333 368.882 27.5667 369.415 27.4C369.982 27.2 370.365 26.9667 370.565 26.7C370.765 26.4333 370.865 26.2167 370.865 26.05C370.865 25.85 370.865 25.75 370.865 25.75C370.865 25.75 370.832 25.6167 370.765 25.35C370.699 25.05 370.365 24.7667 369.765 24.5C369.199 24.2 368.149 24.0333 366.615 24ZM403.364 11.35C405.031 11.3167 406.448 11.4667 407.614 11.8C408.781 12.1 409.748 12.4667 410.514 12.9C411.281 13.3333 411.881 13.7167 412.314 14.05C412.748 14.3833 413.064 14.55 413.264 14.55C413.631 14.5833 413.898 14.7667 414.064 15.1C414.231 15.4 414.314 15.55 414.314 15.55C414.314 15.55 414.364 15.8833 414.464 16.55C414.564 17.2167 414.681 18.0667 414.814 19.1C414.981 20.1333 415.131 21.2167 415.264 22.35C415.398 23.4833 415.514 24.55 415.614 25.55C415.714 26.55 415.764 27.3333 415.764 27.9C415.764 28.8333 415.698 29.5833 415.564 30.15C415.464 30.7167 415.131 31.15 414.564 31.45C413.998 31.7167 413.064 31.9 411.764 32C410.798 32.0667 410.098 32.05 409.664 31.95C409.231 31.85 408.964 31.7333 408.864 31.6C408.764 31.4667 408.714 31.4 408.714 31.4C408.414 31.6333 407.914 31.8 407.214 31.9C406.548 31.9667 405.914 32 405.314 32C404.714 32 404.414 32 404.414 32C404.414 32 404.031 31.95 403.264 31.85C402.498 31.7167 401.548 31.4667 400.414 31.1C399.314 30.7 398.198 30.1167 397.064 29.35C395.964 28.55 395.048 27.5 394.314 26.2C393.581 24.8667 393.231 23.2167 393.264 21.25C393.298 19.2833 393.664 17.6833 394.364 16.45C395.064 15.1833 395.914 14.2 396.914 13.5C397.914 12.8 398.898 12.3 399.864 12C400.864 11.7 401.698 11.5167 402.364 11.45C403.031 11.3833 403.364 11.35 403.364 11.35ZM407.114 16.5C406.948 16.2667 406.581 16.0167 406.014 15.75C405.481 15.45 404.964 15.2 404.464 15C403.998 14.8 403.764 14.7333 403.764 14.8C403.764 14.8333 403.581 15.1167 403.214 15.65C402.881 16.15 402.531 16.9 402.164 17.9C401.831 18.8667 401.648 20.0333 401.614 21.4C401.581 22.7667 401.764 23.95 402.164 24.95C402.564 25.95 403.048 26.7167 403.614 27.25C404.214 27.7833 404.764 28.05 405.264 28.05C405.631 28.05 405.981 27.8833 406.314 27.55C406.648 27.1833 406.931 26.7833 407.164 26.35C407.398 25.8833 407.581 25.4833 407.714 25.15C407.848 24.8167 407.914 24.65 407.914 24.65L407.114 16.5ZM420.12 28.6C420.12 28.2333 420.07 27.6 419.97 26.7C419.87 25.8 419.737 24.7833 419.57 23.65C419.437 22.4833 419.287 21.3333 419.12 20.2C418.953 19.0333 418.77 18 418.57 17.1C418.403 16.1667 418.253 15.5 418.12 15.1C417.787 14.1 417.97 13.4 418.67 13C419.403 12.5667 420.42 12.2833 421.72 12.15C423.02 12.0167 423.953 12.1167 424.52 12.45C425.12 12.75 425.42 12.9 425.42 12.9C425.92 12.4 426.737 12.05 427.87 11.85C429.037 11.65 430.253 11.5667 431.52 11.6C433.153 11.6333 434.337 11.8833 435.07 12.35C435.803 12.8167 436.17 13.3167 436.17 13.85C436.17 14.25 436.12 14.55 436.02 14.75C435.92 14.95 435.52 15.15 434.82 15.35C434.153 15.5167 432.937 15.8167 431.17 16.25C430.137 16.4833 429.37 17.05 428.87 17.95C428.37 18.8167 428.053 19.8333 427.92 21C427.82 22.1333 427.82 23.2667 427.92 24.4C428.02 25.5 428.137 26.4333 428.27 27.2C428.403 27.9333 428.47 28.3333 428.47 28.4C428.47 28.4667 428.487 28.7 428.52 29.1C428.587 29.4667 428.537 29.8833 428.37 30.35C428.237 30.7833 427.887 31.1667 427.32 31.5C426.753 31.8333 425.853 32 424.62 32C423.387 32 422.453 31.8333 421.82 31.5C421.187 31.1333 420.753 30.7333 420.52 30.3C420.287 29.8667 420.153 29.4833 420.12 29.15C420.12 28.7833 420.12 28.6 420.12 28.6ZM438.48 4.7C438.447 3.86667 438.697 3.2 439.23 2.7C439.764 2.16666 440.947 1.85 442.78 1.75C444.014 1.68333 444.914 1.83333 445.48 2.2C446.047 2.56667 446.397 2.95 446.53 3.35C446.697 3.71667 446.78 3.9 446.78 3.9L447.08 8.35C447.08 8.35 447.347 8.35 447.88 8.35C448.447 8.35 449.08 8.41667 449.78 8.55C450.514 8.65 451.147 8.86667 451.68 9.2C452.247 9.53333 452.53 10.05 452.53 10.75C452.53 11.45 452.264 11.9667 451.73 12.3C451.197 12.6333 450.58 12.8667 449.88 13C449.18 13.1 448.547 13.15 447.98 13.15C447.447 13.15 447.18 13.15 447.18 13.15C447.18 13.15 447.18 13.5333 447.18 14.3C447.214 15.0333 447.23 16 447.23 17.2C447.23 18.3667 447.247 19.6167 447.28 20.95C447.314 22.2833 447.33 23.5667 447.33 24.8C447.33 26 447.33 27.0167 447.33 27.85C447.364 28.65 447.38 29.1167 447.38 29.25C447.38 29.4833 447.297 29.8167 447.13 30.25C446.997 30.6833 446.614 31.0833 445.98 31.45C445.38 31.8167 444.38 32 442.98 32C441.947 32 441.147 31.8833 440.58 31.65C440.014 31.3833 439.597 31.1 439.33 30.8C439.097 30.4667 438.964 30.1833 438.93 29.95C438.897 29.6833 438.88 29.55 438.88 29.55L438.48 4.7ZM459.189 10.95C459.189 10.95 458.972 10.95 458.539 10.95C458.106 10.9167 457.589 10.8167 456.989 10.65C456.422 10.45 455.906 10.1 455.439 9.6C454.972 9.1 454.722 8.35 454.689 7.35C454.656 6.35 454.806 5.61667 455.139 5.15C455.472 4.65 455.889 4.31666 456.389 4.15C456.889 3.95 457.372 3.85 457.839 3.85C458.306 3.81667 458.639 3.78333 458.839 3.75C459.039 3.71667 459.372 3.75 459.839 3.85C460.306 3.91666 460.789 4.1 461.289 4.4C461.789 4.66666 462.206 5.08333 462.539 5.65C462.872 6.18333 463.006 6.9 462.939 7.8C462.872 8.66667 462.639 9.33333 462.239 9.8C461.872 10.2333 461.439 10.5333 460.939 10.7C460.472 10.8333 460.056 10.9167 459.689 10.95C459.356 10.95 459.189 10.95 459.189 10.95ZM457.439 28.9L456.239 17.5C456.239 17.5 456.156 17.3333 455.989 17C455.856 16.6333 455.756 16.3833 455.689 16.25C455.656 16.15 455.589 15.95 455.489 15.65C455.422 15.3167 455.506 14.9667 455.739 14.6C456.006 14.2333 456.572 13.9667 457.439 13.8C458.339 13.6333 459.272 13.5833 460.239 13.65C461.206 13.7167 462.056 14.0167 462.789 14.55C463.556 15.05 464.022 15.9333 464.189 17.2C464.322 18.1333 464.456 19.25 464.589 20.55C464.722 21.8167 464.839 23.0667 464.939 24.3C465.072 25.5 465.172 26.5167 465.239 27.35C465.339 28.15 465.389 28.55 465.389 28.55C465.389 28.55 465.406 28.7333 465.439 29.1C465.472 29.4333 465.422 29.8333 465.289 30.3C465.156 30.7333 464.822 31.1333 464.289 31.5C463.789 31.8333 462.972 32 461.839 32C460.706 32 459.839 31.85 459.239 31.55C458.639 31.2167 458.206 30.85 457.939 30.45C457.706 30.05 457.556 29.7 457.489 29.4C457.456 29.0667 457.439 28.9 457.439 28.9ZM484.918 20.6C483.618 20.6 482.668 20.45 482.068 20.15C481.501 19.8167 481.134 19.4833 480.968 19.15C480.834 18.8167 480.768 18.6 480.768 18.5C480.768 18.4 480.701 18.2 480.568 17.9C480.468 17.6 480.284 17.3167 480.018 17.05C479.751 16.75 479.401 16.6 478.968 16.6C478.534 16.5667 478.118 16.8667 477.718 17.5C477.318 18.1333 476.984 18.9 476.718 19.8C476.451 20.6667 476.284 21.5 476.218 22.3C476.184 23.1 476.268 23.9167 476.468 24.75C476.701 25.5833 477.034 26.2833 477.468 26.85C477.901 27.3833 478.418 27.6667 479.018 27.7C479.918 27.7333 480.468 27.6 480.668 27.3C480.868 26.9667 480.968 26.8 480.968 26.8C480.968 26.8 481.001 26.7 481.068 26.5C481.134 26.2667 481.318 26.0167 481.618 25.75C481.951 25.4833 482.468 25.2667 483.168 25.1C483.868 24.9 484.868 24.8167 486.168 24.85C487.468 24.8833 488.351 25.05 488.818 25.35C489.284 25.65 489.518 25.9833 489.518 26.35C489.551 26.7167 489.484 27.0333 489.318 27.3C489.151 27.5667 489.068 27.7 489.068 27.7C489.068 27.7 488.834 27.9167 488.368 28.35C487.901 28.7833 487.218 29.2833 486.318 29.85C485.451 30.4167 484.384 30.9167 483.118 31.35C481.851 31.7833 480.401 32 478.768 32C475.534 32 472.968 31.1167 471.068 29.35C469.201 27.5833 468.201 25.0833 468.068 21.85C468.001 20.25 468.284 18.8167 468.918 17.55C469.551 16.2833 470.401 15.2167 471.468 14.35C472.534 13.45 473.718 12.7667 475.018 12.3C476.318 11.8 477.584 11.5167 478.818 11.45C480.084 11.3833 481.284 11.5667 482.418 12C483.551 12.4 484.568 12.95 485.468 13.65C486.401 14.35 487.151 15.0833 487.718 15.85C488.284 16.6167 488.601 17.3333 488.668 18C488.734 18.6333 488.584 19.1333 488.218 19.5C487.884 19.8667 487.451 20.1333 486.918 20.3C486.418 20.4333 485.968 20.5167 485.568 20.55C485.168 20.5833 484.951 20.6 484.918 20.6ZM496.101 1.9C496.101 1.9 496.317 1.91666 496.751 1.95C497.184 1.95 497.684 2.03333 498.251 2.2C498.817 2.33333 499.317 2.58333 499.751 2.95C500.184 3.31666 500.401 3.83333 500.401 4.5C500.401 4.93333 500.417 5.81667 500.451 7.15C500.484 8.48333 500.517 10.0667 500.551 11.9C500.584 13.7 500.617 15.5667 500.651 17.5C500.717 19.4 500.767 21.1833 500.801 22.85C500.834 24.5167 500.851 25.8667 500.851 26.9C500.884 27.9333 500.901 28.45 500.901 28.45C500.901 28.45 500.901 28.6333 500.901 29C500.901 29.3333 500.801 29.75 500.601 30.25C500.401 30.7167 500.017 31.1333 499.451 31.5C498.884 31.8333 498.051 32 496.951 32C495.484 32 494.417 31.8167 493.751 31.45C493.084 31.05 492.667 30.6167 492.501 30.15C492.367 29.65 492.317 29.2667 492.351 29C492.384 28.8667 492.401 28.2833 492.401 27.25C492.401 26.2167 492.384 24.9167 492.351 23.35C492.351 21.7833 492.334 20.1 492.301 18.3C492.267 16.5 492.234 14.7333 492.201 13C492.167 11.2333 492.117 9.66667 492.051 8.3C492.017 6.9 491.984 5.86667 491.951 5.2C491.884 4.26667 492.101 3.56667 492.601 3.1C493.134 2.63333 493.734 2.33333 494.401 2.2C495.101 2.03333 495.667 1.93333 496.101 1.9ZM523.521 16.9C523.421 18.5667 522.954 19.9167 522.121 20.95C521.287 21.95 520.271 22.7167 519.071 23.25C517.904 23.75 516.737 24.1 515.571 24.3C514.404 24.4667 513.421 24.55 512.621 24.55C511.854 24.55 511.471 24.55 511.471 24.55C511.671 25.7167 511.954 26.55 512.321 27.05C512.687 27.55 513.087 27.8333 513.521 27.9C513.987 27.9667 514.421 27.9333 514.821 27.8C515.221 27.6333 515.537 27.45 515.771 27.25C516.037 27.05 516.171 26.95 516.171 26.95C516.171 26.95 516.354 26.8 516.721 26.5C517.087 26.2 517.654 25.9167 518.421 25.65C519.221 25.35 520.221 25.2 521.421 25.2C522.787 25.2 523.704 25.3833 524.171 25.75C524.671 26.0833 524.904 26.4833 524.871 26.95C524.871 27.3833 524.771 27.7833 524.571 28.15C524.404 28.4833 524.321 28.65 524.321 28.65C524.321 28.65 524.171 28.8167 523.871 29.15C523.604 29.45 523.104 29.8167 522.371 30.25C521.637 30.6833 520.621 31.0833 519.321 31.45C518.021 31.7833 516.354 31.9667 514.321 32C512.354 32.0333 510.704 31.7667 509.371 31.2C508.037 30.6333 506.937 29.9 506.071 29C505.204 28.0667 504.537 27.1 504.071 26.1C503.637 25.0667 503.321 24.1167 503.121 23.25C502.954 22.35 502.871 21.65 502.871 21.15C502.871 20.65 502.904 20 502.971 19.2C503.071 18.4 503.287 17.5667 503.621 16.7C503.987 15.8 504.537 14.95 505.271 14.15C506.004 13.35 507.004 12.7 508.271 12.2C509.571 11.7 511.221 11.4333 513.221 11.4C515.721 11.3667 517.671 11.5833 519.071 12.05C520.471 12.5167 521.487 13.0833 522.121 13.75C522.754 14.4167 523.137 15.05 523.271 15.65C523.437 16.25 523.521 16.6667 523.521 16.9ZM510.771 21.1C512.804 20.9333 514.321 20.5 515.321 19.8C516.321 19.1 516.904 18.3167 517.071 17.45C517.237 16.5833 517.071 15.85 516.571 15.25C516.104 14.6167 515.387 14.3333 514.421 14.4C513.454 14.4333 512.721 14.8 512.221 15.5C511.721 16.1667 511.371 16.95 511.171 17.85C510.971 18.7167 510.854 19.4833 510.821 20.15C510.787 20.7833 510.771 21.1 510.771 21.1ZM538.393 24C535.893 23.9333 533.943 23.6833 532.543 23.25C531.143 22.8167 530.143 22.3 529.543 21.7C528.976 21.1 528.626 20.5167 528.493 19.95C528.359 19.35 528.293 18.8833 528.293 18.55C528.293 18.2167 528.343 17.7 528.443 17C528.543 16.3 528.859 15.5667 529.393 14.8C529.926 14.0333 530.843 13.3667 532.143 12.8C533.476 12.2333 535.359 11.9167 537.793 11.85C540.459 11.7833 542.509 11.9333 543.943 12.3C545.376 12.6667 546.393 13.1 546.993 13.6C547.626 14.1 548.009 14.55 548.143 14.95C548.276 15.3167 548.343 15.5 548.343 15.5C548.343 15.9333 548.293 16.3833 548.193 16.85C548.093 17.2833 547.793 17.65 547.293 17.95C546.826 18.2167 546.009 18.3333 544.843 18.3C543.909 18.2667 543.209 18.1833 542.743 18.05C542.276 17.9167 541.926 17.7667 541.693 17.6C541.493 17.4 541.276 17.2 541.043 17C540.843 16.8 540.526 16.6333 540.093 16.5C539.693 16.3667 539.043 16.2833 538.143 16.25C537.043 16.2167 536.209 16.3 535.643 16.5C535.109 16.6667 534.743 16.8833 534.543 17.15C534.376 17.4167 534.276 17.65 534.243 17.85C534.243 18.0167 534.243 18.1 534.243 18.1C534.243 18.1 534.276 18.2333 534.343 18.5C534.443 18.7667 534.776 19.0333 535.343 19.3C535.943 19.5667 537.009 19.7167 538.543 19.75C541.443 19.85 543.659 20.1333 545.193 20.6C546.759 21.0333 547.859 21.55 548.493 22.15C549.159 22.75 549.543 23.35 549.643 23.95C549.776 24.5167 549.843 24.9667 549.843 25.3C549.843 25.6333 549.726 26.15 549.493 26.85C549.293 27.55 548.843 28.2833 548.143 29.05C547.443 29.8167 546.359 30.4833 544.893 31.05C543.459 31.6167 541.526 31.9333 539.093 32C536.459 32.0667 534.409 31.9167 532.943 31.55C531.509 31.1833 530.476 30.75 529.843 30.25C529.243 29.75 528.876 29.3167 528.743 28.95C528.609 28.55 528.543 28.35 528.543 28.35C528.543 27.8833 528.593 27.4333 528.693 27C528.826 26.5667 529.126 26.2167 529.593 25.95C530.093 25.65 530.909 25.5167 532.043 25.55C533.009 25.5833 533.709 25.6667 534.143 25.8C534.609 25.9333 534.959 26.1 535.193 26.3C535.426 26.4667 535.643 26.65 535.843 26.85C536.043 27.05 536.359 27.2167 536.793 27.35C537.226 27.4833 537.876 27.5667 538.743 27.6C539.843 27.6333 540.659 27.5667 541.193 27.4C541.759 27.2 542.143 26.9667 542.343 26.7C542.543 26.4333 542.643 26.2167 542.643 26.05C542.643 25.85 542.643 25.75 542.643 25.75C542.643 25.75 542.609 25.6167 542.543 25.35C542.476 25.05 542.143 24.7667 541.543 24.5C540.976 24.2 539.926 24.0333 538.393 24Z" fill="#101C2D"/>
</svg>
