<svg width="363" height="44" viewBox="0 0 363 44" fill="none" xmlns="http://www.w3.org/2000/svg">
<path d="M8.1 8.25C7.66667 8.31667 7.05 8.36667 6.25 8.4C5.45 8.4 4.63333 8.35 3.8 8.25C2.96667 8.15 2.25 7.96667 1.65 7.7C1.05 7.4 0.716667 6.96667 0.65 6.4C0.616667 5.83333 0.783333 5.38333 1.15 5.05C1.55 4.71667 2.01667 4.46667 2.55 4.3C3.08333 4.1 3.55 3.98333 3.95 3.95C4.38333 3.88333 4.6 3.85 4.6 3.85L18.6 2.55C18.6 2.55 18.8333 2.55 19.3 2.55C19.7667 2.51666 20.3 2.53333 20.9 2.6C21.5333 2.66667 22.1 2.83333 22.6 3.1C23.1 3.33333 23.3667 3.71667 23.4 4.25C23.4667 4.78333 23.3 5.23333 22.9 5.6C22.5333 5.93333 22.0833 6.21667 21.55 6.45C21.0167 6.65 20.55 6.8 20.15 6.9C19.75 6.96667 19.55 7 19.55 7L16.35 7.5C16.4833 8.33333 16.6333 9.51667 16.8 11.05C16.9667 12.55 17.1333 14.2167 17.3 16.05C17.4667 17.8833 17.6167 19.6833 17.75 21.45C17.8833 23.2167 17.9833 24.8 18.05 26.2C18.15 27.6 18.2 28.6 18.2 29.2C18.2 29.9667 17.9833 30.55 17.55 30.95C17.15 31.3167 16.6667 31.5833 16.1 31.75C15.5667 31.8833 15.0833 31.9667 14.65 32C14.25 32 14.05 32 14.05 32C14.05 32 13.8333 32 13.4 32C12.9667 31.9667 12.4667 31.8333 11.9 31.6C11.3667 31.3667 10.8833 30.9333 10.45 30.3C10.05 29.6667 9.85 28.7167 9.85 27.45C9.85 26.3167 9.78333 24.9333 9.65 23.3C9.55 21.6667 9.41667 19.9833 9.25 18.25C9.08333 16.4833 8.9 14.85 8.7 13.35C8.53333 11.85 8.38333 10.6333 8.25 9.7C8.15 8.73333 8.1 8.25 8.1 8.25ZM26.3582 27.7L25.7582 3C25.7582 3 25.7582 2.86667 25.7582 2.6C25.7915 2.33333 25.9082 2.01667 26.1082 1.65C26.3082 1.28333 26.6582 0.966665 27.1582 0.699998C27.6915 0.433332 28.4582 0.3 29.4582 0.3C30.7915 0.3 31.7749 0.45 32.4082 0.75C33.0749 1.05 33.5082 1.43333 33.7082 1.9C33.9082 2.36667 33.9915 2.83333 33.9582 3.3C33.9249 3.63333 33.9082 4.26667 33.9082 5.2C33.9415 6.1 33.9582 7.06667 33.9582 8.1C33.9915 9.1 34.0082 9.96667 34.0082 10.7C34.0415 11.4333 34.0582 11.8 34.0582 11.8C34.0582 11.8 34.3915 11.7167 35.0582 11.55C35.7582 11.3833 36.6582 11.2667 37.7582 11.2C38.8582 11.1333 40.0249 11.2667 41.2582 11.6C42.4915 11.9 43.6582 12.5333 44.7582 13.5C45.1582 13.8333 45.4749 14.45 45.7082 15.35C45.9749 16.25 46.1749 17.3 46.3082 18.5C46.4749 19.6667 46.5915 20.8833 46.6582 22.15C46.7249 23.3833 46.7582 24.5333 46.7582 25.6C46.7915 26.6667 46.7915 27.5333 46.7582 28.2C46.7582 28.8667 46.7582 29.2 46.7582 29.2C46.7582 29.2 46.7582 29.35 46.7582 29.65C46.7582 29.9167 46.6749 30.2333 46.5082 30.6C46.3749 30.9667 46.0749 31.3 45.6082 31.6C45.1415 31.8667 44.4249 32 43.4582 32C42.1915 32 41.3249 31.85 40.8582 31.55C40.3915 31.25 40.1415 30.85 40.1082 30.35C40.0749 29.8167 40.0582 29.2333 40.0582 28.6C40.0582 28.2333 40.0415 27.6333 40.0082 26.8C39.9749 25.9667 39.9415 25.05 39.9082 24.05C39.8749 23.0167 39.8415 22.0333 39.8082 21.1C39.7749 20.1667 39.7415 19.4 39.7082 18.8C39.6749 18.2 39.6582 17.9 39.6582 17.9C39.6582 17.9 39.6249 17.7 39.5582 17.3C39.5249 16.8667 39.3582 16.45 39.0582 16.05C38.7582 15.65 38.2582 15.4667 37.5582 15.5C37.0249 15.5333 36.5749 15.7833 36.2082 16.25C35.8415 16.6833 35.5415 17.2333 35.3082 17.9C35.1082 18.5333 34.9582 19.15 34.8582 19.75C34.7582 20.3167 34.7082 20.7333 34.7082 21C34.7082 21.2667 34.7082 21.8 34.7082 22.6C34.7415 23.4 34.7582 24.2667 34.7582 25.2C34.7582 26.1 34.7582 26.8833 34.7582 27.55C34.7915 28.1833 34.8082 28.5 34.8082 28.5C34.8082 28.5 34.7915 28.6833 34.7582 29.05C34.7249 29.3833 34.5915 29.7833 34.3582 30.25C34.1249 30.7167 33.7082 31.1333 33.1082 31.5C32.5415 31.8333 31.7082 32 30.6082 32C29.3415 32 28.3915 31.7833 27.7582 31.35C27.1582 30.9167 26.7582 30.4167 26.5582 29.85C26.3915 29.2833 26.3082 28.7833 26.3082 28.35C26.3415 27.9167 26.3582 27.7 26.3582 27.7ZM69.7363 16.9C69.6363 18.5667 69.1697 19.9167 68.3363 20.95C67.503 21.95 66.4863 22.7167 65.2863 23.25C64.1197 23.75 62.953 24.1 61.7863 24.3C60.6197 24.4667 59.6363 24.55 58.8363 24.55C58.0697 24.55 57.6863 24.55 57.6863 24.55C57.8863 25.7167 58.1697 26.55 58.5363 27.05C58.903 27.55 59.303 27.8333 59.7363 27.9C60.203 27.9667 60.6363 27.9333 61.0363 27.8C61.4363 27.6333 61.753 27.45 61.9863 27.25C62.253 27.05 62.3863 26.95 62.3863 26.95C62.3863 26.95 62.5697 26.8 62.9363 26.5C63.303 26.2 63.8697 25.9167 64.6363 25.65C65.4363 25.35 66.4363 25.2 67.6363 25.2C69.003 25.2 69.9197 25.3833 70.3863 25.75C70.8863 26.0833 71.1197 26.4833 71.0863 26.95C71.0863 27.3833 70.9863 27.7833 70.7863 28.15C70.6197 28.4833 70.5363 28.65 70.5363 28.65C70.5363 28.65 70.3863 28.8167 70.0863 29.15C69.8197 29.45 69.3197 29.8167 68.5863 30.25C67.853 30.6833 66.8363 31.0833 65.5363 31.45C64.2363 31.7833 62.5697 31.9667 60.5363 32C58.5697 32.0333 56.9197 31.7667 55.5863 31.2C54.253 30.6333 53.153 29.9 52.2863 29C51.4197 28.0667 50.753 27.1 50.2863 26.1C49.853 25.0667 49.5363 24.1167 49.3363 23.25C49.1697 22.35 49.0863 21.65 49.0863 21.15C49.0863 20.65 49.1197 20 49.1863 19.2C49.2863 18.4 49.503 17.5667 49.8363 16.7C50.203 15.8 50.753 14.95 51.4863 14.15C52.2197 13.35 53.2197 12.7 54.4863 12.2C55.7863 11.7 57.4363 11.4333 59.4363 11.4C61.9363 11.3667 63.8863 11.5833 65.2863 12.05C66.6863 12.5167 67.703 13.0833 68.3363 13.75C68.9697 14.4167 69.353 15.05 69.4863 15.65C69.653 16.25 69.7363 16.6667 69.7363 16.9ZM56.9863 21.1C59.0197 20.9333 60.5363 20.5 61.5363 19.8C62.5363 19.1 63.1197 18.3167 63.2863 17.45C63.453 16.5833 63.2863 15.85 62.7863 15.25C62.3197 14.6167 61.603 14.3333 60.6363 14.4C59.6697 14.4333 58.9363 14.8 58.4363 15.5C57.9363 16.1667 57.5863 16.95 57.3863 17.85C57.1863 18.7167 57.0697 19.4833 57.0363 20.15C57.003 20.7833 56.9863 21.1 56.9863 21.1Z" fill="#101C2D"/>
<path d="M91.9469 32C90.6802 32 89.7635 31.8167 89.1969 31.45C88.6302 31.05 88.2802 30.6667 88.1469 30.3C88.0135 29.9333 87.9469 29.75 87.9469 29.75C87.9469 29.75 87.9302 29.35 87.8969 28.55C87.8969 27.7167 87.8802 26.6333 87.8469 25.3C87.8469 23.9667 87.8302 22.5 87.7969 20.9C87.7635 19.3 87.7302 17.7 87.6969 16.1C87.6969 14.5 87.6802 13.0333 87.6469 11.7C87.6135 10.3667 87.5802 9.3 87.5469 8.5C87.5469 7.66667 87.5469 7.25 87.5469 7.25C87.5135 7.25 87.3302 7.08333 86.9969 6.75C86.6969 6.41667 86.5302 6.06666 86.4969 5.7C86.4969 5.43333 86.8135 5.05 87.4469 4.55C88.0802 4.05 89.1469 3.63333 90.6469 3.3C92.1802 2.93333 94.2802 2.86667 96.9469 3.1C99.3469 3.3 101.23 3.7 102.597 4.3C103.997 4.86667 105.014 5.48333 105.647 6.15C106.28 6.78333 106.68 7.35 106.847 7.85C107.014 8.31667 107.097 8.55 107.097 8.55C107.097 8.55 107.114 8.6 107.147 8.7C107.214 8.8 107.264 9.11667 107.297 9.65C107.364 10.15 107.414 10.9833 107.447 12.15C107.48 13.3167 107.48 14.95 107.447 17.05C107.414 18.75 107.014 20.1 106.247 21.1C105.514 22.1 104.597 22.85 103.497 23.35C102.397 23.8167 101.297 24.1333 100.197 24.3C99.1302 24.4333 98.2302 24.5 97.4969 24.5C96.7635 24.4667 96.3969 24.45 96.3969 24.45C96.3969 24.45 96.3969 24.8167 96.3969 25.55C96.4302 26.25 96.4302 27.4333 96.3969 29.1C96.3969 29.9333 96.1635 30.5667 95.6969 31C95.2635 31.4 94.7469 31.6667 94.1469 31.8C93.5802 31.9333 93.0635 32 92.5969 32C92.1635 32 91.9469 32 91.9469 32ZM95.8969 7.75L96.3469 20.15C96.3469 20.15 96.5635 20.1333 96.9969 20.1C97.4302 20.0333 97.9302 19.8667 98.4969 19.6C99.0635 19.3333 99.5469 18.8833 99.9469 18.25C100.38 17.5833 100.564 16.65 100.497 15.45C100.43 13.85 100.364 12.65 100.297 11.85C100.23 11.05 100.18 10.5333 100.147 10.3C100.147 10.0333 100.147 9.9 100.147 9.9C100.147 9.9 100.114 9.76667 100.047 9.5C100.014 9.2 99.8802 8.88333 99.6469 8.55C99.4135 8.21667 98.9969 7.96667 98.3969 7.8C97.8302 7.6 96.9969 7.58333 95.8969 7.75ZM129.844 16.9C129.744 18.5667 129.277 19.9167 128.444 20.95C127.61 21.95 126.594 22.7167 125.394 23.25C124.227 23.75 123.06 24.1 121.894 24.3C120.727 24.4667 119.744 24.55 118.944 24.55C118.177 24.55 117.794 24.55 117.794 24.55C117.994 25.7167 118.277 26.55 118.644 27.05C119.01 27.55 119.41 27.8333 119.844 27.9C120.31 27.9667 120.744 27.9333 121.144 27.8C121.544 27.6333 121.86 27.45 122.094 27.25C122.36 27.05 122.494 26.95 122.494 26.95C122.494 26.95 122.677 26.8 123.044 26.5C123.41 26.2 123.977 25.9167 124.744 25.65C125.544 25.35 126.544 25.2 127.744 25.2C129.11 25.2 130.027 25.3833 130.494 25.75C130.994 26.0833 131.227 26.4833 131.194 26.95C131.194 27.3833 131.094 27.7833 130.894 28.15C130.727 28.4833 130.644 28.65 130.644 28.65C130.644 28.65 130.494 28.8167 130.194 29.15C129.927 29.45 129.427 29.8167 128.694 30.25C127.96 30.6833 126.944 31.0833 125.644 31.45C124.344 31.7833 122.677 31.9667 120.644 32C118.677 32.0333 117.027 31.7667 115.694 31.2C114.36 30.6333 113.26 29.9 112.394 29C111.527 28.0667 110.86 27.1 110.394 26.1C109.96 25.0667 109.644 24.1167 109.444 23.25C109.277 22.35 109.194 21.65 109.194 21.15C109.194 20.65 109.227 20 109.294 19.2C109.394 18.4 109.61 17.5667 109.944 16.7C110.31 15.8 110.86 14.95 111.594 14.15C112.327 13.35 113.327 12.7 114.594 12.2C115.894 11.7 117.544 11.4333 119.544 11.4C122.044 11.3667 123.994 11.5833 125.394 12.05C126.794 12.5167 127.81 13.0833 128.444 13.75C129.077 14.4167 129.46 15.05 129.594 15.65C129.76 16.25 129.844 16.6667 129.844 16.9ZM117.094 21.1C119.127 20.9333 120.644 20.5 121.644 19.8C122.644 19.1 123.227 18.3167 123.394 17.45C123.56 16.5833 123.394 15.85 122.894 15.25C122.427 14.6167 121.71 14.3333 120.744 14.4C119.777 14.4333 119.044 14.8 118.544 15.5C118.044 16.1667 117.694 16.95 117.494 17.85C117.294 18.7167 117.177 19.4833 117.144 20.15C117.11 20.7833 117.094 21.1 117.094 21.1ZM133.866 4.7C133.833 3.86667 134.083 3.2 134.616 2.7C135.149 2.16666 136.333 1.85 138.166 1.75C139.399 1.68333 140.299 1.83333 140.866 2.2C141.433 2.56667 141.783 2.95 141.916 3.35C142.083 3.71667 142.166 3.9 142.166 3.9L142.466 8.35C142.466 8.35 142.733 8.35 143.266 8.35C143.833 8.35 144.466 8.41667 145.166 8.55C145.899 8.65 146.533 8.86667 147.066 9.2C147.633 9.53333 147.916 10.05 147.916 10.75C147.916 11.45 147.649 11.9667 147.116 12.3C146.583 12.6333 145.966 12.8667 145.266 13C144.566 13.1 143.933 13.15 143.366 13.15C142.833 13.15 142.566 13.15 142.566 13.15C142.566 13.15 142.566 13.5333 142.566 14.3C142.599 15.0333 142.616 16 142.616 17.2C142.616 18.3667 142.633 19.6167 142.666 20.95C142.699 22.2833 142.716 23.5667 142.716 24.8C142.716 26 142.716 27.0167 142.716 27.85C142.749 28.65 142.766 29.1167 142.766 29.25C142.766 29.4833 142.683 29.8167 142.516 30.25C142.383 30.6833 141.999 31.0833 141.366 31.45C140.766 31.8167 139.766 32 138.366 32C137.333 32 136.533 31.8833 135.966 31.65C135.399 31.3833 134.983 31.1 134.716 30.8C134.483 30.4667 134.349 30.1833 134.316 29.95C134.283 29.6833 134.266 29.55 134.266 29.55L133.866 4.7ZM154.925 28.7C154.458 27.3 153.975 25.8667 153.475 24.4C152.975 22.9 152.491 21.4833 152.025 20.15C151.591 18.7833 151.208 17.6 150.875 16.6C150.541 15.6 150.308 14.9 150.175 14.5C149.908 13.6667 150.058 12.9667 150.625 12.4C151.191 11.8333 152.291 11.55 153.925 11.55C155.025 11.55 155.841 11.7167 156.375 12.05C156.908 12.35 157.241 12.6667 157.375 13C157.541 13.3 157.625 13.45 157.625 13.45L159.725 22.05L160.075 24.95L160.875 20.9C160.875 20.9 160.958 20.6667 161.125 20.2C161.291 19.7 161.508 19.1 161.775 18.4C162.041 17.6667 162.308 16.9333 162.575 16.2C162.841 15.4333 163.075 14.7833 163.275 14.25C163.675 13.1833 164.208 12.4833 164.875 12.15C165.575 11.7833 166.791 11.6333 168.525 11.7C169.391 11.7333 170.025 11.9 170.425 12.2C170.825 12.4667 171.058 12.7833 171.125 13.15C171.225 13.4833 171.241 13.7833 171.175 14.05C171.141 14.3167 171.125 14.45 171.125 14.45L164.075 29.45C164.075 29.45 163.941 29.6667 163.675 30.1C163.408 30.5 162.958 30.9167 162.325 31.35C161.725 31.7833 160.858 32 159.725 32C158.791 32 158.008 31.8333 157.375 31.5C156.775 31.1667 156.291 30.7833 155.925 30.35C155.558 29.9167 155.291 29.5333 155.125 29.2C154.991 28.8667 154.925 28.7 154.925 28.7ZM178.159 10.95C178.159 10.95 177.942 10.95 177.509 10.95C177.075 10.9167 176.559 10.8167 175.959 10.65C175.392 10.45 174.875 10.1 174.409 9.6C173.942 9.1 173.692 8.35 173.659 7.35C173.625 6.35 173.775 5.61667 174.109 5.15C174.442 4.65 174.859 4.31666 175.359 4.15C175.859 3.95 176.342 3.85 176.809 3.85C177.275 3.81667 177.609 3.78333 177.809 3.75C178.009 3.71667 178.342 3.75 178.809 3.85C179.275 3.91666 179.759 4.1 180.259 4.4C180.759 4.66666 181.175 5.08333 181.509 5.65C181.842 6.18333 181.975 6.9 181.909 7.8C181.842 8.66667 181.609 9.33333 181.209 9.8C180.842 10.2333 180.409 10.5333 179.909 10.7C179.442 10.8333 179.025 10.9167 178.659 10.95C178.325 10.95 178.159 10.95 178.159 10.95ZM176.409 28.9L175.209 17.5C175.209 17.5 175.125 17.3333 174.959 17C174.825 16.6333 174.725 16.3833 174.659 16.25C174.625 16.15 174.559 15.95 174.459 15.65C174.392 15.3167 174.475 14.9667 174.709 14.6C174.975 14.2333 175.542 13.9667 176.409 13.8C177.309 13.6333 178.242 13.5833 179.209 13.65C180.175 13.7167 181.025 14.0167 181.759 14.55C182.525 15.05 182.992 15.9333 183.159 17.2C183.292 18.1333 183.425 19.25 183.559 20.55C183.692 21.8167 183.809 23.0667 183.909 24.3C184.042 25.5 184.142 26.5167 184.209 27.35C184.309 28.15 184.359 28.55 184.359 28.55C184.359 28.55 184.375 28.7333 184.409 29.1C184.442 29.4333 184.392 29.8333 184.259 30.3C184.125 30.7333 183.792 31.1333 183.259 31.5C182.759 31.8333 181.942 32 180.809 32C179.675 32 178.809 31.85 178.209 31.55C177.609 31.2167 177.175 30.85 176.909 30.45C176.675 30.05 176.525 29.7 176.459 29.4C176.425 29.0667 176.409 28.9 176.409 28.9ZM207.188 16.9C207.088 18.5667 206.621 19.9167 205.788 20.95C204.954 21.95 203.938 22.7167 202.738 23.25C201.571 23.75 200.404 24.1 199.238 24.3C198.071 24.4667 197.088 24.55 196.288 24.55C195.521 24.55 195.138 24.55 195.138 24.55C195.338 25.7167 195.621 26.55 195.988 27.05C196.354 27.55 196.754 27.8333 197.188 27.9C197.654 27.9667 198.088 27.9333 198.488 27.8C198.888 27.6333 199.204 27.45 199.438 27.25C199.704 27.05 199.838 26.95 199.838 26.95C199.838 26.95 200.021 26.8 200.388 26.5C200.754 26.2 201.321 25.9167 202.088 25.65C202.888 25.35 203.888 25.2 205.088 25.2C206.454 25.2 207.371 25.3833 207.838 25.75C208.338 26.0833 208.571 26.4833 208.538 26.95C208.538 27.3833 208.438 27.7833 208.238 28.15C208.071 28.4833 207.988 28.65 207.988 28.65C207.988 28.65 207.838 28.8167 207.538 29.15C207.271 29.45 206.771 29.8167 206.038 30.25C205.304 30.6833 204.288 31.0833 202.988 31.45C201.688 31.7833 200.021 31.9667 197.988 32C196.021 32.0333 194.371 31.7667 193.038 31.2C191.704 30.6333 190.604 29.9 189.738 29C188.871 28.0667 188.204 27.1 187.738 26.1C187.304 25.0667 186.988 24.1167 186.788 23.25C186.621 22.35 186.538 21.65 186.538 21.15C186.538 20.65 186.571 20 186.638 19.2C186.738 18.4 186.954 17.5667 187.288 16.7C187.654 15.8 188.204 14.95 188.938 14.15C189.671 13.35 190.671 12.7 191.938 12.2C193.238 11.7 194.888 11.4333 196.888 11.4C199.388 11.3667 201.338 11.5833 202.738 12.05C204.138 12.5167 205.154 13.0833 205.788 13.75C206.421 14.4167 206.804 15.05 206.938 15.65C207.104 16.25 207.188 16.6667 207.188 16.9ZM194.438 21.1C196.471 20.9333 197.988 20.5 198.988 19.8C199.988 19.1 200.571 18.3167 200.738 17.45C200.904 16.5833 200.738 15.85 200.238 15.25C199.771 14.6167 199.054 14.3333 198.088 14.4C197.121 14.4333 196.388 14.8 195.888 15.5C195.388 16.1667 195.038 16.95 194.838 17.85C194.638 18.7167 194.521 19.4833 194.488 20.15C194.454 20.7833 194.438 21.1 194.438 21.1ZM214.56 12.25C215.693 12.15 216.576 12.2 217.21 12.4C217.876 12.5667 218.36 12.8 218.66 13.1C218.993 13.4 219.193 13.6833 219.26 13.95C219.36 14.1833 219.41 14.3 219.41 14.3L221.96 23.6L223.21 19.95C223.21 19.95 223.31 19.75 223.51 19.35C223.743 18.95 224.16 18.55 224.76 18.15C225.36 17.75 226.226 17.5667 227.36 17.6C228.526 17.6 229.376 17.7833 229.91 18.15C230.476 18.5167 230.843 18.8833 231.01 19.25C231.21 19.6167 231.31 19.8 231.31 19.8L232.61 23.5C232.61 23.5 232.693 23.2 232.86 22.6C233.06 21.9667 233.31 21.1833 233.61 20.25C233.91 19.2833 234.21 18.3167 234.51 17.35C234.81 16.3833 235.06 15.5333 235.26 14.8C235.493 14.0333 235.643 13.55 235.71 13.35C235.81 13.0167 235.993 12.6833 236.26 12.35C236.526 12.0167 236.993 11.75 237.66 11.55C238.36 11.3167 239.376 11.25 240.71 11.35C241.71 11.4167 242.443 11.5833 242.91 11.85C243.376 12.1167 243.676 12.4167 243.81 12.75C243.943 13.0833 243.993 13.3667 243.96 13.6C243.926 13.8333 243.91 13.95 243.91 13.95C243.91 13.95 243.776 14.3 243.51 15C243.276 15.7 242.96 16.6 242.56 17.7C242.16 18.8 241.726 19.9833 241.26 21.25C240.826 22.5167 240.393 23.7333 239.96 24.9C239.56 26.0667 239.21 27.0667 238.91 27.9C238.61 28.7 238.426 29.1833 238.36 29.35C238.226 29.6833 238.01 30.0667 237.71 30.5C237.443 30.9 237.026 31.25 236.46 31.55C235.926 31.85 235.143 32 234.11 32C233.11 32 232.293 31.8833 231.66 31.65C231.06 31.4167 230.61 31.1833 230.31 30.95C230.043 30.7167 229.91 30.6 229.91 30.6L227.11 26.4L224.76 30.1C224.76 30.1 224.66 30.2667 224.46 30.6C224.26 30.9 223.843 31.2167 223.21 31.55C222.576 31.85 221.593 32 220.26 32C219.26 32 218.476 31.85 217.91 31.55C217.343 31.25 216.91 30.9167 216.61 30.55C216.343 30.1833 216.16 29.85 216.06 29.55C215.993 29.25 215.96 29.1 215.96 29.1C215.96 29.1 215.843 28.7333 215.61 28C215.376 27.2667 215.06 26.3333 214.66 25.2C214.293 24.0667 213.893 22.8833 213.46 21.65C213.06 20.3833 212.66 19.2 212.26 18.1C211.893 17 211.593 16.1333 211.36 15.5C211.06 14.7333 211.01 14.1333 211.21 13.7C211.443 13.2667 211.776 12.95 212.21 12.75C212.643 12.55 213.093 12.4333 213.56 12.4C214.026 12.3333 214.36 12.2833 214.56 12.25ZM275.355 12.05C274.222 12.05 273.355 11.9167 272.755 11.65C272.155 11.35 271.722 11.0167 271.455 10.65C271.222 10.2833 271.089 9.95 271.055 9.65C271.022 9.31667 271.005 9.11667 271.005 9.05C271.005 8.88333 270.939 8.61667 270.805 8.25C270.705 7.85 270.372 7.65 269.805 7.65C268.872 7.65 268.039 7.93333 267.305 8.5C266.605 9.06667 266.222 9.9 266.155 11C266.089 12.1 266.372 13.05 267.005 13.85C267.639 14.65 268.889 15.0667 270.755 15.1C271.689 15.1 272.672 15.2333 273.705 15.5C274.739 15.7667 275.705 16.2 276.605 16.8C277.539 17.3667 278.272 18.15 278.805 19.15C279.372 20.1167 279.655 21.3333 279.655 22.8C279.622 25.7333 278.839 28 277.305 29.6C275.772 31.2 273.222 32 269.655 32C267.289 32 265.389 31.7167 263.955 31.15C262.522 30.55 261.472 29.85 260.805 29.05C260.172 28.25 259.839 27.5333 259.805 26.9C259.772 26.2667 259.805 25.65 259.905 25.05C260.039 24.45 260.389 23.9333 260.955 23.5C261.555 23.0667 262.505 22.8 263.805 22.7C265.139 22.6 266.089 22.7167 266.655 23.05C267.222 23.35 267.572 23.7 267.705 24.1C267.872 24.5 267.955 24.75 267.955 24.85C267.955 24.95 267.989 25.2 268.055 25.6C268.155 25.9667 268.322 26.3333 268.555 26.7C268.822 27.0333 269.189 27.2 269.655 27.2C270.355 27.2 270.955 26.9167 271.455 26.35C271.955 25.7833 272.272 24.8667 272.405 23.6C272.639 21.1 271.389 19.85 268.655 19.85C267.989 19.85 267.122 19.75 266.055 19.55C265.022 19.3167 263.989 18.9167 262.955 18.35C261.922 17.75 261.055 16.9167 260.355 15.85C259.655 14.7833 259.322 13.3833 259.355 11.65C259.389 9.91667 259.705 8.5 260.305 7.4C260.905 6.26667 261.689 5.4 262.655 4.8C263.655 4.16667 264.739 3.71667 265.905 3.45C267.105 3.18333 268.289 3.03333 269.455 3C271.022 2.96666 272.522 3.15 273.955 3.55C275.422 3.95 276.639 4.56667 277.605 5.4C278.605 6.2 279.172 7.25 279.305 8.55C279.405 9.51667 279.255 10.25 278.855 10.75C278.489 11.2167 278.022 11.55 277.455 11.75C276.922 11.9167 276.439 12.0167 276.005 12.05C275.572 12.05 275.355 12.05 275.355 12.05ZM282.059 4.7C282.026 3.86667 282.276 3.2 282.809 2.7C283.343 2.16666 284.526 1.85 286.359 1.75C287.593 1.68333 288.493 1.83333 289.059 2.2C289.626 2.56667 289.976 2.95 290.109 3.35C290.276 3.71667 290.359 3.9 290.359 3.9L290.659 8.35C290.659 8.35 290.926 8.35 291.459 8.35C292.026 8.35 292.659 8.41667 293.359 8.55C294.093 8.65 294.726 8.86667 295.259 9.2C295.826 9.53333 296.109 10.05 296.109 10.75C296.109 11.45 295.843 11.9667 295.309 12.3C294.776 12.6333 294.159 12.8667 293.459 13C292.759 13.1 292.126 13.15 291.559 13.15C291.026 13.15 290.759 13.15 290.759 13.15C290.759 13.15 290.759 13.5333 290.759 14.3C290.793 15.0333 290.809 16 290.809 17.2C290.809 18.3667 290.826 19.6167 290.859 20.95C290.893 22.2833 290.909 23.5667 290.909 24.8C290.909 26 290.909 27.0167 290.909 27.85C290.943 28.65 290.959 29.1167 290.959 29.25C290.959 29.4833 290.876 29.8167 290.709 30.25C290.576 30.6833 290.193 31.0833 289.559 31.45C288.959 31.8167 287.959 32 286.559 32C285.526 32 284.726 31.8833 284.159 31.65C283.593 31.3833 283.176 31.1 282.909 30.8C282.676 30.4667 282.543 30.1833 282.509 29.95C282.476 29.6833 282.459 29.55 282.459 29.55L282.059 4.7ZM308.868 11.7C310.101 11.6 311.051 11.7333 311.718 12.1C312.385 12.4667 312.785 12.6833 312.918 12.75C313.251 12.9167 313.551 13.1 313.818 13.3C314.118 13.5 314.268 13.6 314.268 13.6C314.268 13.6 314.518 13.6833 315.018 13.85C315.518 14.0167 316.101 14.4167 316.768 15.05C317.435 15.65 318.051 16.6 318.618 17.9C319.185 19.2 319.518 20.9667 319.618 23.2C319.685 24.7 319.451 25.9667 318.918 27C318.385 28 317.668 28.8333 316.768 29.5C315.901 30.1333 314.951 30.6333 313.918 31C312.918 31.3333 311.951 31.5667 311.018 31.7C310.118 31.8333 309.368 31.9167 308.768 31.95C308.201 31.9833 307.918 32 307.918 32C307.918 32 307.585 32 306.918 32C306.285 32 305.485 31.9 304.518 31.7C303.551 31.4667 302.585 31.0333 301.618 30.4C300.685 29.7333 299.901 28.7667 299.268 27.5C298.668 26.2333 298.401 24.55 298.468 22.45C298.535 20.35 298.918 18.6333 299.618 17.3C300.351 15.9333 301.218 14.8667 302.218 14.1C303.251 13.3333 304.268 12.7833 305.268 12.45C306.301 12.1167 307.151 11.9167 307.818 11.85C308.518 11.75 308.868 11.7 308.868 11.7ZM309.068 16.6C309.068 16.6 308.851 16.8667 308.418 17.4C308.018 17.9333 307.601 18.6833 307.168 19.65C306.768 20.6167 306.568 21.75 306.568 23.05C306.568 24.3167 306.718 25.3167 307.018 26.05C307.318 26.7833 307.635 27.3167 307.968 27.65C308.335 27.95 308.618 28.1 308.818 28.1C309.018 28.1 309.335 28.0167 309.768 27.85C310.235 27.65 310.651 27.2167 311.018 26.55C311.385 25.8833 311.551 24.8333 311.518 23.4C311.485 22.2 311.351 21.2333 311.118 20.5C310.918 19.7667 310.635 19.1167 310.268 18.55C309.935 17.95 309.535 17.3 309.068 16.6ZM323.611 28.6C323.611 28.2333 323.561 27.6 323.461 26.7C323.361 25.8 323.228 24.7833 323.061 23.65C322.928 22.4833 322.778 21.3333 322.611 20.2C322.445 19.0333 322.261 18 322.061 17.1C321.895 16.1667 321.745 15.5 321.611 15.1C321.278 14.1 321.461 13.4 322.161 13C322.895 12.5667 323.911 12.2833 325.211 12.15C326.511 12.0167 327.445 12.1167 328.011 12.45C328.611 12.75 328.911 12.9 328.911 12.9C329.411 12.4 330.228 12.05 331.361 11.85C332.528 11.65 333.745 11.5667 335.011 11.6C336.645 11.6333 337.828 11.8833 338.561 12.35C339.295 12.8167 339.661 13.3167 339.661 13.85C339.661 14.25 339.611 14.55 339.511 14.75C339.411 14.95 339.011 15.15 338.311 15.35C337.645 15.5167 336.428 15.8167 334.661 16.25C333.628 16.4833 332.861 17.05 332.361 17.95C331.861 18.8167 331.545 19.8333 331.411 21C331.311 22.1333 331.311 23.2667 331.411 24.4C331.511 25.5 331.628 26.4333 331.761 27.2C331.895 27.9333 331.961 28.3333 331.961 28.4C331.961 28.4667 331.978 28.7 332.011 29.1C332.078 29.4667 332.028 29.8833 331.861 30.35C331.728 30.7833 331.378 31.1667 330.811 31.5C330.245 31.8333 329.345 32 328.111 32C326.878 32 325.945 31.8333 325.311 31.5C324.678 31.1333 324.245 30.7333 324.011 30.3C323.778 29.8667 323.645 29.4833 323.611 29.15C323.611 28.7833 323.611 28.6 323.611 28.6ZM344.821 28.65C344.821 28.6167 344.688 28.4167 344.421 28.05C344.188 27.65 343.905 27 343.571 26.1C343.238 25.1667 342.921 23.8833 342.621 22.25C342.321 20.5833 342.088 18.4833 341.921 15.95C341.855 14.6167 342.038 13.6667 342.471 13.1C342.938 12.5333 343.521 12.1833 344.221 12.05C344.921 11.8833 345.588 11.8 346.221 11.8C346.221 11.8 346.405 11.8 346.771 11.8C347.171 11.7667 347.621 11.8 348.121 11.9C348.621 11.9667 349.055 12.1833 349.421 12.55C349.821 12.8833 350.038 13.4167 350.071 14.15C350.105 14.75 350.138 15.5667 350.171 16.6C350.205 17.6333 350.255 18.75 350.321 19.95C350.421 21.1167 350.571 22.25 350.771 23.35C350.971 24.45 351.221 25.3667 351.521 26.1C351.855 26.8 352.271 27.1833 352.771 27.25C353.271 27.3167 353.605 27.0333 353.771 26.4C353.938 25.7333 353.988 24.9 353.921 23.9C353.888 22.9 353.788 21.9 353.621 20.9C353.488 19.8667 353.355 19 353.221 18.3C353.088 17.6 353.021 17.25 353.021 17.25C353.021 17.25 352.955 17.05 352.821 16.65C352.688 16.2167 352.638 15.7333 352.671 15.2C352.705 14.6667 352.938 14.1833 353.371 13.75C353.805 13.3167 354.571 13.0833 355.671 13.05C357.171 12.9833 358.288 13.1333 359.021 13.5C359.788 13.8667 360.305 14.3333 360.571 14.9C360.871 15.4667 361.055 16.05 361.121 16.65C361.188 16.9833 361.305 17.7833 361.471 19.05C361.671 20.2833 361.888 21.75 362.121 23.45C362.355 25.1167 362.538 26.85 362.671 28.65C362.805 30.4167 362.855 32.0333 362.821 33.5C362.788 34.9667 362.588 36.0833 362.221 36.85C361.655 38.0833 360.871 39.2167 359.871 40.25C358.905 41.3167 357.605 42.1333 355.971 42.7C354.371 43.3 352.321 43.5333 349.821 43.4C347.955 43.3 346.455 43 345.321 42.5C344.188 42.0333 343.338 41.5167 342.771 40.95C342.205 40.4167 341.821 39.9333 341.621 39.5C341.455 39.1 341.371 38.9 341.371 38.9C341.371 38.9 341.305 38.7167 341.171 38.35C341.071 37.9833 341.055 37.55 341.121 37.05C341.221 36.5833 341.538 36.1667 342.071 35.8C342.605 35.4667 343.538 35.3167 344.871 35.35C346.205 35.3833 347.171 35.5 347.771 35.7C348.371 35.9333 348.755 36.1833 348.921 36.45C349.088 36.7167 349.138 36.95 349.071 37.15C349.038 37.35 349.021 37.45 349.021 37.45C349.021 37.45 349.021 37.6333 349.021 38C349.021 38.3667 349.138 38.7167 349.371 39.05C349.638 39.3833 350.105 39.5333 350.771 39.5C351.471 39.4333 352.221 39.1167 353.021 38.55C353.821 38.0167 354.421 37.2 354.821 36.1C355.255 35 355.221 33.6333 354.721 32C354.721 32 354.405 32.05 353.771 32.15C353.138 32.25 352.305 32.25 351.271 32.15C350.271 32.0833 349.188 31.8 348.021 31.3C346.888 30.7667 345.821 29.8833 344.821 28.65Z" fill="#F1635F"/>
</svg>
