<svg width="741" height="142" viewBox="0 0 741 142" fill="none" xmlns="http://www.w3.org/2000/svg">
<path d="M84.6227 6.76C84.6227 6.76 85.0427 6.76 85.8827 6.76C86.7227 6.7 87.7127 6.85 88.8527 7.21C89.9927 7.51 91.0127 8.14 91.9127 9.1C92.8727 10 93.4427 11.41 93.6227 13.33C93.7427 14.83 93.9827 16.78 94.3427 19.18C94.7027 21.52 95.0927 23.98 95.5127 26.56C95.9327 29.14 96.3227 31.57 96.6827 33.85C97.1027 36.07 97.4327 37.9 97.6727 39.34C97.9727 40.78 98.1227 41.5 98.1227 41.5L101.993 27.1C101.993 27.1 102.143 26.68 102.443 25.84C102.743 24.94 103.283 24.07 104.063 23.23C104.903 22.39 106.133 21.97 107.753 21.97C109.373 21.97 110.603 22.3 111.443 22.96C112.283 23.56 112.883 24.31 113.243 25.21C113.663 26.11 113.993 26.98 114.233 27.82C114.413 28.42 114.683 29.44 115.043 30.88C115.463 32.26 115.853 33.73 116.213 35.29C116.633 36.85 116.993 38.17 117.293 39.25C117.593 40.33 117.743 40.87 117.743 40.87L118.553 33.4L122.333 6.94C122.333 6.94 122.513 6.55 122.873 5.77C123.293 4.93 124.073 4.12 125.213 3.34C126.413 2.56 128.183 2.26 130.523 2.44C134.063 2.68 136.223 3.4 137.003 4.6C137.843 5.8 137.963 7.27 137.363 9.01C137.063 9.85 136.613 11.68 136.013 14.5C135.413 17.26 134.723 20.59 133.943 24.49C133.163 28.39 132.413 32.5 131.693 36.82C130.973 41.08 130.343 45.13 129.803 48.97C129.563 50.95 129.023 52.48 128.183 53.56C127.403 54.58 126.563 55.3 125.663 55.72C124.763 56.14 123.983 56.38 123.323 56.44C122.663 56.5 122.333 56.53 122.333 56.53C122.333 56.53 121.943 56.53 121.163 56.53C120.383 56.59 119.423 56.47 118.283 56.17C117.203 55.87 116.123 55.24 115.043 54.28C114.023 53.32 113.213 51.82 112.613 49.78C111.473 45.7 110.483 42.28 109.643 39.52C108.803 36.76 108.383 35.38 108.383 35.38L103.343 50.68C103.343 50.68 103.163 51.04 102.803 51.76C102.443 52.48 101.723 53.2 100.643 53.92C99.6227 54.64 98.0927 55 96.0527 55C92.9927 55 90.8627 54.52 89.6627 53.56C88.5227 52.54 87.6227 50.92 86.9627 48.7C86.7827 47.92 86.4227 46.54 85.8827 44.56C85.3427 42.52 84.7427 40.15 84.0827 37.45C83.4227 34.75 82.7327 31.99 82.0127 29.17C81.2927 26.29 80.6327 23.65 80.0327 21.25C79.4327 18.79 78.9227 16.81 78.5027 15.31C78.1427 13.75 77.9627 12.97 77.9627 12.97C77.9627 12.97 77.9027 12.7 77.7827 12.16C77.6627 11.62 77.7227 10.99 77.9627 10.27C78.2027 9.49 78.8027 8.77 79.7627 8.11C80.7827 7.45 82.4027 7 84.6227 6.76ZM178.389 27.82C178.209 30.82 177.369 33.25 175.869 35.11C174.369 36.91 172.539 38.29 170.379 39.25C168.279 40.15 166.179 40.78 164.079 41.14C161.979 41.44 160.209 41.59 158.769 41.59C157.389 41.59 156.699 41.59 156.699 41.59C157.059 43.69 157.569 45.19 158.229 46.09C158.889 46.99 159.609 47.5 160.389 47.62C161.229 47.74 162.009 47.68 162.729 47.44C163.449 47.14 164.019 46.81 164.439 46.45C164.919 46.09 165.159 45.91 165.159 45.91C165.159 45.91 165.489 45.64 166.149 45.1C166.809 44.56 167.829 44.05 169.209 43.57C170.649 43.03 172.449 42.76 174.609 42.76C177.069 42.76 178.719 43.09 179.559 43.75C180.459 44.35 180.879 45.07 180.819 45.91C180.819 46.69 180.639 47.41 180.279 48.07C179.979 48.67 179.829 48.97 179.829 48.97C179.829 48.97 179.559 49.27 179.019 49.87C178.539 50.41 177.639 51.07 176.319 51.85C174.999 52.63 173.169 53.35 170.829 54.01C168.489 54.61 165.489 54.94 161.829 55C158.289 55.06 155.319 54.58 152.919 53.56C150.519 52.54 148.539 51.22 146.979 49.6C145.419 47.92 144.219 46.18 143.379 44.38C142.599 42.52 142.029 40.81 141.669 39.25C141.369 37.63 141.219 36.37 141.219 35.47C141.219 34.57 141.279 33.4 141.399 31.96C141.579 30.52 141.969 29.02 142.569 27.46C143.229 25.84 144.219 24.31 145.539 22.87C146.859 21.43 148.659 20.26 150.939 19.36C153.279 18.46 156.249 17.98 159.849 17.92C164.349 17.86 167.859 18.25 170.379 19.09C172.899 19.93 174.729 20.95 175.869 22.15C177.009 23.35 177.699 24.49 177.939 25.57C178.239 26.65 178.389 27.4 178.389 27.82ZM155.439 35.38C159.099 35.08 161.829 34.3 163.629 33.04C165.429 31.78 166.479 30.37 166.779 28.81C167.079 27.25 166.779 25.93 165.879 24.85C165.039 23.71 163.749 23.2 162.009 23.32C160.269 23.38 158.949 24.04 158.049 25.3C157.149 26.5 156.519 27.91 156.159 29.53C155.799 31.09 155.589 32.47 155.529 33.67C155.469 34.81 155.439 35.38 155.439 35.38ZM227.098 17.83C230.098 17.77 232.648 18.04 234.748 18.64C236.848 19.18 238.588 19.84 239.968 20.62C241.348 21.4 242.428 22.09 243.208 22.69C243.988 23.29 244.558 23.59 244.918 23.59C245.578 23.65 246.058 23.98 246.358 24.58C246.658 25.12 246.808 25.39 246.808 25.39C246.808 25.39 246.898 25.99 247.078 27.19C247.258 28.39 247.468 29.92 247.708 31.78C248.008 33.64 248.278 35.59 248.518 37.63C248.758 39.67 248.968 41.59 249.148 43.39C249.328 45.19 249.418 46.6 249.418 47.62C249.418 49.3 249.298 50.65 249.058 51.67C248.878 52.69 248.278 53.47 247.258 54.01C246.238 54.49 244.558 54.82 242.218 55C240.478 55.12 239.218 55.09 238.438 54.91C237.658 54.73 237.178 54.52 236.998 54.28C236.818 54.04 236.728 53.92 236.728 53.92C236.188 54.34 235.288 54.64 234.028 54.82C232.828 54.94 231.688 55 230.608 55C229.528 55 228.988 55 228.988 55C228.988 55 228.298 54.91 226.918 54.73C225.538 54.49 223.828 54.04 221.788 53.38C219.808 52.66 217.798 51.61 215.758 50.23C213.778 48.79 212.128 46.9 210.808 44.56C209.488 42.16 208.858 39.19 208.918 35.65C208.978 32.11 209.638 29.23 210.898 27.01C212.158 24.73 213.688 22.96 215.488 21.7C217.288 20.44 219.058 19.54 220.798 19C222.598 18.46 224.098 18.13 225.298 18.01C226.498 17.89 227.098 17.83 227.098 17.83ZM233.848 27.1C233.548 26.68 232.888 26.23 231.868 25.75C230.908 25.21 229.978 24.76 229.078 24.4C228.238 24.04 227.818 23.92 227.818 24.04C227.818 24.1 227.488 24.61 226.828 25.57C226.228 26.47 225.598 27.82 224.938 29.62C224.338 31.36 224.008 33.46 223.948 35.92C223.888 38.38 224.218 40.51 224.938 42.31C225.658 44.11 226.528 45.49 227.548 46.45C228.628 47.41 229.618 47.89 230.518 47.89C231.178 47.89 231.808 47.59 232.408 46.99C233.008 46.33 233.518 45.61 233.938 44.83C234.358 43.99 234.688 43.27 234.928 42.67C235.168 42.07 235.288 41.77 235.288 41.77L233.848 27.1ZM257.258 48.88C257.258 48.22 257.168 47.08 256.988 45.46C256.808 43.84 256.568 42.01 256.268 39.97C256.028 37.87 255.758 35.8 255.458 33.76C255.158 31.66 254.828 29.8 254.468 28.18C254.168 26.5 253.898 25.3 253.658 24.58C253.058 22.78 253.388 21.52 254.648 20.8C255.968 20.02 257.798 19.51 260.138 19.27C262.478 19.03 264.158 19.21 265.178 19.81C266.258 20.35 266.798 20.62 266.798 20.62C267.698 19.72 269.168 19.09 271.208 18.73C273.308 18.37 275.498 18.22 277.778 18.28C280.718 18.34 282.848 18.79 284.168 19.63C285.488 20.47 286.148 21.37 286.148 22.33C286.148 23.05 286.058 23.59 285.878 23.95C285.698 24.31 284.978 24.67 283.718 25.03C282.518 25.33 280.328 25.87 277.148 26.65C275.288 27.07 273.908 28.09 273.008 29.71C272.108 31.27 271.538 33.1 271.298 35.2C271.118 37.24 271.118 39.28 271.298 41.32C271.478 43.3 271.688 44.98 271.928 46.36C272.168 47.68 272.288 48.4 272.288 48.52C272.288 48.64 272.318 49.06 272.378 49.78C272.498 50.44 272.408 51.19 272.108 52.03C271.868 52.81 271.238 53.5 270.218 54.1C269.198 54.7 267.578 55 265.358 55C263.138 55 261.458 54.7 260.318 54.1C259.178 53.44 258.398 52.72 257.978 51.94C257.558 51.16 257.318 50.47 257.258 49.87C257.258 49.21 257.258 48.88 257.258 48.88ZM326.396 27.82C326.216 30.82 325.376 33.25 323.876 35.11C322.376 36.91 320.546 38.29 318.386 39.25C316.286 40.15 314.186 40.78 312.086 41.14C309.986 41.44 308.216 41.59 306.776 41.59C305.396 41.59 304.706 41.59 304.706 41.59C305.066 43.69 305.576 45.19 306.236 46.09C306.896 46.99 307.616 47.5 308.396 47.62C309.236 47.74 310.016 47.68 310.736 47.44C311.456 47.14 312.026 46.81 312.446 46.45C312.926 46.09 313.166 45.91 313.166 45.91C313.166 45.91 313.496 45.64 314.156 45.1C314.816 44.56 315.836 44.05 317.216 43.57C318.656 43.03 320.456 42.76 322.616 42.76C325.076 42.76 326.726 43.09 327.566 43.75C328.466 44.35 328.886 45.07 328.826 45.91C328.826 46.69 328.646 47.41 328.286 48.07C327.986 48.67 327.836 48.97 327.836 48.97C327.836 48.97 327.566 49.27 327.026 49.87C326.546 50.41 325.646 51.07 324.326 51.85C323.006 52.63 321.176 53.35 318.836 54.01C316.496 54.61 313.496 54.94 309.836 55C306.296 55.06 303.326 54.58 300.926 53.56C298.526 52.54 296.546 51.22 294.986 49.6C293.426 47.92 292.226 46.18 291.386 44.38C290.606 42.52 290.036 40.81 289.676 39.25C289.376 37.63 289.226 36.37 289.226 35.47C289.226 34.57 289.286 33.4 289.406 31.96C289.586 30.52 289.976 29.02 290.576 27.46C291.236 25.84 292.226 24.31 293.546 22.87C294.866 21.43 296.666 20.26 298.946 19.36C301.286 18.46 304.256 17.98 307.856 17.92C312.356 17.86 315.866 18.25 318.386 19.09C320.906 19.93 322.736 20.95 323.876 22.15C325.016 23.35 325.706 24.49 325.946 25.57C326.246 26.65 326.396 27.4 326.396 27.82ZM303.446 35.38C307.106 35.08 309.836 34.3 311.636 33.04C313.436 31.78 314.486 30.37 314.786 28.81C315.086 27.25 314.786 25.93 313.886 24.85C313.046 23.71 311.756 23.2 310.016 23.32C308.276 23.38 306.956 24.04 306.056 25.3C305.156 26.5 304.526 27.91 304.166 29.53C303.806 31.09 303.596 32.47 303.536 33.67C303.476 34.81 303.446 35.38 303.446 35.38ZM7.00055 105.45C9.04055 105.27 10.6305 105.36 11.7705 105.72C12.9705 106.02 13.8405 106.44 14.3805 106.98C14.9805 107.52 15.3405 108.03 15.4605 108.51C15.6405 108.93 15.7305 109.14 15.7305 109.14L20.3205 125.88L22.5705 119.31C22.5705 119.31 22.7505 118.95 23.1105 118.23C23.5305 117.51 24.2805 116.79 25.3605 116.07C26.4405 115.35 28.0005 115.02 30.0405 115.08C32.1405 115.08 33.6705 115.41 34.6305 116.07C35.6505 116.73 36.3105 117.39 36.6105 118.05C36.9705 118.71 37.1505 119.04 37.1505 119.04L39.4905 125.7C39.4905 125.7 39.6405 125.16 39.9405 124.08C40.3005 122.94 40.7505 121.53 41.2905 119.85C41.8306 118.11 42.3705 116.37 42.9105 114.63C43.4505 112.89 43.9005 111.36 44.2605 110.04C44.6805 108.66 44.9505 107.79 45.0705 107.43C45.2505 106.83 45.5805 106.23 46.0606 105.63C46.5406 105.03 47.3806 104.55 48.5805 104.19C49.8405 103.77 51.6705 103.65 54.0705 103.83C55.8706 103.95 57.1906 104.25 58.0306 104.73C58.8706 105.21 59.4106 105.75 59.6506 106.35C59.8905 106.95 59.9805 107.46 59.9205 107.88C59.8605 108.3 59.8305 108.51 59.8305 108.51C59.8305 108.51 59.5905 109.14 59.1105 110.4C58.6906 111.66 58.1206 113.28 57.4005 115.26C56.6806 117.24 55.9006 119.37 55.0605 121.65C54.2805 123.93 53.5006 126.12 52.7206 128.22C52.0005 130.32 51.3705 132.12 50.8305 133.62C50.2905 135.06 49.9605 135.93 49.8405 136.23C49.6005 136.83 49.2105 137.52 48.6705 138.3C48.1905 139.02 47.4405 139.65 46.4206 140.19C45.4605 140.73 44.0505 141 42.1905 141C40.3905 141 38.9205 140.79 37.7805 140.37C36.7005 139.95 35.8905 139.53 35.3505 139.11C34.8705 138.69 34.6305 138.48 34.6305 138.48L29.5905 130.92L25.3605 137.58C25.3605 137.58 25.1805 137.88 24.8205 138.48C24.4605 139.02 23.7105 139.59 22.5705 140.19C21.4305 140.73 19.6605 141 17.2605 141C15.4605 141 14.0505 140.73 13.0305 140.19C12.0105 139.65 11.2305 139.05 10.6905 138.39C10.2105 137.73 9.88055 137.13 9.70055 136.59C9.58055 136.05 9.52055 135.78 9.52055 135.78C9.52055 135.78 9.31055 135.12 8.89055 133.8C8.47055 132.48 7.90055 130.8 7.18055 128.76C6.52055 126.72 5.80055 124.59 5.02055 122.37C4.30055 120.09 3.58055 117.96 2.86055 115.98C2.20055 114 1.66055 112.44 1.24055 111.3C0.700547 109.92 0.610547 108.84 0.970547 108.06C1.39055 107.28 1.99055 106.71 2.77055 106.35C3.55055 105.99 4.36055 105.78 5.20055 105.72C6.04055 105.6 6.64055 105.51 7.00055 105.45ZM100.254 113.82C100.074 116.82 99.2339 119.25 97.7339 121.11C96.2339 122.91 94.4039 124.29 92.2439 125.25C90.1439 126.15 88.0439 126.78 85.9439 127.14C83.8439 127.44 82.0739 127.59 80.6339 127.59C79.2539 127.59 78.5639 127.59 78.5639 127.59C78.9239 129.69 79.4339 131.19 80.0939 132.09C80.7539 132.99 81.4739 133.5 82.2539 133.62C83.0939 133.74 83.8739 133.68 84.5939 133.44C85.3139 133.14 85.8839 132.81 86.3039 132.45C86.7839 132.09 87.0239 131.91 87.0239 131.91C87.0239 131.91 87.3539 131.64 88.0139 131.1C88.6739 130.56 89.6939 130.05 91.0739 129.57C92.5139 129.03 94.3139 128.76 96.4739 128.76C98.9339 128.76 100.584 129.09 101.424 129.75C102.324 130.35 102.744 131.07 102.684 131.91C102.684 132.69 102.504 133.41 102.144 134.07C101.844 134.67 101.694 134.97 101.694 134.97C101.694 134.97 101.424 135.27 100.884 135.87C100.404 136.41 99.5039 137.07 98.1839 137.85C96.8639 138.63 95.0339 139.35 92.6939 140.01C90.3539 140.61 87.3539 140.94 83.6939 141C80.1539 141.06 77.1839 140.58 74.7839 139.56C72.3839 138.54 70.4039 137.22 68.8439 135.6C67.2839 133.92 66.0839 132.18 65.2439 130.38C64.4639 128.52 63.8939 126.81 63.5339 125.25C63.2339 123.63 63.0839 122.37 63.0839 121.47C63.0839 120.57 63.1439 119.4 63.2639 117.96C63.4439 116.52 63.8339 115.02 64.4339 113.46C65.0939 111.84 66.0839 110.31 67.4039 108.87C68.7239 107.43 70.5239 106.26 72.8039 105.36C75.1439 104.46 78.1139 103.98 81.7139 103.92C86.2139 103.86 89.7239 104.25 92.2439 105.09C94.7639 105.93 96.5939 106.95 97.7339 108.15C98.8739 109.35 99.5639 110.49 99.8039 111.57C100.104 112.65 100.254 113.4 100.254 113.82ZM77.3039 121.38C80.9639 121.08 83.6939 120.3 85.4939 119.04C87.2939 117.78 88.3439 116.37 88.6439 114.81C88.9439 113.25 88.6439 111.93 87.7439 110.85C86.9039 109.71 85.6139 109.2 83.8739 109.32C82.1339 109.38 80.8139 110.04 79.9139 111.3C79.0139 112.5 78.3839 113.91 78.0239 115.53C77.6639 117.09 77.4539 118.47 77.3939 119.67C77.3339 120.81 77.3039 121.38 77.3039 121.38ZM148.963 103.83C151.963 103.77 154.513 104.04 156.613 104.64C158.713 105.18 160.453 105.84 161.833 106.62C163.213 107.4 164.293 108.09 165.073 108.69C165.853 109.29 166.423 109.59 166.783 109.59C167.443 109.65 167.923 109.98 168.223 110.58C168.523 111.12 168.673 111.39 168.673 111.39C168.673 111.39 168.763 111.99 168.943 113.19C169.123 114.39 169.333 115.92 169.573 117.78C169.873 119.64 170.143 121.59 170.383 123.63C170.623 125.67 170.833 127.59 171.013 129.39C171.193 131.19 171.283 132.6 171.283 133.62C171.283 135.3 171.163 136.65 170.923 137.67C170.743 138.69 170.143 139.47 169.123 140.01C168.103 140.49 166.423 140.82 164.083 141C162.343 141.12 161.083 141.09 160.303 140.91C159.523 140.73 159.043 140.52 158.863 140.28C158.683 140.04 158.593 139.92 158.593 139.92C158.053 140.34 157.153 140.64 155.893 140.82C154.693 140.94 153.553 141 152.473 141C151.393 141 150.853 141 150.853 141C150.853 141 150.163 140.91 148.783 140.73C147.403 140.49 145.693 140.04 143.653 139.38C141.673 138.66 139.663 137.61 137.623 136.23C135.643 134.79 133.993 132.9 132.673 130.56C131.353 128.16 130.723 125.19 130.783 121.65C130.843 118.11 131.503 115.23 132.763 113.01C134.023 110.73 135.553 108.96 137.353 107.7C139.153 106.44 140.923 105.54 142.663 105C144.463 104.46 145.963 104.13 147.163 104.01C148.363 103.89 148.963 103.83 148.963 103.83ZM155.713 113.1C155.413 112.68 154.753 112.23 153.733 111.75C152.773 111.21 151.843 110.76 150.943 110.4C150.103 110.04 149.683 109.92 149.683 110.04C149.683 110.1 149.353 110.61 148.693 111.57C148.093 112.47 147.463 113.82 146.803 115.62C146.203 117.36 145.873 119.46 145.813 121.92C145.753 124.38 146.083 126.51 146.803 128.31C147.523 130.11 148.393 131.49 149.413 132.45C150.493 133.41 151.483 133.89 152.383 133.89C153.043 133.89 153.673 133.59 154.273 132.99C154.873 132.33 155.383 131.61 155.803 130.83C156.223 129.99 156.553 129.27 156.793 128.67C157.033 128.07 157.153 127.77 157.153 127.77L155.713 113.1ZM179.123 134.88C179.123 134.22 179.033 133.08 178.853 131.46C178.673 129.84 178.433 128.01 178.133 125.97C177.893 123.87 177.623 121.8 177.323 119.76C177.023 117.66 176.693 115.8 176.333 114.18C176.033 112.5 175.763 111.3 175.523 110.58C174.923 108.78 175.253 107.52 176.513 106.8C177.833 106.02 179.663 105.51 182.003 105.27C184.343 105.03 186.023 105.21 187.043 105.81C188.123 106.35 188.663 106.62 188.663 106.62C189.563 105.72 191.033 105.09 193.073 104.73C195.173 104.37 197.363 104.22 199.643 104.28C202.583 104.34 204.713 104.79 206.033 105.63C207.353 106.47 208.013 107.37 208.013 108.33C208.013 109.05 207.923 109.59 207.743 109.95C207.563 110.31 206.843 110.67 205.583 111.03C204.383 111.33 202.193 111.87 199.013 112.65C197.153 113.07 195.773 114.09 194.873 115.71C193.973 117.27 193.403 119.1 193.163 121.2C192.983 123.24 192.983 125.28 193.163 127.32C193.343 129.3 193.553 130.98 193.793 132.36C194.033 133.68 194.153 134.4 194.153 134.52C194.153 134.64 194.183 135.06 194.243 135.78C194.363 136.44 194.273 137.19 193.973 138.03C193.733 138.81 193.103 139.5 192.083 140.1C191.063 140.7 189.443 141 187.223 141C185.003 141 183.323 140.7 182.183 140.1C181.043 139.44 180.263 138.72 179.843 137.94C179.423 137.16 179.183 136.47 179.123 135.87C179.123 135.21 179.123 134.88 179.123 134.88ZM248.262 113.82C248.082 116.82 247.242 119.25 245.742 121.11C244.242 122.91 242.412 124.29 240.252 125.25C238.152 126.15 236.052 126.78 233.952 127.14C231.852 127.44 230.082 127.59 228.642 127.59C227.262 127.59 226.572 127.59 226.572 127.59C226.932 129.69 227.442 131.19 228.102 132.09C228.762 132.99 229.482 133.5 230.262 133.62C231.102 133.74 231.882 133.68 232.602 133.44C233.322 133.14 233.892 132.81 234.312 132.45C234.792 132.09 235.032 131.91 235.032 131.91C235.032 131.91 235.362 131.64 236.022 131.1C236.682 130.56 237.702 130.05 239.082 129.57C240.522 129.03 242.322 128.76 244.482 128.76C246.942 128.76 248.592 129.09 249.432 129.75C250.332 130.35 250.752 131.07 250.692 131.91C250.692 132.69 250.512 133.41 250.152 134.07C249.852 134.67 249.702 134.97 249.702 134.97C249.702 134.97 249.432 135.27 248.892 135.87C248.412 136.41 247.512 137.07 246.192 137.85C244.872 138.63 243.042 139.35 240.702 140.01C238.362 140.61 235.362 140.94 231.702 141C228.162 141.06 225.192 140.58 222.792 139.56C220.392 138.54 218.412 137.22 216.852 135.6C215.292 133.92 214.092 132.18 213.252 130.38C212.472 128.52 211.902 126.81 211.542 125.25C211.242 123.63 211.092 122.37 211.092 121.47C211.092 120.57 211.152 119.4 211.272 117.96C211.452 116.52 211.842 115.02 212.442 113.46C213.102 111.84 214.092 110.31 215.412 108.87C216.732 107.43 218.532 106.26 220.812 105.36C223.152 104.46 226.122 103.98 229.722 103.92C234.222 103.86 237.732 104.25 240.252 105.09C242.772 105.93 244.602 106.95 245.742 108.15C246.882 109.35 247.572 110.49 247.812 111.57C248.112 112.65 248.262 113.4 248.262 113.82ZM225.312 121.38C228.972 121.08 231.702 120.3 233.502 119.04C235.302 117.78 236.352 116.37 236.652 114.81C236.952 113.25 236.652 111.93 235.752 110.85C234.912 109.71 233.622 109.2 231.882 109.32C230.142 109.38 228.822 110.04 227.922 111.3C227.022 112.5 226.392 113.91 226.032 115.53C225.672 117.09 225.462 118.47 225.402 119.67C225.342 120.81 225.312 121.38 225.312 121.38ZM297.781 104.46C300.001 104.28 301.711 104.52 302.911 105.18C304.111 105.84 304.831 106.23 305.071 106.35C305.671 106.65 306.211 106.98 306.691 107.34C307.231 107.7 307.501 107.88 307.501 107.88C307.501 107.88 307.951 108.03 308.851 108.33C309.751 108.63 310.801 109.35 312.001 110.49C313.201 111.57 314.311 113.28 315.331 115.62C316.351 117.96 316.951 121.14 317.131 125.16C317.251 127.86 316.831 130.14 315.871 132C314.911 133.8 313.621 135.3 312.001 136.5C310.441 137.64 308.731 138.54 306.871 139.2C305.071 139.8 303.331 140.22 301.651 140.46C300.031 140.7 298.681 140.85 297.601 140.91C296.581 140.97 296.071 141 296.071 141C296.071 141 295.471 141 294.271 141C293.131 141 291.691 140.82 289.951 140.46C288.211 140.04 286.471 139.26 284.731 138.12C283.051 136.92 281.641 135.18 280.501 132.9C279.421 130.62 278.941 127.59 279.061 123.81C279.181 120.03 279.871 116.94 281.131 114.54C282.451 112.08 284.011 110.16 285.811 108.78C287.671 107.4 289.501 106.41 291.301 105.81C293.161 105.21 294.691 104.85 295.891 104.73C297.151 104.55 297.781 104.46 297.781 104.46ZM298.141 113.28C298.141 113.28 297.751 113.76 296.971 114.72C296.251 115.68 295.501 117.03 294.721 118.77C294.001 120.51 293.641 122.55 293.641 124.89C293.641 127.17 293.911 128.97 294.451 130.29C294.991 131.61 295.561 132.57 296.161 133.17C296.821 133.71 297.331 133.98 297.691 133.98C298.051 133.98 298.621 133.83 299.401 133.53C300.241 133.17 300.991 132.39 301.651 131.19C302.311 129.99 302.611 128.1 302.551 125.52C302.491 123.36 302.251 121.62 301.831 120.3C301.471 118.98 300.961 117.81 300.301 116.79C299.701 115.71 298.981 114.54 298.141 113.28ZM330.709 141C330.709 141 330.319 141 329.539 141C328.759 141 327.859 140.88 326.839 140.64C325.879 140.4 325.009 139.92 324.229 139.2C323.449 138.48 322.999 137.43 322.879 136.05C322.819 134.91 322.699 133.29 322.519 131.19C322.339 129.09 322.129 126.81 321.889 124.35C321.709 121.83 321.529 119.46 321.349 117.24C321.169 114.96 321.019 113.1 320.899 111.66C320.779 110.22 320.719 109.5 320.719 109.5C320.719 109.5 320.749 109.26 320.809 108.78C320.869 108.24 321.079 107.64 321.439 106.98C321.859 106.32 322.549 105.72 323.509 105.18C324.529 104.64 325.939 104.34 327.739 104.28C329.539 104.22 330.949 104.4 331.969 104.82C332.989 105.24 333.709 105.75 334.129 106.35C334.609 106.89 334.879 107.4 334.939 107.88C335.059 108.3 335.119 108.51 335.119 108.51C335.119 108.51 335.659 108.24 336.739 107.7C337.879 107.1 339.319 106.5 341.059 105.9C342.859 105.3 344.749 104.94 346.729 104.82C347.029 104.82 347.599 104.82 348.439 104.82C349.339 104.82 350.299 105.03 351.319 105.45C352.399 105.81 353.449 106.53 354.469 107.61C355.549 108.69 356.449 110.28 357.169 112.38C357.889 114.42 358.309 117.12 358.429 120.48C358.609 124.68 358.729 128.13 358.789 130.83C358.909 133.53 358.819 135.63 358.519 137.13C358.279 138.57 357.679 139.59 356.719 140.19C355.819 140.73 354.379 141 352.399 141C350.479 141 349.069 140.73 348.169 140.19C347.269 139.65 346.699 139.02 346.459 138.3C346.219 137.52 346.099 136.83 346.099 136.23C346.099 135.87 346.159 134.91 346.279 133.35C346.399 131.73 346.489 129.9 346.549 127.86C346.609 125.76 346.579 123.72 346.459 121.74C346.399 119.7 346.159 118.05 345.739 116.79C345.379 115.47 344.779 114.84 343.939 114.9C342.919 114.96 341.959 115.35 341.059 116.07C340.219 116.73 339.469 117.51 338.809 118.41C338.149 119.25 337.639 120 337.279 120.66C336.919 121.26 336.739 121.56 336.739 121.56L337.639 135.15C337.639 135.15 337.639 135.45 337.639 136.05C337.639 136.65 337.459 137.34 337.099 138.12C336.739 138.84 336.049 139.5 335.029 140.1C334.069 140.7 332.629 141 330.709 141ZM404.549 103.83C407.549 103.77 410.099 104.04 412.199 104.64C414.299 105.18 416.039 105.84 417.419 106.62C418.799 107.4 419.879 108.09 420.659 108.69C421.439 109.29 422.009 109.59 422.369 109.59C423.029 109.65 423.509 109.98 423.809 110.58C424.109 111.12 424.259 111.39 424.259 111.39C424.259 111.39 424.349 111.99 424.529 113.19C424.709 114.39 424.919 115.92 425.159 117.78C425.459 119.64 425.729 121.59 425.969 123.63C426.209 125.67 426.419 127.59 426.599 129.39C426.779 131.19 426.869 132.6 426.869 133.62C426.869 135.3 426.749 136.65 426.509 137.67C426.329 138.69 425.729 139.47 424.709 140.01C423.689 140.49 422.009 140.82 419.669 141C417.929 141.12 416.669 141.09 415.889 140.91C415.109 140.73 414.629 140.52 414.449 140.28C414.269 140.04 414.179 139.92 414.179 139.92C413.639 140.34 412.739 140.64 411.479 140.82C410.279 140.94 409.139 141 408.059 141C406.979 141 406.439 141 406.439 141C406.439 141 405.749 140.91 404.369 140.73C402.989 140.49 401.279 140.04 399.239 139.38C397.259 138.66 395.249 137.61 393.209 136.23C391.229 134.79 389.579 132.9 388.259 130.56C386.939 128.16 386.309 125.19 386.369 121.65C386.429 118.11 387.089 115.23 388.349 113.01C389.609 110.73 391.139 108.96 392.939 107.7C394.739 106.44 396.509 105.54 398.249 105C400.049 104.46 401.549 104.13 402.749 104.01C403.949 103.89 404.549 103.83 404.549 103.83ZM411.299 113.1C410.999 112.68 410.339 112.23 409.319 111.75C408.359 111.21 407.429 110.76 406.529 110.4C405.689 110.04 405.269 109.92 405.269 110.04C405.269 110.1 404.939 110.61 404.279 111.57C403.679 112.47 403.049 113.82 402.389 115.62C401.789 117.36 401.459 119.46 401.399 121.92C401.339 124.38 401.669 126.51 402.389 128.31C403.109 130.11 403.979 131.49 404.999 132.45C406.079 133.41 407.069 133.89 407.969 133.89C408.629 133.89 409.259 133.59 409.859 132.99C410.459 132.33 410.969 131.61 411.389 130.83C411.809 129.99 412.139 129.27 412.379 128.67C412.619 128.07 412.739 127.77 412.739 127.77L411.299 113.1ZM464.208 141C464.208 141 463.818 141 463.038 141C462.318 141.06 461.448 140.97 460.428 140.73C459.468 140.49 458.568 140.01 457.728 139.29C456.948 138.51 456.468 137.34 456.288 135.78C456.168 134.52 456.018 132.84 455.838 130.74C455.718 128.64 455.568 126.42 455.388 124.08C455.208 121.68 455.058 119.43 454.938 117.33C454.818 115.23 454.698 113.52 454.578 112.2C454.518 110.82 454.488 110.13 454.488 110.13C454.488 110.13 454.458 109.86 454.398 109.32C454.398 108.78 454.518 108.15 454.758 107.43C455.058 106.65 455.628 105.96 456.468 105.36C457.308 104.76 458.628 104.43 460.428 104.37C462.828 104.25 464.598 104.4 465.738 104.82C466.878 105.24 467.628 105.69 467.988 106.17C468.408 106.65 468.618 106.89 468.618 106.89C468.618 106.89 469.068 106.65 469.968 106.17C470.928 105.69 472.218 105.24 473.838 104.82C475.458 104.34 477.258 104.1 479.238 104.1C481.518 104.1 483.378 104.34 484.818 104.82C486.318 105.3 487.428 105.78 488.148 106.26C488.868 106.74 489.228 106.98 489.228 106.98C490.968 105.9 492.738 105.27 494.538 105.09C496.398 104.91 498.498 104.82 500.838 104.82C500.838 104.82 501.438 104.91 502.638 105.09C503.838 105.21 505.338 105.57 507.138 106.17C508.938 106.77 510.738 107.76 512.538 109.14C514.398 110.46 515.958 112.32 517.218 114.72C518.478 117.06 519.138 120.09 519.198 123.81C519.318 128.49 519.198 132.03 518.838 134.43C518.478 136.83 517.968 138.48 517.308 139.38C516.648 140.28 515.838 140.79 514.878 140.91C513.918 140.97 512.868 141 511.728 141C509.448 141 507.498 140.52 505.878 139.56C504.318 138.54 503.718 137.01 504.078 134.97C504.198 134.19 504.288 132.93 504.348 131.19C504.468 129.45 504.468 127.56 504.348 125.52C504.228 123.42 503.958 121.44 503.538 119.58C503.118 117.66 502.488 116.1 501.648 114.9C500.808 113.64 499.698 113.04 498.318 113.1C497.298 113.1 496.488 113.52 495.888 114.36C495.348 115.14 494.958 115.92 494.718 116.7C494.478 117.48 494.358 117.87 494.358 117.87L495.528 134.97C495.528 134.97 495.528 135.27 495.528 135.87C495.588 136.47 495.468 137.19 495.168 138.03C494.868 138.81 494.208 139.5 493.188 140.1C492.168 140.7 490.578 141 488.418 141C486.258 141 484.608 140.73 483.468 140.19C482.388 139.65 481.638 139.02 481.218 138.3C480.798 137.58 480.558 136.95 480.498 136.41C480.438 135.87 480.408 135.57 480.408 135.51C480.408 135.45 480.438 134.85 480.498 133.71C480.558 132.51 480.588 131.01 480.588 129.21C480.648 127.41 480.588 125.52 480.408 123.54C480.228 121.5 479.898 119.61 479.418 117.87C478.998 116.07 478.338 114.69 477.438 113.73C476.598 112.71 475.458 112.29 474.018 112.47C472.638 112.65 471.648 113.1 471.048 113.82C470.448 114.48 470.058 115.11 469.878 115.71C469.758 116.31 469.698 116.61 469.698 116.61L471.138 135.6C471.138 135.6 471.138 135.87 471.138 136.41C471.198 136.95 471.048 137.58 470.688 138.3C470.388 139.02 469.728 139.65 468.708 140.19C467.748 140.73 466.248 141 464.208 141ZM531.488 103.11C531.488 103.11 531.098 103.11 530.318 103.11C529.538 103.05 528.608 102.87 527.528 102.57C526.508 102.21 525.578 101.58 524.738 100.68C523.898 99.78 523.448 98.43 523.388 96.63C523.328 94.83 523.598 93.51 524.198 92.67C524.798 91.77 525.548 91.17 526.448 90.87C527.348 90.51 528.218 90.33 529.058 90.33C529.898 90.27 530.498 90.21 530.858 90.15C531.218 90.09 531.818 90.15 532.658 90.33C533.498 90.45 534.368 90.78 535.268 91.32C536.168 91.8 536.918 92.55 537.518 93.57C538.118 94.53 538.358 95.82 538.238 97.44C538.118 99 537.698 100.2 536.978 101.04C536.318 101.82 535.538 102.36 534.638 102.66C533.798 102.9 533.048 103.05 532.388 103.11C531.788 103.11 531.488 103.11 531.488 103.11ZM528.338 135.42L526.178 114.9C526.178 114.9 526.028 114.6 525.728 114C525.488 113.34 525.308 112.89 525.188 112.65C525.128 112.47 525.008 112.11 524.828 111.57C524.708 110.97 524.858 110.34 525.278 109.68C525.758 109.02 526.778 108.54 528.338 108.24C529.958 107.94 531.638 107.85 533.378 107.97C535.118 108.09 536.648 108.63 537.968 109.59C539.348 110.49 540.188 112.08 540.488 114.36C540.728 116.04 540.968 118.05 541.208 120.39C541.448 122.67 541.658 124.92 541.838 127.14C542.078 129.3 542.258 131.13 542.378 132.63C542.558 134.07 542.648 134.79 542.648 134.79C542.648 134.79 542.678 135.12 542.738 135.78C542.798 136.38 542.708 137.1 542.468 137.94C542.228 138.72 541.628 139.44 540.668 140.1C539.768 140.7 538.298 141 536.258 141C534.218 141 532.658 140.73 531.578 140.19C530.498 139.59 529.718 138.93 529.238 138.21C528.818 137.49 528.548 136.86 528.428 136.32C528.368 135.72 528.338 135.42 528.338 135.42ZM567.18 126.6C562.68 126.48 559.17 126.03 556.65 125.25C554.13 124.47 552.33 123.54 551.25 122.46C550.23 121.38 549.6 120.33 549.36 119.31C549.12 118.23 549 117.39 549 116.79C549 116.19 549.09 115.26 549.27 114C549.45 112.74 550.02 111.42 550.98 110.04C551.94 108.66 553.59 107.46 555.93 106.44C558.33 105.42 561.72 104.85 566.1 104.73C570.9 104.61 574.59 104.88 577.17 105.54C579.75 106.2 581.58 106.98 582.66 107.88C583.8 108.78 584.49 109.59 584.73 110.31C584.97 110.97 585.09 111.3 585.09 111.3C585.09 112.08 585 112.89 584.82 113.73C584.64 114.51 584.1 115.17 583.2 115.71C582.36 116.19 580.89 116.4 578.79 116.34C577.11 116.28 575.85 116.13 575.01 115.89C574.17 115.65 573.54 115.38 573.12 115.08C572.76 114.72 572.37 114.36 571.95 114C571.59 113.64 571.02 113.34 570.24 113.1C569.52 112.86 568.35 112.71 566.73 112.65C564.75 112.59 563.25 112.74 562.23 113.1C561.27 113.4 560.61 113.79 560.25 114.27C559.95 114.75 559.77 115.17 559.71 115.53C559.71 115.83 559.71 115.98 559.71 115.98C559.71 115.98 559.77 116.22 559.89 116.7C560.07 117.18 560.67 117.66 561.69 118.14C562.77 118.62 564.69 118.89 567.45 118.95C572.67 119.13 576.66 119.64 579.42 120.48C582.24 121.26 584.22 122.19 585.36 123.27C586.56 124.35 587.25 125.43 587.43 126.51C587.67 127.53 587.79 128.34 587.79 128.94C587.79 129.54 587.58 130.47 587.16 131.73C586.8 132.99 585.99 134.31 584.73 135.69C583.47 137.07 581.52 138.27 578.88 139.29C576.3 140.31 572.82 140.88 568.44 141C563.7 141.12 560.01 140.85 557.37 140.19C554.79 139.53 552.93 138.75 551.79 137.85C550.71 136.95 550.05 136.17 549.81 135.51C549.57 134.79 549.45 134.43 549.45 134.43C549.45 133.59 549.54 132.78 549.72 132C549.96 131.22 550.5 130.59 551.34 130.11C552.24 129.57 553.71 129.33 555.75 129.39C557.49 129.45 558.75 129.6 559.53 129.84C560.37 130.08 561 130.38 561.42 130.74C561.84 131.04 562.23 131.37 562.59 131.73C562.95 132.09 563.52 132.39 564.3 132.63C565.08 132.87 566.25 133.02 567.81 133.08C569.79 133.14 571.26 133.02 572.22 132.72C573.24 132.36 573.93 131.94 574.29 131.46C574.65 130.98 574.83 130.59 574.83 130.29C574.83 129.93 574.83 129.75 574.83 129.75C574.83 129.75 574.77 129.51 574.65 129.03C574.53 128.49 573.93 127.98 572.85 127.5C571.83 126.96 569.94 126.66 567.18 126.6ZM611.389 126.6C606.889 126.48 603.379 126.03 600.859 125.25C598.339 124.47 596.539 123.54 595.459 122.46C594.439 121.38 593.809 120.33 593.569 119.31C593.329 118.23 593.209 117.39 593.209 116.79C593.209 116.19 593.299 115.26 593.479 114C593.659 112.74 594.229 111.42 595.189 110.04C596.149 108.66 597.799 107.46 600.139 106.44C602.539 105.42 605.929 104.85 610.309 104.73C615.109 104.61 618.799 104.88 621.379 105.54C623.959 106.2 625.789 106.98 626.869 107.88C628.009 108.78 628.699 109.59 628.939 110.31C629.179 110.97 629.299 111.3 629.299 111.3C629.299 112.08 629.209 112.89 629.029 113.73C628.849 114.51 628.309 115.17 627.409 115.71C626.569 116.19 625.099 116.4 622.999 116.34C621.319 116.28 620.059 116.13 619.219 115.89C618.379 115.65 617.749 115.38 617.329 115.08C616.969 114.72 616.579 114.36 616.159 114C615.799 113.64 615.229 113.34 614.449 113.1C613.729 112.86 612.559 112.71 610.939 112.65C608.959 112.59 607.459 112.74 606.439 113.1C605.479 113.4 604.819 113.79 604.459 114.27C604.159 114.75 603.979 115.17 603.919 115.53C603.919 115.83 603.919 115.98 603.919 115.98C603.919 115.98 603.979 116.22 604.099 116.7C604.279 117.18 604.879 117.66 605.899 118.14C606.979 118.62 608.899 118.89 611.659 118.95C616.879 119.13 620.869 119.64 623.629 120.48C626.449 121.26 628.429 122.19 629.569 123.27C630.769 124.35 631.459 125.43 631.639 126.51C631.879 127.53 631.999 128.34 631.999 128.94C631.999 129.54 631.789 130.47 631.369 131.73C631.009 132.99 630.199 134.31 628.939 135.69C627.679 137.07 625.729 138.27 623.089 139.29C620.509 140.31 617.029 140.88 612.649 141C607.909 141.12 604.219 140.85 601.579 140.19C598.999 139.53 597.139 138.75 595.999 137.85C594.919 136.95 594.259 136.17 594.019 135.51C593.779 134.79 593.659 134.43 593.659 134.43C593.659 133.59 593.749 132.78 593.929 132C594.169 131.22 594.709 130.59 595.549 130.11C596.449 129.57 597.919 129.33 599.959 129.39C601.699 129.45 602.959 129.6 603.739 129.84C604.579 130.08 605.209 130.38 605.629 130.74C606.049 131.04 606.439 131.37 606.799 131.73C607.159 132.09 607.729 132.39 608.509 132.63C609.289 132.87 610.459 133.02 612.019 133.08C613.999 133.14 615.469 133.02 616.429 132.72C617.449 132.36 618.139 131.94 618.499 131.46C618.859 130.98 619.039 130.59 619.039 130.29C619.039 129.93 619.039 129.75 619.039 129.75C619.039 129.75 618.979 129.51 618.859 129.03C618.739 128.49 618.139 127.98 617.059 127.5C616.039 126.96 614.149 126.66 611.389 126.6ZM643.988 103.11C643.988 103.11 643.598 103.11 642.818 103.11C642.038 103.05 641.108 102.87 640.028 102.57C639.008 102.21 638.078 101.58 637.238 100.68C636.398 99.78 635.948 98.43 635.888 96.63C635.828 94.83 636.098 93.51 636.698 92.67C637.298 91.77 638.048 91.17 638.948 90.87C639.848 90.51 640.718 90.33 641.558 90.33C642.398 90.27 642.998 90.21 643.358 90.15C643.718 90.09 644.318 90.15 645.158 90.33C645.998 90.45 646.868 90.78 647.768 91.32C648.668 91.8 649.418 92.55 650.018 93.57C650.618 94.53 650.858 95.82 650.738 97.44C650.618 99 650.198 100.2 649.478 101.04C648.818 101.82 648.038 102.36 647.138 102.66C646.298 102.9 645.548 103.05 644.888 103.11C644.288 103.11 643.988 103.11 643.988 103.11ZM640.838 135.42L638.678 114.9C638.678 114.9 638.528 114.6 638.228 114C637.988 113.34 637.808 112.89 637.688 112.65C637.628 112.47 637.508 112.11 637.328 111.57C637.208 110.97 637.358 110.34 637.778 109.68C638.258 109.02 639.278 108.54 640.838 108.24C642.458 107.94 644.138 107.85 645.878 107.97C647.618 108.09 649.148 108.63 650.468 109.59C651.848 110.49 652.688 112.08 652.988 114.36C653.228 116.04 653.468 118.05 653.708 120.39C653.948 122.67 654.158 124.92 654.338 127.14C654.578 129.3 654.758 131.13 654.878 132.63C655.058 134.07 655.148 134.79 655.148 134.79C655.148 134.79 655.178 135.12 655.238 135.78C655.298 136.38 655.208 137.1 654.968 137.94C654.728 138.72 654.128 139.44 653.168 140.1C652.268 140.7 650.798 141 648.758 141C646.718 141 645.158 140.73 644.078 140.19C642.998 139.59 642.218 138.93 641.738 138.21C641.318 137.49 641.048 136.86 640.928 136.32C640.868 135.72 640.838 135.42 640.838 135.42ZM679.05 104.46C681.27 104.28 682.98 104.52 684.18 105.18C685.38 105.84 686.1 106.23 686.34 106.35C686.94 106.65 687.48 106.98 687.96 107.34C688.5 107.7 688.77 107.88 688.77 107.88C688.77 107.88 689.22 108.03 690.12 108.33C691.02 108.63 692.07 109.35 693.27 110.49C694.47 111.57 695.58 113.28 696.6 115.62C697.62 117.96 698.22 121.14 698.4 125.16C698.52 127.86 698.1 130.14 697.14 132C696.18 133.8 694.89 135.3 693.27 136.5C691.71 137.64 690 138.54 688.14 139.2C686.34 139.8 684.6 140.22 682.92 140.46C681.3 140.7 679.95 140.85 678.87 140.91C677.85 140.97 677.34 141 677.34 141C677.34 141 676.74 141 675.54 141C674.4 141 672.96 140.82 671.22 140.46C669.48 140.04 667.74 139.26 666 138.12C664.32 136.92 662.91 135.18 661.77 132.9C660.69 130.62 660.21 127.59 660.33 123.81C660.45 120.03 661.14 116.94 662.4 114.54C663.72 112.08 665.28 110.16 667.08 108.78C668.94 107.4 670.77 106.41 672.57 105.81C674.43 105.21 675.96 104.85 677.16 104.73C678.42 104.55 679.05 104.46 679.05 104.46ZM679.41 113.28C679.41 113.28 679.02 113.76 678.24 114.72C677.52 115.68 676.77 117.03 675.99 118.77C675.27 120.51 674.91 122.55 674.91 124.89C674.91 127.17 675.18 128.97 675.72 130.29C676.26 131.61 676.83 132.57 677.43 133.17C678.09 133.71 678.6 133.98 678.96 133.98C679.32 133.98 679.89 133.83 680.67 133.53C681.51 133.17 682.26 132.39 682.92 131.19C683.58 129.99 683.88 128.1 683.82 125.52C683.76 123.36 683.52 121.62 683.1 120.3C682.74 118.98 682.23 117.81 681.57 116.79C680.97 115.71 680.25 114.54 679.41 113.28ZM711.978 141C711.978 141 711.588 141 710.808 141C710.028 141 709.128 140.88 708.108 140.64C707.148 140.4 706.278 139.92 705.498 139.2C704.718 138.48 704.268 137.43 704.148 136.05C704.088 134.91 703.968 133.29 703.788 131.19C703.608 129.09 703.398 126.81 703.158 124.35C702.978 121.83 702.798 119.46 702.618 117.24C702.438 114.96 702.288 113.1 702.168 111.66C702.048 110.22 701.988 109.5 701.988 109.5C701.988 109.5 702.018 109.26 702.078 108.78C702.138 108.24 702.348 107.64 702.708 106.98C703.128 106.32 703.818 105.72 704.778 105.18C705.798 104.64 707.208 104.34 709.008 104.28C710.808 104.22 712.218 104.4 713.238 104.82C714.258 105.24 714.978 105.75 715.398 106.35C715.878 106.89 716.148 107.4 716.208 107.88C716.328 108.3 716.388 108.51 716.388 108.51C716.388 108.51 716.928 108.24 718.008 107.7C719.148 107.1 720.588 106.5 722.328 105.9C724.128 105.3 726.018 104.94 727.998 104.82C728.298 104.82 728.868 104.82 729.708 104.82C730.608 104.82 731.568 105.03 732.588 105.45C733.668 105.81 734.718 106.53 735.738 107.61C736.818 108.69 737.718 110.28 738.438 112.38C739.158 114.42 739.578 117.12 739.698 120.48C739.878 124.68 739.998 128.13 740.058 130.83C740.178 133.53 740.088 135.63 739.788 137.13C739.548 138.57 738.948 139.59 737.988 140.19C737.088 140.73 735.648 141 733.668 141C731.748 141 730.338 140.73 729.438 140.19C728.538 139.65 727.968 139.02 727.728 138.3C727.488 137.52 727.368 136.83 727.368 136.23C727.368 135.87 727.428 134.91 727.548 133.35C727.668 131.73 727.758 129.9 727.818 127.86C727.878 125.76 727.848 123.72 727.728 121.74C727.668 119.7 727.428 118.05 727.008 116.79C726.648 115.47 726.048 114.84 725.208 114.9C724.188 114.96 723.228 115.35 722.328 116.07C721.488 116.73 720.738 117.51 720.078 118.41C719.418 119.25 718.908 120 718.548 120.66C718.188 121.26 718.008 121.56 718.008 121.56L718.908 135.15C718.908 135.15 718.908 135.45 718.908 136.05C718.908 136.65 718.728 137.34 718.368 138.12C718.008 138.84 717.318 139.5 716.298 140.1C715.338 140.7 713.898 141 711.978 141Z" fill="#101C2D"/>
<path d="M366.375 55C364.095 55 362.445 54.67 361.425 54.01C360.405 53.29 359.775 52.6 359.535 51.94C359.295 51.28 359.175 50.95 359.175 50.95C359.175 50.95 359.145 50.23 359.085 48.79C359.085 47.29 359.055 45.34 358.995 42.94C358.995 40.54 358.965 37.9 358.905 35.02C358.845 32.14 358.785 29.26 358.725 26.38C358.725 23.5 358.695 20.86 358.635 18.46C358.575 16.06 358.515 14.14 358.455 12.7C358.455 11.2 358.455 10.45 358.455 10.45C358.395 10.45 358.065 10.15 357.465 9.55C356.925 8.95 356.625 8.32 356.565 7.66C356.565 7.18 357.135 6.49 358.275 5.59C359.415 4.69 361.335 3.94 364.035 3.34C366.795 2.68 370.575 2.56 375.375 2.98C379.695 3.34 383.085 4.06 385.545 5.14C388.065 6.16 389.895 7.27 391.035 8.47C392.175 9.61 392.895 10.63 393.195 11.53C393.495 12.37 393.645 12.79 393.645 12.79C393.645 12.79 393.675 12.88 393.735 13.06C393.855 13.24 393.945 13.81 394.005 14.77C394.125 15.67 394.215 17.17 394.275 19.27C394.335 21.37 394.335 24.31 394.275 28.09C394.215 31.15 393.495 33.58 392.115 35.38C390.795 37.18 389.145 38.53 387.165 39.43C385.185 40.27 383.205 40.84 381.225 41.14C379.305 41.38 377.685 41.5 376.365 41.5C375.045 41.44 374.385 41.41 374.385 41.41C374.385 41.41 374.385 42.07 374.385 43.39C374.445 44.65 374.445 46.78 374.385 49.78C374.385 51.28 373.965 52.42 373.125 53.2C372.345 53.92 371.415 54.4 370.335 54.64C369.315 54.88 368.385 55 367.545 55C366.765 55 366.375 55 366.375 55ZM373.485 11.35L374.295 33.67C374.295 33.67 374.685 33.64 375.465 33.58C376.245 33.46 377.145 33.16 378.165 32.68C379.185 32.2 380.055 31.39 380.775 30.25C381.555 29.05 381.885 27.37 381.765 25.21C381.645 22.33 381.525 20.17 381.405 18.73C381.285 17.29 381.195 16.36 381.135 15.94C381.135 15.46 381.135 15.22 381.135 15.22C381.135 15.22 381.075 14.98 380.955 14.5C380.895 13.96 380.655 13.39 380.235 12.79C379.815 12.19 379.065 11.74 377.985 11.44C376.965 11.08 375.465 11.05 373.485 11.35ZM434.59 27.82C434.41 30.82 433.57 33.25 432.07 35.11C430.57 36.91 428.74 38.29 426.58 39.25C424.48 40.15 422.38 40.78 420.28 41.14C418.18 41.44 416.41 41.59 414.97 41.59C413.59 41.59 412.9 41.59 412.9 41.59C413.26 43.69 413.77 45.19 414.43 46.09C415.09 46.99 415.81 47.5 416.59 47.62C417.43 47.74 418.21 47.68 418.93 47.44C419.65 47.14 420.22 46.81 420.64 46.45C421.12 46.09 421.36 45.91 421.36 45.91C421.36 45.91 421.69 45.64 422.35 45.1C423.01 44.56 424.03 44.05 425.41 43.57C426.85 43.03 428.65 42.76 430.81 42.76C433.27 42.76 434.92 43.09 435.76 43.75C436.66 44.35 437.08 45.07 437.02 45.91C437.02 46.69 436.84 47.41 436.48 48.07C436.18 48.67 436.03 48.97 436.03 48.97C436.03 48.97 435.76 49.27 435.22 49.87C434.74 50.41 433.84 51.07 432.52 51.85C431.2 52.63 429.37 53.35 427.03 54.01C424.69 54.61 421.69 54.94 418.03 55C414.49 55.06 411.52 54.58 409.12 53.56C406.72 52.54 404.74 51.22 403.18 49.6C401.62 47.92 400.42 46.18 399.58 44.38C398.8 42.52 398.23 40.81 397.87 39.25C397.57 37.63 397.42 36.37 397.42 35.47C397.42 34.57 397.48 33.4 397.6 31.96C397.78 30.52 398.17 29.02 398.77 27.46C399.43 25.84 400.42 24.31 401.74 22.87C403.06 21.43 404.86 20.26 407.14 19.36C409.48 18.46 412.45 17.98 416.05 17.92C420.55 17.86 424.06 18.25 426.58 19.09C429.1 19.93 430.93 20.95 432.07 22.15C433.21 23.35 433.9 24.49 434.14 25.57C434.44 26.65 434.59 27.4 434.59 27.82ZM411.64 35.38C415.3 35.08 418.03 34.3 419.83 33.04C421.63 31.78 422.68 30.37 422.98 28.81C423.28 27.25 422.98 25.93 422.08 24.85C421.24 23.71 419.95 23.2 418.21 23.32C416.47 23.38 415.15 24.04 414.25 25.3C413.35 26.5 412.72 27.91 412.36 29.53C412 31.09 411.79 32.47 411.73 33.67C411.67 34.81 411.64 35.38 411.64 35.38ZM441.83 5.86C441.77 4.36 442.22 3.16 443.18 2.26C444.14 1.3 446.27 0.729996 449.57 0.549998C451.79 0.429996 453.41 0.699996 454.43 1.36C455.45 2.02 456.08 2.71 456.32 3.43C456.62 4.09 456.77 4.42 456.77 4.42L457.31 12.43C457.31 12.43 457.79 12.43 458.75 12.43C459.77 12.43 460.91 12.55 462.17 12.79C463.49 12.97 464.63 13.36 465.59 13.96C466.61 14.56 467.12 15.49 467.12 16.75C467.12 18.01 466.64 18.94 465.68 19.54C464.72 20.14 463.61 20.56 462.35 20.8C461.09 20.98 459.95 21.07 458.93 21.07C457.97 21.07 457.49 21.07 457.49 21.07C457.49 21.07 457.49 21.76 457.49 23.14C457.55 24.46 457.58 26.2 457.58 28.36C457.58 30.46 457.61 32.71 457.67 35.11C457.73 37.51 457.76 39.82 457.76 42.04C457.76 44.2 457.76 46.03 457.76 47.53C457.82 48.97 457.85 49.81 457.85 50.05C457.85 50.47 457.7 51.07 457.4 51.85C457.16 52.63 456.47 53.35 455.33 54.01C454.25 54.67 452.45 55 449.93 55C448.07 55 446.63 54.79 445.61 54.37C444.59 53.89 443.84 53.38 443.36 52.84C442.94 52.24 442.7 51.73 442.64 51.31C442.58 50.83 442.55 50.59 442.55 50.59L441.83 5.86ZM479.735 49.06C478.895 46.54 478.025 43.96 477.125 41.32C476.225 38.62 475.355 36.07 474.515 33.67C473.735 31.21 473.045 29.08 472.445 27.28C471.845 25.48 471.425 24.22 471.185 23.5C470.705 22 470.975 20.74 471.995 19.72C473.015 18.7 474.995 18.19 477.935 18.19C479.915 18.19 481.385 18.49 482.345 19.09C483.305 19.63 483.905 20.2 484.145 20.8C484.445 21.34 484.595 21.61 484.595 21.61L488.375 37.09L489.005 42.31L490.445 35.02C490.445 35.02 490.595 34.6 490.895 33.76C491.195 32.86 491.585 31.78 492.065 30.52C492.545 29.2 493.025 27.88 493.505 26.56C493.985 25.18 494.405 24.01 494.765 23.05C495.485 21.13 496.445 19.87 497.645 19.27C498.905 18.61 501.095 18.34 504.215 18.46C505.775 18.52 506.915 18.82 507.635 19.36C508.355 19.84 508.775 20.41 508.895 21.07C509.075 21.67 509.105 22.21 508.985 22.69C508.925 23.17 508.895 23.41 508.895 23.41L496.205 50.41C496.205 50.41 495.965 50.8 495.485 51.58C495.005 52.3 494.195 53.05 493.055 53.83C491.975 54.61 490.415 55 488.375 55C486.695 55 485.285 54.7 484.145 54.1C483.065 53.5 482.195 52.81 481.535 52.03C480.875 51.25 480.395 50.56 480.095 49.96C479.855 49.36 479.735 49.06 479.735 49.06ZM521.557 17.11C521.557 17.11 521.167 17.11 520.387 17.11C519.607 17.05 518.677 16.87 517.597 16.57C516.577 16.21 515.647 15.58 514.807 14.68C513.967 13.78 513.517 12.43 513.457 10.63C513.397 8.83 513.667 7.51 514.267 6.67C514.867 5.77 515.617 5.17 516.517 4.87C517.417 4.51 518.287 4.33 519.127 4.33C519.967 4.27 520.567 4.21 520.927 4.15C521.287 4.09 521.887 4.15 522.727 4.33C523.567 4.45 524.437 4.78 525.337 5.32C526.237 5.8 526.987 6.55 527.587 7.57C528.187 8.53 528.427 9.82 528.307 11.44C528.187 13 527.767 14.2 527.047 15.04C526.387 15.82 525.607 16.36 524.707 16.66C523.867 16.9 523.117 17.05 522.457 17.11C521.857 17.11 521.557 17.11 521.557 17.11ZM518.407 49.42L516.247 28.9C516.247 28.9 516.097 28.6 515.797 28C515.557 27.34 515.377 26.89 515.257 26.65C515.197 26.47 515.077 26.11 514.897 25.57C514.777 24.97 514.927 24.34 515.347 23.68C515.827 23.02 516.847 22.54 518.407 22.24C520.027 21.94 521.707 21.85 523.447 21.97C525.187 22.09 526.717 22.63 528.037 23.59C529.417 24.49 530.257 26.08 530.557 28.36C530.797 30.04 531.037 32.05 531.277 34.39C531.517 36.67 531.727 38.92 531.907 41.14C532.147 43.3 532.327 45.13 532.447 46.63C532.627 48.07 532.717 48.79 532.717 48.79C532.717 48.79 532.747 49.12 532.807 49.78C532.867 50.38 532.777 51.1 532.537 51.94C532.297 52.72 531.697 53.44 530.737 54.1C529.837 54.7 528.367 55 526.327 55C524.287 55 522.727 54.73 521.647 54.19C520.567 53.59 519.787 52.93 519.307 52.21C518.887 51.49 518.617 50.86 518.497 50.32C518.437 49.72 518.407 49.42 518.407 49.42ZM573.809 27.82C573.629 30.82 572.789 33.25 571.289 35.11C569.789 36.91 567.959 38.29 565.799 39.25C563.699 40.15 561.599 40.78 559.499 41.14C557.399 41.44 555.629 41.59 554.189 41.59C552.809 41.59 552.119 41.59 552.119 41.59C552.479 43.69 552.989 45.19 553.649 46.09C554.309 46.99 555.029 47.5 555.809 47.62C556.649 47.74 557.429 47.68 558.149 47.44C558.869 47.14 559.439 46.81 559.859 46.45C560.339 46.09 560.579 45.91 560.579 45.91C560.579 45.91 560.909 45.64 561.569 45.1C562.229 44.56 563.249 44.05 564.629 43.57C566.069 43.03 567.869 42.76 570.029 42.76C572.489 42.76 574.139 43.09 574.979 43.75C575.879 44.35 576.299 45.07 576.239 45.91C576.239 46.69 576.059 47.41 575.699 48.07C575.399 48.67 575.249 48.97 575.249 48.97C575.249 48.97 574.979 49.27 574.439 49.87C573.959 50.41 573.059 51.07 571.739 51.85C570.419 52.63 568.589 53.35 566.249 54.01C563.909 54.61 560.909 54.94 557.249 55C553.709 55.06 550.739 54.58 548.339 53.56C545.939 52.54 543.959 51.22 542.399 49.6C540.839 47.92 539.639 46.18 538.799 44.38C538.019 42.52 537.449 40.81 537.089 39.25C536.789 37.63 536.639 36.37 536.639 35.47C536.639 34.57 536.699 33.4 536.819 31.96C536.999 30.52 537.389 29.02 537.989 27.46C538.649 25.84 539.639 24.31 540.959 22.87C542.279 21.43 544.079 20.26 546.359 19.36C548.699 18.46 551.669 17.98 555.269 17.92C559.769 17.86 563.279 18.25 565.799 19.09C568.319 19.93 570.149 20.95 571.289 22.15C572.429 23.35 573.119 24.49 573.359 25.57C573.659 26.65 573.809 27.4 573.809 27.82ZM550.859 35.38C554.519 35.08 557.249 34.3 559.049 33.04C560.849 31.78 561.899 30.37 562.199 28.81C562.499 27.25 562.199 25.93 561.299 24.85C560.459 23.71 559.169 23.2 557.429 23.32C555.689 23.38 554.369 24.04 553.469 25.3C552.569 26.5 551.939 27.91 551.579 29.53C551.219 31.09 551.009 32.47 550.949 33.67C550.889 34.81 550.859 35.38 550.859 35.38ZM587.079 19.45C589.119 19.27 590.709 19.36 591.849 19.72C593.049 20.02 593.919 20.44 594.459 20.98C595.059 21.52 595.419 22.03 595.539 22.51C595.719 22.93 595.809 23.14 595.809 23.14L600.399 39.88L602.649 33.31C602.649 33.31 602.829 32.95 603.189 32.23C603.609 31.51 604.359 30.79 605.439 30.07C606.519 29.35 608.079 29.02 610.119 29.08C612.219 29.08 613.749 29.41 614.709 30.07C615.729 30.73 616.389 31.39 616.689 32.05C617.049 32.71 617.229 33.04 617.229 33.04L619.569 39.7C619.569 39.7 619.719 39.16 620.019 38.08C620.379 36.94 620.829 35.53 621.369 33.85C621.909 32.11 622.449 30.37 622.989 28.63C623.529 26.89 623.979 25.36 624.339 24.04C624.759 22.66 625.029 21.79 625.149 21.43C625.329 20.83 625.659 20.23 626.139 19.63C626.619 19.03 627.459 18.55 628.659 18.19C629.919 17.77 631.749 17.65 634.149 17.83C635.949 17.95 637.269 18.25 638.109 18.73C638.949 19.21 639.489 19.75 639.729 20.35C639.969 20.95 640.059 21.46 639.999 21.88C639.939 22.3 639.909 22.51 639.909 22.51C639.909 22.51 639.669 23.14 639.189 24.4C638.769 25.66 638.199 27.28 637.479 29.26C636.759 31.24 635.979 33.37 635.139 35.65C634.359 37.93 633.579 40.12 632.799 42.22C632.079 44.32 631.449 46.12 630.909 47.62C630.369 49.06 630.039 49.93 629.919 50.23C629.679 50.83 629.289 51.52 628.749 52.3C628.269 53.02 627.519 53.65 626.499 54.19C625.539 54.73 624.129 55 622.269 55C620.469 55 618.999 54.79 617.859 54.37C616.779 53.95 615.969 53.53 615.429 53.11C614.949 52.69 614.709 52.48 614.709 52.48L609.669 44.92L605.439 51.58C605.439 51.58 605.259 51.88 604.899 52.48C604.539 53.02 603.789 53.59 602.649 54.19C601.509 54.73 599.739 55 597.339 55C595.539 55 594.129 54.73 593.109 54.19C592.089 53.65 591.309 53.05 590.769 52.39C590.289 51.73 589.959 51.13 589.779 50.59C589.659 50.05 589.599 49.78 589.599 49.78C589.599 49.78 589.389 49.12 588.969 47.8C588.549 46.48 587.979 44.8 587.259 42.76C586.599 40.72 585.879 38.59 585.099 36.37C584.379 34.09 583.659 31.96 582.939 29.98C582.279 28 581.739 26.44 581.319 25.3C580.779 23.92 580.689 22.84 581.049 22.06C581.469 21.28 582.069 20.71 582.849 20.35C583.629 19.99 584.439 19.78 585.279 19.72C586.119 19.6 586.719 19.51 587.079 19.45ZM650.362 64.99C648.082 64.87 646.432 64.54 645.412 64C644.452 63.46 643.882 62.86 643.702 62.2C643.582 61.54 643.612 60.94 643.792 60.4C643.972 59.92 644.062 59.68 644.062 59.68C644.062 59.68 644.212 59.38 644.512 58.78C644.872 58.18 645.292 57.46 645.772 56.62C646.252 55.78 646.702 55 647.122 54.28C647.542 53.56 647.812 53.08 647.932 52.84C648.232 52.36 648.382 51.88 648.382 51.4C648.442 50.92 648.472 50.68 648.472 50.68C648.472 50.68 648.442 50.5 648.382 50.14C648.382 49.72 648.562 49.27 648.922 48.79C649.282 48.25 650.032 47.8 651.172 47.44C652.372 47.08 654.142 46.96 656.482 47.08C658.822 47.14 660.502 47.47 661.522 48.07C662.602 48.67 663.232 49.33 663.412 50.05C663.592 50.71 663.592 51.31 663.412 51.85C663.292 52.39 663.232 52.66 663.232 52.66C663.232 52.66 662.992 53.17 662.512 54.19C662.032 55.21 661.402 56.44 660.622 57.88C659.902 59.32 659.122 60.67 658.282 61.93C657.562 63.01 656.632 63.76 655.492 64.18C654.412 64.66 653.362 64.9 652.342 64.9C651.382 64.96 650.722 64.99 650.362 64.99Z" fill="#F1635F"/>
</svg>
