<svg width="402" height="166" viewBox="0 0 402 166" fill="none" xmlns="http://www.w3.org/2000/svg">
<path d="M8.82 10.76C8.82 10.76 9.24 10.76 10.08 10.76C10.92 10.7 11.91 10.85 13.05 11.21C14.19 11.51 15.21 12.14 16.11 13.1C17.07 14 17.64 15.41 17.82 17.33C17.94 18.83 18.18 20.78 18.54 23.18C18.9 25.52 19.29 27.98 19.71 30.56C20.13 33.14 20.52 35.57 20.88 37.85C21.3 40.07 21.63 41.9 21.87 43.34C22.17 44.78 22.32 45.5 22.32 45.5L26.19 31.1C26.19 31.1 26.34 30.68 26.64 29.84C26.94 28.94 27.48 28.07 28.26 27.23C29.1 26.39 30.33 25.97 31.95 25.97C33.57 25.97 34.8 26.3 35.64 26.96C36.48 27.56 37.08 28.31 37.44 29.21C37.86 30.11 38.19 30.98 38.43 31.82C38.61 32.42 38.88 33.44 39.24 34.88C39.66 36.26 40.05 37.73 40.41 39.29C40.83 40.85 41.19 42.17 41.49 43.25C41.79 44.33 41.94 44.87 41.94 44.87L42.75 37.4L46.53 10.94C46.53 10.94 46.71 10.55 47.07 9.77C47.49 8.93 48.27 8.12 49.41 7.34C50.61 6.56 52.38 6.26 54.72 6.44C58.26 6.68 60.42 7.4 61.2 8.6C62.04 9.8 62.16 11.27 61.56 13.01C61.26 13.85 60.81 15.68 60.21 18.5C59.61 21.26 58.92 24.59 58.14 28.49C57.36 32.39 56.61 36.5 55.89 40.82C55.17 45.08 54.54 49.13 54 52.97C53.76 54.95 53.22 56.48 52.38 57.56C51.6 58.58 50.76 59.3 49.86 59.72C48.96 60.14 48.18 60.38 47.52 60.44C46.86 60.5 46.53 60.53 46.53 60.53C46.53 60.53 46.14 60.53 45.36 60.53C44.58 60.59 43.62 60.47 42.48 60.17C41.4 59.87 40.32 59.24 39.24 58.28C38.22 57.32 37.41 55.82 36.81 53.78C35.67 49.7 34.68 46.28 33.84 43.52C33 40.76 32.58 39.38 32.58 39.38L27.54 54.68C27.54 54.68 27.36 55.04 27 55.76C26.64 56.48 25.92 57.2 24.84 57.92C23.82 58.64 22.29 59 20.25 59C17.19 59 15.06 58.52 13.86 57.56C12.72 56.54 11.82 54.92 11.16 52.7C10.98 51.92 10.62 50.54 10.08 48.56C9.54 46.52 8.94 44.15 8.28 41.45C7.62 38.75 6.93 35.99 6.21 33.17C5.49 30.29 4.83 27.65 4.23 25.25C3.63 22.79 3.12 20.81 2.7 19.31C2.34 17.75 2.16 16.97 2.16 16.97C2.16 16.97 2.1 16.7 1.98 16.16C1.86 15.62 1.92 14.99 2.16 14.27C2.4 13.49 3 12.77 3.96 12.11C4.98 11.45 6.6 11 8.82 10.76ZM102.586 31.82C102.406 34.82 101.566 37.25 100.066 39.11C98.5659 40.91 96.7359 42.29 94.5759 43.25C92.4759 44.15 90.3759 44.78 88.2759 45.14C86.1759 45.44 84.4059 45.59 82.9659 45.59C81.5859 45.59 80.8959 45.59 80.8959 45.59C81.2559 47.69 81.7659 49.19 82.4259 50.09C83.0859 50.99 83.8059 51.5 84.5859 51.62C85.4259 51.74 86.2059 51.68 86.9259 51.44C87.6459 51.14 88.2159 50.81 88.6359 50.45C89.1159 50.09 89.3559 49.91 89.3559 49.91C89.3559 49.91 89.6859 49.64 90.3459 49.1C91.0059 48.56 92.0259 48.05 93.4059 47.57C94.8459 47.03 96.6459 46.76 98.8059 46.76C101.266 46.76 102.916 47.09 103.756 47.75C104.656 48.35 105.076 49.07 105.016 49.91C105.016 50.69 104.836 51.41 104.476 52.07C104.176 52.67 104.026 52.97 104.026 52.97C104.026 52.97 103.756 53.27 103.216 53.87C102.736 54.41 101.836 55.07 100.516 55.85C99.1959 56.63 97.3659 57.35 95.0259 58.01C92.6859 58.61 89.6859 58.94 86.0259 59C82.4859 59.06 79.5159 58.58 77.1159 57.56C74.7159 56.54 72.7359 55.22 71.1759 53.6C69.6159 51.92 68.4159 50.18 67.5759 48.38C66.7959 46.52 66.2259 44.81 65.8659 43.25C65.5659 41.63 65.4159 40.37 65.4159 39.47C65.4159 38.57 65.4759 37.4 65.5959 35.96C65.7759 34.52 66.1659 33.02 66.7659 31.46C67.4259 29.84 68.4159 28.31 69.7359 26.87C71.0559 25.43 72.8559 24.26 75.1359 23.36C77.4759 22.46 80.4459 21.98 84.0459 21.92C88.5459 21.86 92.0559 22.25 94.5759 23.09C97.0959 23.93 98.9259 24.95 100.066 26.15C101.206 27.35 101.896 28.49 102.136 29.57C102.436 30.65 102.586 31.4 102.586 31.82ZM79.6359 39.38C83.2959 39.08 86.0259 38.3 87.8259 37.04C89.6259 35.78 90.6759 34.37 90.9759 32.81C91.2759 31.25 90.9759 29.93 90.0759 28.85C89.2359 27.71 87.9459 27.2 86.2059 27.32C84.4659 27.38 83.1459 28.04 82.2459 29.3C81.3459 30.5 80.7159 31.91 80.3559 33.53C79.9959 35.09 79.7859 36.47 79.7259 37.67C79.6659 38.81 79.6359 39.38 79.6359 39.38ZM142.565 59C140.285 59 138.635 58.67 137.615 58.01C136.595 57.29 135.965 56.6 135.725 55.94C135.485 55.28 135.365 54.95 135.365 54.95C135.365 54.95 135.335 54.23 135.275 52.79C135.275 51.29 135.245 49.34 135.185 46.94C135.185 44.54 135.155 41.9 135.095 39.02C135.035 36.14 134.975 33.26 134.915 30.38C134.915 27.5 134.885 24.86 134.825 22.46C134.765 20.06 134.705 18.14 134.645 16.7C134.645 15.2 134.645 14.45 134.645 14.45C134.585 14.45 134.255 14.15 133.655 13.55C133.115 12.95 132.815 12.32 132.755 11.66C132.755 11.18 133.325 10.49 134.465 9.59C135.605 8.69 137.525 7.94 140.225 7.34C142.985 6.68 146.765 6.56 151.565 6.98C155.885 7.34 159.275 8.06 161.735 9.14C164.255 10.16 166.085 11.27 167.225 12.47C168.365 13.61 169.085 14.63 169.385 15.53C169.685 16.37 169.835 16.79 169.835 16.79C169.835 16.79 169.865 16.88 169.925 17.06C170.045 17.24 170.135 17.81 170.195 18.77C170.315 19.67 170.405 21.17 170.465 23.27C170.525 25.37 170.525 28.31 170.465 32.09C170.405 35.15 169.685 37.58 168.305 39.38C166.985 41.18 165.335 42.53 163.355 43.43C161.375 44.27 159.395 44.84 157.415 45.14C155.495 45.38 153.875 45.5 152.555 45.5C151.235 45.44 150.575 45.41 150.575 45.41C150.575 45.41 150.575 46.07 150.575 47.39C150.635 48.65 150.635 50.78 150.575 53.78C150.575 55.28 150.155 56.42 149.315 57.2C148.535 57.92 147.605 58.4 146.525 58.64C145.505 58.88 144.575 59 143.735 59C142.955 59 142.565 59 142.565 59ZM149.675 15.35L150.485 37.67C150.485 37.67 150.875 37.64 151.655 37.58C152.435 37.46 153.335 37.16 154.355 36.68C155.375 36.2 156.245 35.39 156.965 34.25C157.745 33.05 158.075 31.37 157.955 29.21C157.835 26.33 157.715 24.17 157.595 22.73C157.475 21.29 157.385 20.36 157.325 19.94C157.325 19.46 157.325 19.22 157.325 19.22C157.325 19.22 157.265 18.98 157.145 18.5C157.085 17.96 156.845 17.39 156.425 16.79C156.005 16.19 155.255 15.74 154.175 15.44C153.155 15.08 151.655 15.05 149.675 15.35ZM178.379 52.88C178.379 52.22 178.289 51.08 178.109 49.46C177.929 47.84 177.689 46.01 177.389 43.97C177.149 41.87 176.879 39.8 176.579 37.76C176.279 35.66 175.949 33.8 175.589 32.18C175.289 30.5 175.019 29.3 174.779 28.58C174.179 26.78 174.509 25.52 175.769 24.8C177.089 24.02 178.919 23.51 181.259 23.27C183.599 23.03 185.279 23.21 186.299 23.81C187.379 24.35 187.919 24.62 187.919 24.62C188.819 23.72 190.289 23.09 192.329 22.73C194.429 22.37 196.619 22.22 198.899 22.28C201.839 22.34 203.969 22.79 205.289 23.63C206.609 24.47 207.269 25.37 207.269 26.33C207.269 27.05 207.179 27.59 206.999 27.95C206.819 28.31 206.099 28.67 204.839 29.03C203.639 29.33 201.449 29.87 198.269 30.65C196.409 31.07 195.029 32.09 194.129 33.71C193.229 35.27 192.659 37.1 192.419 39.2C192.239 41.24 192.239 43.28 192.419 45.32C192.599 47.3 192.809 48.98 193.049 50.36C193.289 51.68 193.409 52.4 193.409 52.52C193.409 52.64 193.439 53.06 193.499 53.78C193.619 54.44 193.529 55.19 193.229 56.03C192.989 56.81 192.359 57.5 191.339 58.1C190.319 58.7 188.699 59 186.479 59C184.259 59 182.579 58.7 181.439 58.1C180.299 57.44 179.519 56.72 179.099 55.94C178.679 55.16 178.439 54.47 178.379 53.87C178.379 53.21 178.379 52.88 178.379 52.88ZM230.328 22.46C232.548 22.28 234.258 22.52 235.458 23.18C236.658 23.84 237.378 24.23 237.618 24.35C238.218 24.65 238.758 24.98 239.238 25.34C239.778 25.7 240.048 25.88 240.048 25.88C240.048 25.88 240.498 26.03 241.398 26.33C242.298 26.63 243.348 27.35 244.548 28.49C245.748 29.57 246.858 31.28 247.878 33.62C248.898 35.96 249.498 39.14 249.678 43.16C249.798 45.86 249.378 48.14 248.418 50C247.458 51.8 246.168 53.3 244.548 54.5C242.988 55.64 241.278 56.54 239.418 57.2C237.618 57.8 235.878 58.22 234.198 58.46C232.578 58.7 231.228 58.85 230.148 58.91C229.128 58.97 228.618 59 228.618 59C228.618 59 228.018 59 226.818 59C225.678 59 224.238 58.82 222.498 58.46C220.758 58.04 219.018 57.26 217.278 56.12C215.598 54.92 214.188 53.18 213.048 50.9C211.968 48.62 211.488 45.59 211.608 41.81C211.728 38.03 212.418 34.94 213.678 32.54C214.998 30.08 216.558 28.16 218.358 26.78C220.218 25.4 222.048 24.41 223.848 23.81C225.708 23.21 227.238 22.85 228.438 22.73C229.698 22.55 230.328 22.46 230.328 22.46ZM230.688 31.28C230.688 31.28 230.298 31.76 229.518 32.72C228.798 33.68 228.048 35.03 227.268 36.77C226.548 38.51 226.188 40.55 226.188 42.89C226.188 45.17 226.458 46.97 226.998 48.29C227.538 49.61 228.108 50.57 228.708 51.17C229.368 51.71 229.878 51.98 230.238 51.98C230.598 51.98 231.168 51.83 231.948 51.53C232.788 51.17 233.538 50.39 234.198 49.19C234.858 47.99 235.158 46.1 235.098 43.52C235.038 41.36 234.798 39.62 234.378 38.3C234.018 36.98 233.508 35.81 232.848 34.79C232.248 33.71 231.528 32.54 230.688 31.28ZM261.726 53.06C260.886 50.54 260.016 47.96 259.116 45.32C258.216 42.62 257.346 40.07 256.506 37.67C255.726 35.21 255.036 33.08 254.436 31.28C253.836 29.48 253.416 28.22 253.176 27.5C252.696 26 252.966 24.74 253.986 23.72C255.006 22.7 256.986 22.19 259.926 22.19C261.906 22.19 263.376 22.49 264.336 23.09C265.296 23.63 265.896 24.2 266.136 24.8C266.436 25.34 266.586 25.61 266.586 25.61L270.366 41.09L270.996 46.31L272.436 39.02C272.436 39.02 272.586 38.6 272.886 37.76C273.186 36.86 273.576 35.78 274.056 34.52C274.536 33.2 275.016 31.88 275.496 30.56C275.976 29.18 276.396 28.01 276.756 27.05C277.476 25.13 278.436 23.87 279.636 23.27C280.896 22.61 283.086 22.34 286.206 22.46C287.766 22.52 288.906 22.82 289.626 23.36C290.346 23.84 290.766 24.41 290.886 25.07C291.066 25.67 291.096 26.21 290.976 26.69C290.916 27.17 290.886 27.41 290.886 27.41L278.196 54.41C278.196 54.41 277.956 54.8 277.476 55.58C276.996 56.3 276.186 57.05 275.046 57.83C273.966 58.61 272.406 59 270.366 59C268.686 59 267.276 58.7 266.136 58.1C265.056 57.5 264.186 56.81 263.526 56.03C262.866 55.25 262.386 54.56 262.086 53.96C261.846 53.36 261.726 53.06 261.726 53.06ZM303.547 21.11C303.547 21.11 303.157 21.11 302.377 21.11C301.597 21.05 300.667 20.87 299.587 20.57C298.567 20.21 297.637 19.58 296.797 18.68C295.957 17.78 295.507 16.43 295.447 14.63C295.387 12.83 295.657 11.51 296.257 10.67C296.857 9.77 297.607 9.17 298.507 8.87C299.407 8.51 300.277 8.33 301.117 8.33C301.957 8.27 302.557 8.21 302.917 8.15C303.277 8.09 303.877 8.15 304.717 8.33C305.557 8.45 306.427 8.78 307.327 9.32C308.227 9.8 308.977 10.55 309.577 11.57C310.177 12.53 310.417 13.82 310.297 15.44C310.177 17 309.757 18.2 309.037 19.04C308.377 19.82 307.597 20.36 306.697 20.66C305.857 20.9 305.107 21.05 304.447 21.11C303.847 21.11 303.547 21.11 303.547 21.11ZM300.397 53.42L298.237 32.9C298.237 32.9 298.087 32.6 297.787 32C297.547 31.34 297.367 30.89 297.247 30.65C297.187 30.47 297.067 30.11 296.887 29.57C296.767 28.97 296.917 28.34 297.337 27.68C297.817 27.02 298.837 26.54 300.397 26.24C302.017 25.94 303.697 25.85 305.437 25.97C307.177 26.09 308.707 26.63 310.027 27.59C311.407 28.49 312.247 30.08 312.547 32.36C312.787 34.04 313.027 36.05 313.267 38.39C313.507 40.67 313.717 42.92 313.897 45.14C314.137 47.3 314.317 49.13 314.437 50.63C314.617 52.07 314.707 52.79 314.707 52.79C314.707 52.79 314.737 53.12 314.797 53.78C314.857 54.38 314.767 55.1 314.527 55.94C314.287 56.72 313.687 57.44 312.727 58.1C311.827 58.7 310.357 59 308.317 59C306.277 59 304.717 58.73 303.637 58.19C302.557 57.59 301.777 56.93 301.297 56.21C300.877 55.49 300.607 54.86 300.487 54.32C300.427 53.72 300.397 53.42 300.397 53.42ZM349.589 0.319999C349.589 0.319999 349.949 0.379998 350.669 0.499997C351.449 0.559996 352.319 0.739995 353.279 1.04C354.239 1.28 355.109 1.7 355.889 2.3C356.729 2.84 357.179 3.62 357.239 4.64C357.299 5.3 357.389 6.74 357.509 8.96C357.629 11.12 357.749 13.7 357.869 16.7C358.049 19.7 358.199 22.82 358.319 26.06C358.499 29.24 358.649 32.24 358.769 35.06C358.889 37.82 358.979 40.07 359.039 41.81C359.159 43.55 359.219 44.42 359.219 44.42C359.219 44.42 359.189 44.78 359.129 45.5C359.129 46.22 358.949 47.12 358.589 48.2C358.289 49.28 357.719 50.33 356.879 51.35C355.079 53.57 352.799 55.4 350.039 56.84C347.279 58.28 343.499 59 338.699 59C335.519 59 332.459 58.4 329.519 57.2C326.639 56 324.269 54.11 322.409 51.53C320.609 48.89 319.739 45.47 319.799 41.27C319.859 38.09 320.549 35.3 321.869 32.9C323.249 30.5 325.049 28.52 327.269 26.96C329.489 25.34 331.949 24.14 334.649 23.36C337.409 22.58 340.169 22.19 342.929 22.19L342.299 6.62C342.299 6.62 342.239 6.35 342.119 5.81C341.999 5.21 342.059 4.52 342.299 3.74C342.599 2.96 343.289 2.24 344.369 1.58C345.449 0.919997 347.189 0.499997 349.589 0.319999ZM343.199 30.02C341.819 29.9 340.499 30.41 339.239 31.55C337.979 32.69 336.929 34.16 336.089 35.96C335.309 37.7 334.919 39.44 334.919 41.18C334.919 43.76 335.339 45.98 336.179 47.84C337.079 49.7 338.249 50.63 339.689 50.63C340.649 50.63 341.459 50.24 342.119 49.46C342.779 48.68 343.289 47.9 343.649 47.12C344.009 46.28 344.189 45.86 344.189 45.86L343.199 30.02ZM398.777 31.82C398.597 34.82 397.757 37.25 396.257 39.11C394.757 40.91 392.927 42.29 390.767 43.25C388.667 44.15 386.567 44.78 384.467 45.14C382.367 45.44 380.597 45.59 379.157 45.59C377.777 45.59 377.087 45.59 377.087 45.59C377.447 47.69 377.957 49.19 378.617 50.09C379.277 50.99 379.997 51.5 380.777 51.62C381.617 51.74 382.397 51.68 383.117 51.44C383.837 51.14 384.407 50.81 384.827 50.45C385.307 50.09 385.547 49.91 385.547 49.91C385.547 49.91 385.877 49.64 386.537 49.1C387.197 48.56 388.217 48.05 389.597 47.57C391.037 47.03 392.837 46.76 394.997 46.76C397.457 46.76 399.107 47.09 399.947 47.75C400.847 48.35 401.267 49.07 401.207 49.91C401.207 50.69 401.027 51.41 400.667 52.07C400.367 52.67 400.217 52.97 400.217 52.97C400.217 52.97 399.947 53.27 399.407 53.87C398.927 54.41 398.027 55.07 396.707 55.85C395.387 56.63 393.557 57.35 391.217 58.01C388.877 58.61 385.877 58.94 382.217 59C378.677 59.06 375.707 58.58 373.307 57.56C370.907 56.54 368.927 55.22 367.367 53.6C365.807 51.92 364.607 50.18 363.767 48.38C362.987 46.52 362.417 44.81 362.057 43.25C361.757 41.63 361.607 40.37 361.607 39.47C361.607 38.57 361.667 37.4 361.787 35.96C361.967 34.52 362.357 33.02 362.957 31.46C363.617 29.84 364.607 28.31 365.927 26.87C367.247 25.43 369.047 24.26 371.327 23.36C373.667 22.46 376.637 21.98 380.237 21.92C384.737 21.86 388.247 22.25 390.767 23.09C393.287 23.93 395.117 24.95 396.257 26.15C397.397 27.35 398.087 28.49 398.327 29.57C398.627 30.65 398.777 31.4 398.777 31.82ZM375.827 39.38C379.487 39.08 382.217 38.3 384.017 37.04C385.817 35.78 386.867 34.37 387.167 32.81C387.467 31.25 387.167 29.93 386.267 28.85C385.427 27.71 384.137 27.2 382.397 27.32C380.657 27.38 379.337 28.04 378.437 29.3C377.537 30.5 376.907 31.91 376.547 33.53C376.187 35.09 375.977 36.47 375.917 37.67C375.857 38.81 375.827 39.38 375.827 39.38ZM7.29 138.97C7.29 138.91 7.05 138.55 6.57 137.89C6.15 137.17 5.64 136 5.04 134.38C4.44 132.7 3.87 130.39 3.33 127.45C2.79 124.45 2.37 120.67 2.07 116.11C1.95 113.71 2.28 112 3.06 110.98C3.9 109.96 4.95 109.33 6.21 109.09C7.47 108.79 8.67 108.64 9.81 108.64C9.81 108.64 10.14 108.64 10.8 108.64C11.52 108.58 12.33 108.64 13.23 108.82C14.13 108.94 14.91 109.33 15.57 109.99C16.29 110.59 16.68 111.55 16.74 112.87C16.8 113.95 16.86 115.42 16.92 117.28C16.98 119.14 17.07 121.15 17.19 123.31C17.37 125.41 17.64 127.45 18 129.43C18.36 131.41 18.81 133.06 19.35 134.38C19.95 135.64 20.7 136.33 21.6 136.45C22.5 136.57 23.1 136.06 23.4 134.92C23.7 133.72 23.79 132.22 23.67 130.42C23.61 128.62 23.43 126.82 23.13 125.02C22.89 123.16 22.65 121.6 22.41 120.34C22.17 119.08 22.05 118.45 22.05 118.45C22.05 118.45 21.93 118.09 21.69 117.37C21.45 116.59 21.36 115.72 21.42 114.76C21.48 113.8 21.9 112.93 22.68 112.15C23.46 111.37 24.84 110.95 26.82 110.89C29.52 110.77 31.53 111.04 32.85 111.7C34.23 112.36 35.16 113.2 35.64 114.22C36.18 115.24 36.51 116.29 36.63 117.37C36.75 117.97 36.96 119.41 37.26 121.69C37.62 123.91 38.01 126.55 38.43 129.61C38.85 132.61 39.18 135.73 39.42 138.97C39.66 142.15 39.75 145.06 39.69 147.7C39.63 150.34 39.27 152.35 38.61 153.73C37.59 155.95 36.18 157.99 34.38 159.85C32.64 161.77 30.3 163.24 27.36 164.26C24.48 165.34 20.79 165.76 16.29 165.52C12.93 165.34 10.23 164.8 8.19 163.9C6.15 163.06 4.62 162.13 3.6 161.11C2.58 160.15 1.89 159.28 1.53 158.5C1.23 157.78 1.08 157.42 1.08 157.42C1.08 157.42 0.96 157.09 0.72 156.43C0.54 155.77 0.51 154.99 0.63 154.09C0.81 153.25 1.38 152.5 2.34 151.84C3.3 151.24 4.98 150.97 7.38 151.03C9.78 151.09 11.52 151.3 12.6 151.66C13.68 152.08 14.37 152.53 14.67 153.01C14.97 153.49 15.06 153.91 14.94 154.27C14.88 154.63 14.85 154.81 14.85 154.81C14.85 154.81 14.85 155.14 14.85 155.8C14.85 156.46 15.06 157.09 15.48 157.69C15.96 158.29 16.8 158.56 18 158.5C19.26 158.38 20.61 157.81 22.05 156.79C23.49 155.83 24.57 154.36 25.29 152.38C26.07 150.4 26.01 147.94 25.11 145C25.11 145 24.54 145.09 23.4 145.27C22.26 145.45 20.76 145.45 18.9 145.27C17.1 145.15 15.15 144.64 13.05 143.74C11.01 142.78 9.09 141.19 7.29 138.97ZM62.6323 108.46C64.8523 108.28 66.5623 108.52 67.7623 109.18C68.9623 109.84 69.6823 110.23 69.9223 110.35C70.5223 110.65 71.0623 110.98 71.5423 111.34C72.0823 111.7 72.3523 111.88 72.3523 111.88C72.3523 111.88 72.8023 112.03 73.7023 112.33C74.6023 112.63 75.6523 113.35 76.8523 114.49C78.0523 115.57 79.1623 117.28 80.1823 119.62C81.2023 121.96 81.8023 125.14 81.9823 129.16C82.1023 131.86 81.6823 134.14 80.7223 136C79.7623 137.8 78.4723 139.3 76.8523 140.5C75.2923 141.64 73.5823 142.54 71.7223 143.2C69.9223 143.8 68.1823 144.22 66.5023 144.46C64.8823 144.7 63.5323 144.85 62.4523 144.91C61.4323 144.97 60.9223 145 60.9223 145C60.9223 145 60.3223 145 59.1223 145C57.9823 145 56.5423 144.82 54.8023 144.46C53.0623 144.04 51.3223 143.26 49.5823 142.12C47.9023 140.92 46.4923 139.18 45.3523 136.9C44.2723 134.62 43.7923 131.59 43.9123 127.81C44.0323 124.03 44.7223 120.94 45.9823 118.54C47.3023 116.08 48.8623 114.16 50.6623 112.78C52.5223 111.4 54.3523 110.41 56.1523 109.81C58.0123 109.21 59.5423 108.85 60.7423 108.73C62.0023 108.55 62.6323 108.46 62.6323 108.46ZM62.9923 117.28C62.9923 117.28 62.6023 117.76 61.8223 118.72C61.1023 119.68 60.3523 121.03 59.5723 122.77C58.8523 124.51 58.4923 126.55 58.4923 128.89C58.4923 131.17 58.7623 132.97 59.3023 134.29C59.8423 135.61 60.4123 136.57 61.0123 137.17C61.6723 137.71 62.1823 137.98 62.5423 137.98C62.9023 137.98 63.4723 137.83 64.2523 137.53C65.0923 137.17 65.8423 136.39 66.5023 135.19C67.1623 133.99 67.4623 132.1 67.4023 129.52C67.3423 127.36 67.1023 125.62 66.6823 124.3C66.3223 122.98 65.8123 121.81 65.1523 120.79C64.5523 119.71 63.8323 118.54 62.9923 117.28ZM85.3903 113.86C85.3903 113.86 85.3903 113.59 85.3903 113.05C85.4503 112.51 85.6603 111.91 86.0203 111.25C86.3803 110.53 87.0403 109.9 88.0003 109.36C89.0203 108.82 90.4603 108.55 92.3203 108.55C94.6003 108.55 96.2203 108.88 97.1803 109.54C98.2003 110.14 98.8003 110.89 98.9803 111.79C99.2203 112.63 99.2803 113.47 99.1603 114.31C99.0403 115.09 98.9803 115.63 98.9803 115.93C98.9803 116.17 98.9803 117.07 98.9803 118.63C99.0403 120.13 99.1603 121.93 99.3403 124.03C99.5203 126.13 99.8203 128.2 100.24 130.24C100.66 132.28 101.26 133.99 102.04 135.37C102.82 136.69 103.84 137.32 105.1 137.26C106.36 137.2 107.2 136.54 107.62 135.28C108.04 134.02 108.19 132.46 108.07 130.6C108.01 128.74 107.8 126.88 107.44 125.02C107.08 123.16 106.72 121.57 106.36 120.25C106 118.87 105.82 118.09 105.82 117.91C105.82 117.67 105.73 117.25 105.55 116.65C105.43 115.99 105.43 115.27 105.55 114.49C105.73 113.71 106.24 112.99 107.08 112.33C107.92 111.67 109.3 111.25 111.22 111.07C113.14 110.89 114.64 111.01 115.72 111.43C116.86 111.79 117.67 112.27 118.15 112.87C118.69 113.47 119.02 114.04 119.14 114.58C119.26 115.06 119.32 115.3 119.32 115.3C119.32 115.3 119.53 116.02 119.95 117.46C120.37 118.9 120.76 120.76 121.12 123.04C121.48 125.26 121.6 127.63 121.48 130.15C121.42 132.67 120.88 135.07 119.86 137.35C118.9 139.57 117.28 141.4 115 142.84C112.78 144.28 109.66 145 105.64 145C101.62 145 98.3203 144.25 95.7403 142.75C93.1603 141.25 91.1203 139.33 89.6203 136.99C88.1803 134.59 87.1303 132.07 86.4703 129.43C85.8103 126.79 85.4203 124.3 85.3003 121.96C85.1803 119.56 85.1503 117.61 85.2103 116.11C85.3303 114.61 85.3903 113.86 85.3903 113.86ZM129.248 138.88C129.248 138.22 129.158 137.08 128.978 135.46C128.798 133.84 128.558 132.01 128.258 129.97C128.018 127.87 127.748 125.8 127.448 123.76C127.148 121.66 126.818 119.8 126.458 118.18C126.158 116.5 125.888 115.3 125.648 114.58C125.048 112.78 125.378 111.52 126.638 110.8C127.958 110.02 129.788 109.51 132.128 109.27C134.468 109.03 136.148 109.21 137.168 109.81C138.248 110.35 138.788 110.62 138.788 110.62C139.688 109.72 141.158 109.09 143.198 108.73C145.298 108.37 147.488 108.22 149.768 108.28C152.708 108.34 154.838 108.79 156.158 109.63C157.478 110.47 158.138 111.37 158.138 112.33C158.138 113.05 158.048 113.59 157.868 113.95C157.688 114.31 156.968 114.67 155.708 115.03C154.508 115.33 152.318 115.87 149.138 116.65C147.278 117.07 145.898 118.09 144.998 119.71C144.098 121.27 143.528 123.1 143.288 125.2C143.108 127.24 143.108 129.28 143.288 131.32C143.468 133.3 143.678 134.98 143.918 136.36C144.158 137.68 144.278 138.4 144.278 138.52C144.278 138.64 144.308 139.06 144.368 139.78C144.488 140.44 144.398 141.19 144.098 142.03C143.858 142.81 143.228 143.5 142.208 144.1C141.188 144.7 139.568 145 137.348 145C135.128 145 133.448 144.7 132.308 144.1C131.168 143.44 130.388 142.72 129.968 141.94C129.548 141.16 129.308 140.47 129.248 139.87C129.248 139.21 129.248 138.88 129.248 138.88Z" fill="#101C2D"/>
<path d="M195.036 145C192.756 145 191.106 144.67 190.086 144.01C189.066 143.29 188.436 142.6 188.196 141.94C187.956 141.28 187.836 140.95 187.836 140.95C187.836 140.95 187.806 140.23 187.746 138.79C187.746 137.29 187.716 135.34 187.656 132.94C187.656 130.54 187.626 127.9 187.566 125.02C187.506 122.14 187.446 119.26 187.386 116.38C187.386 113.5 187.356 110.86 187.296 108.46C187.236 106.06 187.176 104.14 187.116 102.7C187.116 101.2 187.116 100.45 187.116 100.45C187.056 100.45 186.726 100.15 186.126 99.55C185.586 98.95 185.286 98.32 185.226 97.66C185.226 97.18 185.796 96.49 186.936 95.59C188.076 94.69 189.996 93.94 192.696 93.34C195.456 92.68 199.236 92.56 204.036 92.98C208.356 93.34 211.746 94.06 214.206 95.14C216.726 96.16 218.556 97.27 219.696 98.47C220.836 99.61 221.556 100.63 221.856 101.53C222.156 102.37 222.306 102.79 222.306 102.79C222.306 102.79 222.336 102.88 222.396 103.06C222.516 103.24 222.606 103.81 222.666 104.77C222.786 105.67 222.876 107.17 222.936 109.27C222.996 111.37 222.996 114.31 222.936 118.09C222.876 121.15 222.156 123.58 220.776 125.38C219.456 127.18 217.806 128.53 215.826 129.43C213.846 130.27 211.866 130.84 209.886 131.14C207.966 131.38 206.346 131.5 205.026 131.5C203.706 131.44 203.046 131.41 203.046 131.41C203.046 131.41 203.046 132.07 203.046 133.39C203.106 134.65 203.106 136.78 203.046 139.78C203.046 141.28 202.626 142.42 201.786 143.2C201.006 143.92 200.076 144.4 198.996 144.64C197.976 144.88 197.046 145 196.206 145C195.426 145 195.036 145 195.036 145ZM202.146 101.35L202.956 123.67C202.956 123.67 203.346 123.64 204.126 123.58C204.906 123.46 205.806 123.16 206.826 122.68C207.846 122.2 208.716 121.39 209.436 120.25C210.216 119.05 210.546 117.37 210.426 115.21C210.306 112.33 210.186 110.17 210.066 108.73C209.946 107.29 209.856 106.36 209.796 105.94C209.796 105.46 209.796 105.22 209.796 105.22C209.796 105.22 209.736 104.98 209.616 104.5C209.556 103.96 209.316 103.39 208.896 102.79C208.476 102.19 207.726 101.74 206.646 101.44C205.626 101.08 204.126 101.05 202.146 101.35ZM263.25 117.82C263.07 120.82 262.23 123.25 260.73 125.11C259.23 126.91 257.4 128.29 255.24 129.25C253.14 130.15 251.04 130.78 248.94 131.14C246.84 131.44 245.07 131.59 243.63 131.59C242.25 131.59 241.56 131.59 241.56 131.59C241.92 133.69 242.43 135.19 243.09 136.09C243.75 136.99 244.47 137.5 245.25 137.62C246.09 137.74 246.87 137.68 247.59 137.44C248.31 137.14 248.88 136.81 249.3 136.45C249.78 136.09 250.02 135.91 250.02 135.91C250.02 135.91 250.35 135.64 251.01 135.1C251.67 134.56 252.69 134.05 254.07 133.57C255.51 133.03 257.31 132.76 259.47 132.76C261.93 132.76 263.58 133.09 264.42 133.75C265.32 134.35 265.74 135.07 265.68 135.91C265.68 136.69 265.5 137.41 265.14 138.07C264.84 138.67 264.69 138.97 264.69 138.97C264.69 138.97 264.42 139.27 263.88 139.87C263.4 140.41 262.5 141.07 261.18 141.85C259.86 142.63 258.03 143.35 255.69 144.01C253.35 144.61 250.35 144.94 246.69 145C243.15 145.06 240.18 144.58 237.78 143.56C235.38 142.54 233.4 141.22 231.84 139.6C230.28 137.92 229.08 136.18 228.24 134.38C227.46 132.52 226.89 130.81 226.53 129.25C226.23 127.63 226.08 126.37 226.08 125.47C226.08 124.57 226.14 123.4 226.26 121.96C226.44 120.52 226.83 119.02 227.43 117.46C228.09 115.84 229.08 114.31 230.4 112.87C231.72 111.43 233.52 110.26 235.8 109.36C238.14 108.46 241.11 107.98 244.71 107.92C249.21 107.86 252.72 108.25 255.24 109.09C257.76 109.93 259.59 110.95 260.73 112.15C261.87 113.35 262.56 114.49 262.8 115.57C263.1 116.65 263.25 117.4 263.25 117.82ZM240.3 125.38C243.96 125.08 246.69 124.3 248.49 123.04C250.29 121.78 251.34 120.37 251.64 118.81C251.94 117.25 251.64 115.93 250.74 114.85C249.9 113.71 248.61 113.2 246.87 113.32C245.13 113.38 243.81 114.04 242.91 115.3C242.01 116.5 241.38 117.91 241.02 119.53C240.66 121.09 240.45 122.47 240.39 123.67C240.33 124.81 240.3 125.38 240.3 125.38ZM270.49 95.86C270.43 94.36 270.88 93.16 271.84 92.26C272.8 91.3 274.93 90.73 278.23 90.55C280.45 90.43 282.07 90.7 283.09 91.36C284.11 92.02 284.74 92.71 284.98 93.43C285.28 94.09 285.43 94.42 285.43 94.42L285.97 102.43C285.97 102.43 286.45 102.43 287.41 102.43C288.43 102.43 289.57 102.55 290.83 102.79C292.15 102.97 293.29 103.36 294.25 103.96C295.27 104.56 295.78 105.49 295.78 106.75C295.78 108.01 295.3 108.94 294.34 109.54C293.38 110.14 292.27 110.56 291.01 110.8C289.75 110.98 288.61 111.07 287.59 111.07C286.63 111.07 286.15 111.07 286.15 111.07C286.15 111.07 286.15 111.76 286.15 113.14C286.21 114.46 286.24 116.2 286.24 118.36C286.24 120.46 286.27 122.71 286.33 125.11C286.39 127.51 286.42 129.82 286.42 132.04C286.42 134.2 286.42 136.03 286.42 137.53C286.48 138.97 286.51 139.81 286.51 140.05C286.51 140.47 286.36 141.07 286.06 141.85C285.82 142.63 285.13 143.35 283.99 144.01C282.91 144.67 281.11 145 278.59 145C276.73 145 275.29 144.79 274.27 144.37C273.25 143.89 272.5 143.38 272.02 142.84C271.6 142.24 271.36 141.73 271.3 141.31C271.24 140.83 271.21 140.59 271.21 140.59L270.49 95.86Z" fill="#F1635F"/>
</svg>
