<svg width="183" height="38" viewBox="0 0 183 38" fill="none" xmlns="http://www.w3.org/2000/svg">
<path d="M9.31558 9.0263C9.31558 17.015 9.22582 25.0038 9.37044 32.9925C9.41532 35.3313 8.782 35.815 6.44821 35.815C5.58551 35.815 4.70784 35.82 3.81522 35.82C2.37405 35.82 1.99506 35.3413 2.00005 33.9699C2.04992 24.5849 2.04493 15.1999 2.00504 5.81485C2.00005 4.19915 2.6583 3.48106 4.24408 3.49103C9.71951 3.52594 15.2099 3.28657 20.6604 3.63066C26.5547 3.99968 30.3895 7.79458 31.1425 13.2451C31.8207 18.1321 29.083 23.3582 24.5401 25.2232C22.7399 25.9662 20.8848 26.066 19.6481 23.9665C18.3864 21.8223 19.683 20.6005 21.4034 19.4585C21.5929 19.3339 22.3409 18.7504 22.7199 18.3166C23.6275 17.2744 24.6847 16.0127 24.2109 14.6912C23.6624 13.1653 21.9919 13.8535 20.805 13.9033C20.7103 13.9083 11.5796 14.3471 10.0137 8.33315C9.78434 8.56752 9.54996 8.79691 9.31558 9.0263ZM17.6434 12.3225C16.676 10.6121 16.3319 9.54991 14.6165 9.72943C13.684 9.82916 14.3322 10.657 14.5566 11.1457C15.3844 12.9608 15.9828 12.2178 17.6434 12.3225Z" fill="#101C2D"/>
<path d="M17.9277 12.6267C16.317 12.2228 14.6265 12.9608 14.1428 11.0259C14.0081 10.5023 13.9832 9.11103 14.9157 9.18085C16.6311 9.31549 17.2794 10.7666 17.9277 12.6267Z" fill="#F1635F"/>
<path d="M56.0142 25.4925H39.7026C40.0268 26.9686 40.7947 28.1404 42.0065 28.9932C43.2183 29.8509 44.7243 30.2797 46.5295 30.2797C47.7712 30.2797 48.8732 30.0952 49.8357 29.7262C49.8805 29.7063 49.9254 29.6913 49.9753 29.6714C51.7456 28.9483 53.7752 29.3323 55.0717 30.7385C55.74 31.4616 55.6602 32.6036 54.8922 33.2219C52.7429 34.9573 49.8955 35.82 46.3549 35.82C43.6621 35.82 41.2834 35.2964 39.2139 34.2442C37.1444 33.197 35.5487 31.7409 34.4267 29.8758C33.3047 28.0108 32.7411 25.9014 32.7411 23.5327C32.7411 21.1989 33.2947 19.0895 34.4067 17.2145C35.5138 15.3345 37.0397 13.8734 38.9746 12.8212C40.9094 11.774 43.0786 11.2454 45.4723 11.2454C47.8061 11.2454 49.9204 11.7491 51.8154 12.7514C53.7054 13.7587 55.1914 15.1999 56.2735 17.0749C57.3507 18.9549 57.8942 21.1341 57.8942 23.6175C57.8793 24.6597 57.0415 25.4925 56.0142 25.4925ZM41.5627 17.8229C40.5005 18.7105 39.8472 19.9223 39.6129 21.4582H51.8054C52.8826 21.4582 51.9251 19.7129 51.2619 18.8651C51.0026 18.531 50.0301 17.5985 49.6611 17.399C48.1701 16.5962 47.068 16.4466 45.5122 16.4914C43.9463 16.5363 42.6298 16.9353 41.5627 17.8229Z" fill="#101C2D"/>
<path d="M76.9535 32.5537C77.3724 33.6458 76.8239 34.9074 75.7118 35.2715C75.5223 35.3363 75.3229 35.3911 75.1184 35.441C74.126 35.6903 73.0838 35.82 71.9917 35.82C69.1543 35.82 66.9601 35.0969 65.4043 33.6458C63.8534 32.1996 63.0755 30.0703 63.0755 27.2578V17.4589H61.2104C60.2081 17.4589 59.3903 16.646 59.3903 15.6387V14.023C59.3903 12.9808 60.238 12.133 61.2802 12.133H63.0705V8.51266C63.0705 7.30587 64.0479 6.32349 65.2596 6.32349H68.0023C69.0994 6.32349 69.992 7.21611 69.992 8.31319V12.133H73.6224C74.899 12.133 75.9362 13.1703 75.9362 14.4469V15.0602C75.9362 16.3817 74.8641 17.4539 73.5426 17.4539H69.997V27.168C69.997 28.1753 70.2563 28.9483 70.775 29.4968C71.2936 30.0454 72.0216 30.3196 72.9691 30.3196C73.4129 30.3196 73.8318 30.2698 74.2258 30.175C75.1733 29.9357 76.1457 30.4293 76.4947 31.3419L76.9535 32.5537Z" fill="#101C2D"/>
<path d="M102.551 14.9156L94.4579 34.0946C94.0191 35.1418 92.9918 35.82 91.8598 35.82H88.6983C87.5563 35.82 86.529 35.1368 86.0852 34.0846L78.9193 15.7584C78.4954 14.7461 78.3159 12.7015 79.4179 12.7015H82.9785C83.6118 12.7015 84.1753 13.0855 84.4146 13.669L90.4237 28.4297L96.5224 13.9382C96.8366 13.1902 97.5696 12.7065 98.3825 12.7065H101.09C102.227 12.7065 102.995 13.8634 102.551 14.9156Z" fill="#F1635F"/>
<path d="M105.335 8.40296C104.602 7.72477 104.218 6.89198 104.178 5.90461C104.138 4.90228 104.517 3.88997 105.225 3.18186C106.013 2.39395 107.05 2 108.342 2C109.888 2 111.075 2.54355 111.897 3.62567C112.251 4.09443 112.456 4.67289 112.496 5.25634C112.586 6.53294 112.202 7.57517 111.349 8.37803C110.576 9.11108 109.574 9.47511 108.342 9.47511C107.11 9.47511 106.108 9.12105 105.335 8.40296ZM106.796 12.7015H109.958C110.915 12.7015 111.693 13.4795 111.693 14.4369V33.94C111.693 34.9773 110.85 35.82 109.813 35.82H106.796C105.799 35.82 104.986 35.0122 104.986 34.0098V14.5067C104.991 13.5094 105.799 12.7015 106.796 12.7015Z" fill="#F1635F"/>
<path d="M137.278 25.4925H120.966C121.29 26.9686 122.058 28.1404 123.27 28.9932C124.482 29.8509 125.988 30.2797 127.793 30.2797C129.035 30.2797 130.137 30.0952 131.099 29.7262C131.144 29.7063 131.189 29.6913 131.239 29.6714C133.009 28.9483 135.039 29.3323 136.335 30.7385C137.003 31.4616 136.924 32.6036 136.156 33.2219C134.006 34.9573 131.159 35.82 127.618 35.82C124.926 35.82 122.547 35.2964 120.477 34.2442C118.408 33.197 116.812 31.7409 115.69 29.8758C114.568 28.0108 114.005 25.9014 114.005 23.5327C114.005 21.1989 114.558 19.0895 115.67 17.2145C116.777 15.3345 118.303 13.8734 120.238 12.8212C122.173 11.774 124.342 11.2454 126.736 11.2454C129.069 11.2454 131.184 11.7491 133.079 12.7514C134.969 13.7587 136.455 15.1999 137.537 17.0749C138.614 18.9549 139.158 21.1341 139.158 23.6175C139.143 24.6597 138.305 25.4925 137.278 25.4925ZM122.826 17.8229C121.764 18.7105 121.111 19.9223 120.876 21.4582H133.069C134.146 21.4582 133.189 19.7129 132.525 18.8651C132.266 18.531 131.294 17.5985 130.925 17.399C129.434 16.5962 128.331 16.4466 126.776 16.4914C125.21 16.5363 123.893 16.9353 122.826 17.8229Z" fill="#F1635F"/>
<path d="M180.228 14.2973L172.958 34.3639C172.643 35.2366 171.811 35.82 170.883 35.82H167.447C166.49 35.82 165.632 35.2216 165.308 34.319L160.541 21.164L155.609 34.334C155.275 35.2266 154.422 35.82 153.464 35.82H150.153C149.141 35.82 148.238 35.1867 147.894 34.2342L140.753 14.4319C140.364 13.3498 141.162 12.2128 142.314 12.2128H145.122C145.89 12.2128 146.578 12.7015 146.827 13.4246L151.978 28.1853L157.319 13.4595C157.588 12.7115 158.302 12.2128 159.094 12.2128H162.126C162.984 12.2128 163.752 12.7564 164.036 13.5642L169.178 28.1853L174.404 13.664C174.718 12.7913 175.546 12.2128 176.468 12.2128H178.762C179.844 12.2128 180.597 13.285 180.228 14.2973Z" fill="#F1635F"/>
</svg>
