<svg width="702" height="594" viewBox="0 0 702 594" fill="none" xmlns="http://www.w3.org/2000/svg">
<path d="M636.271 388.74C636.154 388.126 635.987 387.515 635.927 386.896C635.721 384.738 636.307 382.854 638.13 381.562C639.763 380.406 641.604 380.289 643.497 380.831C647.016 381.838 649.956 385.211 650.385 388.719C650.922 393.096 647.446 396.151 643.171 395.055C640.688 394.419 638.802 392.956 637.404 390.833C637.345 390.743 637.248 390.676 637.17 390.599C636.869 389.979 636.57 389.36 636.271 388.74Z" fill="#352B2A" fill-opacity="0.17"/>
<path d="M662.91 376.444C666.065 374.932 669.392 374.573 672.795 375.166C679.071 376.26 684.192 379.372 688.173 384.324C689.38 385.826 690.405 387.472 690.855 389.395C691.452 391.946 690.584 393.982 688.579 395.554C686.714 397.016 684.498 397.76 682.262 398.434C679.945 399.134 677.576 399.697 675.328 400.576C673.863 401.149 672.543 402.131 671.215 403.015C668.649 404.726 666.29 406.766 663.399 407.959C662.081 408.503 660.719 408.836 659.272 408.588C657.241 408.238 655.886 406.991 654.951 405.252C653.591 402.724 652.97 399.983 652.785 397.138C652.519 393.049 653.217 389.124 654.787 385.338C656.363 381.531 659.439 378.128 662.91 376.444Z" fill="#352B2A" fill-opacity="0.17"/>
<path d="M643.17 373.506C641.958 370.943 641.384 368.273 641.992 365.453C642.48 363.192 643.629 361.383 645.854 360.457C647.784 359.654 649.687 359.919 651.497 360.831C654.531 362.359 656.434 364.891 657.624 368.007C658.486 370.265 658.768 372.582 658.242 374.967C657.497 378.34 654.842 380.459 651.612 380.224C649.627 380.079 647.959 379.186 646.483 377.908C645.065 376.68 643.975 375.2 643.17 373.506Z" fill="#352B2A" fill-opacity="0.17"/>
<path d="M672.826 358.907C674.145 361.749 674.678 364.431 674.075 367.277C673.434 370.304 671.203 372.414 668.346 372.595C666.221 372.73 664.349 371.971 662.755 370.625C659.058 367.505 657.259 363.527 657.678 358.664C657.847 356.701 658.63 354.954 660.206 353.691C662.107 352.168 664.251 352.026 666.477 352.836C668.847 353.698 670.58 355.352 671.948 357.418C672.317 357.974 672.628 358.568 672.826 358.907Z" fill="#352B2A" fill-opacity="0.17"/>
<path d="M689.505 363.904C690.79 366.874 691.06 369.642 689.845 372.448C688.041 376.611 683.432 377.444 680.286 374.184C677.518 371.316 676.951 366.264 679.015 362.861C681.192 359.27 685.688 359.028 688.441 362.368C688.887 362.908 689.244 363.521 689.505 363.904Z" fill="#352B2A" fill-opacity="0.17"/>
<path d="M561.834 544.731C562.288 544.609 562.736 544.45 563.197 544.371C564.802 544.096 566.246 544.43 567.316 545.725C568.273 546.883 568.463 548.257 568.162 549.705C567.603 552.397 565.239 554.787 562.635 555.304C559.385 555.949 556.903 553.515 557.487 550.251C557.825 548.355 558.816 546.861 560.329 545.696C560.394 545.647 560.438 545.57 560.492 545.507C560.94 545.248 561.387 544.99 561.834 544.731Z" fill="#352B2A" fill-opacity="0.17"/>
<path d="M572.528 564.005C573.836 566.284 574.29 568.757 574.034 571.339C573.564 576.102 571.517 580.112 568.029 583.37C566.97 584.358 565.794 585.217 564.378 585.661C562.501 586.25 560.927 585.713 559.638 584.299C558.438 582.982 557.758 581.364 557.128 579.726C556.475 578.029 555.922 576.285 555.139 574.65C554.628 573.584 553.818 572.65 553.082 571.705C551.658 569.877 549.999 568.223 548.944 566.123C548.463 565.166 548.138 564.164 548.244 563.067C548.392 561.526 549.251 560.441 550.502 559.644C552.32 558.484 554.34 557.867 556.461 557.57C559.509 557.143 562.489 557.448 565.412 558.413C568.352 559.383 571.073 561.498 572.528 564.005Z" fill="#352B2A" fill-opacity="0.17"/>
<path d="M573.631 549.053C575.484 548.002 577.453 547.424 579.599 547.722C581.32 547.963 582.739 548.723 583.556 550.338C584.266 551.739 584.173 553.18 583.59 554.586C582.614 556.945 580.823 558.511 578.554 559.576C576.911 560.347 575.191 560.687 573.374 560.426C570.806 560.055 569.071 558.184 569.068 555.751C569.065 554.255 569.642 552.957 570.517 551.78C571.359 550.649 572.407 549.75 573.631 549.053Z" fill="#352B2A" fill-opacity="0.17"/>
<path d="M586.217 570.459C584.161 571.605 582.181 572.153 580.016 571.86C577.713 571.548 576.008 569.994 575.713 567.864C575.494 566.279 575.959 564.835 576.878 563.565C579.01 560.622 581.89 559.053 585.557 559.096C587.038 559.114 588.39 559.604 589.424 560.714C590.67 562.054 590.895 563.652 590.412 565.365C589.899 567.188 588.756 568.579 587.284 569.719C586.888 570.026 586.461 570.292 586.217 570.459Z" fill="#352B2A" fill-opacity="0.17"/>
<path d="M583.401 583.233C581.247 584.361 579.188 584.717 577.019 583.962C573.799 582.842 572.919 579.435 575.187 576.897C577.182 574.664 580.935 573.958 583.599 575.315C586.41 576.747 586.841 580.102 584.493 582.35C584.113 582.714 583.673 583.016 583.401 583.233Z" fill="#352B2A" fill-opacity="0.17"/>
<path d="M13.6268 493.004C13.4261 492.26 13.165 491.524 13.0358 490.768C12.5847 488.134 13.1334 485.765 15.2568 484.011C17.1578 482.441 19.4109 482.13 21.7872 482.623C26.2032 483.54 30.1244 487.418 30.9728 491.691C32.0313 497.022 28.0378 501.093 22.683 500.137C19.5727 499.581 17.1214 497.955 15.2094 495.473C15.1289 495.367 15.0033 495.294 14.9004 495.207C14.4743 494.472 14.0509 493.738 13.6268 493.004Z" fill="#352B2A" fill-opacity="0.17"/>
<path d="M45.2474 475.46C48.9872 473.314 53.044 472.57 57.2804 472.988C65.0939 473.76 71.6732 477.119 77.0178 482.841C78.6382 484.577 80.0483 486.507 80.7765 488.83C81.7423 491.911 80.8619 494.493 78.5413 496.607C76.3812 498.576 73.726 499.692 71.039 500.725C68.2548 501.796 65.3942 502.703 62.7122 503.989C60.9627 504.827 59.4304 506.155 57.8794 507.362C54.8806 509.699 52.1669 512.422 48.7231 514.152C47.1527 514.94 45.5086 515.474 43.7079 515.301C41.1797 515.057 39.4 513.648 38.0923 511.595C36.1902 508.612 35.1768 505.299 34.69 501.82C33.9901 496.818 34.4904 491.93 36.074 487.134C37.6649 482.31 41.1343 477.847 45.2474 475.46Z" fill="#352B2A" fill-opacity="0.17"/>
<path d="M20.717 473.65C18.9929 470.61 18.0441 467.38 18.5344 463.86C18.9283 461.036 20.1753 458.707 22.8254 457.367C25.1244 456.203 27.4873 456.356 29.7949 457.311C33.6645 458.913 36.2339 461.851 37.9805 465.573C39.2462 468.269 39.8045 471.091 39.375 474.071C38.7676 478.284 35.6973 481.131 31.7059 481.137C29.2522 481.141 27.1215 480.194 25.1904 478.759C23.3357 477.378 21.8602 475.658 20.717 473.65Z" fill="#352B2A" fill-opacity="0.17"/>
<path d="M55.8358 453.001C57.7163 456.374 58.6155 459.622 58.1341 463.175C57.6224 466.954 55.0724 469.75 51.5779 470.234C48.9781 470.594 46.6085 469.831 44.5259 468.323C39.6974 464.825 37.1229 460.1 37.1945 454.084C37.2232 451.655 38.027 449.437 39.8488 447.741C42.0461 445.696 44.6681 445.326 47.4786 446.119C50.4703 446.962 52.7513 448.837 54.6212 451.251C55.1252 451.9 55.5613 452.602 55.8358 453.001Z" fill="#352B2A" fill-opacity="0.17"/>
<path d="M76.7925 457.622C78.6427 461.155 79.2273 464.533 77.9894 468.092C76.1513 473.374 70.5626 474.818 66.3983 471.097C62.7348 467.825 61.5766 461.667 63.803 457.296C66.152 452.684 71.6563 451.977 75.3445 455.831C75.9415 456.454 76.4365 457.175 76.7925 457.622Z" fill="#352B2A" fill-opacity="0.17"/>
<path d="M106.693 16.8075C106.946 16.3675 107.167 15.9034 107.459 15.4912C108.475 14.0546 109.834 13.207 111.64 13.379C113.256 13.5331 114.451 14.4372 115.327 15.7737C116.957 18.2571 116.977 21.8889 115.382 24.2739C113.393 27.2493 109.637 27.2856 107.589 24.3464C106.399 22.6393 106.015 20.7406 106.28 18.6944C106.292 18.6077 106.267 18.5153 106.26 18.4265C106.404 17.8857 106.549 17.3471 106.693 16.8075Z" fill="#352B2A" fill-opacity="0.17"/>
<path d="M129.588 23.363C132.329 24.1052 134.565 25.6476 136.343 27.8154C139.622 31.8135 141.122 36.4412 140.946 41.595C140.892 43.1581 140.65 44.7134 139.907 46.1344C138.922 48.0187 137.31 48.8109 135.244 48.7151C133.322 48.6257 131.566 47.9089 129.833 47.1387C128.038 46.341 126.283 45.4315 124.436 44.781C123.231 44.3568 121.899 44.2615 120.614 44.1017C118.13 43.7932 115.598 43.7974 113.189 42.9993C112.09 42.6354 111.076 42.1184 110.318 41.199C109.254 39.908 109.082 38.4232 109.429 36.8584C109.932 34.5835 111.003 32.5687 112.397 30.7216C114.4 28.0666 116.909 26.0231 119.88 24.5271C122.867 23.022 126.561 22.5588 129.588 23.363Z" fill="#352B2A" fill-opacity="0.17"/>
<path d="M119.008 11.0965C119.62 8.87795 120.682 6.93228 122.55 5.52115C124.049 4.3895 125.714 3.88569 127.572 4.4956C129.185 5.02424 130.214 6.19592 130.844 7.71535C131.9 10.2633 131.728 12.8279 130.808 15.3745C130.142 17.2196 129.088 18.7938 127.5 19.9816C125.255 21.6606 122.5 21.5565 120.638 19.7003C119.494 18.5595 118.942 17.1267 118.712 15.5588C118.491 14.0523 118.605 12.5642 119.008 11.0965Z" fill="#352B2A" fill-opacity="0.17"/>
<path d="M144.978 17.835C144.282 20.2815 143.189 22.2128 141.31 23.6433C139.312 25.1644 136.822 25.2793 134.97 23.8773C133.591 22.8341 132.843 21.3756 132.576 19.7032C131.956 15.8259 132.958 12.4265 135.792 9.65827C136.937 8.5408 138.344 7.88199 139.982 7.94054C141.958 8.01133 143.351 9.06041 144.291 10.7382C145.291 12.524 145.48 14.4593 145.227 16.4545C145.159 16.9915 145.036 17.5213 144.978 17.835Z" fill="#352B2A" fill-opacity="0.17"/>
<path d="M152.585 29.7461C151.801 32.2529 150.5 34.098 148.266 35.1793C144.951 36.7828 141.676 34.8528 141.469 31.1808C141.287 27.9509 143.615 24.5439 146.688 23.5453C149.929 22.4916 152.822 24.7255 152.745 28.2375C152.732 28.8057 152.627 29.3722 152.585 29.7461Z" fill="#352B2A" fill-opacity="0.17"/>
</svg>
