<svg width="22" height="22" viewBox="0 0 22 22" fill="none" xmlns="http://www.w3.org/2000/svg">
<path d="M7.35861 11C7.35861 8.98942 8.989 7.35913 11.0007 7.35913C13.0125 7.35913 14.6437 8.98942 14.6437 11C14.6437 13.0105 13.0125 14.6408 11.0007 14.6408C8.989 14.6408 7.35861 13.0105 7.35861 11ZM5.38927 11C5.38927 14.0973 7.90152 16.6081 11.0007 16.6081C14.1 16.6081 16.6122 14.0973 16.6122 11C16.6122 7.90259 14.1 5.39185 11.0007 5.39185C7.90152 5.39185 5.38927 7.90259 5.38927 11ZM15.523 5.16949C15.5229 5.4287 15.5997 5.68212 15.7437 5.8977C15.8877 6.11328 16.0924 6.28135 16.332 6.38064C16.5716 6.47993 16.8353 6.50599 17.0897 6.45552C17.3441 6.40505 17.5778 6.28033 17.7613 6.09711C17.9447 5.91389 18.0697 5.68042 18.1204 5.42621C18.1711 5.172 18.1453 4.90847 18.0461 4.66895C17.9469 4.42944 17.7789 4.22468 17.5634 4.08059C17.3478 3.93649 17.0942 3.85953 16.8349 3.85942H16.8344C16.4867 3.85958 16.1533 3.99764 15.9074 4.24328C15.6616 4.48891 15.5233 4.82204 15.523 5.16949ZM6.58577 19.8899C5.52032 19.8414 4.94122 19.664 4.55637 19.5142C4.04616 19.3156 3.68212 19.0792 3.29937 18.6972C2.91663 18.3152 2.67971 17.9518 2.48195 17.4419C2.33193 17.0574 2.15445 16.4785 2.10602 15.4137C2.05304 14.2625 2.04246 13.9166 2.04246 11C2.04246 8.08345 2.05392 7.73859 2.10602 6.58641C2.15454 5.5216 2.33333 4.9438 2.48195 4.55823C2.68058 4.04832 2.91715 3.6845 3.29937 3.30198C3.6816 2.91947 4.04528 2.68269 4.55637 2.48505C4.94104 2.33512 5.52032 2.15775 6.58577 2.10935C7.73768 2.0564 8.08371 2.04583 11.0007 2.04583C13.9178 2.04583 14.2641 2.05727 15.417 2.10935C16.4825 2.15784 17.0606 2.33652 17.4464 2.48505C17.9566 2.68269 18.3207 2.91999 18.7034 3.30198C19.0862 3.68398 19.3222 4.04832 19.5208 4.55823C19.6709 4.94267 19.8483 5.5216 19.8968 6.58641C19.9497 7.73859 19.9603 8.08345 19.9603 11C19.9603 13.9166 19.9497 14.2615 19.8968 15.4137C19.8482 16.4785 19.6699 17.0572 19.5208 17.4419C19.3222 17.9518 19.0856 18.3156 18.7034 18.6972C18.3212 19.0789 17.9566 19.3156 17.4464 19.5142C17.0617 19.6641 16.4825 19.8415 15.417 19.8899C14.2651 19.9428 13.9191 19.9534 11.0007 19.9534C8.0824 19.9534 7.73733 19.9428 6.58577 19.8899ZM6.49529 0.14451C5.33192 0.197458 4.53696 0.381814 3.84272 0.651796C3.12374 0.930602 2.51508 1.30464 1.90687 1.91154C1.29865 2.51843 0.925346 3.12768 0.646372 3.84623C0.376229 4.54049 0.191762 5.33454 0.138782 6.4972C0.0849283 7.66171 0.0726013 8.034 0.0726013 11C0.0726013 13.9659 0.0849283 14.3382 0.138782 15.5027C0.191762 16.6655 0.376229 17.4594 0.646372 18.1537C0.925346 18.8718 1.29874 19.4817 1.90687 20.0884C2.515 20.695 3.12374 21.0685 3.84272 21.3481C4.53828 21.6181 5.33192 21.8025 6.49529 21.8554C7.6611 21.9083 8.03301 21.9215 11.0007 21.9215C13.9685 21.9215 14.341 21.9092 15.5062 21.8554C16.6696 21.8025 17.4641 21.6181 18.1588 21.3481C18.8773 21.0685 19.4864 20.6953 20.0946 20.0884C20.7028 19.4815 21.0753 18.8718 21.3551 18.1537C21.6252 17.4594 21.8106 16.6654 21.8627 15.5027C21.9157 14.3373 21.928 13.9659 21.928 11C21.928 8.034 21.9157 7.66171 21.8627 6.4972C21.8097 5.33445 21.6252 4.54005 21.3551 3.84623C21.0753 3.12811 20.7019 2.51939 20.0946 1.91154C19.4874 1.30368 18.8773 0.930602 18.1596 0.651796C17.4641 0.381814 16.6696 0.196584 15.5071 0.14451C14.3419 0.0915624 13.9693 0.0783691 11.0016 0.0783691C8.03388 0.0783691 7.6611 0.0906887 6.49529 0.14451Z" fill="url(#paint0_radial_191_9)"/>
<defs>
<radialGradient id="paint0_radial_191_9" cx="0" cy="0" r="1" gradientUnits="userSpaceOnUse" gradientTransform="translate(13.3275 23.0033) scale(22.4868 22.4733)">
<stop offset="0.64" stop-color="#8C3AAA" stop-opacity="0"/>
<stop offset="1" stop-color="#8C3AAA"/>
</radialGradient>
</defs>
</svg>
