<svg width="1140" height="484" viewBox="0 0 1140 484" fill="none" xmlns="http://www.w3.org/2000/svg">
<rect width="1140" height="484" rx="26" fill="#101C2D"/>
<path d="M179.957 103.014C180.411 102.892 180.859 102.733 181.32 102.654C182.925 102.379 184.369 102.714 185.438 104.008C186.395 105.167 186.585 106.54 186.284 107.988C185.725 110.68 183.362 113.07 180.757 113.587C177.508 114.233 175.026 111.798 175.609 108.534C175.948 106.639 176.939 105.144 178.452 103.979C178.516 103.93 178.561 103.853 178.614 103.791C179.062 103.531 179.509 103.273 179.957 103.014Z" fill="white" fill-opacity="0.17"/>
<path d="M190.65 122.288C191.959 124.568 192.412 127.04 192.157 129.623C191.687 134.385 189.64 138.396 186.152 141.653C185.093 142.641 183.917 143.5 182.501 143.944C180.623 144.533 179.05 143.996 177.761 142.582C176.561 141.265 175.881 139.647 175.251 138.009C174.598 136.312 174.045 134.568 173.262 132.934C172.751 131.867 171.941 130.933 171.205 129.988C169.781 128.16 168.121 126.506 167.067 124.407C166.586 123.45 166.261 122.447 166.366 121.35C166.515 119.809 167.374 118.724 168.625 117.927C170.443 116.767 172.463 116.15 174.584 115.853C177.632 115.426 180.612 115.731 183.535 116.697C186.475 117.666 189.196 119.781 190.65 122.288Z" fill="white" fill-opacity="0.17"/>
<path d="M191.754 107.336C193.607 106.285 195.575 105.707 197.721 106.006C199.443 106.246 200.862 107.006 201.679 108.621C202.389 110.023 202.295 111.463 201.713 112.869C200.737 115.228 198.946 116.794 196.677 117.859C195.034 118.63 193.314 118.971 191.497 118.709C188.929 118.339 187.194 116.467 187.191 114.034C187.188 112.539 187.765 111.24 188.64 110.063C189.481 108.932 190.53 108.033 191.754 107.336Z" fill="white" fill-opacity="0.17"/>
<path d="M204.34 128.742C202.284 129.888 200.304 130.436 198.138 130.143C195.836 129.831 194.131 128.277 193.836 126.147C193.617 124.562 194.081 123.118 195.001 121.848C197.133 118.905 200.013 117.336 203.68 117.38C205.16 117.397 206.513 117.887 207.546 118.997C208.793 120.337 209.018 121.935 208.535 123.648C208.021 125.472 206.879 126.862 205.407 128.002C205.011 128.309 204.583 128.575 204.34 128.742Z" fill="white" fill-opacity="0.17"/>
<path d="M201.523 141.516C199.37 142.644 197.311 143 195.141 142.246C191.922 141.125 191.042 137.719 193.31 135.18C195.305 132.947 199.058 132.241 201.722 133.599C204.533 135.03 204.964 138.385 202.615 140.633C202.235 140.997 201.796 141.299 201.523 141.516Z" fill="white" fill-opacity="0.17"/>
<path d="M977.271 85.7402C977.154 85.126 976.987 84.5152 976.927 83.8957C976.721 81.7376 977.307 79.8539 979.13 78.5621C980.763 77.4058 982.604 77.2889 984.497 77.8311C988.016 78.8381 990.956 82.211 991.385 85.7195C991.922 90.0965 988.446 93.1512 984.171 92.0554C981.688 91.4191 979.802 89.9562 978.404 87.8332C978.345 87.743 978.248 87.6763 978.17 87.5992C977.869 86.9788 977.57 86.36 977.271 85.7402Z" fill="white" fill-opacity="0.17"/>
<path d="M1003.91 73.444C1007.06 71.932 1010.39 71.573 1013.79 72.1663C1020.07 73.26 1025.19 76.3724 1029.17 81.3236C1030.38 82.8257 1031.41 84.4717 1031.86 86.3953C1032.45 88.9458 1031.58 90.9818 1029.58 92.5537C1027.71 94.0165 1025.5 94.7602 1023.26 95.4346C1020.94 96.1342 1018.58 96.6968 1016.33 97.5756C1014.86 98.149 1013.54 99.1313 1012.22 100.015C1009.65 101.726 1007.29 103.766 1004.4 104.959C1003.08 105.503 1001.72 105.836 1000.27 105.588C998.241 105.238 996.886 103.992 995.951 102.252C994.591 99.7245 993.97 96.983 993.785 94.1382C993.519 90.0492 994.217 86.1239 995.787 82.3383C997.363 78.5313 1000.44 75.1277 1003.91 73.444Z" fill="white" fill-opacity="0.17"/>
<path d="M984.17 70.506C982.958 67.9427 982.384 65.2728 982.992 62.4536C983.48 60.1923 984.629 58.3828 986.854 57.4574C988.784 56.6537 990.687 56.9195 992.497 57.831C995.531 59.3594 997.434 61.8908 998.624 65.0073C999.486 67.265 999.768 69.5819 999.242 71.9675C998.497 75.3398 995.842 77.459 992.612 77.2238C990.627 77.0796 988.959 76.1861 987.483 74.9083C986.065 73.6802 984.975 72.1998 984.17 70.506Z" fill="white" fill-opacity="0.17"/>
<path d="M1013.83 55.9071C1015.14 58.7494 1015.68 61.4315 1015.07 64.2776C1014.43 67.3039 1012.2 69.4137 1009.35 69.5953C1007.22 69.7303 1005.35 68.9711 1003.75 67.6254C1000.06 64.5054 998.258 60.5273 998.678 55.6639C998.847 53.7007 999.63 51.9539 1001.21 50.691C1003.11 49.168 1005.25 49.0266 1007.48 49.8366C1009.85 50.6984 1011.58 52.3523 1012.95 54.4183C1013.32 54.9739 1013.63 55.5677 1013.83 55.9071Z" fill="white" fill-opacity="0.17"/>
<path d="M1030.51 60.9045C1031.79 63.8742 1032.06 66.6421 1030.85 69.4481C1029.04 73.6112 1024.43 74.4443 1021.29 71.1836C1018.52 68.3157 1017.95 63.2636 1020.01 59.8607C1022.19 56.2702 1026.69 56.0285 1029.44 59.3679C1029.89 59.9081 1030.24 60.5215 1030.51 60.9045Z" fill="white" fill-opacity="0.17"/>
<path d="M307.614 79C306.347 79 305.431 78.8167 304.864 78.45C304.297 78.05 303.947 77.6667 303.814 77.3C303.681 76.9333 303.614 76.75 303.614 76.75C303.614 76.75 303.597 76.35 303.564 75.55C303.564 74.7167 303.547 73.6333 303.514 72.3C303.514 70.9667 303.497 69.5 303.464 67.9C303.431 66.3 303.397 64.7 303.364 63.1C303.364 61.5 303.347 60.0333 303.314 58.7C303.281 57.3667 303.247 56.3 303.214 55.5C303.214 54.6667 303.214 54.25 303.214 54.25C303.181 54.25 302.997 54.0833 302.664 53.75C302.364 53.4167 302.197 53.0667 302.164 52.7C302.164 52.4333 302.481 52.05 303.114 51.55C303.747 51.05 304.814 50.6333 306.314 50.3C307.847 49.9333 309.947 49.8667 312.614 50.1C315.014 50.3 316.897 50.7 318.264 51.3C319.664 51.8667 320.681 52.4833 321.314 53.15C321.947 53.7833 322.347 54.35 322.514 54.85C322.681 55.3167 322.764 55.55 322.764 55.55C322.764 55.55 322.781 55.6 322.814 55.7C322.881 55.8 322.931 56.1167 322.964 56.65C323.031 57.15 323.081 57.9833 323.114 59.15C323.147 60.3167 323.147 61.95 323.114 64.05C323.081 65.75 322.681 67.1 321.914 68.1C321.181 69.1 320.264 69.85 319.164 70.35C318.064 70.8167 316.964 71.1333 315.864 71.3C314.797 71.4333 313.897 71.5 313.164 71.5C312.431 71.4667 312.064 71.45 312.064 71.45C312.064 71.45 312.064 71.8167 312.064 72.55C312.097 73.25 312.097 74.4333 312.064 76.1C312.064 76.9333 311.831 77.5667 311.364 78C310.931 78.4 310.414 78.6667 309.814 78.8C309.247 78.9333 308.731 79 308.264 79C307.831 79 307.614 79 307.614 79ZM311.564 54.75L312.014 67.15C312.014 67.15 312.231 67.1333 312.664 67.1C313.097 67.0333 313.597 66.8667 314.164 66.6C314.731 66.3333 315.214 65.8833 315.614 65.25C316.047 64.5833 316.231 63.65 316.164 62.45C316.097 60.85 316.031 59.65 315.964 58.85C315.897 58.05 315.847 57.5333 315.814 57.3C315.814 57.0333 315.814 56.9 315.814 56.9C315.814 56.9 315.781 56.7667 315.714 56.5C315.681 56.2 315.547 55.8833 315.314 55.55C315.081 55.2167 314.664 54.9667 314.064 54.8C313.497 54.6 312.664 54.5833 311.564 54.75ZM328.511 75.6C328.511 75.2333 328.461 74.6 328.361 73.7C328.261 72.8 328.127 71.7833 327.961 70.65C327.827 69.4833 327.677 68.3333 327.511 67.2C327.344 66.0333 327.161 65 326.961 64.1C326.794 63.1667 326.644 62.5 326.511 62.1C326.177 61.1 326.361 60.4 327.061 60C327.794 59.5667 328.811 59.2833 330.111 59.15C331.411 59.0167 332.344 59.1167 332.911 59.45C333.511 59.75 333.811 59.9 333.811 59.9C334.311 59.4 335.127 59.05 336.261 58.85C337.427 58.65 338.644 58.5667 339.911 58.6C341.544 58.6333 342.727 58.8833 343.461 59.35C344.194 59.8167 344.561 60.3167 344.561 60.85C344.561 61.25 344.511 61.55 344.411 61.75C344.311 61.95 343.911 62.15 343.211 62.35C342.544 62.5167 341.327 62.8167 339.561 63.25C338.527 63.4833 337.761 64.05 337.261 64.95C336.761 65.8167 336.444 66.8333 336.311 68C336.211 69.1333 336.211 70.2667 336.311 71.4C336.411 72.5 336.527 73.4333 336.661 74.2C336.794 74.9333 336.861 75.3333 336.861 75.4C336.861 75.4667 336.877 75.7 336.911 76.1C336.977 76.4667 336.927 76.8833 336.761 77.35C336.627 77.7833 336.277 78.1667 335.711 78.5C335.144 78.8333 334.244 79 333.011 79C331.777 79 330.844 78.8333 330.211 78.5C329.577 78.1333 329.144 77.7333 328.911 77.3C328.677 76.8667 328.544 76.4833 328.511 76.15C328.511 75.7833 328.511 75.6 328.511 75.6ZM358.371 58.7C359.604 58.6 360.554 58.7333 361.221 59.1C361.888 59.4667 362.288 59.6833 362.421 59.75C362.754 59.9167 363.054 60.1 363.321 60.3C363.621 60.5 363.771 60.6 363.771 60.6C363.771 60.6 364.021 60.6833 364.521 60.85C365.021 61.0167 365.604 61.4167 366.271 62.05C366.938 62.65 367.554 63.6 368.121 64.9C368.688 66.2 369.021 67.9667 369.121 70.2C369.188 71.7 368.954 72.9667 368.421 74C367.888 75 367.171 75.8333 366.271 76.5C365.404 77.1333 364.454 77.6333 363.421 78C362.421 78.3333 361.454 78.5667 360.521 78.7C359.621 78.8333 358.871 78.9167 358.271 78.95C357.704 78.9833 357.421 79 357.421 79C357.421 79 357.088 79 356.421 79C355.788 79 354.988 78.9 354.021 78.7C353.054 78.4667 352.088 78.0333 351.121 77.4C350.188 76.7333 349.404 75.7667 348.771 74.5C348.171 73.2333 347.904 71.55 347.971 69.45C348.038 67.35 348.421 65.6333 349.121 64.3C349.854 62.9333 350.721 61.8667 351.721 61.1C352.754 60.3333 353.771 59.7833 354.771 59.45C355.804 59.1167 356.654 58.9167 357.321 58.85C358.021 58.75 358.371 58.7 358.371 58.7ZM358.571 63.6C358.571 63.6 358.354 63.8667 357.921 64.4C357.521 64.9333 357.104 65.6833 356.671 66.65C356.271 67.6167 356.071 68.75 356.071 70.05C356.071 71.3167 356.221 72.3167 356.521 73.05C356.821 73.7833 357.138 74.3167 357.471 74.65C357.838 74.95 358.121 75.1 358.321 75.1C358.521 75.1 358.838 75.0167 359.271 74.85C359.738 74.65 360.154 74.2167 360.521 73.55C360.888 72.8833 361.054 71.8333 361.021 70.4C360.988 69.2 360.854 68.2333 360.621 67.5C360.421 66.7667 360.138 66.1167 359.771 65.55C359.438 64.95 359.038 64.3 358.571 63.6ZM372.014 61.7C372.014 61.7 372.014 61.55 372.014 61.25C372.048 60.95 372.164 60.6167 372.364 60.25C372.564 59.85 372.931 59.5 373.464 59.2C374.031 58.9 374.831 58.75 375.864 58.75C377.131 58.75 378.031 58.9333 378.564 59.3C379.131 59.6333 379.464 60.05 379.564 60.55C379.698 61.0167 379.731 61.4833 379.664 61.95C379.598 62.3833 379.564 62.6833 379.564 62.85C379.564 62.9833 379.564 63.4833 379.564 64.35C379.598 65.1833 379.664 66.1833 379.764 67.35C379.864 68.5167 380.031 69.6667 380.264 70.8C380.498 71.9333 380.831 72.8833 381.264 73.65C381.698 74.3833 382.264 74.7333 382.964 74.7C383.664 74.6667 384.131 74.3 384.364 73.6C384.598 72.9 384.681 72.0333 384.614 71C384.581 69.9667 384.464 68.9333 384.264 67.9C384.064 66.8667 383.864 65.9833 383.664 65.25C383.464 64.4833 383.364 64.05 383.364 63.95C383.364 63.8167 383.314 63.5833 383.214 63.25C383.148 62.8833 383.148 62.4833 383.214 62.05C383.314 61.6167 383.598 61.2167 384.064 60.85C384.531 60.4833 385.298 60.25 386.364 60.15C387.431 60.05 388.264 60.1167 388.864 60.35C389.498 60.55 389.948 60.8167 390.214 61.15C390.514 61.4833 390.698 61.8 390.764 62.1C390.831 62.3667 390.864 62.5 390.864 62.5C390.864 62.5 390.981 62.9 391.214 63.7C391.448 64.5 391.664 65.5333 391.864 66.8C392.064 68.0333 392.131 69.35 392.064 70.75C392.031 72.15 391.731 73.4833 391.164 74.75C390.631 75.9833 389.731 77 388.464 77.8C387.231 78.6 385.498 79 383.264 79C381.031 79 379.198 78.5833 377.764 77.75C376.331 76.9167 375.198 75.85 374.364 74.55C373.564 73.2167 372.981 71.8167 372.614 70.35C372.248 68.8833 372.031 67.5 371.964 66.2C371.898 64.8667 371.881 63.7833 371.914 62.95C371.981 62.1167 372.014 61.7 372.014 61.7ZM411.93 46.4C411.93 46.4 412.13 46.4333 412.53 46.5C412.963 46.5333 413.447 46.6333 413.98 46.8C414.513 46.9333 414.997 47.1667 415.43 47.5C415.897 47.8 416.147 48.2333 416.18 48.8C416.213 49.1667 416.263 49.9667 416.33 51.2C416.397 52.4 416.463 53.8333 416.53 55.5C416.63 57.1667 416.713 58.9 416.78 60.7C416.88 62.4667 416.963 64.1333 417.03 65.7C417.097 67.2333 417.147 68.4833 417.18 69.45C417.247 70.4167 417.28 70.9 417.28 70.9C417.28 70.9 417.263 71.1 417.23 71.5C417.23 71.9 417.13 72.4 416.93 73C416.763 73.6 416.447 74.1833 415.98 74.75C414.98 75.9833 413.713 77 412.18 77.8C410.647 78.6 408.547 79 405.88 79C404.113 79 402.413 78.6667 400.78 78C399.18 77.3333 397.863 76.2833 396.83 74.85C395.83 73.3833 395.347 71.4833 395.38 69.15C395.413 67.3833 395.797 65.8333 396.53 64.5C397.297 63.1667 398.297 62.0667 399.53 61.2C400.763 60.3 402.13 59.6333 403.63 59.2C405.163 58.7667 406.697 58.55 408.23 58.55L407.88 49.9C407.88 49.9 407.847 49.75 407.78 49.45C407.713 49.1167 407.747 48.7333 407.88 48.3C408.047 47.8667 408.43 47.4667 409.03 47.1C409.63 46.7333 410.597 46.5 411.93 46.4ZM408.38 62.9C407.613 62.8333 406.88 63.1167 406.18 63.75C405.48 64.3833 404.897 65.2 404.43 66.2C403.997 67.1667 403.78 68.1333 403.78 69.1C403.78 70.5333 404.013 71.7667 404.48 72.8C404.98 73.8333 405.63 74.35 406.43 74.35C406.963 74.35 407.413 74.1333 407.78 73.7C408.147 73.2667 408.43 72.8333 408.63 72.4C408.83 71.9333 408.93 71.7 408.93 71.7L408.38 62.9ZM424.507 48.9C424.507 48.9 424.724 48.9167 425.157 48.95C425.59 48.95 426.09 49.0333 426.657 49.2C427.224 49.3333 427.724 49.5833 428.157 49.95C428.59 50.3167 428.807 50.8333 428.807 51.5C428.807 51.9333 428.824 52.8167 428.857 54.15C428.89 55.4833 428.924 57.0667 428.957 58.9C428.99 60.7 429.024 62.5667 429.057 64.5C429.124 66.4 429.174 68.1833 429.207 69.85C429.24 71.5167 429.257 72.8667 429.257 73.9C429.29 74.9333 429.307 75.45 429.307 75.45C429.307 75.45 429.307 75.6333 429.307 76C429.307 76.3333 429.207 76.75 429.007 77.25C428.807 77.7167 428.424 78.1333 427.857 78.5C427.29 78.8333 426.457 79 425.357 79C423.89 79 422.824 78.8167 422.157 78.45C421.49 78.05 421.074 77.6167 420.907 77.15C420.774 76.65 420.724 76.2667 420.757 76C420.79 75.8667 420.807 75.2833 420.807 74.25C420.807 73.2167 420.79 71.9167 420.757 70.35C420.757 68.7833 420.74 67.1 420.707 65.3C420.674 63.5 420.64 61.7333 420.607 60C420.574 58.2333 420.524 56.6667 420.457 55.3C420.424 53.9 420.39 52.8667 420.357 52.2C420.29 51.2667 420.507 50.5667 421.007 50.1C421.54 49.6333 422.14 49.3333 422.807 49.2C423.507 49.0333 424.074 48.9333 424.507 48.9ZM435.727 75.65C435.727 75.6167 435.593 75.4167 435.327 75.05C435.093 74.65 434.81 74 434.477 73.1C434.143 72.1667 433.827 70.8833 433.527 69.25C433.227 67.5833 432.993 65.4833 432.827 62.95C432.76 61.6167 432.943 60.6667 433.377 60.1C433.843 59.5333 434.427 59.1833 435.127 59.05C435.827 58.8833 436.493 58.8 437.127 58.8C437.127 58.8 437.31 58.8 437.677 58.8C438.077 58.7667 438.527 58.8 439.027 58.9C439.527 58.9667 439.96 59.1833 440.327 59.55C440.727 59.8833 440.943 60.4167 440.977 61.15C441.01 61.75 441.043 62.5667 441.077 63.6C441.11 64.6333 441.16 65.75 441.227 66.95C441.327 68.1167 441.477 69.25 441.677 70.35C441.877 71.45 442.127 72.3667 442.427 73.1C442.76 73.8 443.177 74.1833 443.677 74.25C444.177 74.3167 444.51 74.0333 444.677 73.4C444.843 72.7333 444.893 71.9 444.827 70.9C444.793 69.9 444.693 68.9 444.527 67.9C444.393 66.8667 444.26 66 444.127 65.3C443.993 64.6 443.927 64.25 443.927 64.25C443.927 64.25 443.86 64.05 443.727 63.65C443.593 63.2167 443.543 62.7333 443.577 62.2C443.61 61.6667 443.843 61.1833 444.277 60.75C444.71 60.3167 445.477 60.0833 446.577 60.05C448.077 59.9833 449.193 60.1333 449.927 60.5C450.693 60.8667 451.21 61.3333 451.477 61.9C451.777 62.4667 451.96 63.05 452.027 63.65C452.093 63.9833 452.21 64.7833 452.377 66.05C452.577 67.2833 452.793 68.75 453.027 70.45C453.26 72.1167 453.443 73.85 453.577 75.65C453.71 77.4167 453.76 79.0333 453.727 80.5C453.693 81.9667 453.493 83.0833 453.127 83.85C452.56 85.0833 451.777 86.2167 450.777 87.25C449.81 88.3167 448.51 89.1333 446.877 89.7C445.277 90.3 443.227 90.5333 440.727 90.4C438.86 90.3 437.36 90 436.227 89.5C435.093 89.0333 434.243 88.5167 433.677 87.95C433.11 87.4167 432.727 86.9333 432.527 86.5C432.36 86.1 432.277 85.9 432.277 85.9C432.277 85.9 432.21 85.7167 432.077 85.35C431.977 84.9833 431.96 84.55 432.027 84.05C432.127 83.5833 432.443 83.1667 432.977 82.8C433.51 82.4667 434.443 82.3167 435.777 82.35C437.11 82.3833 438.077 82.5 438.677 82.7C439.277 82.9333 439.66 83.1833 439.827 83.45C439.993 83.7167 440.043 83.95 439.977 84.15C439.943 84.35 439.927 84.45 439.927 84.45C439.927 84.45 439.927 84.6333 439.927 85C439.927 85.3667 440.043 85.7167 440.277 86.05C440.543 86.3833 441.01 86.5333 441.677 86.5C442.377 86.4333 443.127 86.1167 443.927 85.55C444.727 85.0167 445.327 84.2 445.727 83.1C446.16 82 446.127 80.6333 445.627 79C445.627 79 445.31 79.05 444.677 79.15C444.043 79.25 443.21 79.25 442.177 79.15C441.177 79.0833 440.093 78.8 438.927 78.3C437.793 77.7667 436.727 76.8833 435.727 75.65ZM471.461 74.7L470.861 50C470.861 50 470.861 49.8667 470.861 49.6C470.894 49.3333 471.011 49.0167 471.211 48.65C471.411 48.2833 471.761 47.9667 472.261 47.7C472.794 47.4333 473.561 47.3 474.561 47.3C475.894 47.3 476.877 47.45 477.511 47.75C478.177 48.05 478.611 48.4333 478.811 48.9C479.011 49.3667 479.094 49.8333 479.061 50.3C479.027 50.6333 479.011 51.2667 479.011 52.2C479.044 53.1 479.061 54.0667 479.061 55.1C479.094 56.1 479.111 56.9667 479.111 57.7C479.144 58.4333 479.161 58.8 479.161 58.8C479.161 58.8 479.494 58.7167 480.161 58.55C480.861 58.3833 481.761 58.2667 482.861 58.2C483.961 58.1333 485.127 58.2667 486.361 58.6C487.594 58.9 488.761 59.5333 489.861 60.5C490.261 60.8333 490.577 61.45 490.811 62.35C491.077 63.25 491.277 64.3 491.411 65.5C491.577 66.6667 491.694 67.8833 491.761 69.15C491.827 70.3833 491.861 71.5333 491.861 72.6C491.894 73.6667 491.894 74.5333 491.861 75.2C491.861 75.8667 491.861 76.2 491.861 76.2C491.861 76.2 491.861 76.35 491.861 76.65C491.861 76.9167 491.777 77.2333 491.611 77.6C491.477 77.9667 491.177 78.3 490.711 78.6C490.244 78.8667 489.527 79 488.561 79C487.294 79 486.427 78.85 485.961 78.55C485.494 78.25 485.244 77.85 485.211 77.35C485.177 76.8167 485.161 76.2333 485.161 75.6C485.161 75.2333 485.144 74.6333 485.111 73.8C485.077 72.9667 485.044 72.05 485.011 71.05C484.977 70.0167 484.944 69.0333 484.911 68.1C484.877 67.1667 484.844 66.4 484.811 65.8C484.777 65.2 484.761 64.9 484.761 64.9C484.761 64.9 484.727 64.7 484.661 64.3C484.627 63.8667 484.461 63.45 484.161 63.05C483.861 62.65 483.361 62.4667 482.661 62.5C482.127 62.5333 481.677 62.7833 481.311 63.25C480.944 63.6833 480.644 64.2333 480.411 64.9C480.211 65.5333 480.061 66.15 479.961 66.75C479.861 67.3167 479.811 67.7333 479.811 68C479.811 68.2667 479.811 68.8 479.811 69.6C479.844 70.4 479.861 71.2667 479.861 72.2C479.861 73.1 479.861 73.8833 479.861 74.55C479.894 75.1833 479.911 75.5 479.911 75.5C479.911 75.5 479.894 75.6833 479.861 76.05C479.827 76.3833 479.694 76.7833 479.461 77.25C479.227 77.7167 478.811 78.1333 478.211 78.5C477.644 78.8333 476.811 79 475.711 79C474.444 79 473.494 78.7833 472.861 78.35C472.261 77.9167 471.861 77.4167 471.661 76.85C471.494 76.2833 471.411 75.7833 471.411 75.35C471.444 74.9167 471.461 74.7 471.461 74.7ZM515.839 63.9C515.739 65.5667 515.272 66.9167 514.439 67.95C513.606 68.95 512.589 69.7167 511.389 70.25C510.222 70.75 509.056 71.1 507.889 71.3C506.722 71.4667 505.739 71.55 504.939 71.55C504.172 71.55 503.789 71.55 503.789 71.55C503.989 72.7167 504.272 73.55 504.639 74.05C505.006 74.55 505.406 74.8333 505.839 74.9C506.306 74.9667 506.739 74.9333 507.139 74.8C507.539 74.6333 507.856 74.45 508.089 74.25C508.356 74.05 508.489 73.95 508.489 73.95C508.489 73.95 508.672 73.8 509.039 73.5C509.406 73.2 509.972 72.9167 510.739 72.65C511.539 72.35 512.539 72.2 513.739 72.2C515.106 72.2 516.022 72.3833 516.489 72.75C516.989 73.0833 517.222 73.4833 517.189 73.95C517.189 74.3833 517.089 74.7833 516.889 75.15C516.722 75.4833 516.639 75.65 516.639 75.65C516.639 75.65 516.489 75.8167 516.189 76.15C515.922 76.45 515.422 76.8167 514.689 77.25C513.956 77.6833 512.939 78.0833 511.639 78.45C510.339 78.7833 508.672 78.9667 506.639 79C504.672 79.0333 503.022 78.7667 501.689 78.2C500.356 77.6333 499.256 76.9 498.389 76C497.522 75.0667 496.856 74.1 496.389 73.1C495.956 72.0667 495.639 71.1167 495.439 70.25C495.272 69.35 495.189 68.65 495.189 68.15C495.189 67.65 495.222 67 495.289 66.2C495.389 65.4 495.606 64.5667 495.939 63.7C496.306 62.8 496.856 61.95 497.589 61.15C498.322 60.35 499.322 59.7 500.589 59.2C501.889 58.7 503.539 58.4333 505.539 58.4C508.039 58.3667 509.989 58.5833 511.389 59.05C512.789 59.5167 513.806 60.0833 514.439 60.75C515.072 61.4167 515.456 62.05 515.589 62.65C515.756 63.25 515.839 63.6667 515.839 63.9ZM503.089 68.1C505.122 67.9333 506.639 67.5 507.639 66.8C508.639 66.1 509.222 65.3167 509.389 64.45C509.556 63.5833 509.389 62.85 508.889 62.25C508.422 61.6167 507.706 61.3333 506.739 61.4C505.772 61.4333 505.039 61.8 504.539 62.5C504.039 63.1667 503.689 63.95 503.489 64.85C503.289 65.7167 503.172 66.4833 503.139 67.15C503.106 67.7833 503.089 68.1 503.089 68.1ZM525.161 48.9C525.161 48.9 525.378 48.9167 525.811 48.95C526.244 48.95 526.744 49.0333 527.311 49.2C527.878 49.3333 528.378 49.5833 528.811 49.95C529.244 50.3167 529.461 50.8333 529.461 51.5C529.461 51.9333 529.478 52.8167 529.511 54.15C529.544 55.4833 529.578 57.0667 529.611 58.9C529.644 60.7 529.678 62.5667 529.711 64.5C529.778 66.4 529.828 68.1833 529.861 69.85C529.894 71.5167 529.911 72.8667 529.911 73.9C529.944 74.9333 529.961 75.45 529.961 75.45C529.961 75.45 529.961 75.6333 529.961 76C529.961 76.3333 529.861 76.75 529.661 77.25C529.461 77.7167 529.078 78.1333 528.511 78.5C527.944 78.8333 527.111 79 526.011 79C524.544 79 523.478 78.8167 522.811 78.45C522.144 78.05 521.728 77.6167 521.561 77.15C521.428 76.65 521.378 76.2667 521.411 76C521.444 75.8667 521.461 75.2833 521.461 74.25C521.461 73.2167 521.444 71.9167 521.411 70.35C521.411 68.7833 521.394 67.1 521.361 65.3C521.328 63.5 521.294 61.7333 521.261 60C521.228 58.2333 521.178 56.6667 521.111 55.3C521.078 53.9 521.044 52.8667 521.011 52.2C520.944 51.2667 521.161 50.5667 521.661 50.1C522.194 49.6333 522.794 49.3333 523.461 49.2C524.161 49.0333 524.728 48.9333 525.161 48.9ZM535.581 86.15L533.931 65.85C533.931 65.85 533.848 65.7167 533.681 65.45C533.548 65.1833 533.414 64.85 533.281 64.45C533.148 64.0167 533.114 63.6 533.181 63.2C533.248 62.8 533.498 62.4667 533.931 62.2C534.298 62 534.964 61.6167 535.931 61.05C536.931 60.45 538.148 59.8667 539.581 59.3C541.014 58.7333 542.548 58.3333 544.181 58.1C545.848 57.8667 547.514 57.9667 549.181 58.4C550.881 58.8 552.481 59.7167 553.981 61.15C555.448 62.55 556.364 64.1 556.731 65.8C557.098 67.5 557.064 69.1667 556.631 70.8C556.231 72.4333 555.548 73.8667 554.581 75.1C553.648 76.3333 552.581 77.2 551.381 77.7C549.748 78.3667 548.348 78.7833 547.181 78.95C546.014 79.0833 545.114 79.1167 544.481 79.05C543.848 79.0167 543.531 79 543.531 79L544.031 86.55C544.031 86.55 544.031 86.7167 544.031 87.05C544.031 87.3833 543.931 87.7667 543.731 88.2C543.564 88.6333 543.198 89 542.631 89.3C542.064 89.6333 541.231 89.8 540.131 89.8C538.664 89.7667 537.598 89.5333 536.931 89.1C536.298 88.6667 535.914 88.1667 535.781 87.6C535.648 87.0333 535.581 86.55 535.581 86.15ZM541.981 63.6L543.081 74.45C543.081 74.45 543.364 74.45 543.931 74.45C544.498 74.45 545.131 74.35 545.831 74.15C546.564 73.95 547.198 73.5667 547.731 73C548.264 72.4333 548.498 71.5833 548.431 70.45C548.364 68.95 548.198 67.6167 547.931 66.45C547.664 65.25 547.264 64.3333 546.731 63.7C546.198 63.0667 545.464 62.8333 544.531 63C543.598 63.1667 542.948 63.3 542.581 63.4C542.248 63.4667 542.064 63.5167 542.031 63.55C541.998 63.5833 541.981 63.6 541.981 63.6ZM564.517 57.95C564.517 57.95 564.3 57.95 563.867 57.95C563.434 57.9167 562.917 57.8167 562.317 57.65C561.75 57.45 561.234 57.1 560.767 56.6C560.3 56.1 560.05 55.35 560.017 54.35C559.984 53.35 560.134 52.6167 560.467 52.15C560.8 51.65 561.217 51.3167 561.717 51.15C562.217 50.95 562.7 50.85 563.167 50.85C563.634 50.8167 563.967 50.7833 564.167 50.75C564.367 50.7167 564.7 50.75 565.167 50.85C565.634 50.9167 566.117 51.1 566.617 51.4C567.117 51.6667 567.534 52.0833 567.867 52.65C568.2 53.1833 568.334 53.9 568.267 54.8C568.2 55.6667 567.967 56.3333 567.567 56.8C567.2 57.2333 566.767 57.5333 566.267 57.7C565.8 57.8333 565.384 57.9167 565.017 57.95C564.684 57.95 564.517 57.95 564.517 57.95ZM562.767 75.9L561.567 64.5C561.567 64.5 561.484 64.3333 561.317 64C561.184 63.6333 561.084 63.3833 561.017 63.25C560.984 63.15 560.917 62.95 560.817 62.65C560.75 62.3167 560.834 61.9667 561.067 61.6C561.334 61.2333 561.9 60.9667 562.767 60.8C563.667 60.6333 564.6 60.5833 565.567 60.65C566.534 60.7167 567.384 61.0167 568.117 61.55C568.884 62.05 569.35 62.9333 569.517 64.2C569.65 65.1333 569.784 66.25 569.917 67.55C570.05 68.8167 570.167 70.0667 570.267 71.3C570.4 72.5 570.5 73.5167 570.567 74.35C570.667 75.15 570.717 75.55 570.717 75.55C570.717 75.55 570.734 75.7333 570.767 76.1C570.8 76.4333 570.75 76.8333 570.617 77.3C570.484 77.7333 570.15 78.1333 569.617 78.5C569.117 78.8333 568.3 79 567.167 79C566.034 79 565.167 78.85 564.567 78.55C563.967 78.2167 563.534 77.85 563.267 77.45C563.034 77.05 562.884 76.7 562.817 76.4C562.784 76.0667 562.767 75.9 562.767 75.9ZM580.096 79C580.096 79 579.879 79 579.446 79C579.013 79 578.513 78.9333 577.946 78.8C577.413 78.6667 576.929 78.4 576.496 78C576.063 77.6 575.813 77.0167 575.746 76.25C575.713 75.6167 575.646 74.7167 575.546 73.55C575.446 72.3833 575.329 71.1167 575.196 69.75C575.096 68.35 574.996 67.0333 574.896 65.8C574.796 64.5333 574.713 63.5 574.646 62.7C574.579 61.9 574.546 61.5 574.546 61.5C574.546 61.5 574.563 61.3667 574.596 61.1C574.629 60.8 574.746 60.4667 574.946 60.1C575.179 59.7333 575.563 59.4 576.096 59.1C576.663 58.8 577.446 58.6333 578.446 58.6C579.446 58.5667 580.229 58.6667 580.796 58.9C581.363 59.1333 581.763 59.4167 581.996 59.75C582.263 60.05 582.413 60.3333 582.446 60.6C582.513 60.8333 582.546 60.95 582.546 60.95C582.546 60.95 582.846 60.8 583.446 60.5C584.079 60.1667 584.879 59.8333 585.846 59.5C586.846 59.1667 587.896 58.9667 588.996 58.9C589.163 58.9 589.479 58.9 589.946 58.9C590.446 58.9 590.979 59.0167 591.546 59.25C592.146 59.45 592.729 59.85 593.296 60.45C593.896 61.05 594.396 61.9333 594.796 63.1C595.196 64.2333 595.429 65.7333 595.496 67.6C595.596 69.9333 595.663 71.85 595.696 73.35C595.763 74.85 595.713 76.0167 595.546 76.85C595.413 77.65 595.079 78.2167 594.546 78.55C594.046 78.85 593.246 79 592.146 79C591.079 79 590.296 78.85 589.796 78.55C589.296 78.25 588.979 77.9 588.846 77.5C588.713 77.0667 588.646 76.6833 588.646 76.35C588.646 76.15 588.679 75.6167 588.746 74.75C588.813 73.85 588.863 72.8333 588.896 71.7C588.929 70.5333 588.913 69.4 588.846 68.3C588.813 67.1667 588.679 66.25 588.446 65.55C588.246 64.8167 587.913 64.4667 587.446 64.5C586.879 64.5333 586.346 64.75 585.846 65.15C585.379 65.5167 584.963 65.95 584.596 66.45C584.229 66.9167 583.946 67.3333 583.746 67.7C583.546 68.0333 583.446 68.2 583.446 68.2L583.946 75.75C583.946 75.75 583.946 75.9167 583.946 76.25C583.946 76.5833 583.846 76.9667 583.646 77.4C583.446 77.8 583.063 78.1667 582.496 78.5C581.963 78.8333 581.163 79 580.096 79ZM613.93 77.75C613.93 77.75 613.68 77.85 613.18 78.05C612.713 78.25 612.08 78.4667 611.28 78.7C610.48 78.9 609.58 79 608.58 79C607.847 79 606.93 78.9 605.83 78.7C604.763 78.4667 603.697 78.0333 602.63 77.4C601.563 76.7667 600.68 75.85 599.98 74.65C599.313 73.45 598.997 71.85 599.03 69.85C599.097 67.85 599.547 66.15 600.38 64.75C601.213 63.3167 602.28 62.1333 603.58 61.2C604.88 60.2667 606.247 59.5667 607.68 59.1C609.147 58.6333 610.513 58.3667 611.78 58.3C613.48 58.2 614.913 58.3833 616.08 58.85C617.247 59.2833 618.13 59.8 618.73 60.4C619.33 60.9667 619.63 61.4333 619.63 61.8C619.63 62.0667 619.747 62.6833 619.98 63.65C620.213 64.6167 620.463 65.8167 620.73 67.25C621.03 68.65 621.297 70.2 621.53 71.9C621.763 73.5667 621.897 75.2667 621.93 77C621.963 78.7333 621.913 80.35 621.78 81.85C621.68 83.3833 621.38 84.7333 620.88 85.9C620.413 87.1 619.613 88.0333 618.48 88.7C617.347 89.4 615.78 89.7667 613.78 89.8C611.08 89.8333 608.797 89.5167 606.93 88.85C605.097 88.2167 603.663 87.4833 602.63 86.65C601.597 85.85 600.98 85.2167 600.78 84.75C600.58 84.2833 600.48 83.8167 600.48 83.35C600.513 82.8833 600.763 82.5 601.23 82.2C601.73 81.9 602.563 81.75 603.73 81.75C604.897 81.75 605.763 81.85 606.33 82.05C606.93 82.2833 607.363 82.5333 607.63 82.8C607.897 83.0667 608.13 83.2833 608.33 83.45C608.63 83.6833 609.08 84.0667 609.68 84.6C610.313 85.1667 610.997 85.45 611.73 85.45C612.23 85.45 612.663 85.1 613.03 84.4C613.397 83.7 613.663 82.7667 613.83 81.6C613.997 80.4333 614.03 79.15 613.93 77.75ZM612.68 61.95C611.547 62.05 610.547 62.55 609.68 63.45C608.847 64.35 608.18 65.4333 607.68 66.7C607.18 67.9667 606.897 69.2167 606.83 70.45C606.797 71.6833 607.03 72.7167 607.53 73.55C608.03 74.35 608.847 74.75 609.98 74.75C611.113 74.75 611.963 74.3667 612.53 73.6C613.13 72.8333 613.513 71.9 613.68 70.8C613.88 69.6667 613.947 68.5167 613.88 67.35C613.847 66.15 613.763 65.1167 613.63 64.25C613.497 63.3833 613.43 62.8333 613.43 62.6C613.397 62.2333 613.263 62.0333 613.03 62C612.797 61.9667 612.68 61.95 612.68 61.95ZM649.861 58.7C651.094 58.6 652.044 58.7333 652.711 59.1C653.378 59.4667 653.778 59.6833 653.911 59.75C654.244 59.9167 654.544 60.1 654.811 60.3C655.111 60.5 655.261 60.6 655.261 60.6C655.261 60.6 655.511 60.6833 656.011 60.85C656.511 61.0167 657.094 61.4167 657.761 62.05C658.428 62.65 659.044 63.6 659.611 64.9C660.178 66.2 660.511 67.9667 660.611 70.2C660.678 71.7 660.444 72.9667 659.911 74C659.378 75 658.661 75.8333 657.761 76.5C656.894 77.1333 655.944 77.6333 654.911 78C653.911 78.3333 652.944 78.5667 652.011 78.7C651.111 78.8333 650.361 78.9167 649.761 78.95C649.194 78.9833 648.911 79 648.911 79C648.911 79 648.578 79 647.911 79C647.278 79 646.478 78.9 645.511 78.7C644.544 78.4667 643.578 78.0333 642.611 77.4C641.678 76.7333 640.894 75.7667 640.261 74.5C639.661 73.2333 639.394 71.55 639.461 69.45C639.528 67.35 639.911 65.6333 640.611 64.3C641.344 62.9333 642.211 61.8667 643.211 61.1C644.244 60.3333 645.261 59.7833 646.261 59.45C647.294 59.1167 648.144 58.9167 648.811 58.85C649.511 58.75 649.861 58.7 649.861 58.7ZM650.061 63.6C650.061 63.6 649.844 63.8667 649.411 64.4C649.011 64.9333 648.594 65.6833 648.161 66.65C647.761 67.6167 647.561 68.75 647.561 70.05C647.561 71.3167 647.711 72.3167 648.011 73.05C648.311 73.7833 648.628 74.3167 648.961 74.65C649.328 74.95 649.611 75.1 649.811 75.1C650.011 75.1 650.328 75.0167 650.761 74.85C651.228 74.65 651.644 74.2167 652.011 73.55C652.378 72.8833 652.544 71.8333 652.511 70.4C652.478 69.2 652.344 68.2333 652.111 67.5C651.911 66.7667 651.628 66.1167 651.261 65.55C650.928 64.95 650.528 64.3 650.061 63.6ZM668.304 75.7C667.838 74.3 667.354 72.8667 666.854 71.4C666.354 69.9 665.871 68.4833 665.404 67.15C664.971 65.7833 664.588 64.6 664.254 63.6C663.921 62.6 663.688 61.9 663.554 61.5C663.288 60.6667 663.438 59.9667 664.004 59.4C664.571 58.8333 665.671 58.55 667.304 58.55C668.404 58.55 669.221 58.7167 669.754 59.05C670.288 59.35 670.621 59.6667 670.754 60C670.921 60.3 671.004 60.45 671.004 60.45L673.104 69.05L673.454 71.95L674.254 67.9C674.254 67.9 674.338 67.6667 674.504 67.2C674.671 66.7 674.888 66.1 675.154 65.4C675.421 64.6667 675.688 63.9333 675.954 63.2C676.221 62.4333 676.454 61.7833 676.654 61.25C677.054 60.1833 677.588 59.4833 678.254 59.15C678.954 58.7833 680.171 58.6333 681.904 58.7C682.771 58.7333 683.404 58.9 683.804 59.2C684.204 59.4667 684.438 59.7833 684.504 60.15C684.604 60.4833 684.621 60.7833 684.554 61.05C684.521 61.3167 684.504 61.45 684.504 61.45L677.454 76.45C677.454 76.45 677.321 76.6667 677.054 77.1C676.788 77.5 676.338 77.9167 675.704 78.35C675.104 78.7833 674.238 79 673.104 79C672.171 79 671.388 78.8333 670.754 78.5C670.154 78.1667 669.671 77.7833 669.304 77.35C668.938 76.9167 668.671 76.5333 668.504 76.2C668.371 75.8667 668.304 75.7 668.304 75.7ZM708.188 63.9C708.088 65.5667 707.622 66.9167 706.788 67.95C705.955 68.95 704.938 69.7167 703.738 70.25C702.572 70.75 701.405 71.1 700.238 71.3C699.072 71.4667 698.088 71.55 697.288 71.55C696.522 71.55 696.138 71.55 696.138 71.55C696.338 72.7167 696.622 73.55 696.988 74.05C697.355 74.55 697.755 74.8333 698.188 74.9C698.655 74.9667 699.088 74.9333 699.488 74.8C699.888 74.6333 700.205 74.45 700.438 74.25C700.705 74.05 700.838 73.95 700.838 73.95C700.838 73.95 701.022 73.8 701.388 73.5C701.755 73.2 702.322 72.9167 703.088 72.65C703.888 72.35 704.888 72.2 706.088 72.2C707.455 72.2 708.372 72.3833 708.838 72.75C709.338 73.0833 709.572 73.4833 709.538 73.95C709.538 74.3833 709.438 74.7833 709.238 75.15C709.072 75.4833 708.988 75.65 708.988 75.65C708.988 75.65 708.838 75.8167 708.538 76.15C708.272 76.45 707.772 76.8167 707.038 77.25C706.305 77.6833 705.288 78.0833 703.988 78.45C702.688 78.7833 701.022 78.9667 698.988 79C697.022 79.0333 695.372 78.7667 694.038 78.2C692.705 77.6333 691.605 76.9 690.738 76C689.872 75.0667 689.205 74.1 688.738 73.1C688.305 72.0667 687.988 71.1167 687.788 70.25C687.622 69.35 687.538 68.65 687.538 68.15C687.538 67.65 687.572 67 687.638 66.2C687.738 65.4 687.955 64.5667 688.288 63.7C688.655 62.8 689.205 61.95 689.938 61.15C690.672 60.35 691.672 59.7 692.938 59.2C694.238 58.7 695.888 58.4333 697.888 58.4C700.388 58.3667 702.338 58.5833 703.738 59.05C705.138 59.5167 706.155 60.0833 706.788 60.75C707.422 61.4167 707.805 62.05 707.938 62.65C708.105 63.25 708.188 63.6667 708.188 63.9ZM695.438 68.1C697.472 67.9333 698.988 67.5 699.988 66.8C700.988 66.1 701.572 65.3167 701.738 64.45C701.905 63.5833 701.738 62.85 701.238 62.25C700.772 61.6167 700.055 61.3333 699.088 61.4C698.122 61.4333 697.388 61.8 696.888 62.5C696.388 63.1667 696.038 63.95 695.838 64.85C695.638 65.7167 695.522 66.4833 695.488 67.15C695.455 67.7833 695.438 68.1 695.438 68.1ZM715.261 75.6C715.261 75.2333 715.211 74.6 715.111 73.7C715.011 72.8 714.877 71.7833 714.711 70.65C714.577 69.4833 714.427 68.3333 714.261 67.2C714.094 66.0333 713.911 65 713.711 64.1C713.544 63.1667 713.394 62.5 713.261 62.1C712.927 61.1 713.111 60.4 713.811 60C714.544 59.5667 715.561 59.2833 716.861 59.15C718.161 59.0167 719.094 59.1167 719.661 59.45C720.261 59.75 720.561 59.9 720.561 59.9C721.061 59.4 721.877 59.05 723.011 58.85C724.177 58.65 725.394 58.5667 726.661 58.6C728.294 58.6333 729.477 58.8833 730.211 59.35C730.944 59.8167 731.311 60.3167 731.311 60.85C731.311 61.25 731.261 61.55 731.161 61.75C731.061 61.95 730.661 62.15 729.961 62.35C729.294 62.5167 728.077 62.8167 726.311 63.25C725.277 63.4833 724.511 64.05 724.011 64.95C723.511 65.8167 723.194 66.8333 723.061 68C722.961 69.1333 722.961 70.2667 723.061 71.4C723.161 72.5 723.277 73.4333 723.411 74.2C723.544 74.9333 723.611 75.3333 723.611 75.4C723.611 75.4667 723.627 75.7 723.661 76.1C723.727 76.4667 723.677 76.8833 723.511 77.35C723.377 77.7833 723.027 78.1667 722.461 78.5C721.894 78.8333 720.994 79 719.761 79C718.527 79 717.594 78.8333 716.961 78.5C716.327 78.1333 715.894 77.7333 715.661 77.3C715.427 76.8667 715.294 76.4833 715.261 76.15C715.261 75.7833 715.261 75.6 715.261 75.6ZM756.459 49.8C757.159 49.8 757.826 49.8333 758.459 49.9C759.126 49.9333 759.676 50.1333 760.109 50.5C760.543 50.8667 760.793 51.5333 760.859 52.5C760.893 52.9667 760.959 53.75 761.059 54.85C761.193 55.9167 761.326 57.1667 761.459 58.6C761.626 60.0333 761.793 61.5167 761.959 63.05C762.159 64.55 762.343 66 762.509 67.4C762.676 68.7667 762.826 69.95 762.959 70.95C763.093 71.95 763.193 72.6167 763.259 72.95C763.359 73.45 763.459 74.05 763.559 74.75C763.659 75.4167 763.659 76.0833 763.559 76.75C763.459 77.3833 763.143 77.9167 762.609 78.35C762.109 78.7833 761.276 79 760.109 79C758.976 79 758.093 78.8833 757.459 78.65C756.826 78.3833 756.376 78.0667 756.109 77.7C755.843 77.3333 755.676 77 755.609 76.7C755.576 76.3667 755.543 76.1333 755.509 76C755.476 75.9 755.393 75.4333 755.259 74.6C755.126 73.7667 754.959 72.7667 754.759 71.6C754.593 70.4333 754.409 69.2833 754.209 68.15C754.043 66.9833 753.893 66.0167 753.759 65.25C753.626 64.4833 753.559 64.1 753.559 64.1C753.559 64.1 753.343 64.1167 752.909 64.15C752.509 64.15 752.009 64.1333 751.409 64.1C750.843 64.0333 750.293 63.9 749.759 63.7C749.259 63.4667 748.893 63.1167 748.659 62.65C748.459 62.15 748.509 61.4833 748.809 60.65C749.209 59.5833 749.626 58.4333 750.059 57.2C750.493 55.9667 750.993 54.7833 751.559 53.65C752.159 52.5167 752.843 51.6 753.609 50.9C754.409 50.1667 755.359 49.8 756.459 49.8ZM777.142 50.3C777.142 50.3 777.492 50.3167 778.192 50.35C778.892 50.3833 779.759 50.5667 780.792 50.9C781.825 51.2 782.875 51.7833 783.942 52.65C785.009 53.4833 785.909 54.7 786.642 56.3C787.409 57.9 787.842 60.0167 787.942 62.65C788.075 66.8167 787.792 70.1 787.092 72.5C786.392 74.8667 785.275 76.55 783.742 77.55C782.209 78.5167 780.259 79 777.892 79C774.359 79 771.609 77.7833 769.642 75.35C767.675 72.8833 766.692 68.9833 766.692 63.65C766.692 60.9833 766.975 58.7833 767.542 57.05C768.109 55.3167 768.875 53.9667 769.842 53C770.809 52.0333 771.909 51.35 773.142 50.95C774.409 50.5167 775.742 50.3 777.142 50.3ZM777.492 54.3C777.259 54.3667 776.992 54.45 776.692 54.55C776.425 54.65 776.159 54.9667 775.892 55.5C775.659 56.0333 775.442 56.9333 775.242 58.2C775.075 59.4667 774.959 61.2833 774.892 63.65C774.825 66.35 774.875 68.4833 775.042 70.05C775.209 71.5833 775.459 72.6833 775.792 73.35C776.159 73.9833 776.592 74.3167 777.092 74.35C777.492 74.3833 777.859 74.2833 778.192 74.05C778.559 73.8167 778.875 73.3333 779.142 72.6C779.442 71.8667 779.659 70.7833 779.792 69.35C779.959 67.9167 780.042 66.0167 780.042 63.65C780.042 61.2833 779.909 59.4667 779.642 58.2C779.409 56.9 779.109 55.9833 778.742 55.45C778.409 54.8833 778.109 54.55 777.842 54.45C777.609 54.35 777.492 54.3 777.492 54.3ZM801.14 50.3C801.14 50.3 801.49 50.3167 802.19 50.35C802.89 50.3833 803.757 50.5667 804.79 50.9C805.823 51.2 806.873 51.7833 807.94 52.65C809.007 53.4833 809.907 54.7 810.64 56.3C811.407 57.9 811.84 60.0167 811.94 62.65C812.073 66.8167 811.79 70.1 811.09 72.5C810.39 74.8667 809.273 76.55 807.74 77.55C806.207 78.5167 804.257 79 801.89 79C798.357 79 795.607 77.7833 793.64 75.35C791.673 72.8833 790.69 68.9833 790.69 63.65C790.69 60.9833 790.973 58.7833 791.54 57.05C792.107 55.3167 792.873 53.9667 793.84 53C794.807 52.0333 795.907 51.35 797.14 50.95C798.407 50.5167 799.74 50.3 801.14 50.3ZM801.49 54.3C801.257 54.3667 800.99 54.45 800.69 54.55C800.423 54.65 800.157 54.9667 799.89 55.5C799.657 56.0333 799.44 56.9333 799.24 58.2C799.073 59.4667 798.957 61.2833 798.89 63.65C798.823 66.35 798.873 68.4833 799.04 70.05C799.207 71.5833 799.457 72.6833 799.79 73.35C800.157 73.9833 800.59 74.3167 801.09 74.35C801.49 74.3833 801.857 74.2833 802.19 74.05C802.557 73.8167 802.873 73.3333 803.14 72.6C803.44 71.8667 803.657 70.7833 803.79 69.35C803.957 67.9167 804.04 66.0167 804.04 63.65C804.04 61.2833 803.907 59.4667 803.64 58.2C803.407 56.9 803.107 55.9833 802.74 55.45C802.407 54.8833 802.107 54.55 801.84 54.45C801.607 54.35 801.49 54.3 801.49 54.3ZM825.138 50.3C825.138 50.3 825.488 50.3167 826.188 50.35C826.888 50.3833 827.755 50.5667 828.788 50.9C829.821 51.2 830.871 51.7833 831.938 52.65C833.005 53.4833 833.905 54.7 834.638 56.3C835.405 57.9 835.838 60.0167 835.938 62.65C836.071 66.8167 835.788 70.1 835.088 72.5C834.388 74.8667 833.271 76.55 831.738 77.55C830.205 78.5167 828.255 79 825.888 79C822.355 79 819.605 77.7833 817.638 75.35C815.671 72.8833 814.688 68.9833 814.688 63.65C814.688 60.9833 814.971 58.7833 815.538 57.05C816.105 55.3167 816.871 53.9667 817.838 53C818.805 52.0333 819.905 51.35 821.138 50.95C822.405 50.5167 823.738 50.3 825.138 50.3ZM825.488 54.3C825.255 54.3667 824.988 54.45 824.688 54.55C824.421 54.65 824.155 54.9667 823.888 55.5C823.655 56.0333 823.438 56.9333 823.238 58.2C823.071 59.4667 822.955 61.2833 822.888 63.65C822.821 66.35 822.871 68.4833 823.038 70.05C823.205 71.5833 823.455 72.6833 823.788 73.35C824.155 73.9833 824.588 74.3167 825.088 74.35C825.488 74.3833 825.855 74.2833 826.188 74.05C826.555 73.8167 826.871 73.3333 827.138 72.6C827.438 71.8667 827.655 70.7833 827.788 69.35C827.955 67.9167 828.038 66.0167 828.038 63.65C828.038 61.2833 827.905 59.4667 827.638 58.2C827.405 56.9 827.105 55.9833 826.738 55.45C826.405 54.8833 826.105 54.55 825.838 54.45C825.605 54.35 825.488 54.3 825.488 54.3ZM351.764 134.15L350.114 113.85C350.114 113.85 350.03 113.717 349.864 113.45C349.73 113.183 349.597 112.85 349.464 112.45C349.33 112.017 349.297 111.6 349.364 111.2C349.43 110.8 349.68 110.467 350.114 110.2C350.48 110 351.147 109.617 352.114 109.05C353.114 108.45 354.33 107.867 355.764 107.3C357.197 106.733 358.73 106.333 360.364 106.1C362.03 105.867 363.697 105.967 365.364 106.4C367.064 106.8 368.664 107.717 370.164 109.15C371.63 110.55 372.547 112.1 372.914 113.8C373.28 115.5 373.247 117.167 372.814 118.8C372.414 120.433 371.73 121.867 370.764 123.1C369.83 124.333 368.764 125.2 367.564 125.7C365.93 126.367 364.53 126.783 363.364 126.95C362.197 127.083 361.297 127.117 360.664 127.05C360.03 127.017 359.714 127 359.714 127L360.214 134.55C360.214 134.55 360.214 134.717 360.214 135.05C360.214 135.383 360.114 135.767 359.914 136.2C359.747 136.633 359.38 137 358.814 137.3C358.247 137.633 357.414 137.8 356.314 137.8C354.847 137.767 353.78 137.533 353.114 137.1C352.48 136.667 352.097 136.167 351.964 135.6C351.83 135.033 351.764 134.55 351.764 134.15ZM358.164 111.6L359.264 122.45C359.264 122.45 359.547 122.45 360.114 122.45C360.68 122.45 361.314 122.35 362.014 122.15C362.747 121.95 363.38 121.567 363.914 121C364.447 120.433 364.68 119.583 364.614 118.45C364.547 116.95 364.38 115.617 364.114 114.45C363.847 113.25 363.447 112.333 362.914 111.7C362.38 111.067 361.647 110.833 360.714 111C359.78 111.167 359.13 111.3 358.764 111.4C358.43 111.467 358.247 111.517 358.214 111.55C358.18 111.583 358.164 111.6 358.164 111.6ZM396.35 111.9C396.25 113.567 395.783 114.917 394.95 115.95C394.116 116.95 393.1 117.717 391.9 118.25C390.733 118.75 389.566 119.1 388.4 119.3C387.233 119.467 386.25 119.55 385.45 119.55C384.683 119.55 384.3 119.55 384.3 119.55C384.5 120.717 384.783 121.55 385.15 122.05C385.516 122.55 385.916 122.833 386.35 122.9C386.816 122.967 387.25 122.933 387.65 122.8C388.05 122.633 388.366 122.45 388.6 122.25C388.866 122.05 389 121.95 389 121.95C389 121.95 389.183 121.8 389.55 121.5C389.916 121.2 390.483 120.917 391.25 120.65C392.05 120.35 393.05 120.2 394.25 120.2C395.616 120.2 396.533 120.383 397 120.75C397.5 121.083 397.733 121.483 397.7 121.95C397.7 122.383 397.6 122.783 397.4 123.15C397.233 123.483 397.15 123.65 397.15 123.65C397.15 123.65 397 123.817 396.7 124.15C396.433 124.45 395.933 124.817 395.2 125.25C394.466 125.683 393.45 126.083 392.15 126.45C390.85 126.783 389.183 126.967 387.15 127C385.183 127.033 383.533 126.767 382.2 126.2C380.866 125.633 379.766 124.9 378.9 124C378.033 123.067 377.366 122.1 376.9 121.1C376.466 120.067 376.15 119.117 375.95 118.25C375.783 117.35 375.7 116.65 375.7 116.15C375.7 115.65 375.733 115 375.8 114.2C375.9 113.4 376.116 112.567 376.45 111.7C376.816 110.8 377.366 109.95 378.1 109.15C378.833 108.35 379.833 107.7 381.1 107.2C382.4 106.7 384.05 106.433 386.05 106.4C388.55 106.367 390.5 106.583 391.9 107.05C393.3 107.517 394.316 108.083 394.95 108.75C395.583 109.417 395.966 110.05 396.1 110.65C396.266 111.25 396.35 111.667 396.35 111.9ZM383.6 116.1C385.633 115.933 387.15 115.5 388.15 114.8C389.15 114.1 389.733 113.317 389.9 112.45C390.066 111.583 389.9 110.85 389.4 110.25C388.933 109.617 388.216 109.333 387.25 109.4C386.283 109.433 385.55 109.8 385.05 110.5C384.55 111.167 384.2 111.95 384 112.85C383.8 113.717 383.683 114.483 383.65 115.15C383.616 115.783 383.6 116.1 383.6 116.1ZM401.372 99.7C401.339 98.8667 401.589 98.2 402.122 97.7C402.655 97.1667 403.839 96.85 405.672 96.75C406.905 96.6833 407.805 96.8333 408.372 97.2C408.939 97.5667 409.289 97.95 409.422 98.35C409.589 98.7167 409.672 98.9 409.672 98.9L409.972 103.35C409.972 103.35 410.239 103.35 410.772 103.35C411.339 103.35 411.972 103.417 412.672 103.55C413.405 103.65 414.039 103.867 414.572 104.2C415.139 104.533 415.422 105.05 415.422 105.75C415.422 106.45 415.155 106.967 414.622 107.3C414.089 107.633 413.472 107.867 412.772 108C412.072 108.1 411.439 108.15 410.872 108.15C410.339 108.15 410.072 108.15 410.072 108.15C410.072 108.15 410.072 108.533 410.072 109.3C410.105 110.033 410.122 111 410.122 112.2C410.122 113.367 410.139 114.617 410.172 115.95C410.205 117.283 410.222 118.567 410.222 119.8C410.222 121 410.222 122.017 410.222 122.85C410.255 123.65 410.272 124.117 410.272 124.25C410.272 124.483 410.189 124.817 410.022 125.25C409.889 125.683 409.505 126.083 408.872 126.45C408.272 126.817 407.272 127 405.872 127C404.839 127 404.039 126.883 403.472 126.65C402.905 126.383 402.489 126.1 402.222 125.8C401.989 125.467 401.855 125.183 401.822 124.95C401.789 124.683 401.772 124.55 401.772 124.55L401.372 99.7ZM447.519 125.75C447.519 125.75 447.269 125.85 446.769 126.05C446.302 126.25 445.669 126.467 444.869 126.7C444.069 126.9 443.169 127 442.169 127C441.435 127 440.519 126.9 439.419 126.7C438.352 126.467 437.285 126.033 436.219 125.4C435.152 124.767 434.269 123.85 433.569 122.65C432.902 121.45 432.585 119.85 432.619 117.85C432.685 115.85 433.135 114.15 433.969 112.75C434.802 111.317 435.869 110.133 437.169 109.2C438.469 108.267 439.835 107.567 441.269 107.1C442.735 106.633 444.102 106.367 445.369 106.3C447.069 106.2 448.502 106.383 449.669 106.85C450.835 107.283 451.719 107.8 452.319 108.4C452.919 108.967 453.219 109.433 453.219 109.8C453.219 110.067 453.335 110.683 453.569 111.65C453.802 112.617 454.052 113.817 454.319 115.25C454.619 116.65 454.885 118.2 455.119 119.9C455.352 121.567 455.485 123.267 455.519 125C455.552 126.733 455.502 128.35 455.369 129.85C455.269 131.383 454.969 132.733 454.469 133.9C454.002 135.1 453.202 136.033 452.069 136.7C450.935 137.4 449.369 137.767 447.369 137.8C444.669 137.833 442.385 137.517 440.519 136.85C438.685 136.217 437.252 135.483 436.219 134.65C435.185 133.85 434.569 133.217 434.369 132.75C434.169 132.283 434.069 131.817 434.069 131.35C434.102 130.883 434.352 130.5 434.819 130.2C435.319 129.9 436.152 129.75 437.319 129.75C438.485 129.75 439.352 129.85 439.919 130.05C440.519 130.283 440.952 130.533 441.219 130.8C441.485 131.067 441.719 131.283 441.919 131.45C442.219 131.683 442.669 132.067 443.269 132.6C443.902 133.167 444.585 133.45 445.319 133.45C445.819 133.45 446.252 133.1 446.619 132.4C446.985 131.7 447.252 130.767 447.419 129.6C447.585 128.433 447.619 127.15 447.519 125.75ZM446.269 109.95C445.135 110.05 444.135 110.55 443.269 111.45C442.435 112.35 441.769 113.433 441.269 114.7C440.769 115.967 440.485 117.217 440.419 118.45C440.385 119.683 440.619 120.717 441.119 121.55C441.619 122.35 442.435 122.75 443.569 122.75C444.702 122.75 445.552 122.367 446.119 121.6C446.719 120.833 447.102 119.9 447.269 118.8C447.469 117.667 447.535 116.517 447.469 115.35C447.435 114.15 447.352 113.117 447.219 112.25C447.085 111.383 447.019 110.833 447.019 110.6C446.985 110.233 446.852 110.033 446.619 110C446.385 109.967 446.269 109.95 446.269 109.95ZM463.262 96.9C463.262 96.9 463.478 96.9167 463.912 96.95C464.345 96.95 464.845 97.0333 465.412 97.2C465.978 97.3333 466.478 97.5833 466.912 97.95C467.345 98.3167 467.562 98.8333 467.562 99.5C467.562 99.9333 467.578 100.817 467.612 102.15C467.645 103.483 467.678 105.067 467.712 106.9C467.745 108.7 467.778 110.567 467.812 112.5C467.878 114.4 467.928 116.183 467.962 117.85C467.995 119.517 468.012 120.867 468.012 121.9C468.045 122.933 468.062 123.45 468.062 123.45C468.062 123.45 468.062 123.633 468.062 124C468.062 124.333 467.962 124.75 467.762 125.25C467.562 125.717 467.178 126.133 466.612 126.5C466.045 126.833 465.212 127 464.112 127C462.645 127 461.578 126.817 460.912 126.45C460.245 126.05 459.828 125.617 459.662 125.15C459.528 124.65 459.478 124.267 459.512 124C459.545 123.867 459.562 123.283 459.562 122.25C459.562 121.217 459.545 119.917 459.512 118.35C459.512 116.783 459.495 115.1 459.462 113.3C459.428 111.5 459.395 109.733 459.362 108C459.328 106.233 459.278 104.667 459.212 103.3C459.178 101.9 459.145 100.867 459.112 100.2C459.045 99.2667 459.262 98.5667 459.762 98.1C460.295 97.6333 460.895 97.3333 461.562 97.2C462.262 97.0333 462.828 96.9333 463.262 96.9ZM482.132 106.7C483.365 106.6 484.315 106.733 484.982 107.1C485.648 107.467 486.048 107.683 486.182 107.75C486.515 107.917 486.815 108.1 487.082 108.3C487.382 108.5 487.532 108.6 487.532 108.6C487.532 108.6 487.782 108.683 488.282 108.85C488.782 109.017 489.365 109.417 490.032 110.05C490.698 110.65 491.315 111.6 491.882 112.9C492.448 114.2 492.782 115.967 492.882 118.2C492.948 119.7 492.715 120.967 492.182 122C491.648 123 490.932 123.833 490.032 124.5C489.165 125.133 488.215 125.633 487.182 126C486.182 126.333 485.215 126.567 484.282 126.7C483.382 126.833 482.632 126.917 482.032 126.95C481.465 126.983 481.182 127 481.182 127C481.182 127 480.848 127 480.182 127C479.548 127 478.748 126.9 477.782 126.7C476.815 126.467 475.848 126.033 474.882 125.4C473.948 124.733 473.165 123.767 472.532 122.5C471.932 121.233 471.665 119.55 471.732 117.45C471.798 115.35 472.182 113.633 472.882 112.3C473.615 110.933 474.482 109.867 475.482 109.1C476.515 108.333 477.532 107.783 478.532 107.45C479.565 107.117 480.415 106.917 481.082 106.85C481.782 106.75 482.132 106.7 482.132 106.7ZM482.332 111.6C482.332 111.6 482.115 111.867 481.682 112.4C481.282 112.933 480.865 113.683 480.432 114.65C480.032 115.617 479.832 116.75 479.832 118.05C479.832 119.317 479.982 120.317 480.282 121.05C480.582 121.783 480.898 122.317 481.232 122.65C481.598 122.95 481.882 123.1 482.082 123.1C482.282 123.1 482.598 123.017 483.032 122.85C483.498 122.65 483.915 122.217 484.282 121.55C484.648 120.883 484.815 119.833 484.782 118.4C484.748 117.2 484.615 116.233 484.382 115.5C484.182 114.767 483.898 114.117 483.532 113.55C483.198 112.95 482.798 112.3 482.332 111.6ZM496.625 98.2C496.625 98.2 496.658 98.05 496.725 97.75C496.825 97.45 497.025 97.1167 497.325 96.75C497.625 96.3833 498.092 96.0667 498.725 95.8C499.358 95.5 500.225 95.3667 501.325 95.4C502.358 95.4333 503.125 95.6667 503.625 96.1C504.125 96.5333 504.425 97.0833 504.525 97.75C504.625 98.3833 504.592 99.0333 504.425 99.7C504.192 100.6 504.042 101.617 503.975 102.75C503.908 103.883 503.875 104.867 503.875 105.7C503.908 106.5 503.925 106.9 503.925 106.9C506.592 106.9 508.742 107.233 510.375 107.9C512.042 108.567 513.325 109.4 514.225 110.4C515.125 111.4 515.742 112.4 516.075 113.4C516.442 114.4 516.658 115.233 516.725 115.9C516.792 116.567 516.825 116.9 516.825 116.9C516.825 116.9 516.775 117.25 516.675 117.95C516.608 118.617 516.425 119.45 516.125 120.45C515.825 121.45 515.342 122.45 514.675 123.45C514.008 124.45 513.092 125.3 511.925 126C510.758 126.667 509.258 127 507.425 127C505.125 127 503.225 126.483 501.725 125.45C500.258 124.417 499.108 123.05 498.275 121.35C497.442 119.617 496.842 117.733 496.475 115.7C496.108 113.633 495.892 111.583 495.825 109.55C495.792 107.483 495.842 105.6 495.975 103.9C496.108 102.167 496.242 100.783 496.375 99.75C496.542 98.7167 496.625 98.2 496.625 98.2ZM503.525 110.85C503.525 110.85 503.508 111.233 503.475 112C503.442 112.733 503.442 113.65 503.475 114.75C503.542 115.85 503.708 116.95 503.975 118.05C504.242 119.15 504.675 120.083 505.275 120.85C505.908 121.583 506.758 121.933 507.825 121.9C508.592 121.9 509.158 121.6 509.525 121C509.892 120.367 510.125 119.65 510.225 118.85C510.358 118.05 510.408 117.333 510.375 116.7C510.342 116.067 510.325 115.7 510.325 115.6C510.325 115.5 510.258 115.2 510.125 114.7C510.025 114.167 509.758 113.583 509.325 112.95C508.925 112.283 508.258 111.75 507.325 111.35C506.425 110.917 505.158 110.75 503.525 110.85ZM530.166 106.35C531.833 106.317 533.249 106.467 534.416 106.8C535.583 107.1 536.549 107.467 537.316 107.9C538.083 108.333 538.683 108.717 539.116 109.05C539.549 109.383 539.866 109.55 540.066 109.55C540.433 109.583 540.699 109.767 540.866 110.1C541.033 110.4 541.116 110.55 541.116 110.55C541.116 110.55 541.166 110.883 541.266 111.55C541.366 112.217 541.483 113.067 541.616 114.1C541.783 115.133 541.933 116.217 542.066 117.35C542.199 118.483 542.316 119.55 542.416 120.55C542.516 121.55 542.566 122.333 542.566 122.9C542.566 123.833 542.499 124.583 542.366 125.15C542.266 125.717 541.933 126.15 541.366 126.45C540.799 126.717 539.866 126.9 538.566 127C537.599 127.067 536.899 127.05 536.466 126.95C536.033 126.85 535.766 126.733 535.666 126.6C535.566 126.467 535.516 126.4 535.516 126.4C535.216 126.633 534.716 126.8 534.016 126.9C533.349 126.967 532.716 127 532.116 127C531.516 127 531.216 127 531.216 127C531.216 127 530.833 126.95 530.066 126.85C529.299 126.717 528.349 126.467 527.216 126.1C526.116 125.7 524.999 125.117 523.866 124.35C522.766 123.55 521.849 122.5 521.116 121.2C520.383 119.867 520.033 118.217 520.066 116.25C520.099 114.283 520.466 112.683 521.166 111.45C521.866 110.183 522.716 109.2 523.716 108.5C524.716 107.8 525.699 107.3 526.666 107C527.666 106.7 528.499 106.517 529.166 106.45C529.833 106.383 530.166 106.35 530.166 106.35ZM533.916 111.5C533.749 111.267 533.383 111.017 532.816 110.75C532.283 110.45 531.766 110.2 531.266 110C530.799 109.8 530.566 109.733 530.566 109.8C530.566 109.833 530.383 110.117 530.016 110.65C529.683 111.15 529.333 111.9 528.966 112.9C528.633 113.867 528.449 115.033 528.416 116.4C528.383 117.767 528.566 118.95 528.966 119.95C529.366 120.95 529.849 121.717 530.416 122.25C531.016 122.783 531.566 123.05 532.066 123.05C532.433 123.05 532.783 122.883 533.116 122.55C533.449 122.183 533.733 121.783 533.966 121.35C534.199 120.883 534.383 120.483 534.516 120.15C534.649 119.817 534.716 119.65 534.716 119.65L533.916 111.5ZM550.172 96.9C550.172 96.9 550.389 96.9167 550.822 96.95C551.255 96.95 551.755 97.0333 552.322 97.2C552.889 97.3333 553.389 97.5833 553.822 97.95C554.255 98.3167 554.472 98.8333 554.472 99.5C554.472 99.9333 554.489 100.817 554.522 102.15C554.555 103.483 554.589 105.067 554.622 106.9C554.655 108.7 554.689 110.567 554.722 112.5C554.789 114.4 554.839 116.183 554.872 117.85C554.905 119.517 554.922 120.867 554.922 121.9C554.955 122.933 554.972 123.45 554.972 123.45C554.972 123.45 554.972 123.633 554.972 124C554.972 124.333 554.872 124.75 554.672 125.25C554.472 125.717 554.089 126.133 553.522 126.5C552.955 126.833 552.122 127 551.022 127C549.555 127 548.489 126.817 547.822 126.45C547.155 126.05 546.739 125.617 546.572 125.15C546.439 124.65 546.389 124.267 546.422 124C546.455 123.867 546.472 123.283 546.472 122.25C546.472 121.217 546.455 119.917 546.422 118.35C546.422 116.783 546.405 115.1 546.372 113.3C546.339 111.5 546.305 109.733 546.272 108C546.239 106.233 546.189 104.667 546.122 103.3C546.089 101.9 546.055 100.867 546.022 100.2C545.955 99.2667 546.172 98.5667 546.672 98.1C547.205 97.6333 547.805 97.3333 548.472 97.2C549.172 97.0333 549.739 96.9333 550.172 96.9ZM562.842 96.9C562.842 96.9 563.058 96.9167 563.492 96.95C563.925 96.95 564.425 97.0333 564.992 97.2C565.558 97.3333 566.058 97.5833 566.492 97.95C566.925 98.3167 567.142 98.8333 567.142 99.5C567.142 99.9333 567.158 100.817 567.192 102.15C567.225 103.483 567.258 105.067 567.292 106.9C567.325 108.7 567.358 110.567 567.392 112.5C567.458 114.4 567.508 116.183 567.542 117.85C567.575 119.517 567.592 120.867 567.592 121.9C567.625 122.933 567.642 123.45 567.642 123.45C567.642 123.45 567.642 123.633 567.642 124C567.642 124.333 567.542 124.75 567.342 125.25C567.142 125.717 566.758 126.133 566.192 126.5C565.625 126.833 564.792 127 563.692 127C562.225 127 561.158 126.817 560.492 126.45C559.825 126.05 559.408 125.617 559.242 125.15C559.108 124.65 559.058 124.267 559.092 124C559.125 123.867 559.142 123.283 559.142 122.25C559.142 121.217 559.125 119.917 559.092 118.35C559.092 116.783 559.075 115.1 559.042 113.3C559.008 111.5 558.975 109.733 558.942 108C558.908 106.233 558.858 104.667 558.792 103.3C558.758 101.9 558.725 100.867 558.692 100.2C558.625 99.2667 558.842 98.5667 559.342 98.1C559.875 97.6333 560.475 97.3333 561.142 97.2C561.842 97.0333 562.408 96.9333 562.842 96.9ZM574.062 123.65C574.062 123.617 573.928 123.417 573.662 123.05C573.428 122.65 573.145 122 572.812 121.1C572.478 120.167 572.162 118.883 571.862 117.25C571.562 115.583 571.328 113.483 571.162 110.95C571.095 109.617 571.278 108.667 571.712 108.1C572.178 107.533 572.762 107.183 573.462 107.05C574.162 106.883 574.828 106.8 575.462 106.8C575.462 106.8 575.645 106.8 576.012 106.8C576.412 106.767 576.862 106.8 577.362 106.9C577.862 106.967 578.295 107.183 578.662 107.55C579.062 107.883 579.278 108.417 579.312 109.15C579.345 109.75 579.378 110.567 579.412 111.6C579.445 112.633 579.495 113.75 579.562 114.95C579.662 116.117 579.812 117.25 580.012 118.35C580.212 119.45 580.462 120.367 580.762 121.1C581.095 121.8 581.512 122.183 582.012 122.25C582.512 122.317 582.845 122.033 583.012 121.4C583.178 120.733 583.228 119.9 583.162 118.9C583.128 117.9 583.028 116.9 582.862 115.9C582.728 114.867 582.595 114 582.462 113.3C582.328 112.6 582.262 112.25 582.262 112.25C582.262 112.25 582.195 112.05 582.062 111.65C581.928 111.217 581.878 110.733 581.912 110.2C581.945 109.667 582.178 109.183 582.612 108.75C583.045 108.317 583.812 108.083 584.912 108.05C586.412 107.983 587.528 108.133 588.262 108.5C589.028 108.867 589.545 109.333 589.812 109.9C590.112 110.467 590.295 111.05 590.362 111.65C590.428 111.983 590.545 112.783 590.712 114.05C590.912 115.283 591.128 116.75 591.362 118.45C591.595 120.117 591.778 121.85 591.912 123.65C592.045 125.417 592.095 127.033 592.062 128.5C592.028 129.967 591.828 131.083 591.462 131.85C590.895 133.083 590.112 134.217 589.112 135.25C588.145 136.317 586.845 137.133 585.212 137.7C583.612 138.3 581.562 138.533 579.062 138.4C577.195 138.3 575.695 138 574.562 137.5C573.428 137.033 572.578 136.517 572.012 135.95C571.445 135.417 571.062 134.933 570.862 134.5C570.695 134.1 570.612 133.9 570.612 133.9C570.612 133.9 570.545 133.717 570.412 133.35C570.312 132.983 570.295 132.55 570.362 132.05C570.462 131.583 570.778 131.167 571.312 130.8C571.845 130.467 572.778 130.317 574.112 130.35C575.445 130.383 576.412 130.5 577.012 130.7C577.612 130.933 577.995 131.183 578.162 131.45C578.328 131.717 578.378 131.95 578.312 132.15C578.278 132.35 578.262 132.45 578.262 132.45C578.262 132.45 578.262 132.633 578.262 133C578.262 133.367 578.378 133.717 578.612 134.05C578.878 134.383 579.345 134.533 580.012 134.5C580.712 134.433 581.462 134.117 582.262 133.55C583.062 133.017 583.662 132.2 584.062 131.1C584.495 130 584.462 128.633 583.962 127C583.962 127 583.645 127.05 583.012 127.15C582.378 127.25 581.545 127.25 580.512 127.15C579.512 127.083 578.428 126.8 577.262 126.3C576.128 125.767 575.062 124.883 574.062 123.65ZM611.346 134.15L609.696 113.85C609.696 113.85 609.612 113.717 609.446 113.45C609.312 113.183 609.179 112.85 609.046 112.45C608.912 112.017 608.879 111.6 608.946 111.2C609.012 110.8 609.262 110.467 609.696 110.2C610.062 110 610.729 109.617 611.696 109.05C612.696 108.45 613.912 107.867 615.346 107.3C616.779 106.733 618.312 106.333 619.946 106.1C621.612 105.867 623.279 105.967 624.946 106.4C626.646 106.8 628.246 107.717 629.746 109.15C631.212 110.55 632.129 112.1 632.496 113.8C632.862 115.5 632.829 117.167 632.396 118.8C631.996 120.433 631.312 121.867 630.346 123.1C629.412 124.333 628.346 125.2 627.146 125.7C625.512 126.367 624.112 126.783 622.946 126.95C621.779 127.083 620.879 127.117 620.246 127.05C619.612 127.017 619.296 127 619.296 127L619.796 134.55C619.796 134.55 619.796 134.717 619.796 135.05C619.796 135.383 619.696 135.767 619.496 136.2C619.329 136.633 618.962 137 618.396 137.3C617.829 137.633 616.996 137.8 615.896 137.8C614.429 137.767 613.362 137.533 612.696 137.1C612.062 136.667 611.679 136.167 611.546 135.6C611.412 135.033 611.346 134.55 611.346 134.15ZM617.746 111.6L618.846 122.45C618.846 122.45 619.129 122.45 619.696 122.45C620.262 122.45 620.896 122.35 621.596 122.15C622.329 121.95 622.962 121.567 623.496 121C624.029 120.433 624.262 119.583 624.196 118.45C624.129 116.95 623.962 115.617 623.696 114.45C623.429 113.25 623.029 112.333 622.496 111.7C621.962 111.067 621.229 110.833 620.296 111C619.362 111.167 618.712 111.3 618.346 111.4C618.012 111.467 617.829 111.517 617.796 111.55C617.762 111.583 617.746 111.6 617.746 111.6ZM655.932 111.9C655.832 113.567 655.365 114.917 654.532 115.95C653.698 116.95 652.682 117.717 651.482 118.25C650.315 118.75 649.148 119.1 647.982 119.3C646.815 119.467 645.832 119.55 645.032 119.55C644.265 119.55 643.882 119.55 643.882 119.55C644.082 120.717 644.365 121.55 644.732 122.05C645.098 122.55 645.498 122.833 645.932 122.9C646.398 122.967 646.832 122.933 647.232 122.8C647.632 122.633 647.948 122.45 648.182 122.25C648.448 122.05 648.582 121.95 648.582 121.95C648.582 121.95 648.765 121.8 649.132 121.5C649.498 121.2 650.065 120.917 650.832 120.65C651.632 120.35 652.632 120.2 653.832 120.2C655.198 120.2 656.115 120.383 656.582 120.75C657.082 121.083 657.315 121.483 657.282 121.95C657.282 122.383 657.182 122.783 656.982 123.15C656.815 123.483 656.732 123.65 656.732 123.65C656.732 123.65 656.582 123.817 656.282 124.15C656.015 124.45 655.515 124.817 654.782 125.25C654.048 125.683 653.032 126.083 651.732 126.45C650.432 126.783 648.765 126.967 646.732 127C644.765 127.033 643.115 126.767 641.782 126.2C640.448 125.633 639.348 124.9 638.482 124C637.615 123.067 636.948 122.1 636.482 121.1C636.048 120.067 635.732 119.117 635.532 118.25C635.365 117.35 635.282 116.65 635.282 116.15C635.282 115.65 635.315 115 635.382 114.2C635.482 113.4 635.698 112.567 636.032 111.7C636.398 110.8 636.948 109.95 637.682 109.15C638.415 108.35 639.415 107.7 640.682 107.2C641.982 106.7 643.632 106.433 645.632 106.4C648.132 106.367 650.082 106.583 651.482 107.05C652.882 107.517 653.898 108.083 654.532 108.75C655.165 109.417 655.548 110.05 655.682 110.65C655.848 111.25 655.932 111.667 655.932 111.9ZM643.182 116.1C645.215 115.933 646.732 115.5 647.732 114.8C648.732 114.1 649.315 113.317 649.482 112.45C649.648 111.583 649.482 110.85 648.982 110.25C648.515 109.617 647.798 109.333 646.832 109.4C645.865 109.433 645.132 109.8 644.632 110.5C644.132 111.167 643.782 111.95 643.582 112.85C643.382 113.717 643.265 114.483 643.232 115.15C643.198 115.783 643.182 116.1 643.182 116.1ZM663.004 123.6C663.004 123.233 662.954 122.6 662.854 121.7C662.754 120.8 662.621 119.783 662.454 118.65C662.321 117.483 662.171 116.333 662.004 115.2C661.837 114.033 661.654 113 661.454 112.1C661.287 111.167 661.137 110.5 661.004 110.1C660.671 109.1 660.854 108.4 661.554 108C662.287 107.567 663.304 107.283 664.604 107.15C665.904 107.017 666.837 107.117 667.404 107.45C668.004 107.75 668.304 107.9 668.304 107.9C668.804 107.4 669.621 107.05 670.754 106.85C671.921 106.65 673.137 106.567 674.404 106.6C676.037 106.633 677.221 106.883 677.954 107.35C678.687 107.817 679.054 108.317 679.054 108.85C679.054 109.25 679.004 109.55 678.904 109.75C678.804 109.95 678.404 110.15 677.704 110.35C677.037 110.517 675.821 110.817 674.054 111.25C673.021 111.483 672.254 112.05 671.754 112.95C671.254 113.817 670.937 114.833 670.804 116C670.704 117.133 670.704 118.267 670.804 119.4C670.904 120.5 671.021 121.433 671.154 122.2C671.287 122.933 671.354 123.333 671.354 123.4C671.354 123.467 671.371 123.7 671.404 124.1C671.471 124.467 671.421 124.883 671.254 125.35C671.121 125.783 670.771 126.167 670.204 126.5C669.637 126.833 668.737 127 667.504 127C666.271 127 665.337 126.833 664.704 126.5C664.071 126.133 663.637 125.733 663.404 125.3C663.171 124.867 663.037 124.483 663.004 124.15C663.004 123.783 663.004 123.6 663.004 123.6ZM699.202 123.65C699.202 123.617 699.069 123.417 698.802 123.05C698.569 122.65 698.286 122 697.952 121.1C697.619 120.167 697.302 118.883 697.002 117.25C696.702 115.583 696.469 113.483 696.302 110.95C696.236 109.617 696.419 108.667 696.852 108.1C697.319 107.533 697.902 107.183 698.602 107.05C699.302 106.883 699.969 106.8 700.602 106.8C700.602 106.8 700.786 106.8 701.152 106.8C701.552 106.767 702.002 106.8 702.502 106.9C703.002 106.967 703.436 107.183 703.802 107.55C704.202 107.883 704.419 108.417 704.452 109.15C704.486 109.75 704.519 110.567 704.552 111.6C704.586 112.633 704.636 113.75 704.702 114.95C704.802 116.117 704.952 117.25 705.152 118.35C705.352 119.45 705.602 120.367 705.902 121.1C706.236 121.8 706.652 122.183 707.152 122.25C707.652 122.317 707.986 122.033 708.152 121.4C708.319 120.733 708.369 119.9 708.302 118.9C708.269 117.9 708.169 116.9 708.002 115.9C707.869 114.867 707.736 114 707.602 113.3C707.469 112.6 707.402 112.25 707.402 112.25C707.402 112.25 707.336 112.05 707.202 111.65C707.069 111.217 707.019 110.733 707.052 110.2C707.086 109.667 707.319 109.183 707.752 108.75C708.186 108.317 708.952 108.083 710.052 108.05C711.552 107.983 712.669 108.133 713.402 108.5C714.169 108.867 714.686 109.333 714.952 109.9C715.252 110.467 715.436 111.05 715.502 111.65C715.569 111.983 715.686 112.783 715.852 114.05C716.052 115.283 716.269 116.75 716.502 118.45C716.736 120.117 716.919 121.85 717.052 123.65C717.186 125.417 717.236 127.033 717.202 128.5C717.169 129.967 716.969 131.083 716.602 131.85C716.036 133.083 715.252 134.217 714.252 135.25C713.286 136.317 711.986 137.133 710.352 137.7C708.752 138.3 706.702 138.533 704.202 138.4C702.336 138.3 700.836 138 699.702 137.5C698.569 137.033 697.719 136.517 697.152 135.95C696.586 135.417 696.202 134.933 696.002 134.5C695.836 134.1 695.752 133.9 695.752 133.9C695.752 133.9 695.686 133.717 695.552 133.35C695.452 132.983 695.436 132.55 695.502 132.05C695.602 131.583 695.919 131.167 696.452 130.8C696.986 130.467 697.919 130.317 699.252 130.35C700.586 130.383 701.552 130.5 702.152 130.7C702.752 130.933 703.136 131.183 703.302 131.45C703.469 131.717 703.519 131.95 703.452 132.15C703.419 132.35 703.402 132.45 703.402 132.45C703.402 132.45 703.402 132.633 703.402 133C703.402 133.367 703.519 133.717 703.752 134.05C704.019 134.383 704.486 134.533 705.152 134.5C705.852 134.433 706.602 134.117 707.402 133.55C708.202 133.017 708.802 132.2 709.202 131.1C709.636 130 709.602 128.633 709.102 127C709.102 127 708.786 127.05 708.152 127.15C707.519 127.25 706.686 127.25 705.652 127.15C704.652 127.083 703.569 126.8 702.402 126.3C701.269 125.767 700.202 124.883 699.202 123.65ZM740.498 111.9C740.398 113.567 739.931 114.917 739.098 115.95C738.265 116.95 737.248 117.717 736.048 118.25C734.881 118.75 733.715 119.1 732.548 119.3C731.381 119.467 730.398 119.55 729.598 119.55C728.831 119.55 728.448 119.55 728.448 119.55C728.648 120.717 728.931 121.55 729.298 122.05C729.665 122.55 730.065 122.833 730.498 122.9C730.965 122.967 731.398 122.933 731.798 122.8C732.198 122.633 732.515 122.45 732.748 122.25C733.015 122.05 733.148 121.95 733.148 121.95C733.148 121.95 733.331 121.8 733.698 121.5C734.065 121.2 734.631 120.917 735.398 120.65C736.198 120.35 737.198 120.2 738.398 120.2C739.765 120.2 740.681 120.383 741.148 120.75C741.648 121.083 741.881 121.483 741.848 121.95C741.848 122.383 741.748 122.783 741.548 123.15C741.381 123.483 741.298 123.65 741.298 123.65C741.298 123.65 741.148 123.817 740.848 124.15C740.581 124.45 740.081 124.817 739.348 125.25C738.615 125.683 737.598 126.083 736.298 126.45C734.998 126.783 733.331 126.967 731.298 127C729.331 127.033 727.681 126.767 726.348 126.2C725.015 125.633 723.915 124.9 723.048 124C722.181 123.067 721.515 122.1 721.048 121.1C720.615 120.067 720.298 119.117 720.098 118.25C719.931 117.35 719.848 116.65 719.848 116.15C719.848 115.65 719.881 115 719.948 114.2C720.048 113.4 720.265 112.567 720.598 111.7C720.965 110.8 721.515 109.95 722.248 109.15C722.981 108.35 723.981 107.7 725.248 107.2C726.548 106.7 728.198 106.433 730.198 106.4C732.698 106.367 734.648 106.583 736.048 107.05C737.448 107.517 738.465 108.083 739.098 108.75C739.731 109.417 740.115 110.05 740.248 110.65C740.415 111.25 740.498 111.667 740.498 111.9ZM727.748 116.1C729.781 115.933 731.298 115.5 732.298 114.8C733.298 114.1 733.881 113.317 734.048 112.45C734.215 111.583 734.048 110.85 733.548 110.25C733.081 109.617 732.365 109.333 731.398 109.4C730.431 109.433 729.698 109.8 729.198 110.5C728.698 111.167 728.348 111.95 728.148 112.85C727.948 113.717 727.831 114.483 727.798 115.15C727.765 115.783 727.748 116.1 727.748 116.1ZM755.57 106.35C757.237 106.317 758.654 106.467 759.82 106.8C760.987 107.1 761.954 107.467 762.72 107.9C763.487 108.333 764.087 108.717 764.52 109.05C764.954 109.383 765.27 109.55 765.47 109.55C765.837 109.583 766.104 109.767 766.27 110.1C766.437 110.4 766.52 110.55 766.52 110.55C766.52 110.55 766.57 110.883 766.67 111.55C766.77 112.217 766.887 113.067 767.02 114.1C767.187 115.133 767.337 116.217 767.47 117.35C767.604 118.483 767.72 119.55 767.82 120.55C767.92 121.55 767.97 122.333 767.97 122.9C767.97 123.833 767.904 124.583 767.77 125.15C767.67 125.717 767.337 126.15 766.77 126.45C766.204 126.717 765.27 126.9 763.97 127C763.004 127.067 762.304 127.05 761.87 126.95C761.437 126.85 761.17 126.733 761.07 126.6C760.97 126.467 760.92 126.4 760.92 126.4C760.62 126.633 760.12 126.8 759.42 126.9C758.754 126.967 758.12 127 757.52 127C756.92 127 756.62 127 756.62 127C756.62 127 756.237 126.95 755.47 126.85C754.704 126.717 753.754 126.467 752.62 126.1C751.52 125.7 750.404 125.117 749.27 124.35C748.17 123.55 747.254 122.5 746.52 121.2C745.787 119.867 745.437 118.217 745.47 116.25C745.504 114.283 745.87 112.683 746.57 111.45C747.27 110.183 748.12 109.2 749.12 108.5C750.12 107.8 751.104 107.3 752.07 107C753.07 106.7 753.904 106.517 754.57 106.45C755.237 106.383 755.57 106.35 755.57 106.35ZM759.32 111.5C759.154 111.267 758.787 111.017 758.22 110.75C757.687 110.45 757.17 110.2 756.67 110C756.204 109.8 755.97 109.733 755.97 109.8C755.97 109.833 755.787 110.117 755.42 110.65C755.087 111.15 754.737 111.9 754.37 112.9C754.037 113.867 753.854 115.033 753.82 116.4C753.787 117.767 753.97 118.95 754.37 119.95C754.77 120.95 755.254 121.717 755.82 122.25C756.42 122.783 756.97 123.05 757.47 123.05C757.837 123.05 758.187 122.883 758.52 122.55C758.854 122.183 759.137 121.783 759.37 121.35C759.604 120.883 759.787 120.483 759.92 120.15C760.054 119.817 760.12 119.65 760.12 119.65L759.32 111.5ZM773.326 123.6C773.326 123.233 773.276 122.6 773.176 121.7C773.076 120.8 772.943 119.783 772.776 118.65C772.643 117.483 772.493 116.333 772.326 115.2C772.16 114.033 771.976 113 771.776 112.1C771.61 111.167 771.46 110.5 771.326 110.1C770.993 109.1 771.176 108.4 771.876 108C772.61 107.567 773.626 107.283 774.926 107.15C776.226 107.017 777.16 107.117 777.726 107.45C778.326 107.75 778.626 107.9 778.626 107.9C779.126 107.4 779.943 107.05 781.076 106.85C782.243 106.65 783.46 106.567 784.726 106.6C786.36 106.633 787.543 106.883 788.276 107.35C789.01 107.817 789.376 108.317 789.376 108.85C789.376 109.25 789.326 109.55 789.226 109.75C789.126 109.95 788.726 110.15 788.026 110.35C787.36 110.517 786.143 110.817 784.376 111.25C783.343 111.483 782.576 112.05 782.076 112.95C781.576 113.817 781.26 114.833 781.126 116C781.026 117.133 781.026 118.267 781.126 119.4C781.226 120.5 781.343 121.433 781.476 122.2C781.61 122.933 781.676 123.333 781.676 123.4C781.676 123.467 781.693 123.7 781.726 124.1C781.793 124.467 781.743 124.883 781.576 125.35C781.443 125.783 781.093 126.167 780.526 126.5C779.96 126.833 779.06 127 777.826 127C776.593 127 775.66 126.833 775.026 126.5C774.393 126.133 773.96 125.733 773.726 125.3C773.493 124.867 773.36 124.483 773.326 124.15C773.326 123.783 773.326 123.6 773.326 123.6Z" fill="white"/>
</svg>
