<svg width="188" height="24" viewBox="0 0 188 24" fill="none" xmlns="http://www.w3.org/2000/svg">
<path d="M13.7302 3.50997L15.4902 7.02997C15.7302 7.51997 16.3702 7.98997 16.9102 8.07997L20.1002 8.60997C22.1402 8.94997 22.6202 10.43 21.1502 11.89L18.6702 14.37C18.2502 14.79 18.0202 15.6 18.1502 16.18L18.8602 19.25C19.4202 21.68 18.1302 22.62 15.9802 21.35L12.9902 19.58C12.4502 19.26 11.5602 19.26 11.0102 19.58L8.02015 21.35C5.88015 22.62 4.58015 21.67 5.14015 19.25L5.85015 16.18C5.98015 15.6 5.75015 14.79 5.33015 14.37L2.85015 11.89C1.39015 10.43 1.86015 8.94997 3.90015 8.60997L7.09015 8.07997C7.62015 7.98997 8.26015 7.51997 8.50015 7.02997L10.2602 3.50997C11.2202 1.59997 12.7802 1.59997 13.7302 3.50997Z" fill="#FFB444"/>
<path d="M54.7302 3.50997L56.4902 7.02997C56.7302 7.51997 57.3702 7.98997 57.9102 8.07997L61.1002 8.60997C63.1402 8.94997 63.6202 10.43 62.1502 11.89L59.6702 14.37C59.2502 14.79 59.0202 15.6 59.1502 16.18L59.8602 19.25C60.4202 21.68 59.1302 22.62 56.9802 21.35L53.9902 19.58C53.4502 19.26 52.5602 19.26 52.0102 19.58L49.0202 21.35C46.8802 22.62 45.5802 21.67 46.1402 19.25L46.8502 16.18C46.9802 15.6 46.7502 14.79 46.3302 14.37L43.8502 11.89C42.3902 10.43 42.8602 8.94997 44.9002 8.60997L48.0902 8.07997C48.6202 7.98997 49.2602 7.51997 49.5002 7.02997L51.2602 3.50997C52.2202 1.59997 53.7802 1.59997 54.7302 3.50997Z" fill="#FFB444"/>
<path d="M95.7302 3.50997L97.4902 7.02997C97.7302 7.51997 98.3702 7.98997 98.9102 8.07997L102.1 8.60997C104.14 8.94997 104.62 10.43 103.15 11.89L100.67 14.37C100.25 14.79 100.02 15.6 100.15 16.18L100.86 19.25C101.42 21.68 100.13 22.62 97.9802 21.35L94.9902 19.58C94.4502 19.26 93.5602 19.26 93.0102 19.58L90.0202 21.35C87.8802 22.62 86.5802 21.67 87.1402 19.25L87.8502 16.18C87.9802 15.6 87.7502 14.79 87.3302 14.37L84.8502 11.89C83.3902 10.43 83.8602 8.94997 85.9002 8.60997L89.0902 8.07997C89.6202 7.98997 90.2602 7.51997 90.5002 7.02997L92.2602 3.50997C93.2202 1.59997 94.7802 1.59997 95.7302 3.50997Z" fill="#FFB444"/>
<path d="M136.73 3.50997L138.49 7.02997C138.73 7.51997 139.37 7.98997 139.91 8.07997L143.1 8.60997C145.14 8.94997 145.62 10.43 144.15 11.89L141.67 14.37C141.25 14.79 141.02 15.6 141.15 16.18L141.86 19.25C142.42 21.68 141.13 22.62 138.98 21.35L135.99 19.58C135.45 19.26 134.56 19.26 134.01 19.58L131.02 21.35C128.88 22.62 127.58 21.67 128.14 19.25L128.85 16.18C128.98 15.6 128.75 14.79 128.33 14.37L125.85 11.89C124.39 10.43 124.86 8.94997 126.9 8.60997L130.09 8.07997C130.62 7.98997 131.26 7.51997 131.5 7.02997L133.26 3.50997C134.22 1.59997 135.78 1.59997 136.73 3.50997Z" fill="#FFB444"/>
<path d="M177.73 3.50997L179.49 7.02997C179.73 7.51997 180.37 7.98997 180.91 8.07997L184.1 8.60997C186.14 8.94997 186.62 10.43 185.15 11.89L182.67 14.37C182.25 14.79 182.02 15.6 182.15 16.18L182.86 19.25C183.42 21.68 182.13 22.62 179.98 21.35L176.99 19.58C176.45 19.26 175.56 19.26 175.01 19.58L172.02 21.35C169.88 22.62 168.58 21.67 169.14 19.25L169.85 16.18C169.98 15.6 169.75 14.79 169.33 14.37L166.85 11.89C165.39 10.43 165.86 8.94997 167.9 8.60997L171.09 8.07997C171.62 7.98997 172.26 7.51997 172.5 7.02997L174.26 3.50997C175.22 1.59997 176.78 1.59997 177.73 3.50997Z" fill="#FFB444"/>
</svg>
