<svg width="17" height="20" viewBox="0 0 17 20" fill="none" xmlns="http://www.w3.org/2000/svg">
<path fill-rule="evenodd" clip-rule="evenodd" d="M16.894 6.29734V5.59696C16.032 5.60062 15.1867 5.35964 14.4562 4.90201C15.1011 5.61288 15.9544 6.10133 16.894 6.29734ZM12.3551 1.79646C12.3551 1.67158 12.3171 1.54128 12.3008 1.4164V0.99292H8.98891V14.1427C8.98603 14.879 8.69115 15.5841 8.16897 16.1032C7.6468 16.6223 6.93999 16.913 6.20368 16.9116C5.77013 16.9138 5.34223 16.8133 4.95495 16.6184C5.30763 17.0812 5.79637 17.4218 6.35255 17.5926C6.90874 17.7634 7.50444 17.7557 8.05604 17.5707C8.60764 17.3856 9.08743 17.0324 9.42807 16.5608C9.76871 16.0891 9.95309 15.5226 9.95532 14.9408V1.79646H12.3551ZM7.05065 8.85454V8.11072C5.68784 7.92559 4.3025 8.20749 3.12041 8.91049C1.93833 9.61349 1.02919 10.6961 0.541177 11.982C0.0531633 13.2678 0.0150453 14.681 0.433035 15.9913C0.851025 17.3016 1.70048 18.4316 2.84295 19.1973C2.02101 18.3475 1.46437 17.2767 1.24104 16.1157C1.01771 14.9548 1.13736 13.7539 1.58536 12.6598C2.03337 11.5657 2.79034 10.6257 3.76379 9.95479C4.73724 9.28386 5.88503 8.91097 7.06694 8.88168L7.05065 8.85454Z" fill="#69C9D0"/>
</svg>
