<svg width="22" height="18" viewBox="0 0 22 18" fill="none" xmlns="http://www.w3.org/2000/svg">
<path d="M21.1178 2.60632C20.4573 2.89055 19.763 3.08848 19.0519 3.19521C19.3844 3.13822 19.8735 2.53983 20.0682 2.29762C20.3641 1.93228 20.5895 1.51521 20.7331 1.0676C20.7331 1.03436 20.7664 0.986866 20.7331 0.963121C20.7164 0.953976 20.6976 0.949184 20.6785 0.949184C20.6594 0.949184 20.6406 0.953976 20.6239 0.963121C19.8518 1.38124 19.03 1.70037 18.1781 1.91294C18.1484 1.92202 18.1168 1.92283 18.0867 1.9153C18.0566 1.90777 18.0291 1.89218 18.0071 1.8702C17.9408 1.79124 17.8694 1.71668 17.7934 1.64699C17.4459 1.33566 17.0517 1.08086 16.6251 0.891884C16.0493 0.655652 15.4274 0.553345 14.8062 0.59269C14.2035 0.630753 13.6151 0.792408 13.0775 1.0676C12.5482 1.35774 12.083 1.75189 11.7098 2.22639C11.3173 2.71476 11.0339 3.28153 10.8787 3.88858C10.7507 4.466 10.7362 5.06279 10.836 5.64575C10.836 5.74548 10.836 5.75973 10.7505 5.74548C7.36435 5.24683 4.58612 4.0453 2.31604 1.46653C2.21631 1.35255 2.16407 1.35255 2.08333 1.46653C1.09552 2.96725 1.57518 5.34181 2.80995 6.51484C2.97617 6.67156 3.14714 6.82353 3.3276 6.96601C2.76147 6.92581 2.20916 6.7724 1.7034 6.51484C1.60842 6.4531 1.55618 6.48635 1.55143 6.60032C1.53797 6.75834 1.53797 6.91722 1.55143 7.07524C1.65053 7.83253 1.94897 8.54992 2.41625 9.15404C2.88352 9.75816 3.50287 10.2273 4.21094 10.5136C4.38355 10.5875 4.56341 10.6432 4.74759 10.6798C4.22349 10.783 3.68596 10.799 3.15663 10.7273C3.04265 10.7036 2.99991 10.7653 3.04266 10.8745C3.74078 12.7742 5.25574 13.3536 6.36704 13.6765C6.51901 13.7003 6.67098 13.7003 6.84195 13.7382C6.84195 13.7382 6.84195 13.7382 6.81346 13.7667C6.48577 14.3651 5.16076 14.7688 4.55287 14.9778C3.44332 15.3763 2.26034 15.5286 1.08602 15.4242C0.900803 15.3957 0.858061 15.4004 0.81057 15.4242C0.763078 15.4479 0.81057 15.5002 0.86281 15.5477C1.10027 15.7044 1.33772 15.8421 1.58468 15.9751C2.31986 16.3761 3.0971 16.6946 3.90225 16.9249C8.07197 18.0742 12.7641 17.2289 15.8938 14.1182C18.3538 11.6771 19.2182 8.31001 19.2182 4.93813C19.2182 4.80991 19.3749 4.73392 19.4651 4.66743C20.0875 4.1825 20.6362 3.6098 21.0941 2.96725C21.1733 2.87147 21.214 2.74952 21.208 2.62531C21.208 2.55408 21.208 2.56832 21.1178 2.60632Z" fill="#33CCFF"/>
</svg>
